<?xml version="1.0" encoding="UTF-8"?>
<svg width="300px" height="900px" viewBox="0 0 300 900" version="1.1" xmlns="http://www.w3.org/2000/svg" xmlns:xlink="http://www.w3.org/1999/xlink">
    <title>1080</title>
    <g id="1080" stroke="none" stroke-width="1" fill="none" fill-rule="evenodd">
        <path d="M-161.160089,588.688525 L-161.160089,303.442623 L-206.594151,303.442623 L-293,365.117412 L-265.820695,407.113075 L-217.952666,371.20374 L-217.952666,588.688525 L-161.160089,588.688525 Z M-57.3063658,600 C-35.1125737,595.807548 -14.5765477,588.200279 4.30170924,577.178192 C23.1799662,566.156106 39.2839979,552.665882 52.6138076,536.707521 C65.9436173,520.749159 76.3638728,502.356475 83.8745771,481.529461 C91.3852815,460.702448 95.1406337,438.658274 95.1406337,415.396935 C95.1406337,405.794872 94.2948326,396.530907 92.6032336,387.605045 C90.9116345,378.679182 88.4080643,370.429521 85.0925292,362.856062 C81.7769941,355.282604 77.8186499,348.250106 73.2174966,341.758569 C68.6163434,335.267033 63.3723841,329.519319 57.4856158,324.515426 C51.5988476,319.511532 45.2384323,315.251461 38.4043669,311.735214 C31.5703015,308.218966 24.1949262,305.547968 16.2782378,303.722223 C8.36154944,301.896479 0.208036009,300.983607 -8.18229937,300.983607 C-22.3917401,300.983607 -35.7892127,303.316502 -48.3747173,307.982294 C-60.960222,312.648086 -71.8202945,319.105811 -80.9549349,327.355473 C-90.0895754,335.605135 -97.2957917,345.64673 -102.573584,357.480259 C-107.851376,369.313788 -110.490272,382.127811 -110.490272,395.922326 C-110.490272,407.417756 -109.001665,418.067933 -106.024448,427.872856 C-103.047231,437.67778 -98.8858948,446.197921 -93.5404395,453.433281 C-88.1949843,460.66864 -81.868399,466.889694 -74.5606866,472.096448 C-67.2529743,477.303202 -59.2686229,481.19136 -50.6076294,483.760927 C-41.946636,486.330495 -32.8119955,487.615277 -23.2037081,487.615277 C-3.85180419,487.615277 13.8085007,483.152346 29.7772065,474.226483 L30.1831905,474.429344 C22.0635101,494.580153 9.37650949,511.079477 -7.87781135,523.927308 C-25.1321322,536.77514 -47.1567653,546.918165 -73.9517106,554.356385 L-57.3063658,600 Z M-9.30216506,440.163934 C-23.54144,440.163934 -34.865055,436.127757 -43.2730068,428.055399 C-51.6809586,419.98304 -55.8849361,409.57038 -55.8849361,396.817411 C-55.8849361,384.200113 -51.4775404,373.516111 -42.6627522,364.765404 C-33.8479639,356.014698 -22.3209308,351.639344 -8.08165577,351.639344 C6.02200603,351.639344 17.6507483,357.100055 26.8045679,368.021481 C35.9583876,378.942907 40.5352974,393.222158 40.5352974,410.859243 L40.5352974,414.318824 C34.432751,421.916336 26.9740821,428.123232 18.1592938,432.939514 C9.3445056,437.755795 0.190685967,440.163934 -9.30216506,440.163934 Z M231.492888,592.622951 C250.8959,592.622951 268.467161,589.343237 284.206667,582.783811 C299.946173,576.224386 312.463151,566.621925 321.757602,553.976434 C331.052053,541.330944 335.699277,526.758196 335.699277,510.258197 C335.699277,491.594262 331.018131,475.770492 321.655838,462.786885 C312.293545,449.803279 300.081859,440.538933 285.02078,434.993852 L285.02078,434.385246 C294.654442,430.192622 302.999094,422.618852 310.054736,411.663934 C317.110378,400.709016 320.638198,388.469263 320.638198,374.944672 C320.638198,359.661886 316.771164,346.340164 309.037096,334.979508 C301.303028,323.618852 290.753489,315.030739 277.388476,309.215164 C264.023462,303.399589 248.724935,300.491803 231.492888,300.491803 C214.667897,300.491803 199.64074,303.264345 186.411413,308.809426 C173.182086,314.354507 162.598625,322.84119 154.661029,334.269467 C146.723433,345.697745 142.754635,359.256149 142.754635,374.944672 C142.754635,388.469263 146.316377,400.742829 153.43986,411.765369 C160.563344,422.787909 168.874074,430.327869 178.372053,434.385246 L178.372053,434.993852 C163.44666,440.538933 151.336738,449.803279 142.042287,462.786885 C132.747835,475.770492 128.100611,491.594262 128.100611,510.258197 C128.100611,526.487705 132.57823,540.891393 141.533466,553.469262 C150.488703,566.047131 162.802153,575.717214 178.473817,582.479508 C194.145481,589.241802 211.818504,592.622951 231.492888,592.622951 Z M232.290482,412.622951 C225.259896,412.622951 219.006732,411.274704 213.530988,408.578214 C208.055244,405.881723 203.76253,402.072927 200.65285,397.151831 C197.543169,392.230735 195.988327,386.669221 195.988327,380.46729 C195.988327,374.535009 197.509367,369.074614 200.551447,364.086104 C203.593527,359.097594 207.92004,355.120271 213.530988,352.154129 C219.141937,349.187987 225.3951,347.704918 232.290482,347.704918 C242.701155,347.704918 251.387985,350.805882 258.350967,357.007814 C265.313949,363.209745 268.795442,371.029568 268.795442,380.46729 C268.795442,389.905011 265.415352,397.623716 258.655175,403.62341 C251.894998,409.623105 243.106765,412.622951 232.290482,412.622951 Z M231.899944,544.918033 C218.862452,544.918033 207.89602,540.941623 199.000646,532.988804 C190.105273,525.035986 185.657588,515.145942 185.657588,503.318673 C185.657588,491.083567 189.969468,481.023592 198.593225,473.138745 C207.216982,465.253897 218.319222,461.311475 231.899944,461.311475 C240.999029,461.311475 249.045606,463.112754 256.039677,466.715314 C263.033748,470.317874 268.466037,475.313875 272.336543,481.703319 C276.207048,488.092762 278.142301,495.297882 278.142301,503.318673 C278.142301,514.738105 273.796471,524.52619 265.104809,532.682927 C256.413146,540.839664 245.344859,544.918033 231.899944,544.918033 Z M480.72022,592.131148 C503.422106,592.131148 523.218692,586.011269 540.109975,573.771516 C557.001258,561.531763 569.872417,544.456967 578.723451,522.547131 C587.574485,500.637295 592,475.143442 592,446.065574 C592,423.344262 589.297396,402.786886 583.892184,384.393443 C578.486972,366 570.919677,350.649591 561.190298,338.342213 C551.460918,326.034835 539.738368,316.567624 526.022644,309.940574 C512.30692,303.313524 497.206112,300 480.72022,300 C463.693805,300 448.22139,303.516392 434.302971,310.54918 C420.384552,317.581968 408.695785,327.48873 399.236665,340.269467 C389.777545,353.050205 382.48051,368.468238 377.345561,386.523566 C372.210611,404.578893 369.643135,424.426228 369.643135,446.065574 C369.643135,468.786885 372.34574,489.344261 377.750951,507.737705 C383.156163,526.131149 390.723458,541.481556 400.452837,553.788934 C410.182217,566.096313 421.870987,575.563524 435.519143,582.190574 C449.1673,588.817624 464.234328,592.131148 480.72022,592.131148 Z M481.415256,540 C470.290753,540 460.658563,536.21635 452.518684,528.649052 C444.378804,521.081755 438.206063,510.271326 434.000458,496.217773 C429.794852,482.16422 427.692051,465.610754 427.692051,446.557377 C427.692051,416.693575 432.47423,393.653853 442.038589,377.438213 C451.602947,361.222574 464.728503,353.114754 481.415256,353.114754 C498.237675,353.114754 511.36323,361.425269 520.791923,378.0463 C530.220616,394.66733 534.934964,417.504357 534.934964,446.557377 C534.934964,476.421179 530.220616,499.460901 520.791923,515.676541 C511.36323,531.89218 498.237675,540 481.415256,540 Z" id="1980-copy-2" fill="#FFFFFF" fill-rule="nonzero" transform="translate(149.500000, 450.000000) rotate(-90.000000) translate(-149.500000, -450.000000) "></path>
    </g>
</svg>