<svg height="900" viewBox="0 0 300 900" width="300" xmlns="http://www.w3.org/2000/svg"><path d="m-161.160089 588.688525v-285.245902h-45.434062l-86.405849 61.674789 27.179305 41.995663 47.868029-35.909335v217.484785zm103.8537232 11.311475c22.1937921-4.192452 42.7298181-11.799721 61.60807504-22.821808 18.87825696-11.022086 34.98228866-24.51231 48.31209836-40.470671 13.3298097-15.958362 23.7500652-34.351046 31.2607695-55.17806 7.5107044-20.827013 11.2660566-42.871187 11.2660566-66.132526 0-9.602063-.8458011-18.866028-2.5374001-27.79189-1.6915991-8.925863-4.1951693-17.175524-7.5107044-24.748983-3.3155351-7.573458-7.2738793-14.605956-11.8750326-21.097493-4.6011532-6.491536-9.8451125-12.23925-15.7318808-17.243143-5.8867682-5.003894-12.2471835-9.263965-19.0812489-12.780212-6.8340654-3.516248-14.2094407-6.187246-22.1261291-8.012991-7.91668836-1.825744-16.07020179-2.738616-24.46053717-2.738616-14.20944073 0-27.60691333 2.332895-40.19241793 6.998687-12.5855047 4.665792-23.4455772 11.123517-32.5802176 19.373179-9.1346405 8.249662-16.3408568 18.291257-21.6186491 30.124786-5.277792 11.833529-7.916688 24.647552-7.916688 38.442067 0 11.49543 1.488607 22.145607 4.465824 31.95053 2.977217 9.804924 7.1385532 18.325065 12.4840085 25.560425 5.3454552 7.235359 11.6720405 13.456413 18.9797529 18.663167 7.3077123 5.206754 15.2920637 9.094912 23.9530572 11.664479 8.6609934 2.569568 17.7956339 3.85435 27.4039213 3.85435 19.35190391 0 37.0122088-4.462931 52.9809146-13.388794l.405984.202861c-8.1196804 20.150809-20.80668101 36.650133-38.06100185 49.497964-17.25432085 12.847832-39.27895395 22.990857-66.07389925 30.429077zm48.00420074-159.836066c-14.23927494 0-25.56288994-4.036177-33.97084174-12.108535-8.4079518-8.072359-12.6119293-18.485019-12.6119293-31.237988 0-12.617298 4.4073957-23.3013 13.2221839-32.052007 8.8147883-8.750706 20.3418214-13.12606 34.58109643-13.12606 14.1036618 0 25.73240407 5.460711 34.88622367 16.382137 9.1538197 10.921426 13.7307295 25.200677 13.7307295 42.837762v3.459581c-6.1025464 7.597512-13.5612153 13.804408-22.3760036 18.62069-8.8147882 4.816281-17.96860783 7.22442-27.46145886 7.22442zm240.79505306 152.459017c19.403012 0 36.974273-3.279714 52.713779-9.83914 15.739506-6.559425 28.256484-16.161886 37.550935-28.807377 9.294451-12.64549 13.941675-27.218238 13.941675-43.718237 0-18.663935-4.681146-34.487705-14.043439-47.471312-9.362293-12.983606-21.573979-22.247952-36.635058-27.793033v-.608606c9.633662-4.192624 17.978314-11.766394 25.033956-22.721312s10.583462-23.194671 10.583462-36.719262c0-15.282786-3.867034-28.604508-11.601102-39.965164s-18.283607-19.948769-31.64862-25.764344c-13.365014-5.815575-28.663541-8.723361-45.895588-8.723361-16.824991 0-31.852148 2.772542-45.081475 8.317623s-23.812788 14.031764-31.750384 25.460041c-7.937596 11.428278-11.906394 24.986682-11.906394 40.675205 0 13.524591 3.561742 25.798157 10.685225 36.820697 7.123484 11.02254 15.434214 18.5625 24.932193 22.619877v.608606c-14.925393 5.545081-27.035315 14.809427-36.329766 27.793033-9.294452 12.983607-13.941676 28.807377-13.941676 47.471312 0 16.229508 4.477619 30.633196 13.432855 43.211065 8.955237 12.577869 21.268687 22.247952 36.940351 29.010246s33.344687 10.143443 53.019071 10.143443zm.797594-180c-7.030586 0-13.28375-1.348247-18.759494-4.044737-5.475744-2.696491-9.768458-6.505287-12.878138-11.426383-3.109681-4.921096-4.664523-10.48261-4.664523-16.684541 0-5.932281 1.52104-11.392676 4.56312-16.381186s7.368593-8.965833 12.979541-11.931975c5.610949-2.966142 11.864112-4.449211 18.759494-4.449211 10.410673 0 19.097503 3.100964 26.060485 9.302896 6.962982 6.201931 10.444475 14.021754 10.444475 23.459476 0 9.437721-3.38009 17.156426-10.140267 23.15612-6.760177 5.999695-15.54841 8.999541-26.364693 8.999541zm-.390538 132.295082c-13.037492 0-24.003924-3.97641-32.899298-11.929229-8.895373-7.952818-13.343058-17.842862-13.343058-29.670131 0-12.235106 4.31188-22.295081 12.935637-30.179928 8.623757-7.884848 19.725997-11.82727 33.306719-11.82727 9.099085 0 17.145662 1.801279 24.139733 5.403839s12.42636 8.598561 16.296866 14.988005c3.870505 6.389443 5.805758 13.594563 5.805758 21.615354 0 11.419432-4.34583 21.207517-13.037492 29.364254-8.691663 8.156737-19.75995 12.235106-33.204865 12.235106zm248.820276 47.213115c22.701886 0 42.498472-6.119879 59.389755-18.359632s29.762442-29.314549 38.613476-51.224385 13.276549-47.403689 13.276549-76.481557c0-22.721312-2.702604-43.278688-8.107816-61.672131s-12.972507-33.743852-22.701886-46.05123c-9.72938-12.307378-21.45193-21.774589-35.167654-28.401639s-28.816532-9.940574-45.302424-9.940574c-17.026415 0-32.49883 3.516392-46.417249 10.54918s-25.607186 16.93955-35.066306 29.720287c-9.45912 12.780738-16.756155 28.198771-21.891104 46.254099-5.13495 18.055327-7.702426 37.902662-7.702426 59.542008 0 22.721311 2.702605 43.278687 8.107816 61.672131 5.405212 18.393444 12.972507 33.743851 22.701886 46.051229 9.72938 12.307379 21.41815 21.77459 35.066306 28.40164 13.648157 6.62705 28.715185 9.940574 45.201077 9.940574zm.695036-52.131148c-11.124503 0-20.756693-3.78365-28.896572-11.350948-8.13988-7.567297-14.312621-18.377726-18.518226-32.431279-4.205606-14.053553-6.308407-30.607019-6.308407-49.660396 0-29.863802 4.782179-52.903524 14.346538-69.119164 9.564358-16.215639 22.689914-24.323459 39.376667-24.323459 16.822419 0 29.947974 8.310515 39.376667 24.931546 9.428693 16.62103 14.143041 39.458057 14.143041 68.511077 0 29.863802-4.714348 52.903524-14.143041 69.119164-9.428693 16.215639-22.554248 24.323459-39.376667 24.323459z" fill="#fff" transform="matrix(0 -1 1 0 -300.5 599.5)"/></svg>