<svg height="180" viewBox="0 0 180 180" width="180" xmlns="http://www.w3.org/2000/svg"><path d="m100.074753 75.3546027c1.073491-1.073662 2.812716-1.073662 3.885205 0 1.071987 1.07266 1.071987 2.8116618 0 3.8838208-1.073491 1.07266-2.811714 1.07266-3.885205 0-1.0724889-1.072159-1.0724889-2.8111608 0-3.8838208zm7.183376 7.8684974c3.083095-3.0830478 3.084068-8.0834527 0-11.1679601-3.084068-3.0835343-8.0845502-3.0835343-11.1686186 0-3.0835818 3.0845074-3.0835818 8.0849123 0 11.1679601 3.0840684 3.0845074 8.0845506 3.0845074 11.1686186 0zm-31.2177292-7.8684974c1.0729653-1.073662 2.8121508-1.073662 3.885617 0 1.0714626 1.07266 1.0714626 2.8116618 0 3.8838208-1.0734662 1.07266-2.8126517 1.07266-3.885617 0-1.0724644-1.072159-1.0724644-2.8111608 0-3.8838208zm7.8700363 7.868186c3.0836531-3.0829766 3.0836531-8.083266 0-11.1677021-3.083653-3.0834631-8.0837639-3.0834631-11.1688766 0-3.0831666 3.0844361-3.0831666 8.0847255 0 11.1677021 3.0851127 3.0854091 8.0852236 3.0844361 11.1688766 0zm-6.4963019 13.4189736c1.0736742-1.0731366 2.8126958-1.0731366 3.8843659 0 1.0726722 1.0721345 1.0726722 2.8125996 0 3.8842327-1.0716701 1.072636-2.8106917 1.072636-3.8843659 0-1.0721712-1.0716331-1.0736742-2.8120982 0-3.8842327zm10.9882016-10.301034c1.0718534-1.0723301 2.8111725-1.0723301 3.883527 0 1.0723546 1.0738334 1.0723546 2.8126116 0 3.8854428-1.0723545 1.0718291-2.8116736 1.0718291-3.883527 0-1.074359-1.0728312-1.074359-2.8116094 0-3.8854428zm10.2991916 10.301034c1.0722079-1.0731366 2.8107876-1.0731366 3.8844986 0 1.072709 1.0721345 1.072709 2.8125996 0 3.8842327-1.073711 1.072636-2.8122907 1.072636-3.8844986 0-1.0727089-1.0716331-1.0727089-2.8120982 0-3.8842327zm-13.8120844 7.2220567c2.6127451-2.645863 2.9452419-6.7275329.9970183-9.7397613 2.6571409 1.9270035 6.2565137 1.9270035 8.9131824 0-1.9477514 3.0122284-1.6161992 7.0938983.9974905 9.7397613 2.9934162 3.03136 7.8467368 3.03136 10.8415698 0 2.993888-3.031359 2.993888-7.9476337 0-10.9799499-2.691147-2.7233453-6.8841962-3.0002713-9.8776124-.8269519 1.9477514-3.0112718 1.6157269-7.0938982-.9979628-9.7397616-2.9934162-3.0323162-7.8467365-3.0323162-10.8410973 0-2.6127451 2.6472982-2.9452419 6.7284898-.9960736 9.7397616-2.9957777-2.1723628-7.1869382-1.8963934-9.8776122.8269519-2.9943608 3.0323162-2.9943608 7.9485909 0 10.9799499 2.9943608 3.03136 7.8476811 3.03136 10.8410973 0zm-25.9176426-3.220042c-.8378751-2.3988672-1.3808218-4.9298733-1.5898262-7.5536482h5.9124998v.7471287c0 2.3594968.3325491 4.6416108.954453 6.8051615zm8.710603 7.398906-2.9778675 2.901523c-1.4816942-1.688988-2.7881913-3.529896-3.8890853-5.493562h5.2674953c.4826366.896466 1.0169152 1.76142 1.5994575 2.592039zm1.3733906-40.3588606h21.288266l21.286841-.001419-.000949 25.4935866c0 11.709294-9.530522 21.201692-21.285892 21.201692-11.7567949 0-21.288266-9.492398-21.288266-21.201692zm17.8540772-10.3018482-.026761 5.4935623h-14.3938398c4.2169133-3.0815539 9.1332437-5.0367503 14.4206008-5.4935623zm6.2071158 0c5.2765069.4717293 10.182461 2.4250073 14.393743 5.4935623h-14.4206012zm20.80018 48.0686698h5.267382c-1.101454 1.963666-2.407077 3.804574-3.889358 5.493562l-2.977594-2.901523c.5821-.830619 1.116416-1.695573 1.59957-2.592039zm2.788294-11.6132522v-.747263h5.912565c-.208526 2.6242466-.752365 5.1543498-1.590648 7.5536482h-5.276305c.622791-2.16394.954388-4.4464642.954388-6.8063852zm-.267693-13.7944733h4.518564c.875266 2.4002246 1.443727 4.9316832 1.661694 7.553648h-6.180258zm0-8.2403434c1.003897 1.0951565 1.920889 2.2423282 2.746781 3.4334764h-2.746781zm-23.3476392 50.8154509.0237221-2.832606c6.1777272-.604036 11.7301381-3.342618 15.9128311-7.467823l2.604219 2.604668c-5.069427 4.338422-11.488172 7.143486-18.5407722 7.695761zm-6.2024802 0c-7.042685-.543602-13.455571-3.348969-18.5185499-7.694937l2.5948476-2.605492c4.1877853 4.144669 9.7552653 6.888791 15.9459249 7.473698zm-27.8438502-42.5751075h4.5184334v7.553648h-6.1802576c.2184695-2.6224361.7860045-5.1543498 1.6618242-7.553648zm4.5184334-8.2403434v3.4334764h-2.7467812c.8240943-1.1914764 1.7416858-2.3389641 2.7467812-3.4334764zm.3006753-8.3881415c-6.9657657 6.8513577-11.2877998 16.3869342-11.2877998 26.9298671 0 20.8580903 16.9097797 37.7672873 37.7694316 37.7672873 20.8582221 0 37.7670491-16.909197 37.7670491-37.7672873 0-10.5429329-4.319175-20.0785094-11.286847-26.9298671l-.545615-.527504c-6.765627-6.3934251-15.891933-10.3118223-25.9345871-10.3118223-10.0436067 0-19.1694363 3.9183972-25.9360167 10.3118223zm-39.522348 6.8858878c.8444488-2.6445305 2.3398368-4.648811 4.1982947-6.0513944l2.7230241 3.4816745c-1.228594.8821221-2.214343 2.1589502-2.7565529 3.8552683-2.1951837 6.880277 5.2017662 11.2335174 10.8729368 9.8245086l2.8964163 3.7001397c-9.1418887 4.1535926-21.4201646-3.882347-17.934119-14.8101967zm42.8536622-40.2498555-.8852084-4.2475144 19.0298859-4.1291318.8842772 4.2484654-7.3405712 1.592699 4.1629476 19.9966933-4.3482779.9432582-4.1634133-19.9966933zm-17.3658951 79.1495551-23.8694171 6.551052-2.4578081-9.393046c-1.3116211-5.018881.1336744-10.1042727 5.4593203-11.5675061 5.5043525-1.509354 9.4169366 2.4104028 10.7655314 7.5637611l.3659456 1.401092-4.0960309 1.008826c-.3588352-1.33798-.8044166-2.729363-1.310673-3.552735-.9944998-1.6176157-2.5123207-2.5036148-4.3813925-1.9899781-2.9925058.8204591-3.2769195 3.4765141-2.5739437 6.1650971l1.2395696 4.73973 7.8128434-2.144846 4.097927-1.213211 7.7782398-2.046779zm15.1072961 17.348403-16.3964507 17.357155-3.5177124-3.019432 12.8989193-13.653404-3.6147726-1.588958 1.8542347-3.712455 6.426636 2.599864zm-10.0111364-62.9861922-16.0832842-19.146326 8.3483332-6.9964276c3.7287685-3.1264102 8.7654138-4.0459708 12.1759724.0143831 2.3844153 2.8387479 2.4386502 6.1353583.4953133 9.2143043l11.9417545 2.76875-4.3474302 3.6418052-10.8724153-2.5601948-1.1504516.966066-2.6392712-3.3109935c1.2953979-1.0883225 2.6507901-2.3247912 3.2032181-3.1681213.9560698-1.4594069 1.1389326-3.0851786-.0350367-4.4851353-1.846386-2.1958225-4.2274416-1.1727035-6.090626.389303l-4.700677 3.9400152 4.7352337 5.6357847 2.7746185 3.3052403 5.7551376 6.8511581zm-21.4732288 2.6965961-2.8503987-3.794407c7.3198552-2.9111582 17.2743322.8938903 18.4525815 9.9119108.4349634 3.3197013-.7627691 7.0636766-3.0681241 9.5926643-.5124093.5616888-1.0520952 1.0636924-1.6146739 1.5073988l-2.6463118-3.5237414c1.1314895-.8749206 2.0433054-2.1190567 2.5747109-3.7712732.354595-1.0979304.456395-2.1500559.3253702-3.1660927-.6872715-5.2962537-6.4694116-7.8650316-11.1731541-6.7564596zm60.9629315-29.6978191 4.1441075-13.5137985 4.3142969 1.3159698-4.0949419 13.3586734c-1.1563412 3.7696808-.2713573 6.8792548 3.7498359 8.1061102 3.950281 1.2046947 6.371695-.7808119 7.512436-4.5019276l4.143162-13.515213 4.314769 1.3159698c-.083676.2753588-3.425058 13.9593705-6.169359 17.6059885-3.63354 4.8253799-10.326704 4.7725714-14.9175579 1.3183273-3.7465266-2.819127-4.300587-7.2366553-2.9967485-11.4900999zm35.7574854 34.554871 26.268306 7.7344195.51281 3.65654-23.128239 14.7034611-.684855-4.9009946 5.598608-3.4981202 3.943264-2.6874113 7.687392-4.5894038-8.684496-2.5227883.503305 3.5816245-3.960849 2.567165-1.039402-7.4299862-6.346673-1.8480724zm-48.2872195 74.9168142c-1.968787 5.785747-7.1701592 11.2192-14.1120036 9.064788-1.5312245-.475643-2.8312009-1.162943-3.857884-2.088064-1.24962-1.127901-2.1741237-2.400644-3.0991163-3.770104l3.9185072-2.620243c1.9795428 3.206621 4.9647461 6.429594 8.9805438 3.443508.7074335-.527039 1.3728219-1.241906 1.987854-2.167962l2.1790127-6.648726c.5969428-2.019848-.3534724-4.205564-3.105472-5.059666-2.3075925-.717203-4.5594507.238289-5.3221296 2.482409-.9152147 2.690328 1.5155798 4.841001 4.1585554 5.020886l-1.5204687 4.275182c-5.9562287-1.10594-10.726394-7.93642-5.5959118-13.56798 5.7860926-6.352968 19.9992979-1.926402 15.3885129 11.635972zm37.8395555-86.7715061c-4.01487-13.1742478 15.423346-23.6684008 23.801459-9.6267147 1.290887 2.1626672 1.764291 4.3234373 1.753501 6.8185672l-.005436.9817371-4.575129-.0294047c.129804-3.7467261-.915312-7.5062575-4.697299-9.2472994-7.271435-3.3497629-16.376835 5.8818857-10.312772 13.0642174 1.281819 1.5205068 3.060426 2.634565 4.99079 3.136816l3.231272-2.69622-4.48064-5.306123 3.290925-2.7431726 7.343973 8.7004671-8.083668 6.7417357c-5.519075-.7773271-10.590515-4.3329228-12.256976-9.7946061zm12.846725 40.0091984 23.008664 8.9812907-1.702635 4.07074-18.97746-7.40745-4.818025 11.522801-4.029777-1.575221zm-38.7418863 58.1287487c-.8775855-.166941-1.7249921-.435848-2.50246-.810516l3.8475801-3.429874c1.3896701.174529 2.9220915-.060231 3.8806333-.465726 4.2049379-1.777066 2.2260589-6.067728-2.7041322-5.554575-1.7824758.185912-4.548403 1.306122-4.3165518 3.508128.0335322.302105.1111352.574333.2246657.818578l-3.5548919 3.093147c-.7238165-.902524-1.2105124-2.002341-1.3484734-3.300874-.2625092-2.47281.8220179-4.377452 2.7060483-5.836287-7.1447531-4.317694-1.1434479-14.090368 8.0477273-12.282001 1.2014107.235709 2.2777939.702384 3.1841219 1.326989l-3.5850712 3.117808c-2.3941988-.848457-6.2666886.315385-6.0017842 2.81428.2831075 2.664886 3.8174011 2.985963 5.8034653 2.117112.9743498-.427786 1.7834338-1.13349 1.9769625-2.123278l4.0003916-3.567884c1.278055 2.25038 1.103209 5.085527-1.345121 7.348713 8.553106 4.188221 2.249532 15.228126-8.3131103 13.22626zm33.6395893-10.80998c-1.405758.816944-2.887003 1.297336-4.438236 1.407658-1.081814.078669-2.140133-.005121-3.158957-.226231l.978831-4.45991c1.39676.421273 2.85051.35238 4.204278-.433842.743372-.434307 1.27878-.974747 1.635718-1.624113 1.68721-3.060166-.190967-7.509836-3.163956-10.126385l1.113809-5.07483c7.311243 4.206681 11.28506 15.617368 2.828513 20.537653zm-9.942297-5.605608-1.113199 4.982118c-7.408596-4.102975-11.057577-15.662916-2.862301-20.505612 2.586204-1.531321 5.240943-1.775424 7.693994-1.145016l-1.005501 4.508733c-1.44755-.503955-2.953844-.479406-4.326495.330721-4.102289 2.425748-2.070236 8.605224 1.613502 11.829056zm-27.5259047 22.836195c-40.70428 0-73.8199788-33.115177-73.8199788-73.8190332 0-40.7048011 33.1156988-73.8204513 73.8199788-73.8204513 40.7042797 0 73.8195057 33.1156502 73.8195057 73.8204513 0 40.7038562-33.115226 73.8190332-73.8195057 73.8190332zm.0000002-153.819742c-44.1123197 0-80.0002365 35.8878682-80.0002365 80.0007096 0 44.1114224 35.8879168 79.9992904 80.0002365 79.9992904 44.1118465 0 79.9997635-35.887868 79.9997635-79.9992904 0-44.1128414-35.887917-80.0007096-79.9997635-80.0007096z" fill="none" stroke="#fff"/></svg>