<svg viewBox="0 0 260 753" xmlns="http://www.w3.org/2000/svg"><g fill="none" fill-rule="nonzero"><path d="m-134.926246 496.5v-239h-38.277724l-72.79603 51.675676 22.898282 35.187055 40.328317-30.087482v182.224751zm118.626292 2.5c16.07336249 0 30.6362857-3.37292 43.6887672-10.118763 13.0524814-6.745843 23.3690739-16.269385 30.9497724-28.570626 7.5806984-12.30124 11.371049-26.161395 11.371049-41.580463 0-9.296792-1.2824492-18.026705-3.8473474-26.18974-2.5648983-8.163036-6.1272561-15.305693-10.6870762-21.427969-4.55982-6.122277-9.9461063-11.394238-16.158859-15.815882-6.2127527-4.421645-13.0809812-7.766223-20.6046828-10.033732s-15.3323927-3.401265-23.42607081-3.401265c-8.54966089 0-18.58126389 1.700633-30.09480629 5.101897l2.7358915-47.107519h89.7714393v-42.855938h-131.3227913l-7.3527083 126.356992 25.4779894 9.353479c10.2595931-8.163036 22.2861152-12.244554 36.079569-12.244554 4.9018064 0 9.77511312.793629 14.61992008 2.380886 4.84480697 1.587256 9.2621335 3.911454 13.25197438 6.972593 3.98984084 3.061138 7.21021484 7.02928 9.66111684 11.904427 2.4509019 4.875147 3.6763541 10.317171 3.6763541 16.326072 0 10.657297-3.8188476 19.61396-11.4565455 26.869993-7.63769797 7.256032-17.21331817 10.884047-28.7268606 10.884047-19.8352133 0-35.3385992-7.369406-46.5101553-22.108222l-34.1986435 27.550246c9.9176066 12.35793 22.0581251 21.739751 36.4215554 28.145468 14.3634303 6.405716 29.9238131 9.608573 46.6811484 9.608573zm209.006483 0c19.002591 0 35.573303-5.132524 49.712134-15.397569 14.138832-10.265046 24.912622-24.58507 32.321371-42.96007s11.113122-39.755788 11.113122-64.142361c0-19.055556-2.262212-36.296295-6.786639-51.722222-4.524428-15.425927-10.858624-28.299768-19.002591-38.621528s-17.956316-18.261573-29.437049-23.819444c-11.480732-5.557872-24.120848-8.336806-37.920348-8.336806-14.251943 0-27.203112 2.949073-38.853511 8.847222s-21.434469 14.206597-29.352216 24.925347-14.025722 23.649306-18.323926 38.791667c-4.298205 15.142361-6.4473079 31.787615-6.4473079 49.935764 0 19.055556 2.2622119 36.296295 6.7866399 51.722222 4.524427 15.425927 10.858623 28.299768 19.00259 38.621528 8.143968 10.32176 17.92804 18.261573 29.352216 23.819444 11.424176 5.557872 24.036016 8.336806 37.835515 8.336806zm1.170943-44c-9.342067 0-17.430929-3.178598-24.266587-9.535792-6.835659-6.357193-12.019366-15.438902-15.551123-27.245119-3.531758-11.806218-5.297636-25.712581-5.297636-41.719089 0-25.088213 4.01595-44.443601 12.047848-58.066161 8.031899-13.622559 19.054398-20.433839 33.067498-20.433839 14.127029 0 25.149528 6.981562 33.067498 20.944685 7.91797 13.963124 11.876957 33.14823 11.876957 57.555315 0 25.088213-3.958987 44.443601-11.876957 58.066161-7.91797 13.622559-18.940469 20.433839-33.067498 20.433839zm219.975901 44c19.002591 0 35.573303-5.132524 49.712134-15.397569 14.138832-10.265046 24.912622-24.58507 32.321371-42.96007s11.113122-39.755788 11.113122-64.142361c0-19.055556-2.262212-36.296295-6.786639-51.722222-4.524428-15.425927-10.858624-28.299768-19.002591-38.621528s-17.956316-18.261573-29.437049-23.819444c-11.480733-5.557872-24.120849-8.336806-37.920348-8.336806-14.251943 0-27.203112 2.949073-38.853511 8.847222s-21.434469 14.206597-29.352216 24.925347-14.025722 23.649306-18.323927 38.791667c-4.298204 15.142361-6.447307 31.787615-6.447307 49.935764 0 19.055556 2.262212 36.296295 6.786639 51.722222 4.524428 15.425927 10.858624 28.299768 19.002591 38.621528s17.92804 18.261573 29.352216 23.819444c11.424175 5.557872 24.036016 8.336806 37.835515 8.336806zm-.830386-44c-9.342067 0-17.430929-3.178598-24.266587-9.535792-6.835659-6.357193-12.019366-15.438902-15.551123-27.245119-3.531758-11.806218-5.297636-25.712581-5.297636-41.719089 0-25.088213 4.01595-44.443601 12.047848-58.066161 8.031899-13.622559 19.054398-20.433839 33.067498-20.433839 14.127029 0 25.149528 6.981562 33.067498 20.944685 7.91797 13.963124 11.876957 33.14823 11.876957 57.555315 0 25.088213-3.958987 44.443601-11.876957 58.066161-7.91797 13.622559-18.940469 20.433839-33.067498 20.433839z" opacity=".2" stroke="#fff" transform="matrix(0 -1 1 0 -246 507)"/><path d="m51.1708053 272.31612v-68.681089h-6.9203992l-19.2504061 14.166086 4.0937573 6.252616 13.6945927-10.307048v58.569435zm35.9178464.68388c4.4186588 0 8.4393133-.936264 12.0619633-2.808793 3.62265-1.872528 6.489905-4.518492 8.601764-7.937892 2.111858-3.4194 3.167788-7.29472 3.167788-11.62596 0-2.247034-.268044-4.380088-.804131-6.399162s-1.28336-3.826471-2.241819-5.422192c-.95846-1.59572-2.111859-3.036753-3.4602-4.323098s-2.842887-2.352873-4.4836387-3.199581c-1.6407522-.846709-3.4033416-1.489882-5.2877698-1.929519s-3.8338364-.659455-5.8482247-.659455c-3.1190531 0-6.5792527.651314-10.3805987 1.953942l1.0721745-19.295185h28.3151544v-7.718074h-36.2102577l-1.9981434 34.731333 4.8735206 1.514306c2.9566027-2.50756 6.9853792-3.76134 12.0863309-3.76134 2.1118587 0 4.1181249.317516 6.0187979.952547 1.900673.635032 3.5820376 1.546872 5.0440937 2.73552 1.4620562 1.188648 2.631701 2.711096 3.508935 4.567341.877234 1.856246 1.31585 3.907886 1.31585 6.15492 0 2.73552-.714783 5.226797-2.144349 7.473831-1.4295655 2.247034-3.3627289 3.997441-5.7994891 5.251221-2.4367603 1.253781-5.1171966 1.88067-8.0413089 1.88067-3.4439548 0-6.5548851-.757153-9.3327918-2.271458-2.7779067-1.514306-4.9628682-3.557804-6.5548852-6.130496l-6.2381063 4.78716c2.3717803 3.582228 5.5720583 6.391021 9.6008355 8.426378 4.0287772 2.035358 8.4149457 3.053036 13.1585055 3.053036zm59.5056853-.048849c4.028778 0 7.667672-.871132 10.916686-2.613398s5.953818-4.16027 8.114412-7.254013c2.160594-3.093742 3.817591-6.773668 4.970991-11.039776s1.7301-8.939288 1.7301-14.01954c0-5.536171-.641681-10.526866-1.925041-14.972086s-3.070318-8.125145-5.360872-11.039777c-2.290555-2.914631-5.003482-5.145382-8.13878-6.692254s-6.57113-2.320307-10.307496-2.320307c-3.996286 0-7.627059.871133-10.892318 2.613398-3.265259 1.742266-5.970063 4.160271-8.114412 7.254013-2.144349 3.093743-3.801346 6.789951-4.970991 11.088625s-1.754467 8.988137-1.754467 14.068388c0 5.503606.64168 10.469877 1.925041 14.898814 1.28336 4.428937 3.070318 8.100721 5.360872 11.015352 2.290555 2.914632 5.003482 5.145383 8.138779 6.692254 3.135298 1.546872 6.57113 2.320307 10.307496 2.320307zm.048736-7.815771c-5.198423 0-9.381527-2.39358-12.549316-7.180739-3.167788-4.78716-4.751682-11.430566-4.751682-19.930217 0-8.369388 1.527036-14.996511 4.581109-19.881367 3.054073-4.884857 7.294036-7.327286 12.719889-7.327286 5.165931 0 9.324669 2.385438 12.476212 7.156316 3.151544 4.770877 4.727315 11.454989 4.727315 20.052337 0 5.47104-.666048 10.233776-1.998143 14.288207-1.332096 4.054431-3.297749 7.205164-5.89696 9.452198s-5.702019 3.370551-9.308424 3.370551zm62.624739 7.815771c4.028777 0 7.667672-.871132 10.916686-2.613398s5.953817-4.16027 8.114411-7.254013c2.160594-3.093742 3.817591-6.773668 4.970991-11.039776s1.7301-8.939288 1.7301-14.01954c0-5.536171-.64168-10.526866-1.925041-14.972086-1.28336-4.44522-3.070318-8.125145-5.360872-11.039777-2.290555-2.914631-5.003482-5.145382-8.13878-6.692254-3.135297-1.546872-6.571129-2.320307-10.307495-2.320307-3.996287 0-7.62706.871133-10.892319 2.613398-3.265259 1.742266-5.970063 4.160271-8.114412 7.254013-2.144349 3.093743-3.801346 6.789951-4.97099 11.088625-1.169645 4.298674-1.754468 8.988137-1.754468 14.068388 0 5.503606.641681 10.469877 1.925041 14.898814s3.070318 8.100721 5.360872 11.015352c2.290555 2.914632 5.003482 5.145383 8.13878 6.692254 3.135298 1.546872 6.57113 2.320307 10.307496 2.320307zm.048735-7.815771c-5.198422 0-9.381527-2.39358-12.549316-7.180739-3.167788-4.78716-4.751682-11.430566-4.751682-19.930217 0-8.369388 1.527036-14.996511 4.581109-19.881367 3.054073-4.884857 7.294036-7.327286 12.719889-7.327286 5.165932 0 9.324669 2.385438 12.476212 7.156316 3.151544 4.770877 4.727315 11.454989 4.727315 20.052337 0 5.47104-.666048 10.233776-1.998143 14.288207-1.332096 4.054431-3.297749 7.205164-5.89696 9.452198s-5.702019 3.370551-9.308424 3.370551z" fill="#fff" transform="matrix(0 -1 1 0 -108 368)"/></g></svg>