<?xml version="1.0" encoding="UTF-8"?>
<svg width="880px" height="116px" viewBox="0 0 880 116" version="1.1" xmlns="http://www.w3.org/2000/svg" xmlns:xlink="http://www.w3.org/1999/xlink">
    <title>outlines / a nossa história</title>
    <g id="outlines-/-a-nossa-história" stroke="none" stroke-width="1" fill="none" fill-rule="evenodd" fill-opacity="0" opacity="0.200571987">
        <path d="M28.331765,90 C35.9026751,90 41.797733,87.2700897 46.0169378,81.810269 L46.3126764,81.810269 L46.3126764,88.9911201 L61.3953488,88.9911201 L61.3953488,29.6452435 L45.5437559,29.6452435 L45.5437559,36.3513276 L45.3071649,36.3513276 C40.8908004,31.208018 35.0746068,28.6363636 27.8585831,28.6363636 C23.9548326,28.6363636 20.2778148,29.40786 16.8275306,30.9508528 C13.3772463,32.4938456 10.4198596,34.6105155 7.95537035,37.3008616 C5.49088109,39.9912077 3.54886409,43.2552309 2.12931846,47.0929312 C0.709772819,50.9306316 4.54747351e-13,55.0650604 4.54747351e-13,59.4962194 C4.54747351e-13,64.0065061 0.709772819,68.1706087 2.12931846,71.9885265 C3.54886409,75.8064442 5.5105976,79.0309041 8.01451808,81.6619043 C10.5184386,84.2929046 13.5152574,86.3403373 17.0049738,87.8042026 C20.4946901,89.2680678 24.2702869,90 28.331765,90 Z M30.7869329,76.0909091 C26.3041748,76.0909091 22.6445778,74.5916492 19.8081418,71.5931284 C16.9717059,68.5946076 15.5534884,64.7083679 15.5534884,59.9344074 C15.5534884,54.9631761 17.0113766,50.9585728 19.9271531,47.9205984 C22.8429296,44.882624 26.4826917,43.3636364 30.8464385,43.3636364 C35.1705155,43.3636364 38.7507711,44.9418053 41.587207,48.0981424 C44.423643,51.2544794 45.8418605,55.1999014 45.8418605,59.9344074 C45.8418605,64.7083679 44.3938901,68.5946076 41.4979486,71.5931284 C38.602007,74.5916492 35.0316684,76.0909091 30.7869329,76.0909091 Z M164.539535,89.1818182 L164.539535,54.3311306 C164.539535,49.9112344 164.026942,46.0780494 163.001758,42.8315771 C161.976574,39.5851048 160.488085,37.0035724 158.536291,35.0869798 C156.584498,33.1703873 154.336978,31.7525007 151.793732,30.8333184 C149.250486,29.9141362 146.34251,29.4545455 143.069806,29.4545455 C139.4028,29.4545455 135.923088,30.1879353 132.630668,31.6547151 C129.338249,33.1214949 126.48942,35.2434366 124.084179,38.0205394 L123.906743,38.0205394 L123.906743,30.4519557 L108.055814,30.4519557 L108.055814,89.123147 L123.906743,89.123147 L123.906743,59.6115378 C123.906743,54.4875874 125.119221,50.5370599 127.544176,47.7599571 C129.969132,44.9828544 133.231979,43.5943026 137.332716,43.5943026 C141.196873,43.5943026 144.055561,44.6894984 145.908779,46.8798893 C147.761997,49.0702801 148.688606,52.8643508 148.688606,58.2621004 L148.688606,89.1818182 L164.539535,89.1818182 Z M208.334884,90 C214.416973,90 219.847409,88.7240637 224.626193,86.172191 C229.404978,83.6203183 233.137169,80.0101111 235.822766,75.3415685 C238.508364,70.6730259 239.851163,65.3516796 239.851163,59.3775277 C239.851163,54.8672411 239.071154,50.7031384 237.511138,46.8852207 C235.951122,43.0673029 233.788821,39.8230614 231.024235,37.1524969 C228.259649,34.4819325 224.922399,32.3949355 221.012485,30.8915069 C217.10257,29.3880784 212.876704,28.6363636 208.334884,28.6363636 C203.714076,28.6363636 199.428968,29.40786 195.479559,30.9508528 C191.530151,32.4938456 188.192901,34.6204059 185.467809,37.3305346 C182.742717,40.0406632 180.619911,43.2947951 179.099388,47.0929312 C177.578865,50.8910673 176.818605,54.9859328 176.818605,59.3775277 C176.818605,62.8987161 177.302407,66.2220852 178.270012,69.347635 C179.237617,72.4731848 180.649531,75.2921139 182.505753,77.8044224 C184.361974,80.3167308 186.56377,82.4828553 189.111138,84.3027959 C191.658507,86.1227364 194.571196,87.5272548 197.849204,88.5163531 C201.127213,89.5054513 204.62244,90 208.334884,90 Z M207.955435,76.0909091 C203.417757,76.0909091 199.686113,74.522604 196.760505,71.3859938 C193.834897,68.2493835 192.372093,64.3730067 192.372093,59.7568634 C192.372093,55.0223574 193.814995,51.1065261 196.700799,48.0093704 C199.586603,44.9122147 203.338148,43.3636364 207.955435,43.3636364 C212.413504,43.3636364 216.115294,44.892487 219.060804,47.9501891 C222.006314,51.0078911 223.47907,54.9434493 223.47907,59.7568634 C223.47907,64.4913694 221.986413,68.3973368 219.001098,71.4747657 C216.015784,74.5521946 212.333895,76.0909091 207.955435,76.0909091 Z M271.867586,90 C279.28148,90 284.939969,88.2987512 288.843051,84.8962546 C292.746133,81.493758 294.697674,77.0428173 294.697674,71.5434324 C294.697674,70.0795671 294.579994,68.7541762 294.344632,67.5672587 C293.599319,63.6108666 291.324156,60.4457535 287.519141,58.0719184 C285.322432,56.6476174 280.96824,54.7287677 274.456565,52.3153684 C271.357635,51.1284509 269.111892,50.0602251 267.719335,49.110691 C266.326778,48.161157 265.630499,47.0929312 265.630499,45.9060137 C265.630499,44.4817127 266.218904,43.383814 267.395712,42.6123176 C268.572521,41.8408212 269.906238,41.455073 271.396862,41.455073 C273.672026,41.455073 276.035449,41.9792946 278.487135,43.0277387 C280.93882,44.0761828 283.263017,45.6488486 285.459726,47.7457359 L293.108983,36.1139441 C289.774691,33.5027255 286.38156,31.6036575 282.929587,30.4167399 C279.477615,29.2298224 275.692214,28.6363636 271.573383,28.6363636 C267.572234,28.6363636 263.97316,29.3682958 260.776164,30.8321611 C257.579167,32.2960263 255.049028,34.3830224 253.185747,37.093151 C251.322467,39.8032797 250.390827,42.9189382 250.390827,46.4401266 C250.390827,48.2996304 250.606575,50.0206609 251.038071,51.6032179 C251.469568,53.1857749 252.107006,54.5902934 252.950386,55.8167751 C253.793765,57.0432569 254.735212,58.1510459 255.774727,59.1401442 C256.814241,60.1292424 258.059696,61.029321 259.511094,61.8403816 C260.962492,62.6514422 262.384468,63.3537014 263.777026,63.9471602 C265.169583,64.540619 266.748468,65.1340777 268.513681,65.7275365 C271.298794,66.6375063 273.38763,67.389221 274.780187,67.9826798 C276.172744,68.5761386 277.261292,69.2190519 278.045831,69.9114208 C278.83037,70.6037896 279.22264,71.404959 279.22264,72.3149288 C279.22264,73.778794 278.575395,74.9657116 277.280906,75.8756814 C275.986416,76.7856512 274.221203,77.2406365 271.985266,77.2406365 C266.022769,77.2406365 260.589835,74.9261474 255.686466,70.297169 L248.037209,81.2761561 C254.588111,87.092052 262.53157,90 271.867586,90 Z M325.895493,90 C333.309387,90 338.967876,88.2987512 342.870958,84.8962546 C346.77404,81.493758 348.725581,77.0428173 348.725581,71.5434324 C348.725581,70.0795671 348.607901,68.7541762 348.372539,67.5672587 C347.627226,63.6108666 345.352063,60.4457535 341.547048,58.0719184 C339.350339,56.6476174 334.996147,54.7287677 328.484472,52.3153684 C325.385542,51.1284509 323.139799,50.0602251 321.747242,49.110691 C320.354685,48.161157 319.658406,47.0929312 319.658406,45.9060137 C319.658406,44.4817127 320.246811,43.383814 321.423619,42.6123176 C322.600428,41.8408212 323.934145,41.455073 325.424769,41.455073 C327.699933,41.455073 330.063356,41.9792946 332.515041,43.0277387 C334.966727,44.0761828 337.290924,45.6488486 339.487633,47.7457359 L347.13689,36.1139441 C343.802598,33.5027255 340.409467,31.6036575 336.957494,30.4167399 C333.505522,29.2298224 329.720121,28.6363636 325.60129,28.6363636 C321.600141,28.6363636 318.001067,29.3682958 314.804071,30.8321611 C311.607074,32.2960263 309.076935,34.3830224 307.213654,37.093151 C305.350374,39.8032797 304.418734,42.9189382 304.418734,46.4401266 C304.418734,48.2996304 304.634482,50.0206609 305.065978,51.6032179 C305.497475,53.1857749 306.134913,54.5902934 306.978293,55.8167751 C307.821672,57.0432569 308.763119,58.1510459 309.802634,59.1401442 C310.842148,60.1292424 312.087603,61.029321 313.539001,61.8403816 C314.990399,62.6514422 316.412375,63.3537014 317.804933,63.9471602 C319.19749,64.540619 320.776375,65.1340777 322.541588,65.7275365 C325.326701,66.6375063 327.415537,67.389221 328.808094,67.9826798 C330.200651,68.5761386 331.289199,69.2190519 332.073738,69.9114208 C332.858277,70.6037896 333.250547,71.404959 333.250547,72.3149288 C333.250547,73.778794 332.603302,74.9657116 331.308813,75.8756814 C330.014323,76.7856512 328.24911,77.2406365 326.013173,77.2406365 C320.050676,77.2406365 314.617742,74.9261474 309.714373,70.297169 L302.065116,81.2761561 C308.616018,87.092052 316.559477,90 325.895493,90 Z M385.243393,90 C392.814303,90 398.709361,87.2700897 402.928566,81.810269 L403.224304,81.810269 L403.224304,88.9911201 L418.306977,88.9911201 L418.306977,29.6452435 L402.455384,29.6452435 L402.455384,36.3513276 L402.218793,36.3513276 C397.802428,31.208018 391.986235,28.6363636 384.770211,28.6363636 C380.866461,28.6363636 377.189443,29.40786 373.739158,30.9508528 C370.288874,32.4938456 367.331488,34.6105155 364.866998,37.3008616 C362.402509,39.9912077 360.460492,43.2552309 359.040946,47.0929312 C357.621401,50.9306316 356.911628,55.0650604 356.911628,59.4962194 C356.911628,64.0065061 357.621401,68.1706087 359.040946,71.9885265 C360.460492,75.8064442 362.422226,79.0309041 364.926146,81.6619043 C367.430066,84.2929046 370.426885,86.3403373 373.916602,87.8042026 C377.406318,89.2680678 381.181915,90 385.243393,90 Z M388.517165,76.0909091 C384.034407,76.0909091 380.37481,74.5916492 377.538374,71.5931284 C374.701938,68.5946076 373.283721,64.7083679 373.283721,59.9344074 C373.283721,54.9631761 374.741609,50.9585728 377.657386,47.9205984 C380.573162,44.882624 384.212924,43.3636364 388.576671,43.3636364 C392.900748,43.3636364 396.481004,44.9418053 399.31744,48.0981424 C402.153876,51.2544794 403.572093,55.1999014 403.572093,59.9344074 C403.572093,64.7083679 402.124123,68.5946076 399.228181,71.5931284 C396.33224,74.5916492 392.761901,76.0909091 388.517165,76.0909091 Z M523.088372,89.1818182 L523.088372,53.6036508 C523.088372,49.1908546 522.554499,45.3789081 521.486754,42.1678113 C520.419009,38.9567146 518.896483,36.4055666 516.919178,34.5143683 C514.941872,32.6231701 512.658084,31.2343213 510.067813,30.3478222 C507.477542,29.461323 504.521469,29.0180734 501.199596,29.0180734 C497.363622,29.0180734 493.794585,29.707573 490.492484,31.0865715 C487.190383,32.4655699 484.333176,34.4946687 481.920863,37.1738659 L481.683586,37.1738659 L481.683586,0 L465.786047,0 L465.786047,89.1227182 L481.683586,89.1227182 L481.683586,59.1590457 C481.683586,53.9582505 482.909516,50.0084044 485.361375,47.3095066 C487.813234,44.6106088 491.214201,43.2611603 495.564274,43.2611603 C499.518886,43.2611603 502.435411,44.344659 504.313852,46.5116573 C506.192293,48.6786556 507.131513,52.3822516 507.131513,57.6224471 L507.131513,89.1818182 L523.088372,89.1818182 Z M546.827907,22.0909091 C549.510563,22.0909091 551.818436,21.1301084 553.751527,19.2085071 C555.684618,17.2869058 556.651163,14.9649705 556.651163,12.2427023 C556.651163,9.56046675 555.684618,7.25854879 553.751527,5.33694746 C551.818436,3.41534612 549.510563,2.45454545 546.827907,2.45454545 C544.1058,2.45454545 541.788064,3.41534612 539.874699,5.33694746 C537.961334,7.25854879 537.004651,9.56046675 537.004651,12.2427023 C537.004651,14.0442035 537.43861,15.6955796 538.306528,17.1968307 C539.174447,18.6980817 540.367834,19.8890739 541.886691,20.7698082 C543.405548,21.6505424 545.05262,22.0909091 546.827907,22.0909091 Z M554.195349,89.1818182 L554.195349,30.2727273 L538.64186,30.2727273 L538.64186,89.1818182 L554.195349,89.1818182 Z M590.304795,90 C597.71869,90 603.377179,88.2987512 607.28026,84.8962546 C611.183342,81.493758 613.134884,77.0428173 613.134884,71.5434324 C613.134884,70.0795671 613.017203,68.7541762 612.781841,67.5672587 C612.036529,63.6108666 609.761366,60.4457535 605.956351,58.0719184 C603.759641,56.6476174 599.405449,54.7287677 592.893774,52.3153684 C589.794844,51.1284509 587.549101,50.0602251 586.156544,49.110691 C584.763987,48.161157 584.067709,47.0929312 584.067709,45.9060137 C584.067709,44.4817127 584.656113,43.383814 585.832922,42.6123176 C587.00973,41.8408212 588.343447,41.455073 589.834071,41.455073 C592.109235,41.455073 594.472659,41.9792946 596.924344,43.0277387 C599.376029,44.0761828 601.700226,45.6488486 603.896935,47.7457359 L611.546192,36.1139441 C608.2119,33.5027255 604.818769,31.6036575 601.366797,30.4167399 C597.914824,29.2298224 594.129423,28.6363636 590.010593,28.6363636 C586.009443,28.6363636 582.41037,29.3682958 579.213373,30.8321611 C576.016376,32.2960263 573.486237,34.3830224 571.622957,37.093151 C569.759676,39.8032797 568.828036,42.9189382 568.828036,46.4401266 C568.828036,48.2996304 569.043785,50.0206609 569.475281,51.6032179 C569.906777,53.1857749 570.544216,54.5902934 571.387595,55.8167751 C572.230974,57.0432569 573.172421,58.1510459 574.211936,59.1401442 C575.25145,60.1292424 576.496906,61.029321 577.948303,61.8403816 C579.399701,62.6514422 580.821678,63.3537014 582.214235,63.9471602 C583.606792,64.540619 585.185677,65.1340777 586.95089,65.7275365 C589.736004,66.6375063 591.824839,67.389221 593.217396,67.9826798 C594.609954,68.5761386 595.698502,69.2190519 596.483041,69.9114208 C597.267579,70.6037896 597.659849,71.404959 597.659849,72.3149288 C597.659849,73.778794 597.012604,74.9657116 595.718115,75.8756814 C594.423625,76.7856512 592.658412,77.2406365 590.422476,77.2406365 C584.459979,77.2406365 579.027044,74.9261474 574.123675,70.297169 L566.474419,81.2761561 C573.02532,87.092052 580.968779,90 590.304795,90 Z M644.230848,90 C647.833197,90 650.769896,89.6853608 653.040943,89.0560816 C655.31199,88.4268023 657.563458,87.5025495 659.795349,86.2833212 L655.742705,73.6584122 C653.080099,75.0349596 650.613272,75.7232338 648.342225,75.7232338 C646.501895,75.7232338 645.180381,75.1136201 644.377683,73.8943918 C643.574985,72.6751636 643.173636,70.7676621 643.173636,68.1718864 L643.173636,43.0990532 L659.149275,43.0990532 L659.149275,30.002185 L643.173636,30.002185 L643.173636,9 L627.432934,10.7108521 L627.432934,30.002185 L620.502326,30.002185 L620.502326,43.0990532 L627.432934,43.0990532 L627.432934,70.3546977 C627.432934,76.8048067 628.93065,81.6915516 631.926082,85.0149308 C634.921514,88.33831 639.023103,90 644.230848,90 Z M706.194116,22.0909091 L721.190698,4.09090909 L704.599991,4.15051174 L690.902326,22.0909091 L706.194116,22.0909091 Z M698.67907,90 C704.761159,90 710.191595,88.7240637 714.970379,86.172191 C719.749164,83.6203183 723.481355,80.0101111 726.166952,75.3415685 C728.85255,70.6730259 730.195349,65.3516796 730.195349,59.3775277 C730.195349,54.8672411 729.41534,50.7031384 727.855324,46.8852207 C726.295308,43.0673029 724.133007,39.8230614 721.368421,37.1524969 C718.603835,34.4819325 715.266585,32.3949355 711.356671,30.8915069 C707.446756,29.3880784 703.22089,28.6363636 698.67907,28.6363636 C694.058262,28.6363636 689.773154,29.40786 685.823745,30.9508528 C681.874337,32.4938456 678.537087,34.6204059 675.811995,37.3305346 C673.086903,40.0406632 670.964097,43.2947951 669.443574,47.0929312 C667.923052,50.8910673 667.162791,54.9859328 667.162791,59.3775277 C667.162791,62.8987161 667.646594,66.2220852 668.614198,69.347635 C669.581803,72.4731848 670.993717,75.2921139 672.849939,77.8044224 C674.70616,80.3167308 676.907956,82.4828553 679.455324,84.3027959 C682.002693,86.1227364 684.915382,87.5272548 688.19339,88.5163531 C691.471399,89.5054513 694.966626,90 698.67907,90 Z M699.118225,76.0909091 C694.580547,76.0909091 690.848904,74.522604 687.923296,71.3859938 C684.997688,68.2493835 683.534884,64.3730067 683.534884,59.7568634 C683.534884,58.4154197 683.654296,57.1232944 683.893121,55.8804866 C684.131947,54.6376788 684.500136,53.4737791 684.997688,52.3887884 C685.49524,51.3037978 686.082352,50.2977152 686.759023,49.3705409 C687.435694,48.4433665 688.211876,47.6148279 689.087569,46.8849252 C689.963261,46.1550225 690.918562,45.5237547 691.953471,44.9911228 C692.988379,44.4584909 694.112848,44.0540855 695.326876,43.7779056 C696.540903,43.5017258 697.804687,43.3636364 699.118225,43.3636364 C703.576295,43.3636364 707.278085,44.892487 710.223595,47.9501891 C713.169105,51.0078911 714.64186,54.9434493 714.64186,59.7568634 C714.64186,64.4913694 713.149203,68.3973368 710.163889,71.4747657 C707.178574,74.5521946 703.496686,76.0909091 699.118225,76.0909091 Z M759.174505,89.1818182 L759.174505,61.9316171 C759.174505,57.4290692 760.507838,53.7487265 763.174505,50.8905873 C765.841171,48.0324481 769.544875,46.6033789 774.285616,46.6033789 C775.510308,46.6033789 776.912776,46.6621078 778.493023,46.7795656 L778.493023,29.5132743 C778.255986,29.4741214 777.841171,29.4545455 777.248579,29.4545455 C773.73253,29.4545455 770.433764,30.2865382 767.352283,31.9505229 C764.270801,33.6145076 761.604134,35.9930273 759.352283,39.0860821 L759.174505,39.0860821 L759.174505,30.4529364 L743.293023,30.4529364 L743.293023,89.1818182 L759.174505,89.1818182 Z M797.32093,22.0909091 C800.003586,22.0909091 802.311459,21.1301084 804.24455,19.2085071 C806.177641,17.2869058 807.144186,14.9649705 807.144186,12.2427023 C807.144186,9.56046675 806.177641,7.25854879 804.24455,5.33694746 C802.311459,3.41534612 800.003586,2.45454545 797.32093,2.45454545 C794.598823,2.45454545 792.281087,3.41534612 790.367722,5.33694746 C788.454357,7.25854879 787.497674,9.56046675 787.497674,12.2427023 C787.497674,14.0442035 787.931633,15.6955796 788.799552,17.1968307 C789.66747,18.6980817 790.860857,19.8890739 792.379714,20.7698082 C793.898571,21.6505424 795.545643,22.0909091 797.32093,22.0909091 Z M804.688372,89.1818182 L804.688372,30.2727273 L789.134884,30.2727273 L789.134884,89.1818182 L804.688372,89.1818182 Z M846.936416,90 C854.507326,90 860.402384,87.2700897 864.621589,81.810269 L864.917328,81.810269 L864.917328,88.9911201 L880,88.9911201 L880,29.6452435 L864.148407,29.6452435 L864.148407,36.3513276 L863.911816,36.3513276 C859.495452,31.208018 853.679258,28.6363636 846.463234,28.6363636 C842.559484,28.6363636 838.882466,29.40786 835.432182,30.9508528 C831.981898,32.4938456 829.024511,34.6105155 826.560022,37.3008616 C824.095532,39.9912077 822.153515,43.2552309 820.73397,47.0929312 C819.314424,50.9306316 818.604651,55.0650604 818.604651,59.4962194 C818.604651,64.0065061 819.314424,68.1706087 820.73397,71.9885265 C822.153515,75.8064442 824.115249,79.0309041 826.619169,81.6619043 C829.12309,84.2929046 832.119909,86.3403373 835.609625,87.8042026 C839.099341,89.2680678 842.874938,90 846.936416,90 Z M849.391584,76.0909091 C844.908826,76.0909091 841.249229,74.5916492 838.412793,71.5931284 C835.576357,68.5946076 834.15814,64.7083679 834.15814,59.9344074 C834.15814,54.9631761 835.616028,50.9585728 838.531804,47.9205984 C841.447581,44.882624 845.087343,43.3636364 849.45109,43.3636364 C853.775167,43.3636364 857.355422,44.9418053 860.191858,48.0981424 C863.028294,51.2544794 864.446512,55.1999014 864.446512,59.9344074 C864.446512,64.7083679 862.998541,68.5946076 860.1026,71.5931284 C857.206658,74.5916492 853.63632,76.0909091 849.391584,76.0909091 Z" id="anossahistória-copy-2" stroke="#FFFFFF" fill="#FFFFFF" fill-rule="nonzero"></path>
    </g>
</svg>