<svg height="116" viewBox="0 0 980 116" width="980" xmlns="http://www.w3.org/2000/svg"><path d="m28.331765 90c7.5709101 0 13.465968-2.7299103 17.6851728-8.189731h.2957386v7.1808511h15.0826724v-59.3458766h-15.8515929v6.7060841h-.236591c-4.4163645-5.1433096-10.2325581-7.714964-17.4485818-7.714964-3.9037505 0-7.5807683.7714964-11.0310525 2.3144892-3.4502843 1.5429928-6.407671 3.6596627-8.87216025 6.3500088-2.46448926 2.6903461-4.40650626 5.9543693-5.82605189 9.7920696-1.41954564 3.8377004-2.12931846 7.9721292-2.12931846 12.4032882 0 4.5102867.70977282 8.6743893 2.12931846 12.4923071 1.41954563 3.8179177 3.38127914 7.0423776 5.88519962 9.6733778 2.50392052 2.6310003 5.50073932 4.678433 8.99045572 6.1422983 3.4897163 1.4638652 7.2653131 2.1957974 11.3267912 2.1957974zm2.4551679-13.9090909c-4.4827581 0-8.1423551-1.4992599-10.9787911-4.4977807-2.8364359-2.9985208-4.2546534-6.8847605-4.2546534-11.658721 0-4.9712313 1.4578882-8.9758346 4.3736647-12.013809s6.5555386-4.556962 10.9192854-4.556962c4.324077 0 7.9043326 1.5781689 10.7407685 4.734506 2.836436 3.156337 4.2546535 7.101759 4.2546535 11.836265 0 4.7739605-1.4479704 8.6602002-4.3439119 11.658721-2.8959416 2.9985208-6.4662802 4.4977807-10.7110157 4.4977807zm133.7526021 13.0909091v-34.8506876c0-4.4198962-.512593-8.2530812-1.537777-11.4995535s-2.513673-5.8280047-4.465467-7.7445973c-1.951793-1.9165925-4.199313-3.3344791-6.742559-4.2536614-2.543246-.9191822-5.451222-1.3787729-8.723926-1.3787729-3.667006 0-7.146718.7333898-10.439138 2.2001696-3.292419 1.4667798-6.141248 3.5887215-8.546489 6.3658243h-.177436v-7.5685837h-15.850929v58.6711913h15.850929v-29.5116092c0-5.1239504 1.212478-9.0744779 3.637433-11.8515807 2.424956-2.7771027 5.687803-4.1656545 9.78854-4.1656545 3.864157 0 6.722845 1.0951958 8.576063 3.2855867 1.853218 2.1903908 2.779827 5.9844615 2.779827 11.3822111v30.9197178zm43.795349.8181818c6.082089 0 11.512525-1.2759363 16.291309-3.827809 4.778785-2.5518727 8.510976-6.1620799 11.196573-10.8306225 2.685598-4.6685426 4.028397-9.9898889 4.028397-15.9640408 0-4.5102866-.780009-8.6743893-2.340025-12.492307-1.560016-3.8179178-3.722317-7.0621593-6.486903-9.7327238-2.764586-2.6705644-6.101836-4.7575614-10.01175-6.26099-3.909915-1.5034285-8.135781-2.2551433-12.677601-2.2551433-4.620808 0-8.905916.7714964-12.855325 2.3144892-3.949408 1.5429928-7.286658 3.6695531-10.01175 6.3796818-2.725092 2.7101286-4.847898 5.9642605-6.368421 9.7623966s-2.280783 7.8930016-2.280783 12.2845965c0 3.5211884.483802 6.8445575 1.451407 9.9701073s2.379519 5.9444789 4.235741 8.4567874c1.856221 2.5123084 4.058017 4.6784329 6.605385 6.4983735 2.547369 1.8199405 5.460058 3.2244589 8.738066 4.2135572 3.278009.9890982 6.773236 1.4836469 10.48568 1.4836469zm-.379449-13.9090909c-4.537678 0-8.269322-1.5683051-11.19493-4.7049153-2.925608-3.1366103-4.388412-7.0129871-4.388412-11.6291304 0-4.734506 1.442902-8.6503373 4.328706-11.747493s6.637349-4.645734 11.254636-4.645734c4.458069 0 8.159859 1.5288506 11.105369 4.5865527 2.94551 3.057702 4.418266 6.9932602 4.418266 11.8066743 0 4.734506-1.492657 8.6404734-4.477972 11.7179023-2.985314 3.0774289-6.667203 4.6161434-11.045663 4.6161434zm63.912151 13.9090909c7.413894 0 13.072383-1.7012488 16.975465-5.1037454s5.854623-7.8534373 5.854623-13.3528222c0-1.4638653-.11768-2.7892562-.353042-3.9761737-.745313-3.9563921-3.020476-7.1215052-6.825491-9.4953403-2.196709-1.424301-6.550901-3.3431507-13.062576-5.75655-3.09893-1.1869175-5.344673-2.2551433-6.73723-3.2046774-1.392557-.949534-2.088836-2.0177598-2.088836-3.2046773 0-1.424301.588405-2.5221997 1.765213-3.2936961 1.176809-.7714964 2.510526-1.1572446 4.00115-1.1572446 2.275164 0 4.638587.5242216 7.090273 1.5726657 2.451685 1.0484441 4.775882 2.6211099 6.972591 4.7179972l7.649257-11.6317918c-3.334292-2.6112186-6.727423-4.5102866-10.179396-5.6972042-3.451972-1.1869175-7.237373-1.7803763-11.356204-1.7803763-4.001149 0-7.600223.7319322-10.797219 2.1957975-3.196997 1.4638652-5.727136 3.5508613-7.590417 6.2609899-1.86328 2.7101287-2.79492 5.8257872-2.79492 9.3469756 0 1.8595038.215748 3.5805343.647244 5.1630913.431497 1.582557 1.068935 2.9870755 1.912315 4.2135572.843379 1.2264818 1.784826 2.3342708 2.824341 3.3233691 1.039514.9890982 2.284969 1.8891768 3.736367 2.7002374s2.873374 1.5133198 4.265932 2.1067786c1.392557.5934588 2.971442 1.1869175 4.736655 1.7803763 2.785113.9099698 4.873949 1.6616845 6.266506 2.2551433s2.481105 1.2363721 3.265644 1.928741c.784539.6923688 1.176809 1.4935382 1.176809 2.403508 0 1.4638652-.647245 2.6507828-1.941734 3.5607526-1.29449.9099698-3.059703 1.3649551-5.29564 1.3649551-5.962497 0-11.395431-2.3144891-16.2988-6.9434675l-7.649257 10.9789871c6.550902 5.8158959 14.494361 8.7238439 23.830377 8.7238439zm54.027907 0c7.413894 0 13.072383-1.7012488 16.975465-5.1037454s5.854623-7.8534373 5.854623-13.3528222c0-1.4638653-.11768-2.7892562-.353042-3.9761737-.745313-3.9563921-3.020476-7.1215052-6.825491-9.4953403-2.196709-1.424301-6.550901-3.3431507-13.062576-5.75655-3.09893-1.1869175-5.344673-2.2551433-6.73723-3.2046774-1.392557-.949534-2.088836-2.0177598-2.088836-3.2046773 0-1.424301.588405-2.5221997 1.765213-3.2936961 1.176809-.7714964 2.510526-1.1572446 4.00115-1.1572446 2.275164 0 4.638587.5242216 7.090272 1.5726657 2.451686 1.0484441 4.775883 2.6211099 6.972592 4.7179972l7.649257-11.6317918c-3.334292-2.6112186-6.727423-4.5102866-10.179396-5.6972042-3.451972-1.1869175-7.237373-1.7803763-11.356204-1.7803763-4.001149 0-7.600223.7319322-10.797219 2.1957975-3.196997 1.4638652-5.727136 3.5508613-7.590417 6.2609899-1.86328 2.7101287-2.79492 5.8257872-2.79492 9.3469756 0 1.8595038.215748 3.5805343.647244 5.1630913.431497 1.582557 1.068935 2.9870755 1.912315 4.2135572.843379 1.2264818 1.784826 2.3342708 2.824341 3.3233691 1.039514.9890982 2.284969 1.8891768 3.736367 2.7002374s2.873374 1.5133198 4.265932 2.1067786c1.392557.5934588 2.971442 1.1869175 4.736655 1.7803763 2.785113.9099698 4.873949 1.6616845 6.266506 2.2551433s2.481105 1.2363721 3.265644 1.928741c.784539.6923688 1.176809 1.4935382 1.176809 2.403508 0 1.4638652-.647245 2.6507828-1.941734 3.5607526-1.29449.9099698-3.059703 1.3649551-5.29564 1.3649551-5.962497 0-11.395431-2.3144891-16.2988-6.9434675l-7.649257 10.9789871c6.550902 5.8158959 14.494361 8.7238439 23.830377 8.7238439zm59.3479 0c7.57091 0 13.465968-2.7299103 17.685173-8.189731h.295738v7.1808511h15.082673v-59.3458766h-15.851593v6.7060841h-.236591c-4.416365-5.1433096-10.232558-7.714964-17.448582-7.714964-3.90375 0-7.580768.7714964-11.031053 2.3144892-3.450284 1.5429928-6.40767 3.6596627-8.87216 6.3500088-2.464489 2.6903461-4.406506 5.9543693-5.826052 9.7920696-1.419545 3.8377004-2.129318 7.9721292-2.129318 12.4032882 0 4.5102867.709773 8.6743893 2.129318 12.4923071 1.419546 3.8179177 3.38128 7.0423776 5.8852 9.6733778 2.50392 2.6310003 5.500739 4.678433 8.990456 6.1422983 3.489716 1.4638652 7.265313 2.1957974 11.326791 2.1957974zm3.273772-13.9090909c-4.482758 0-8.142355-1.4992599-10.978791-4.4977807s-4.254653-6.8847605-4.254653-11.658721c0-4.9712313 1.457888-8.9758346 4.373665-12.013809 2.915776-3.0379744 6.555538-4.556962 10.919285-4.556962 4.324077 0 7.904333 1.5781689 10.740769 4.734506 2.836436 3.156337 4.254653 7.101759 4.254653 11.836265 0 4.7739605-1.44797 8.6602002-4.343912 11.658721-2.895941 2.9985208-6.46628 4.4977807-10.711016 4.4977807zm134.571207 13.0909091v-35.5781674c0-4.4127962-.533873-8.2247427-1.601618-11.4358395-1.067745-3.2110967-2.590271-5.7622447-4.567576-7.653443-1.977306-1.8911982-4.261094-3.280047-6.851365-4.1665461-2.590271-.8864992-5.546344-1.3297488-8.868217-1.3297488-3.835974 0-7.405011.6894996-10.707112 2.0684981-3.302101 1.3789984-6.159308 3.4080972-8.571621 6.0872944h-.237277v-37.1738659h-15.897539v89.1227182h15.897539v-29.9636725c0-5.2007952 1.22593-9.1506413 3.677789-11.8495391s5.852826-4.0483463 10.202899-4.0483463c3.954612 0 6.871137 1.0834987 8.749578 3.250497s2.817661 5.8705943 2.817661 11.1107898v31.5593711zm23.739535-67.0909091c2.682656 0 4.990529-.9608007 6.92362-2.882402s2.899636-4.2435366 2.899636-6.9658048c0-2.68223555-.966545-4.98415351-2.899636-6.90575484-1.933091-1.92160134-4.240964-2.88240201-6.92362-2.88240201-2.722107 0-5.039843.96080067-6.953208 2.88240201-1.913365 1.92160133-2.870048 4.22351929-2.870048 6.90575484 0 1.8015012.433959 3.4528773 1.301877 4.9541284.867919 1.501251 2.061306 2.6922432 3.580163 3.5729775 1.518857.8807342 3.165929 1.3211009 4.941216 1.3211009zm7.367442 67.0909091v-58.9090909h-15.553489v58.9090909zm36.109446.8181818c7.413895 0 13.072384-1.7012488 16.975465-5.1037454 3.903082-3.4024966 5.854624-7.8534373 5.854624-13.3528222 0-1.4638653-.117681-2.7892562-.353043-3.9761737-.745312-3.9563921-3.020475-7.1215052-6.82549-9.4953403-2.19671-1.424301-6.550902-3.3431507-13.062577-5.75655-3.09893-1.1869175-5.344673-2.2551433-6.73723-3.2046774-1.392557-.949534-2.088835-2.0177598-2.088835-3.2046773 0-1.424301.588404-2.5221997 1.765213-3.2936961 1.176808-.7714964 2.510525-1.1572446 4.001149-1.1572446 2.275164 0 4.638588.5242216 7.090273 1.5726657s4.775882 2.6211099 6.972591 4.7179972l7.649257-11.6317918c-3.334292-2.6112186-6.727423-4.5102866-10.179395-5.6972042-3.451973-1.1869175-7.237374-1.7803763-11.356204-1.7803763-4.00115 0-7.600223.7319322-10.79722 2.1957975-3.196997 1.4638652-5.727136 3.5508613-7.590416 6.2609899-1.863281 2.7101287-2.794921 5.8257872-2.794921 9.3469756 0 1.8595038.215749 3.5805343.647245 5.1630913s1.068935 2.9870755 1.912314 4.2135572c.843379 1.2264818 1.784826 2.3342708 2.824341 3.3233691 1.039514.9890982 2.28497 1.8891768 3.736367 2.7002374 1.451398.8110606 2.873375 1.5133198 4.265932 2.1067786s2.971442 1.1869175 4.736655 1.7803763c2.785114.9099698 4.873949 1.6616845 6.266506 2.2551433 1.392558.5934588 2.481106 1.2363721 3.265645 1.928741.784538.6923688 1.176808 1.4935382 1.176808 2.403508 0 1.4638652-.647245 2.6507828-1.941734 3.5607526-1.29449.9099698-3.059703 1.3649551-5.295639 1.3649551-5.962497 0-11.395432-2.3144891-16.298801-6.9434675l-7.649256 10.9789871c6.550901 5.8158959 14.49436 8.7238439 23.830376 8.7238439zm53.926053 0c3.602349 0 6.539048-.3146392 8.810095-.9439184 2.271047-.6292793 4.522515-1.5535321 6.754406-2.7727604l-4.052644-12.624909c-2.662606 1.3765474-5.129433 2.0648216-7.40048 2.0648216-1.84033 0-3.161844-.6096137-3.964542-1.828842-.802698-1.2192282-1.204047-3.1267297-1.204047-5.7225054v-25.0728332h15.975639v-13.0968682h-15.975639v-21.002185l-15.740702 1.7108521v19.2913329h-6.930608v13.0968682h6.930608v27.2556445c0 6.450109 1.497716 11.3368539 4.493148 14.6602331s7.097021 4.9850692 12.304766 4.9850692zm61.963268-67.9090909 14.996582-18.00000001-16.590707.05960265-13.697665 17.94039736zm-7.515046 67.9090909c6.082089 0 11.512525-1.2759363 16.291309-3.827809 4.778785-2.5518727 8.510976-6.1620799 11.196573-10.8306225 2.685598-4.6685426 4.028397-9.9898889 4.028397-15.9640408 0-4.5102866-.780009-8.6743893-2.340025-12.492307-1.560016-3.8179178-3.722317-7.0621593-6.486903-9.7327238-2.764586-2.6705644-6.101836-4.7575614-10.01175-6.26099-3.909915-1.5034285-8.135781-2.2551433-12.677601-2.2551433-4.620808 0-8.905916.7714964-12.855325 2.3144892-3.949408 1.5429928-7.286658 3.6695531-10.01175 6.3796818-2.725092 2.7101286-4.847898 5.9642605-6.368421 9.7623966-1.520522 3.7981361-2.280783 7.8930016-2.280783 12.2845965 0 3.5211884.483803 6.8445575 1.451407 9.9701073.967605 3.1255498 2.379519 5.9444789 4.235741 8.4567874 1.856221 2.5123084 4.058017 4.6784329 6.605385 6.4983735 2.547369 1.8199405 5.460058 3.2244589 8.738066 4.2135572 3.278009.9890982 6.773236 1.4836469 10.48568 1.4836469zm.439155-13.9090909c-4.537678 0-8.269321-1.5683051-11.194929-4.7049153-2.925608-3.1366103-4.388412-7.0129871-4.388412-11.6291304 0-1.3414437.119412-2.633569.358237-3.8763768.238826-1.2428078.607015-2.4067075 1.104567-3.4916982.497552-1.0849906 1.084664-2.0910732 1.761335-3.0182475.676671-.9271744 1.452853-1.755713 2.328546-2.4856157.875692-.7299027 1.830993-1.3611705 2.865902-1.8938024 1.034908-.5326319 2.159377-.9370373 3.373405-1.2132172 1.214027-.2761798 2.477811-.4142692 3.791349-.4142692 4.45807 0 8.15986 1.5288506 11.10537 4.5865527 2.94551 3.057702 4.418265 6.9932602 4.418265 11.8066743 0 4.734506-1.492657 8.6404734-4.477971 11.7179023-2.985315 3.0774289-6.667203 4.6161434-11.045664 4.6161434zm60.05628 13.0909091v-27.2502011c0-4.5025479 1.333333-8.1828906 4-11.0410298 2.666666-2.8581392 6.37037-4.2872084 11.111111-4.2872084 1.224692 0 2.62716.0587289 4.207407.1761867v-17.2662913c-.237037-.0391529-.651852-.0587288-1.244444-.0587288-3.516049 0-6.814815.8319927-9.896296 2.4959774-3.081482 1.6639847-5.748149 4.0425044-8 7.1355592h-.177778v-8.6331457h-15.881482v58.7288818zm38.146425-67.0909091c2.682656 0 4.990529-.9608007 6.92362-2.882402s2.899636-4.2435366 2.899636-6.9658048c0-2.68223555-.966545-4.98415351-2.899636-6.90575484-1.933091-1.92160134-4.240964-2.88240201-6.92362-2.88240201-2.722107 0-5.039843.96080067-6.953208 2.88240201-1.913365 1.92160133-2.870048 4.22351929-2.870048 6.90575484 0 1.8015012.433959 3.4528773 1.301878 4.9541284.867918 1.501251 2.061305 2.6922432 3.580162 3.5729775 1.518857.8807342 3.165929 1.3211009 4.941216 1.3211009zm7.367442 67.0909091v-58.9090909h-15.553488v58.9090909zm42.248044.8181818c7.57091 0 13.465968-2.7299103 17.685173-8.189731h.295739v7.1808511h15.082672v-59.3458766h-15.851593v6.7060841h-.236591c-4.416364-5.1433096-10.232558-7.714964-17.448582-7.714964-3.90375 0-7.580768.7714964-11.031052 2.3144892s-6.407671 3.6596627-8.87216 6.3500088c-2.46449 2.6903461-4.406507 5.9543693-5.826052 9.7920696-1.419546 3.8377004-2.129319 7.9721292-2.129319 12.4032882 0 4.5102867.709773 8.6743893 2.129319 12.4923071 1.419545 3.8179177 3.381279 7.0423776 5.885199 9.6733778 2.503921 2.6310003 5.50074 4.678433 8.990456 6.1422983 3.489716 1.4638652 7.265313 2.1957974 11.326791 2.1957974zm2.455168-13.9090909c-4.482758 0-8.142355-1.4992599-10.978791-4.4977807s-4.254653-6.8847605-4.254653-11.658721c0-4.9712313 1.457888-8.9758346 4.373664-12.013809 2.915777-3.0379744 6.555539-4.556962 10.919286-4.556962 4.324077 0 7.904332 1.5781689 10.740768 4.734506 2.836436 3.156337 4.254654 7.101759 4.254654 11.836265 0 4.7739605-1.447971 8.6602002-4.343912 11.658721-2.895942 2.9985208-6.46628 4.4977807-10.711016 4.4977807z" fill="none" opacity=".201" stroke="#fff"/></svg>