<svg height="114" viewBox="0 0 1343 114" width="1343" xmlns="http://www.w3.org/2000/svg"><path d="m31.1841004 92c5.8242678 0 11.0519529-1.0154742 15.6830544-3.0464217 4.6311015-2.0309474 8.3420502-4.6711802 11.1328452-7.9206963l-11.1631799-9.8704062c-1.5774059 1.7872338-3.569386 3.2596712-5.9759414 4.4173114-2.4065554 1.1576403-5.1063462 1.7364604-8.0993724 1.7364604-4.8131099 0-8.7262898-1.5638301-11.7395398-4.6914894-3.0132499-3.1276592-4.5198744-7.1895551-4.5198744-12.1856866 0-2.4371374.3842395-4.6914894 1.1527196-6.7630561.7684801-2.0715668 1.8504184-3.8384913 3.2458159-5.3007737s3.1042542-2.6097676 5.1265691-3.4424565c2.0223148-.8326889 4.226639-1.2490329 6.6129707-1.2490329 5.7029288 0 10.4149236 2.1731144 14.1359832 6.5193424l10.9811716-9.5048356c-2.9930262-3.7775629-6.7949791-6.6716635-11.4058578-8.6823018-4.6108786-2.0106383-9.4037657-3.0159574-14.3786611-3.0159574-6.1882845 0-11.709205 1.3201164-16.5627615 3.9603482-4.8535564 2.6402318-8.63528556 6.3568662-11.34518824 11.1499033-2.70990268 4.793037-4.06485356 10.276596-4.06485356 16.4506769 0 6.1334626 1.34483992 11.5967115 4.03451883 16.3897486 2.68967891 4.793037 6.40062757 8.4995164 11.13284517 11.1194391 4.7322176 2.6199226 10.0711297 3.9298839 16.0167364 3.9298839zm63.8158996 0c6.175439 0 11.689223-1.3099613 16.541353-3.9298839 4.852131-2.6199227 8.641605-6.3264021 11.368421-11.1194391 2.726817-4.7930371 4.090226-10.256286 4.090226-16.3897486 0-4.6305609-.79198-8.9057063-2.37594-12.8254352-1.583959-3.9197289-3.779448-7.2504835-6.586466-9.992263s-6.195489-4.8844297-10.165414-6.4279497c-3.969924-1.54352-8.2606509-2.3152805-12.87218-2.3152805-4.6917293 0-9.0426062.7920696-13.0526316 2.3762089-4.0100253 1.5841393-7.3984962 3.7674078-10.1654135 6.5498066-2.7669173 2.7823987-4.9223055 6.1233075-6.4661654 10.0227272-1.54386 3.8994198-2.3157895 8.1034817-2.3157895 12.6121857 0 3.6150868.4912284 7.027079 1.4736842 10.2359768s2.4160404 6.1029984 4.3007519 8.6823018c1.8847115 2.5793033 4.1203007 4.8031911 6.7067669 6.6716634s5.54386 3.3104446 8.8721805 4.3259188 6.8771926 1.5232108 10.6466165 1.5232108zm1.0287908-14c-4.3761996 0-7.975048-1.5813743-10.7965451-4.744123-2.8214971-3.1627486-4.2322457-7.0714285-4.2322457-11.7260397 0-4.7739603 1.391555-8.7224235 4.1746641-11.8453888 2.7831091-3.1229654 6.4011519-4.6844485 10.8541267-4.6844485 4.2994242 0 7.8694822 1.541591 10.7101732 4.624774 2.84069 3.0831829 4.261036 7.0515373 4.261036 11.9050633 0 4.7739602-1.439539 8.7124773-4.318618 11.8155515-2.879079 3.1030741-6.429943 4.6546112-10.6525912 4.6546112zm97.9712092 13v-36.1768173c0-4.5880809-.490053-8.5671254-1.470157-11.9371316-.980104-3.3700063-2.403141-6.0497705-4.26911-8.0392928-1.865969-1.9895222-4.01466-3.4613618-6.446073-4.4155206-2.431414-.9541588-5.211519-1.4312377-8.340314-1.4312377-3.50576 0-6.832461.7612967-9.980105 2.28389s-5.871204 3.7252786-8.170681 6.608055h-.169633v-7.8565815h-15.153927v60.9037328h15.153927v-30.6345776c0-5.3189257 1.159162-9.4197777 3.477487-12.3025541 2.318324-2.8827763 5.437696-4.324165 9.358115-4.324165 3.69424 0 6.427225 1.13687 8.198953 3.410609 1.771727 2.2737391 2.657591 6.2121808 2.657591 11.8153242v32.0962672zm77 23v-83.9838256h-16.126074v6.874121h-.30086c-4.492837-5.2601969-10.570201-7.8902954-18.232092-7.8902954-8.103152 0-14.852435 2.9190105-20.247851 8.7570323-5.395416 5.8380219-8.093123 13.280005-8.093123 22.3259494 0 4.5428973.722063 8.7371077 2.166189 12.5826301s3.439828 7.0932961 5.987106 9.7433193c2.547278 2.6500231 5.595989 4.7122594 9.146132 6.1867088 3.550143 1.4744495 7.391117 2.2116737 11.522923 2.2116737 7.541547 0 13.498567-2.6101737 17.87106-7.8305204h.240687v31.0232068zm-31.145068-36c-4.371373 0-7.940038-1.5117538-10.705996-4.5352622s-4.148936-6.9421335-4.148936-11.755877c0-5.0126583 1.421663-9.0506333 4.26499-12.1139241s6.392651-4.5949367 10.647969-4.5949367c4.410058 0 8.027079 1.5813743 10.851064 4.744123 2.823985 3.1627486 4.235977 7.1509942 4.235977 11.9647378 0 4.8137435-1.441006 8.7323686-4.323017 11.755877-2.882012 3.0235084-6.489362 4.5352622-10.822051 4.5352622zm67.353179 14c3.304162 0 6.425827-.7214025 9.364995-2.1642085 2.939167-1.4428059 5.522945-3.5460507 7.751334-6.3097345h.230523v7.4375615h15.445037v-60.9636185h-15.445037v29.567355c0 5.6492956-1.229456 10.0183543-3.688367 13.1071779-2.458912 3.0888237-5.49413 4.633235-9.105657 4.633235-3.688367 0-6.329775-1.107506-7.924226-3.3225172-1.594451-2.2150111-2.391676-6.06588-2.391676-11.5526057v-32.432645h-15.445037v36.7000983c0 4.5519505.509071 8.473943 1.527215 11.7659784 1.018143 3.2920354 2.497331 5.913471 4.437566 7.8643068s4.159019 3.3834808 6.65635 4.2979351c2.497332.9144543 5.359659 1.3716814 8.58698 1.3716814zm56.791889-69c2.730923 0 5.080321-.9785933 7.048193-2.9357798 1.967872-1.9571866 2.951807-4.3221206 2.951807-7.0948012 0-2.7319066-.983935-5.07645264-2.951807-7.03363918-1.967872-1.95718655-4.31727-2.93577982-7.048193-2.93577982-2.771084 0-5.130522.97859327-7.078313 2.93577982-1.947791 1.95718654-2.921687 4.30173258-2.921687 7.03363918 0 1.8348623.441767 3.5168195 1.325301 5.0458715.883535 1.529052 2.098393 2.7420996 3.644579 3.6391438 1.546185.8970441 3.222891 1.3455657 5.03012 1.3455657zm7 68v-61h-15v61zm37.493064 1c7.308954 0 12.887348-1.7466154 16.735183-5.2398453 3.847835-3.4932298 5.771753-8.0628623 5.771753-13.7088974 0-1.5029017-.116015-2.8636364-.348045-4.0822051-.734763-4.0618958-2.977722-7.311412-6.728878-9.7485493-2.165616-1.4622824-6.458175-3.4323014-12.87768-5.910058-3.055065-1.2185687-5.26902-2.3152805-6.641866-3.2901354-1.372846-.974855-2.059269-2.0715668-2.059269-3.2901354 0-1.4622824.580076-2.5894584 1.740227-3.3815281 1.160152-.7920696 2.47499-1.1881044 3.944515-1.1881044 2.242959 0 4.572929.5382008 6.989912 1.6146035 2.416982 1.0764026 4.708281 2.6910061 6.873896 4.8438104l7.540984-11.9419729c-3.287096-2.6808511-6.632198-4.6305609-10.035309-5.8491296s-7.134931-1.827853-11.195461-1.827853c-3.944514 0-7.492644.7514504-10.644388 2.254352-3.151744 1.5029017-5.646069 3.645551-7.482976 6.4279497-1.836907 2.7823988-2.755359 5.9811415-2.755359 9.5962283 0 1.9090906.212694 3.6760151.638083 5.3007737.425388 1.6247585 1.053804 3.0667308 1.885246 4.3259187.831441 1.259188 1.759562 2.3965181 2.784363 3.4119923s2.252627 1.9395548 3.68348 2.7722437c1.430854.8326889 2.832703 1.5536751 4.205549 2.1629594s2.929382 1.2185687 4.669609 1.827853c2.745691.9342357 4.80496 1.7059961 6.177806 2.3152805 1.372846.6092843 2.445986 1.269342 3.21942 1.980174.773434.7108321 1.160151 1.5333659 1.160151 2.4676016 0 1.5029016-.638083 2.7214703-1.91425 3.655706-1.276166.9342356-3.016393 1.4013539-5.220681 1.4013539-5.878099 0-11.234132-2.3762089-16.068095-7.1286266l-7.540984 11.2717601c6.458175 5.9709865 14.289197 8.9564797 23.493064 8.9564797zm54.058506-1c3.575485 0 6.490283-.3146392 8.744394-.9439184 2.254111-.6292793 4.488789-1.5535321 6.704036-2.7727604l-4.022422-12.624909c-2.64275 1.3765474-5.09118 2.0648216-7.345291 2.0648216-1.826607 0-3.138266-.6096137-3.934978-1.828842-.796711-1.2192282-1.195067-3.1267297-1.195067-5.7225054v-25.0728332h15.856502v-13.0968682h-15.856502v-21.002185l-15.623318 1.7108521v19.2913329h-6.878924v13.0968682h6.878924v27.2556445c0 6.450109 1.486547 11.3368539 4.459641 14.6602331s7.044095 4.9850692 12.213005 4.9850692zm48.520684 1c7.768786 0 13.81792-2.8027079 18.147399-8.4081238h.303468v7.3723404h15.476879v-60.9284332h-16.265896v6.8849129h-.242775c-4.531792-5.2804645-10.5-7.9206963-17.904624-7.9206963-4.00578 0-7.778902.7920696-11.319364 2.3762089s-6.575144 3.7572537-9.104046 6.5193424c-2.528902 2.7620886-4.521677 6.1131525-5.978324 10.0531914-1.456647 3.940039-2.184971 8.1847193-2.184971 12.7340426 0 4.6305609.728324 8.9057063 2.184971 12.8254352s3.469654 7.2301744 6.039017 9.9313346c2.569364 2.7011603 5.644509 4.8031912 9.225434 6.3060929 3.580925 1.5029016 7.455202 2.254352 11.622832 2.254352zm2.513208-14c-4.292076 0-7.796005-1.5117538-10.511788-4.5352622s-4.073674-6.9421335-4.073674-11.755877c0-5.0126583 1.395874-9.0506333 4.187623-12.1139241 2.791748-3.0632908 6.276686-4.5949367 10.454813-4.5949367 4.140145 0 7.568107 1.5913204 10.28389 4.7739602 2.715783 3.1826399 4.073674 7.1609403 4.073674 11.9349006 0 4.8137435-1.386378 8.7323686-4.159136 11.755877-2.772757 3.0235084-6.191224 4.5352622-10.255402 4.5352622zm100.414538 13v-36.1768173c0-4.5880809-.490053-8.5671254-1.470157-11.9371316-.980104-3.3700063-2.403141-6.0497705-4.26911-8.0392928-1.865969-1.9895222-4.01466-3.4613618-6.446073-4.4155206-2.431414-.9541588-5.211519-1.4312377-8.340314-1.4312377-3.50576 0-6.832461.7612967-9.980105 2.28389s-5.871204 3.7252786-8.170681 6.608055h-.169633v-7.8565815h-15.153927v60.9037328h15.153927v-30.6345776c0-5.3189257 1.159162-9.4197777 3.477487-12.3025541 2.318324-2.8827763 5.437696-4.324165 9.358115-4.324165 3.69424 0 6.427225 1.13687 8.198953 3.410609 1.771727 2.2737391 2.657591 6.2121808 2.657591 11.8153242v32.0962672zm39.849904 0c7.910134 0 14.053537-2.7147541 18.430211-8.1442623h.361376v7.1409836h15.358509v-88.9967213h-16.141491v36.6491803h-.301148c-4.537284-5.1147544-10.600382-7.6721311-18.189292-7.6721311-3.975144 0-7.719408.7672131-11.232792 2.3016393-3.513384 1.5344263-6.524856 3.6393446-9.034417 6.3147541-2.50956 2.6754096-4.487093 5.9213112-5.9326 9.7377049-1.445507 3.8163938-2.16826 7.9278686-2.16826 12.3344263 0 2.5573767.240918 5.0262298.722753 7.4065573.481836 2.3803276 1.174475 4.5737705 2.077916 6.5803279.903442 2.0065574 1.99761 3.8754102 3.282505 5.6065574s2.750478 3.2459016 4.39675 4.5442623c1.646271 1.2983606 3.423039 2.4196721 5.330305 3.3639344 1.907267.9442623 3.965105 1.652459 6.173519 2.1245902 2.208413.4721311 4.497132.7081967 6.866156.7081967zm4.919327-13c-4.346154 0-7.894231-1.5117538-10.644231-4.5352622s-4.125-6.9421335-4.125-11.755877c0-5.0126583 1.413462-9.0506333 4.240385-12.1139241s6.355769-4.5949367 10.586538-4.5949367c4.384615 0 8.009615 1.5913204 10.875 4.7739602 2.865385 3.1826399 4.298077 7.1609403 4.298077 11.9349006 0 3.1826398-.682692 6.0271247-2.048077 8.5334538-1.365385 2.5063292-3.201923 4.4258593-5.509615 5.7585896-2.307693 1.3327302-4.865385 1.9990958-7.673077 1.9990958zm74.230769 14c6.175439 0 11.689223-1.3099613 16.541353-3.9298839 4.852131-2.6199227 8.641605-6.3264021 11.368421-11.1194391 2.726817-4.7930371 4.090226-10.256286 4.090226-16.3897486 0-4.6305609-.79198-8.9057063-2.37594-12.8254352-1.583959-3.9197289-3.779448-7.2504835-6.586466-9.992263s-6.195489-4.8844297-10.165414-6.4279497c-3.969924-1.54352-8.260651-2.3152805-12.87218-2.3152805-4.691729 0-9.042606.7920696-13.052632 2.3762089-4.010025 1.5841393-7.398496 3.7674078-10.165413 6.5498066-2.766917 2.7823987-4.922306 6.1233075-6.466166 10.0227272-1.543859 3.8994198-2.315789 8.1034817-2.315789 12.6121857 0 3.6150868.491228 7.027079 1.473684 10.2359768s2.416041 6.1029984 4.300752 8.6823018c1.884712 2.5793033 4.120301 4.8031911 6.706767 6.6716634s5.54386 3.3104446 8.87218 4.3259188c3.328321 1.0154742 6.877193 1.5232108 10.646617 1.5232108zm.028791-14c-4.3762 0-7.975048-1.5813743-10.796545-4.744123-2.821497-3.1627486-4.232246-7.0714285-4.232246-11.7260397 0-4.7739603 1.391555-8.7224235 4.174664-11.8453888 2.783109-3.1229654 6.401152-4.6844485 10.854127-4.6844485 4.299424 0 7.869482 1.541591 10.710173 4.624774 2.84069 3.0831829 4.261036 7.0515373 4.261036 11.9050633 0 4.7739602-1.439539 8.7124773-4.318618 11.8155515-2.879079 3.1030741-6.429943 4.6546112-10.652591 4.6546112zm104.971209 14c6.175439 0 11.689223-1.3099613 16.541353-3.9298839 4.852131-2.6199227 8.641605-6.3264021 11.368421-11.1194391 2.726817-4.7930371 4.090226-10.256286 4.090226-16.3897486 0-4.6305609-.79198-8.9057063-2.37594-12.8254352-1.583959-3.9197289-3.779448-7.2504835-6.586466-9.992263s-6.195489-4.8844297-10.165414-6.4279497c-3.969924-1.54352-8.260651-2.3152805-12.87218-2.3152805-4.691729 0-9.042606.7920696-13.052632 2.3762089-4.010025 1.5841393-7.398496 3.7674078-10.165413 6.5498066-2.766917 2.7823987-4.922306 6.1233075-6.466166 10.0227272-1.543859 3.8994198-2.315789 8.1034817-2.315789 12.6121857 0 3.6150868.491228 7.027079 1.473684 10.2359768s2.416041 6.1029984 4.300752 8.6823018c1.884712 2.5793033 4.120301 4.8031911 6.706767 6.6716634s5.54386 3.3104446 8.87218 4.3259188c3.328321 1.0154742 6.877193 1.5232108 10.646617 1.5232108zm-.971209-14c-4.3762 0-7.975048-1.5813743-10.796545-4.744123-2.821497-3.1627486-4.232246-7.0714285-4.232246-11.7260397 0-4.7739603 1.391555-8.7224235 4.174664-11.8453888 2.783109-3.1229654 6.401152-4.6844485 10.854127-4.6844485 4.299424 0 7.869482 1.541591 10.710173 4.624774 2.84069 3.0831829 4.261036 7.0515373 4.261036 11.9050633 0 4.7739602-1.439539 8.7124773-4.318618 11.8155515-2.879079 3.1030741-6.429943 4.6546112-10.652591 4.6546112zm94.4528 12v-45.9147541h12.808542v-13.1016393h-12.808542v-8.9704918c0-5.3114755 1.933726-7.9672132 5.801178-7.9672132 2.297496 0 5.169366.8655741 8.615611 2.5967214l3.10162-12.39344267c-1.608247-1.10163965-3.704713-2.0852456-6.289396-2.95081967-2.584684-.86557407-5.446981-1.29836066-8.586893-1.29836066-3.790869 0-7.026509.77704948-9.706922 2.33114754-2.680412 1.55409806-4.738586 3.89508197-6.174521 7.02295082-1.435935 3.12786884-2.153903 6.95409804-2.153903 11.47868854v10.1508197h-6.088365v13.1016393h6.088365v45.9147541zm44.72652 2c3.304162 0 6.425827-.7214025 9.364995-2.1642085 2.939167-1.4428059 5.522945-3.5460507 7.751334-6.3097345h.230523v7.4375615h15.445037v-60.9636185h-15.445037v29.567355c0 5.6492956-1.229456 10.0183543-3.688367 13.1071779-2.458912 3.0888237-5.49413 4.633235-9.105657 4.633235-3.688367 0-6.329775-1.107506-7.924226-3.3225172-1.594451-2.2150111-2.391676-6.06588-2.391676-11.5526057v-32.432645h-15.445037v36.7000983c0 4.5519505.509071 8.473943 1.527215 11.7659784 1.018143 3.2920354 2.497331 5.913471 4.437566 7.8643068s4.159019 3.3834808 6.65635 4.2979351c2.497332.9144543 5.359659 1.3716814 8.58698 1.3716814zm65.343459-1c3.57549 0 6.49028-.3146392 8.74439-.9439184 2.25412-.6292793 4.48879-1.5535321 6.70404-2.7727604l-4.02242-12.624909c-2.64275 1.3765474-5.09118 2.0648216-7.34529 2.0648216-1.82661 0-3.13827-.6096137-3.93498-1.828842-.79671-1.2192282-1.19507-3.1267297-1.19507-5.7225054v-25.0728332h15.8565v-13.0968682h-15.8565v-21.002185l-15.62332 1.7108521v19.2913329h-6.87892v13.0968682h6.87892v27.2556445c0 6.450109 1.48655 11.3368539 4.45965 14.6602331 2.97309 3.3233792 7.04409 4.9850692 12.213 4.9850692zm49.65654 1c3.30416 0 6.42583-.7214025 9.365-2.1642085 2.93916-1.4428059 5.52294-3.5460507 7.75133-6.3097345h.23052v7.4375615h15.44504v-60.9636185h-15.44504v29.567355c0 5.6492956-1.22945 10.0183543-3.68836 13.1071779-2.45892 3.0888237-5.49413 4.633235-9.10566 4.633235-3.68837 0-6.32978-1.107506-7.92423-3.3225172-1.59445-2.2150111-2.39167-6.06588-2.39167-11.5526057v-32.432645h-15.44504v36.7000983c0 4.5519505.50907 8.473943 1.52721 11.7659784 1.01815 3.2920354 2.49734 5.913471 4.43757 7.8643068 1.94024 1.9508358 4.15902 3.3834808 6.65635 4.2979351s5.35966 1.3716814 8.58698 1.3716814zm63.58314-1v-28.287119c0-4.6738777 1.32575-8.4942638 3.97727-11.4611603 2.65151-2.9668964 6.33417-4.4503441 11.04798-4.4503441 1.21773 0 2.61223.0609636 4.1835.1828909v-17.9233039c-.23569-.0406427-.64815-.0609636-1.23737-.0609636-3.49608 0-6.7761.8636516-9.84007 2.5909538s-5.71549 4.1963287-7.95455 7.4070796h-.17676v-8.9616519h-15.79125v60.9636185zm56.20875 1c6.17544 0 11.68922-1.3099613 16.54135-3.9298839 4.85213-2.6199227 8.64161-6.3264021 11.36842-11.1194391 2.72682-4.7930371 4.09023-10.256286 4.09023-16.3897486 0-4.6305609-.79198-8.9057063-2.37594-12.8254352s-3.77945-7.2504835-6.58647-9.992263c-2.80701-2.7417795-6.19548-4.8844297-10.16541-6.4279497-3.96992-1.54352-8.26065-2.3152805-12.87218-2.3152805-4.69173 0-9.04261.7920696-13.05263 2.3762089-4.01003 1.5841393-7.3985 3.7674078-10.16542 6.5498066-2.76691 2.7823987-4.9223 6.1233075-6.46616 10.0227272-1.54386 3.8994198-2.31579 8.1034817-2.31579 12.6121857 0 3.6150868.49123 7.027079 1.47368 10.2359768.98246 3.2088978 2.41604 6.1029984 4.30076 8.6823018 1.88471 2.5793033 4.1203 4.8031911 6.70676 6.6716634 2.58647 1.8684723 5.54386 3.3104446 8.87218 4.3259188s6.8772 1.5232108 10.64662 1.5232108zm.02879-15c-4.3762 0-7.97505-1.5813743-10.79654-4.744123-2.8215-3.1627486-4.23225-7.0714285-4.23225-11.7260397 0-4.7739603 1.39155-8.7224235 4.17466-11.8453888 2.78311-3.1229654 6.40116-4.6844485 10.85413-4.6844485 4.29943 0 7.86948 1.541591 10.71017 4.624774 2.84069 3.0831829 4.26104 7.0515373 4.26104 11.9050633 0 4.7739602-1.43954 8.7124773-4.31862 11.8155515-2.87908 3.1030741-6.42994 4.6546112-10.65259 4.6546112z" fill="none" opacity=".201" stroke="#fff"/></svg>