<?xml version="1.0" encoding="UTF-8"?>
<svg width="1243px" height="114px" viewBox="0 0 1243 114" version="1.1" xmlns="http://www.w3.org/2000/svg" xmlns:xlink="http://www.w3.org/1999/xlink">
    <title>outlines / conquistando o futuro</title>
    <g id="outlines-/-conquistando-o-futuro" stroke="none" stroke-width="1" fill="none" fill-rule="evenodd" fill-opacity="0" opacity="0.200753348">
        <path d="M31.1841004,92 C37.0083682,92 42.2360533,90.9845258 46.8671548,88.9535783 C51.4982563,86.9226309 55.209205,84.2823981 58,81.032882 L46.8368201,71.1624758 C45.2594142,72.9497096 43.2674341,74.422147 40.8608787,75.5797872 C38.4543233,76.7374275 35.7545325,77.3162476 32.7615063,77.3162476 C27.9483964,77.3162476 24.0352165,75.7524175 21.0219665,72.6247582 C18.0087166,69.497099 16.5020921,65.4352031 16.5020921,60.4390716 C16.5020921,58.0019342 16.8863316,55.7475822 17.6548117,53.6760155 C18.4232918,51.6044487 19.5052301,49.8375242 20.9006276,48.3752418 C22.2960251,46.9129594 24.0048818,45.7654742 26.0271967,44.9327853 C28.0495115,44.1000964 30.2538357,43.6837524 32.6401674,43.6837524 C38.3430962,43.6837524 43.055091,45.8568668 46.7761506,50.2030948 L57.7573222,40.6982592 C54.764296,36.9206963 50.9623431,34.0265957 46.3514644,32.0159574 C41.7405858,30.0053191 36.9476987,29 31.9728033,29 C25.7845188,29 20.2635983,30.3201164 15.4100418,32.9603482 C10.5564854,35.60058 6.77475624,39.3172144 4.06485356,44.1102515 C1.35495088,48.9032885 0,54.3868475 0,60.5609284 C0,66.694391 1.34483992,72.1576399 4.03451883,76.950677 C6.72419774,81.743714 10.4351464,85.4501934 15.167364,88.0701161 C19.8995816,90.6900387 25.2384937,92 31.1841004,92 Z M95,92 C101.175439,92 106.689223,90.6900387 111.541353,88.0701161 C116.393484,85.4501934 120.182958,81.743714 122.909774,76.950677 C125.636591,72.1576399 127,66.694391 127,60.5609284 C127,55.9303675 126.20802,51.6552221 124.62406,47.7354932 C123.040101,43.8157643 120.844612,40.4850097 118.037594,37.7432302 C115.230576,35.0014507 111.842105,32.8588005 107.87218,31.3152805 C103.902256,29.7717605 99.6115291,29 95,29 C90.3082707,29 85.9573938,29.7920696 81.9473684,31.3762089 C77.9373431,32.9603482 74.5488722,35.1436167 71.7819549,37.9260155 C69.0150376,40.7084142 66.8596494,44.049323 65.3157895,47.9487427 C63.7719295,51.8481625 63,56.0522244 63,60.5609284 C63,64.1760152 63.4912284,67.5880074 64.4736842,70.7969052 C65.45614,74.005803 66.8897246,76.8999036 68.7744361,79.479207 C70.6591476,82.0585103 72.8947368,84.2823981 75.481203,86.1508704 C78.0676692,88.0193427 81.025063,89.461315 84.3533835,90.4767892 C87.681704,91.4922634 91.2305761,92 95,92 Z M96.0287908,78 C91.6525912,78 88.0537428,76.4186257 85.2322457,73.255877 C82.4107486,70.0931284 81,66.1844485 81,61.5298373 C81,56.755877 82.391555,52.8074138 85.1746641,49.6844485 C87.9577732,46.5614831 91.575816,45 96.0287908,45 C100.328215,45 103.898273,46.541591 106.738964,49.624774 C109.579654,52.7079569 111,56.6763113 111,61.5298373 C111,66.3037975 109.560461,70.2423146 106.681382,73.3453888 C103.802303,76.4484629 100.251439,78 96.0287908,78 Z M194,91 L194,54.8231827 C194,50.2351018 193.509947,46.2560573 192.529843,42.8860511 C191.549739,39.5160448 190.126702,36.8362806 188.260733,34.8467583 C186.394764,32.8572361 184.246073,31.3853965 181.81466,30.4312377 C179.383246,29.4770789 176.603141,29 173.474346,29 C169.968586,29 166.641885,29.7612967 163.494241,31.28389 C160.346597,32.8064833 157.623037,35.0091686 155.32356,37.891945 L155.153927,37.891945 L155.153927,30.0353635 L140,30.0353635 L140,90.9390963 L155.153927,90.9390963 L155.153927,60.3045187 C155.153927,54.985593 156.313089,50.884741 158.631414,48.0019646 C160.949738,45.1191883 164.06911,43.6777996 167.989529,43.6777996 C171.683769,43.6777996 174.416754,44.8146696 176.188482,47.0884086 C177.960209,49.3621477 178.846073,53.3005894 178.846073,58.9037328 L178.846073,91 L194,91 Z M271,114 L271,30.0161744 L254.873926,30.0161744 L254.873926,36.8902954 L254.573066,36.8902954 C250.080229,31.6300985 244.002865,29 236.340974,29 C228.237822,29 221.488539,31.9190105 216.093123,37.7570323 C210.697707,43.5950542 208,51.0370373 208,60.0829817 C208,64.625879 208.722063,68.8200894 210.166189,72.6656118 C211.610315,76.5111342 213.606017,79.7589079 216.153295,82.4089311 C218.700573,85.0589542 221.749284,87.1211905 225.299427,88.5956399 C228.84957,90.0700894 232.690544,90.8073136 236.82235,90.8073136 C244.363897,90.8073136 250.320917,88.1971399 254.69341,82.9767932 L254.934097,82.9767932 L254.934097,114 L271,114 Z M239.854932,78 C235.483559,78 231.914894,76.4882462 229.148936,73.4647378 C226.382978,70.4412294 225,66.5226043 225,61.7088608 C225,56.6962025 226.421663,52.6582275 229.26499,49.5949367 C232.108317,46.5316459 235.657641,45 239.912959,45 C244.323017,45 247.940038,46.5813743 250.764023,49.744123 C253.588008,52.9068716 255,56.8951172 255,61.7088608 C255,66.5226043 253.558994,70.4412294 250.676983,73.4647378 C247.794971,76.4882462 244.187621,78 239.854932,78 Z M307.208111,92 C310.512273,92 313.633938,91.2785975 316.573106,89.8357915 C319.512273,88.3929856 322.096051,86.2897408 324.32444,83.526057 L324.554963,83.526057 L324.554963,90.9636185 L340,90.9636185 L340,30 L324.554963,30 L324.554963,59.567355 C324.554963,65.2166506 323.325507,69.5857093 320.866596,72.6745329 C318.407684,75.7633566 315.372466,77.3077679 311.760939,77.3077679 C308.072572,77.3077679 305.431164,76.2002619 303.836713,73.9852507 C302.242262,71.7702396 301.445037,67.9193707 301.445037,62.432645 L301.445037,30 L286,30 L286,66.7000983 C286,71.2520488 286.509071,75.1740413 287.527215,78.4660767 C288.545358,81.7581121 290.024546,84.3795477 291.964781,86.3303835 C293.905016,88.2812193 296.1238,89.7138643 298.621131,90.6283186 C301.118463,91.5427729 303.98079,92 307.208111,92 Z M364,23 C366.730923,23 369.080321,22.0214067 371.048193,20.0642202 C373.016065,18.1070336 374,15.7420996 374,12.969419 C374,10.2375124 373.016065,7.89296636 371.048193,5.93577982 C369.080321,3.97859327 366.730923,3 364,3 C361.228916,3 358.869478,3.97859327 356.921687,5.93577982 C354.973896,7.89296636 354,10.2375124 354,12.969419 C354,14.8042813 354.441767,16.4862385 355.325301,18.0152905 C356.208836,19.5443425 357.423694,20.7573901 358.96988,21.6544343 C360.516065,22.5514784 362.192771,23 364,23 Z M371,91 L371,30 L356,30 L356,91 L371,91 Z M408.493064,92 C415.802018,92 421.380412,90.2533846 425.228247,86.7601547 C429.076082,83.2669249 431,78.6972924 431,73.0512573 C431,71.5483556 430.883985,70.1876209 430.651955,68.9690522 C429.917192,64.9071564 427.674233,61.6576402 423.923077,59.2205029 C421.757461,57.7582205 417.464902,55.7882015 411.045397,53.3104449 C407.990332,52.0918762 405.776377,50.9951644 404.403531,50.0203095 C403.030685,49.0454545 402.344262,47.9487427 402.344262,46.7301741 C402.344262,45.2678917 402.924338,44.1407157 404.084489,43.348646 C405.244641,42.5565764 406.559479,42.1605416 408.029004,42.1605416 C410.271963,42.1605416 412.601933,42.6987424 415.018916,43.7751451 C417.435898,44.8515477 419.727197,46.4661512 421.892812,48.6189555 L429.433796,36.6769826 C426.1467,33.9961315 422.801598,32.0464217 419.398487,30.827853 C415.995376,29.6092843 412.263556,29 408.203026,29 C404.258512,29 400.710382,29.7514504 397.558638,31.254352 C394.406894,32.7572537 391.912569,34.899903 390.075662,37.6823017 C388.238755,40.4647005 387.320303,43.6634432 387.320303,47.27853 C387.320303,49.1876206 387.532997,50.9545451 387.958386,52.5793037 C388.383774,54.2040622 389.01219,55.6460345 389.843632,56.9052224 C390.675073,58.1644104 391.603194,59.3017405 392.627995,60.3172147 C393.652796,61.3326889 394.880622,62.2567695 396.311475,63.0894584 C397.742329,63.9221473 399.144178,64.6431335 400.517024,65.2524178 C401.88987,65.8617021 403.446406,66.4709865 405.186633,67.0802708 C407.932324,68.0145065 409.991593,68.7862669 411.364439,69.3955513 C412.737285,70.0048356 413.810425,70.6648933 414.583859,71.3757253 C415.357293,72.0865574 415.74401,72.9090912 415.74401,73.8433269 C415.74401,75.3462285 415.105927,76.5647972 413.82976,77.4990329 C412.553594,78.4332685 410.813367,78.9003868 408.609079,78.9003868 C402.73098,78.9003868 397.374947,76.5241779 392.540984,71.7717602 L385,83.0435203 C391.458175,89.0145068 399.289197,92 408.493064,92 Z M462.55157,91 C466.127055,91 469.041853,90.6853608 471.295964,90.0560816 C473.550075,89.4268023 475.784753,88.5025495 478,87.2833212 L473.977578,74.6584122 C471.334828,76.0349596 468.886398,76.7232338 466.632287,76.7232338 C464.80568,76.7232338 463.494021,76.1136201 462.697309,74.8943918 C461.900598,73.6751636 461.502242,71.7676621 461.502242,69.1718864 L461.502242,44.0990532 L477.358744,44.0990532 L477.358744,31.002185 L461.502242,31.002185 L461.502242,10 L445.878924,11.7108521 L445.878924,31.002185 L439,31.002185 L439,44.0990532 L445.878924,44.0990532 L445.878924,71.3546977 C445.878924,77.8048067 447.365471,82.6915516 450.338565,86.0149308 C453.311659,89.33831 457.38266,91 462.55157,91 Z M511.072254,92 C518.84104,92 524.890174,89.1972921 529.219653,83.5918762 L529.523121,83.5918762 L529.523121,90.9642166 L545,90.9642166 L545,30.0357834 L528.734104,30.0357834 L528.734104,36.9206963 L528.491329,36.9206963 C523.959537,31.6402318 517.991329,29 510.586705,29 C506.580925,29 502.807803,29.7920696 499.267341,31.3762089 C495.726879,32.9603482 492.692197,35.1334626 490.163295,37.8955513 C487.634393,40.6576399 485.641618,44.0087038 484.184971,47.9487427 C482.728324,51.8887817 482,56.133462 482,60.6827853 C482,65.3133462 482.728324,69.5884916 484.184971,73.5082205 C485.641618,77.4279494 487.654625,80.7383949 490.223988,83.4395551 C492.793352,86.1407154 495.868497,88.2427463 499.449422,89.745648 C503.030347,91.2485496 506.904624,92 511.072254,92 Z M513.585462,78 C509.293386,78 505.789457,76.4882462 503.073674,73.4647378 C500.357891,70.4412294 499,66.5226043 499,61.7088608 C499,56.6962025 500.395874,52.6582275 503.187623,49.5949367 C505.979371,46.5316459 509.464309,45 513.642436,45 C517.782581,45 521.210543,46.5913204 523.926326,49.7739602 C526.642109,52.9566001 528,56.9349005 528,61.7088608 C528,66.5226043 526.613622,70.4412294 523.840864,73.4647378 C521.068107,76.4882462 517.64964,78 513.585462,78 Z M614,91 L614,54.8231827 C614,50.2351018 613.509947,46.2560573 612.529843,42.8860511 C611.549739,39.5160448 610.126702,36.8362806 608.260733,34.8467583 C606.394764,32.8572361 604.246073,31.3853965 601.81466,30.4312377 C599.383246,29.4770789 596.603141,29 593.474346,29 C589.968586,29 586.641885,29.7612967 583.494241,31.28389 C580.346597,32.8064833 577.623037,35.0091686 575.32356,37.891945 L575.153927,37.891945 L575.153927,30.0353635 L560,30.0353635 L560,90.9390963 L575.153927,90.9390963 L575.153927,60.3045187 C575.153927,54.985593 576.313089,50.884741 578.631414,48.0019646 C580.949738,45.1191883 584.06911,43.6777996 587.989529,43.6777996 C591.683769,43.6777996 594.416754,44.8146696 596.188482,47.0884086 C597.960209,49.3621477 598.846073,53.3005894 598.846073,58.9037328 L598.846073,91 L614,91 Z M653.849904,91 C661.760038,91 667.903441,88.2852459 672.280115,82.8557377 L672.641491,82.8557377 L672.641491,89.9967213 L688,89.9967213 L688,1 L671.858509,1 L671.858509,37.6491803 L671.557361,37.6491803 C667.020077,32.5344259 660.956979,29.9770492 653.368069,29.9770492 C649.392925,29.9770492 645.648661,30.7442623 642.135277,32.2786885 C638.621893,33.8131148 635.610421,35.9180331 633.10086,38.5934426 C630.5913,41.2688522 628.613767,44.5147538 627.16826,48.3311475 C625.722753,52.1475413 625,56.2590161 625,60.6655738 C625,63.2229505 625.240918,65.6918036 625.722753,68.0721311 C626.204589,70.4524587 626.897228,72.6459016 627.800669,74.652459 C628.704111,76.6590164 629.798279,78.5278692 631.083174,80.2590164 C632.368069,81.9901636 633.833652,83.504918 635.479924,84.8032787 C637.126195,86.1016393 638.902963,87.2229508 640.810229,88.1672131 C642.717496,89.1114754 644.775334,89.8196721 646.983748,90.2918033 C649.192161,90.7639344 651.48088,91 653.849904,91 Z M658.769231,78 C654.423077,78 650.875,76.4882462 648.125,73.4647378 C645.375,70.4412294 644,66.5226043 644,61.7088608 C644,56.6962025 645.413462,52.6582275 648.240385,49.5949367 C651.067308,46.5316459 654.596154,45 658.826923,45 C663.211538,45 666.836538,46.5913204 669.701923,49.7739602 C672.567308,52.9566001 674,56.9349005 674,61.7088608 C674,64.8915006 673.317308,67.7359855 671.951923,70.2423146 C670.586538,72.7486438 668.75,74.6681739 666.442308,76.0009042 C664.134615,77.3336344 661.576923,78 658.769231,78 Z M733,92 C739.175439,92 744.689223,90.6900387 749.541353,88.0701161 C754.393484,85.4501934 758.182958,81.743714 760.909774,76.950677 C763.636591,72.1576399 765,66.694391 765,60.5609284 C765,55.9303675 764.20802,51.6552221 762.62406,47.7354932 C761.040101,43.8157643 758.844612,40.4850097 756.037594,37.7432302 C753.230576,35.0014507 749.842105,32.8588005 745.87218,31.3152805 C741.902256,29.7717605 737.611529,29 733,29 C728.308271,29 723.957394,29.7920696 719.947368,31.3762089 C715.937343,32.9603482 712.548872,35.1436167 709.781955,37.9260155 C707.015038,40.7084142 704.859649,44.049323 703.315789,47.9487427 C701.77193,51.8481625 701,56.0522244 701,60.5609284 C701,64.1760152 701.491228,67.5880074 702.473684,70.7969052 C703.45614,74.005803 704.889725,76.8999036 706.774436,79.479207 C708.659148,82.0585103 710.894737,84.2823981 713.481203,86.1508704 C716.067669,88.0193427 719.025063,89.461315 722.353383,90.4767892 C725.681704,91.4922634 729.230576,92 733,92 Z M733.028791,78 C728.652591,78 725.053743,76.4186257 722.232246,73.255877 C719.410749,70.0931284 718,66.1844485 718,61.5298373 C718,56.755877 719.391555,52.8074138 722.174664,49.6844485 C724.957773,46.5614831 728.575816,45 733.028791,45 C737.328215,45 740.898273,46.541591 743.738964,49.624774 C746.579654,52.7079569 748,56.6763113 748,61.5298373 C748,66.3037975 746.560461,70.2423146 743.681382,73.3453888 C740.802303,76.4484629 737.251439,78 733.028791,78 Z M838,92 C844.175439,92 849.689223,90.6900387 854.541353,88.0701161 C859.393484,85.4501934 863.182958,81.743714 865.909774,76.950677 C868.636591,72.1576399 870,66.694391 870,60.5609284 C870,55.9303675 869.20802,51.6552221 867.62406,47.7354932 C866.040101,43.8157643 863.844612,40.4850097 861.037594,37.7432302 C858.230576,35.0014507 854.842105,32.8588005 850.87218,31.3152805 C846.902256,29.7717605 842.611529,29 838,29 C833.308271,29 828.957394,29.7920696 824.947368,31.3762089 C820.937343,32.9603482 817.548872,35.1436167 814.781955,37.9260155 C812.015038,40.7084142 809.859649,44.049323 808.315789,47.9487427 C806.77193,51.8481625 806,56.0522244 806,60.5609284 C806,64.1760152 806.491228,67.5880074 807.473684,70.7969052 C808.45614,74.005803 809.889725,76.8999036 811.774436,79.479207 C813.659148,82.0585103 815.894737,84.2823981 818.481203,86.1508704 C821.067669,88.0193427 824.025063,89.461315 827.353383,90.4767892 C830.681704,91.4922634 834.230576,92 838,92 Z M837.028791,78 C832.652591,78 829.053743,76.4186257 826.232246,73.255877 C823.410749,70.0931284 822,66.1844485 822,61.5298373 C822,56.755877 823.391555,52.8074138 826.174664,49.6844485 C828.957773,46.5614831 832.575816,45 837.028791,45 C841.328215,45 844.898273,46.541591 847.738964,49.624774 C850.579654,52.7079569 852,56.6763113 852,61.5298373 C852,66.3037975 850.560461,70.2423146 847.681382,73.3453888 C844.802303,76.4484629 841.251439,78 837.028791,78 Z M931.481591,90 L931.481591,44.0852459 L944.290133,44.0852459 L944.290133,30.9836066 L931.481591,30.9836066 L931.481591,22.0131148 C931.481591,16.7016393 933.415317,14.0459016 937.282769,14.0459016 C939.580265,14.0459016 942.452135,14.9114757 945.89838,16.642623 L949,4.24918033 C947.391753,3.14754068 945.295287,2.16393473 942.710604,1.29836066 C940.12592,0.432786585 937.263623,0 934.123711,0 C930.332842,0 927.097202,0.777049481 924.416789,2.33114754 C921.736377,3.8852456 919.678203,6.22622951 918.242268,9.35409836 C916.806333,12.4819672 916.088365,16.3081964 916.088365,20.8327869 L916.088365,30.9836066 L910,30.9836066 L910,44.0852459 L916.088365,44.0852459 L916.088365,90 L931.481591,90 Z M976.208111,92 C979.512273,92 982.633938,91.2785975 985.573106,89.8357915 C988.512273,88.3929856 991.096051,86.2897408 993.32444,83.526057 L993.554963,83.526057 L993.554963,90.9636185 L1009,90.9636185 L1009,30 L993.554963,30 L993.554963,59.567355 C993.554963,65.2166506 992.325507,69.5857093 989.866596,72.6745329 C987.407684,75.7633566 984.372466,77.3077679 980.760939,77.3077679 C977.072572,77.3077679 974.431164,76.2002619 972.836713,73.9852507 C971.242262,71.7702396 970.445037,67.9193707 970.445037,62.432645 L970.445037,30 L955,30 L955,66.7000983 C955,71.2520488 955.509071,75.1740413 956.527215,78.4660767 C957.545358,81.7581121 959.024546,84.3795477 960.964781,86.3303835 C962.905016,88.2812193 965.1238,89.7138643 967.621131,90.6283186 C970.118463,91.5427729 972.98079,92 976.208111,92 Z M1041.55157,91 C1045.12706,91 1048.04185,90.6853608 1050.29596,90.0560816 C1052.55008,89.4268023 1054.78475,88.5025495 1057,87.2833212 L1052.97758,74.6584122 C1050.33483,76.0349596 1047.8864,76.7232338 1045.63229,76.7232338 C1043.80568,76.7232338 1042.49402,76.1136201 1041.69731,74.8943918 C1040.9006,73.6751636 1040.50224,71.7676621 1040.50224,69.1718864 L1040.50224,44.0990532 L1056.35874,44.0990532 L1056.35874,31.002185 L1040.50224,31.002185 L1040.50224,10 L1024.87892,11.7108521 L1024.87892,31.002185 L1018,31.002185 L1018,44.0990532 L1024.87892,44.0990532 L1024.87892,71.3546977 C1024.87892,77.8048067 1026.36547,82.6915516 1029.33857,86.0149308 C1032.31166,89.33831 1036.38266,91 1041.55157,91 Z M1091.20811,92 C1094.51227,92 1097.63394,91.2785975 1100.57311,89.8357915 C1103.51227,88.3929856 1106.09605,86.2897408 1108.32444,83.526057 L1108.55496,83.526057 L1108.55496,90.9636185 L1124,90.9636185 L1124,30 L1108.55496,30 L1108.55496,59.567355 C1108.55496,65.2166506 1107.32551,69.5857093 1104.8666,72.6745329 C1102.40768,75.7633566 1099.37247,77.3077679 1095.76094,77.3077679 C1092.07257,77.3077679 1089.43116,76.2002619 1087.83671,73.9852507 C1086.24226,71.7702396 1085.44504,67.9193707 1085.44504,62.432645 L1085.44504,30 L1070,30 L1070,66.7000983 C1070,71.2520488 1070.50907,75.1740413 1071.52721,78.4660767 C1072.54536,81.7581121 1074.02455,84.3795477 1075.96478,86.3303835 C1077.90502,88.2812193 1080.1238,89.7138643 1082.62113,90.6283186 C1085.11846,91.5427729 1087.98079,92 1091.20811,92 Z M1154.79125,91 L1154.79125,62.712881 C1154.79125,58.0390033 1156.117,54.2186172 1158.76852,51.2517207 C1161.42003,48.2848243 1165.10269,46.8013766 1169.8165,46.8013766 C1171.03423,46.8013766 1172.42873,46.8623402 1174,46.9842675 L1174,29.0609636 C1173.76431,29.0203209 1173.35185,29 1172.76263,29 C1169.26655,29 1165.98653,29.8636516 1162.92256,31.5909538 C1159.85859,33.318256 1157.20707,35.7872825 1154.96801,38.9980334 L1154.79125,38.9980334 L1154.79125,30.0363815 L1139,30.0363815 L1139,91 L1154.79125,91 Z M1211,92 C1217.17544,92 1222.68922,90.6900387 1227.54135,88.0701161 C1232.39348,85.4501934 1236.18296,81.743714 1238.90977,76.950677 C1241.63659,72.1576399 1243,66.694391 1243,60.5609284 C1243,55.9303675 1242.20802,51.6552221 1240.62406,47.7354932 C1239.0401,43.8157643 1236.84461,40.4850097 1234.03759,37.7432302 C1231.23058,35.0014507 1227.84211,32.8588005 1223.87218,31.3152805 C1219.90226,29.7717605 1215.61153,29 1211,29 C1206.30827,29 1201.95739,29.7920696 1197.94737,31.3762089 C1193.93734,32.9603482 1190.54887,35.1436167 1187.78195,37.9260155 C1185.01504,40.7084142 1182.85965,44.049323 1181.31579,47.9487427 C1179.77193,51.8481625 1179,56.0522244 1179,60.5609284 C1179,64.1760152 1179.49123,67.5880074 1180.47368,70.7969052 C1181.45614,74.005803 1182.88972,76.8999036 1184.77444,79.479207 C1186.65915,82.0585103 1188.89474,84.2823981 1191.4812,86.1508704 C1194.06767,88.0193427 1197.02506,89.461315 1200.35338,90.4767892 C1203.6817,91.4922634 1207.23058,92 1211,92 Z M1211.02879,77 C1206.65259,77 1203.05374,75.4186257 1200.23225,72.255877 C1197.41075,69.0931284 1196,65.1844485 1196,60.5298373 C1196,55.755877 1197.39155,51.8074138 1200.17466,48.6844485 C1202.95777,45.5614831 1206.57582,44 1211.02879,44 C1215.32822,44 1218.89827,45.541591 1221.73896,48.624774 C1224.57965,51.7079569 1226,55.6763113 1226,60.5298373 C1226,65.3037975 1224.56046,69.2423146 1221.68138,72.3453888 C1218.8023,75.4484629 1215.25144,77 1211.02879,77 Z" id="conquistandoofuturo-copy" stroke="#FFFFFF" fill="#FE6153" fill-rule="nonzero"></path>
    </g>
</svg>