<svg height="116" viewBox="0 0 1091 116" width="1091" xmlns="http://www.w3.org/2000/svg"><path d="m22.5832106 92v-46.935082h13.4653903v-13.3927869h-13.4653903v-9.169836c0-5.4295082 2.0328918-8.1442623 6.0986745-8.1442623 2.4153167 0 5.4344625.884809 9.0574374 2.6544262l3.2606775-12.66885244c-1.6907216-1.12612053-3.8946981-2.1315844-6.6119293-3.01639345-2.7172312-.88480904-5.7263129-1.32721311-9.027246-1.32721311-3.9852724 0-7.386843.79431725-10.2047128 2.38295082-2.8178697 1.58863357-4.9815905 3.98163934-6.49116345 7.17901639-1.5095729 3.19737709-2.26435935 7.10863359-2.26435935 11.73377049v10.3763934h-6.4005891v13.3927869h6.4005891v46.935082zm46.8031288 1c3.4877265 0 6.7828175-.709767 9.8852721-2.1293019 3.1024547-1.4195349 5.8297756-3.4888564 8.1819637-6.2079646h.2433298v7.3176008h16.303095v-59.9803343h-16.303095v29.0904621c0 5.558178-1.2977585 9.856768-3.8932764 12.8957719s-5.7993593 4.5585054-9.6115261 4.5585054c-3.8932765 0-6.6814298-1.089643-8.3644611-3.2689282s-2.5245464-5.9680433-2.5245464-11.3662733v-31.9095379h-16.303095v36.1081613c0 4.4785319.5373529 8.3372664 1.6120598 11.5762045 1.0747068 3.238938 2.6360722 5.8180924 4.6840982 7.7374631 2.0480259 1.9193707 4.390075 3.3289086 7.0261472 4.2286136 2.6360723.899705 5.6574173 1.3495575 9.0640342 1.3495575zm107.6136606-1v-36.1768173c0-4.5880809-.526353-8.5671254-1.579058-11.9371316-1.052704-3.3700063-2.581151-6.0497705-4.58534-8.0392928-2.004188-1.9895222-4.312042-3.4613618-6.92356-4.4155206s-5.597557-1.4312377-8.958115-1.4312377c-3.765445 0-7.338569.7612967-10.719372 2.28389s-6.306108 3.7252786-8.775916 6.608055h-.182199v-7.8565815h-16.27644v60.9037328h16.27644v-30.6345776c0-5.3189257 1.245026-9.4197777 3.735078-12.3025541 2.490053-2.8827763 5.840489-4.324165 10.051309-4.324165 3.967888 0 6.903316 1.13687 8.806283 3.410609 1.902966 2.2737391 2.85445 6.2121808 2.85445 11.8153242v32.0962672zm41.849904 1c7.910134 0 14.053537-2.775082 18.430211-8.3252459h.361376v7.2996721h15.358509v-90.9744262h-16.141491v37.4636066h-.301148c-4.537284-5.2284157-10.600382-7.842623-18.189292-7.842623-3.975144 0-7.719408.7842623-11.232792 2.3527869s-6.524856 3.7202189-9.034417 6.455082c-2.50956 2.734863-4.487093 6.0528958-5.9326 9.9540983s-2.16826 8.1040434-2.16826 12.6085246c0 2.6142074.240918 5.1379238.722753 7.5711476.481836 2.4332237 1.174475 4.6754098 2.077916 6.7265573.903442 2.0511476 1.99761 3.9615304 3.282505 5.7311476 1.284895 1.7696171 2.750478 3.3180328 4.39675 4.6452459 1.646271 1.3272131 3.423039 2.4734426 5.330305 3.4386885 1.907267.9652459 3.965105 1.6891803 6.173519 2.1718033 2.208413.4826229 4.497132.7239344 6.866156.7239344zm2.411634-14c-4.491025 0-8.157371-1.5117538-10.999038-4.5352622s-4.2625-6.9421335-4.2625-11.755877c0-5.0126583 1.460577-9.0506333 4.381731-12.1139241s6.567628-4.5949367 10.939423-4.5949367c4.530769 0 8.276602 1.5913204 11.2375 4.7739602 2.960898 3.1826399 4.441346 7.1609403 4.441346 11.9349006 0 3.1826398-.705448 6.0271247-2.116346 8.5334538-1.410898 2.5063292-3.308654 4.4258593-5.693269 5.7585896-2.384616 1.3327302-5.027564 1.9990958-7.928847 1.9990958zm72.810716 14c7.768786 0 13.81792-2.7582205 18.147399-8.2746615h.303468v7.2553191h15.476879v-59.9613152h-16.265896v6.7756286h-.242775c-4.531792-5.1966476-10.5-7.794971-17.904624-7.794971-4.00578 0-7.778902.7794971-11.319364 2.3384913s-6.575144 3.6976147-9.104046 6.4158607-4.521677 6.0161184-5.978324 9.8936171c-1.456647 3.8774986-2.184971 8.054803-2.184971 12.5319148 0 4.55706.728324 8.7643459 2.184971 12.6218569s3.469654 7.1154097 6.039017 9.7736944c2.569364 2.6582847 5.644509 4.7269501 9.225434 6.2059961 3.580925 1.4790461 7.455202 2.2185687 11.622832 2.2185687zm3.519102-14c-4.588081 0-8.333661-1.5117538-11.236739-4.5352622s-4.354617-6.9421335-4.354617-11.755877c0-5.0126583 1.492141-9.0506333 4.476424-12.1139241s6.709562-4.5949367 11.175835-4.5949367c4.425672 0 8.090046 1.5913204 10.993124 4.7739602 2.903078 3.1826399 4.354617 7.1609403 4.354617 11.9349006 0 4.8137435-1.481991 8.7323686-4.445972 11.755877-2.963982 3.0235084-6.618206 4.5352622-10.962672 4.5352622zm71.437933 37c5.177126 0 9.009414-.885417 11.496862-2.65625 2.487447-1.770833 3.731171-4.14536 3.731171-7.12358 0-3.098958-.980823-5.493608-2.942468-7.1839484-1.961646-1.6903409-4.782776-2.6160035-8.46339-2.7769886l-.121338-.181108 1.395397-2.7166193c5.379359-.2414773 10.222803-1.3482478 14.530335-3.3203125 4.307531-1.9720647 7.755578-4.4673296 10.344142-7.4857955l-11.16318-9.7798295c-1.577406 1.770833-3.569386 3.2297585-5.975941 4.3767756-2.406556 1.147017-5.106347 1.7205255-8.099373 1.7205255-4.81311 0-8.72629-1.5494795-11.739539-4.6484375-3.01325-3.098958-4.519875-7.1235795-4.519875-12.0738636 0-4.9100376 1.486402-8.9044744 4.459205-11.9833097 2.972803-3.0788352 6.86576-4.6182528 11.67887-4.6182528 5.702929 0 10.414924 2.1531726 14.135984 6.459517l10.981171-9.4176136c-2.993026-3.7428977-6.794979-6.6104403-11.405858-8.6026279-4.610878-1.9921874-9.403765-2.9882812-14.378661-2.9882812-6.188284 0-11.709205 1.3080022-16.562761 3.9240057-4.853557 2.6160035-8.635286 6.2985319-11.345188 11.0475852-2.709903 4.7490533-4.064854 10.182292-4.064854 16.2997159 0 5.2722535 1.031381 10.0716143 3.094142 14.3980824 2.062762 4.3264681 4.934449 7.8681342 8.615063 10.625s7.927476 4.59813 12.740586 5.5237926v.181108l-1.880753 3.803267v4.5880682c3.195258 0 5.692817.372278 7.492677 1.116832 1.799861.744555 2.699791 1.700403 2.699791 2.867543 0 1.207386-.586471 2.092803-1.759414 2.65625-1.172942.563447-2.56834.84517-4.186192.84517-2.62901 0-4.752441-.281723-6.370293-.84517v7.244318c2.50767.482955 5.035565.724432 7.583682.724432zm80.38014-92c2.269644 0 4.367039-.666127 6.292184-1.9983819s3.576716-3.1666666 4.954715-5.5032362c1.377998-2.3365696 2.492555-5.083064 3.343672-8.23948222l-9.544665-3.19741101c-.810587 1.92664478-1.823821 3.43311727-3.039702 4.51941748-1.215881 1.08630025-2.55335 1.62944985-4.012407 1.62944985-.770058 0-1.590778-.1639701-2.462159-.4919094s-1.529984-.6148867-1.975806-.86084142c-.445823-.24595469-1.215881-.71736817-2.310174-1.41423948-1.296939-.77885684-2.279777-1.34250239-2.948511-1.69093852-.668735-.34843612-1.732631-.72761565-3.191688-1.13754045s-2.978908-.61488673-4.559553-.61488673c-3.485525 0-6.515095 1.3322549-9.08871 3.99676375-2.573614 2.66450885-4.529156 6.21035595-5.866625 10.63754045l9.727047 4.2427185c1.742763-4.1812298 4.073201-6.2718447 6.991315-6.2718447.729529 0 1.519851.1434733 2.370968.4304207.851117.2869475 1.550248.573894 2.097395.8608414.547146.2869475 1.327336.7378641 2.34057 1.3527508 1.864351 1.1887807 3.63751 2.1111108 5.319479 2.7669903s3.536187.9838188 5.562655.9838188zm-14.337175 69c7.768786 0 13.81792-2.7582205 18.147399-8.2746615h.303468v7.2553191h15.476879v-59.9613152h-16.265896v6.7756286h-.242775c-4.531792-5.1966476-10.5-7.794971-17.904624-7.794971-4.00578 0-7.778902.7794971-11.319364 2.3384913s-6.575144 3.6976147-9.104046 6.4158607-4.521677 6.0161184-5.978324 9.8936171c-1.456647 3.8774986-2.184971 8.054803-2.184971 12.5319148 0 3.6376535.465318 7.0654414 1.395954 10.2833656.930635 3.2179242 2.265895 6.0760797 4.00578 8.5744681s3.793353 4.6470019 6.160405 6.4458414 5.047688 3.1679558 8.041907 4.1073501c2.99422.9393942 6.150289 1.4090909 9.468208 1.4090909zm3.519102-14c-4.588081 0-8.333661-1.5117538-11.236739-4.5352622s-4.354617-6.9421335-4.354617-11.755877c0-5.0126583 1.492141-9.0506333 4.476424-12.1139241s6.709562-4.5949367 11.175835-4.5949367c2.192535 0 4.23281.4276676 6.120825 1.2830018 1.888016.8553342 3.512116 2.018987 4.872299 3.4909584s2.425998 3.2423144 3.197446 5.3110308 1.157171 4.276673 1.157171 6.6238698c0 4.8137435-1.481991 8.7323686-4.445972 11.755877-2.963982 3.0235084-6.618206 4.5352622-10.962672 4.5352622zm75.408644 14c6.175439 0 11.689223-1.2891683 16.541353-3.8675048 4.852131-2.5783366 8.641605-6.225983 11.368421-10.9429401 2.726817-4.7169571 4.090226-10.0934877 4.090226-16.1295938 0-4.5570599-.79198-8.7643459-2.37594-12.6218569-1.583959-3.8575109-3.779448-7.1353965-6.586466-9.8336557-2.807018-2.6982591-6.195489-4.806899-10.165414-6.3259187-3.969924-1.5190197-8.260651-2.27853-12.87218-2.27853-4.691729 0-9.042606.7794971-13.052632 2.3384913-4.010025 1.5589942-7.398496 3.7076077-10.165413 6.4458414s-4.922306 6.0261122-6.466166 9.8636364c-1.543859 3.8375241-2.315789 7.9748549-2.315789 12.4119922 0 3.5577044.491228 6.9155381 1.473684 10.073501s2.416041 6.0061254 4.300752 8.5444874c1.884712 2.5383621 4.120301 4.7269501 6.706767 6.565764 2.586466 1.838814 5.54386 3.2578979 8.87218 4.2572534 3.328321.9993556 6.877193 1.4990329 10.646617 1.4990329zm-.47025-14c-4.522072 0-8.240882-1.5813743-11.156429-4.744123-2.915547-3.1627486-4.373321-7.0714285-4.373321-11.7260397 0-4.7739603 1.43794-8.7224235 4.31382-11.8453888 2.875879-3.1229654 6.614523-4.6844485 11.21593-4.6844485 4.442739 0 8.131799 1.541591 11.067179 4.624774 2.93538 3.0831829 4.403071 7.0515373 4.403071 11.9050633 0 4.7739602-1.487524 8.7124773-4.462572 11.8155515-2.975048 3.1030741-6.644274 4.6546112-11.007678 4.6546112zm103.320154 14c7.910134 0 14.053537-2.775082 18.430211-8.3252459h.361376v7.2996721h15.358509v-90.9744262h-16.141491v37.4636066h-.301148c-4.537284-5.2284157-10.600382-7.842623-18.189292-7.842623-3.975144 0-7.719408.7842623-11.232792 2.3527869s-6.524856 3.7202189-9.034417 6.455082c-2.50956 2.734863-4.487093 6.0528958-5.9326 9.9540983s-2.16826 8.1040434-2.16826 12.6085246c0 2.6142074.240918 5.1379238.722753 7.5711476.481836 2.4332237 1.174475 4.6754098 2.077916 6.7265573.903442 2.0511476 1.99761 3.9615304 3.282505 5.7311476 1.284895 1.7696171 2.750478 3.3180328 4.39675 4.6452459 1.646271 1.3272131 3.423039 2.4734426 5.330305 3.4386885 1.907267.9652459 3.965105 1.6891803 6.173519 2.1718033 2.208413.4826229 4.497132.7239344 6.866156.7239344zm3.411634-14c-4.491025 0-8.157371-1.5117538-10.999038-4.5352622s-4.2625-6.9421335-4.2625-11.755877c0-5.0126583 1.460577-9.0506333 4.381731-12.1139241s6.567628-4.5949367 10.939423-4.5949367c4.530769 0 8.276602 1.5913204 11.2375 4.7739602 2.960898 3.1826399 4.441346 7.1609403 4.441346 11.9349006 0 3.1826398-.705448 6.0271247-2.116346 8.5334538-1.410898 2.5063292-3.308654 4.4258593-5.693269 5.7585896-2.384616 1.3327302-5.027564 1.9990958-7.928847 1.9990958zm73.810716 14c7.768786 0 13.81792-2.7582205 18.147399-8.2746615h.303468v7.2553191h15.476879v-59.9613152h-16.265896v6.7756286h-.242775c-4.531792-5.1966476-10.5-7.794971-17.904624-7.794971-4.00578 0-7.778902.7794971-11.319364 2.3384913s-6.575144 3.6976147-9.104046 6.4158607-4.521677 6.0161184-5.978324 9.8936171c-1.456647 3.8774986-2.184971 8.054803-2.184971 12.5319148 0 4.55706.728324 8.7643459 2.184971 12.6218569s3.469654 7.1154097 6.039017 9.7736944c2.569364 2.6582847 5.644509 4.7269501 9.225434 6.2059961 3.580925 1.4790461 7.455202 2.2185687 11.622832 2.2185687zm2.519102-14c-4.588081 0-8.333661-1.5117538-11.236739-4.5352622s-4.354617-6.9421335-4.354617-11.755877c0-5.0126583 1.492141-9.0506333 4.476424-12.1139241s6.709562-4.5949367 11.175835-4.5949367c4.425672 0 8.090046 1.5913204 10.993124 4.7739602 2.903078 3.1826399 4.354617 7.1609403 4.354617 11.9349006 0 4.8137435-1.481991 8.7323686-4.445972 11.755877-2.963982 3.0235084-6.618206 4.5352622-10.962672 4.5352622zm98.428322 13v-30.1195876h10.00805l19.536673 30.1195876h20.435599l-21.514311-31.9340206v-.2419244c3.755516-1.2499431 6.941711-3.0442151 9.558586-5.3828179 2.616876-2.3386028 4.654443-5.2920962 6.112702-8.8604811 1.458258-3.5683849 2.187388-7.6508591 2.187388-12.2474227 0-4.3143181-.609273-8.2254295-1.827818-11.7333333-1.218544-3.5079038-3.036374-6.5924399-5.453488-9.2536082-2.417114-2.66116843-5.593321-4.71752582-9.528623-6.16907221-3.935301-1.45154639-8.459898-2.17731959-13.573792-2.17731959h-32.960644v88zm11.312954-45h-12.332632v-27h13.065263c5.047018 0 8.964561 1.2080537 11.752632 3.6241611 2.78807 2.4161074 4.182105 5.6979862 4.182105 9.8456376 0 4.1476513-1.444913 7.4395976-4.334737 9.8758389s-7.000702 3.6543624-12.332631 3.6543624zm78.619521 46c2.974162 0 5.888039-.3122804 8.741627-.9368404s5.636842-1.6520624 8.349761-3.0825072c2.712918-1.4304448 5.094258-3.1630953 7.144019-5.1979533s3.697607-4.5935402 4.94354-7.6760474c1.245934-3.0825072 1.8689-6.4772948 1.8689-10.184362 0-3.626479-.562679-6.8097221-1.688038-9.5497281-1.808613-4.3920694-5.445933-8.0789898-10.911962-11.0607612-2.371292-1.2894144-7.214354-3.3645669-14.529187-6.2254557-2.290909-.8864729-4.109569-1.6218417-5.45598-2.2061081-1.346412-.5842663-2.692824-1.2491208-4.039235-1.9945634s-2.361244-1.4707385-3.044498-2.1758875c-.683253-.705149-1.225837-1.500959-1.627751-2.387432s-.602871-1.8736809-.602871-2.9616246c.040192-2.7400061 1.034929-4.8957467 2.984211-6.4672209 1.949282-1.5714743 4.471292-2.3572114 7.566029-2.3572114 5.707177 0 12.077511 2.8810364 19.111004 8.6431084l10.007656-13.1157659c-9.083254-7.49472341-18.930144-11.18164378-29.54067-11.06076114-5.184689.08058811-9.927273 1.21890021-14.227751 3.41493444s-7.696651 5.2080272-10.188517 9.035977-3.737799 8.058842-3.737799 12.6926767c0 2.29677.271292 4.4625836.813876 6.4974416.542583 2.034858 1.245933 3.8279498 2.110048 5.3792773.864114 1.5513274 1.989473 3.0220658 3.376076 4.4122161s2.783254 2.5788299 4.189952 3.5660378c1.406699.9872079 3.074641 1.9744167 5.003828 2.9616245 1.929187.9872079 3.717704 1.8031657 5.36555 2.4478734 1.647847.6447077 3.536843 1.3498558 5.666986 2.1154461 2.371291.8058839 4.280383 1.5009591 5.727273 2.0852255 1.44689.5842663 2.843541 1.2491208 4.189952 1.9945634 1.346411.7454427 2.371291 1.5009591 3.074641 2.2665495.70335.7655903 1.255981 1.6520623 1.657895 2.6594179s.602871 2.1557407.602871 3.4451551c0 1.8535341-.462202 3.4653019-1.386603 4.8353054-.924402 1.3700035-2.341148 2.4579473-4.25024 3.2638312-1.909091.8058839-4.230143 1.2088263-6.963157 1.2088263-1.768421 0-3.577034-.2216184-5.425838-.6648545-1.848804-.443236-3.707655-1.1080905-5.576555-1.9945634-1.868899-.886473-3.737799-2.034858-5.606698-3.4451551-1.8689-1.4102971-3.607177-3.0422127-5.214833-4.8957468l-10.429665 12.8740007c4.501436 4.6338346 9.495215 8.0991365 14.98134 10.3959066 5.486124 2.2967701 11.143062 3.4451551 16.970813 3.4451551zm81.668379-1v-72.3958763h24.379468v-15.6041237h-66v15.6041237h24.258478v72.3958763z" fill="none" opacity=".204" stroke="#362928"/></svg>