<?xml version="1.0" encoding="UTF-8"?>
<svg width="991px" height="116px" viewBox="0 0 991 116" version="1.1" xmlns="http://www.w3.org/2000/svg" xmlns:xlink="http://www.w3.org/1999/xlink">
    <title>outlines / fundação RST</title>
    <g id="outlines-/-fundação-RST" stroke="none" stroke-width="1" fill="none" fill-rule="evenodd" fill-opacity="0" opacity="0.204403832">
        <path d="M22.5832106,92 L22.5832106,45.064918 L36.0486009,45.064918 L36.0486009,31.6721311 L22.5832106,31.6721311 L22.5832106,22.5022951 C22.5832106,17.0727869 24.6161024,14.3580328 28.6818851,14.3580328 C31.0972018,14.3580328 34.1163476,15.2428418 37.7393225,17.012459 L41,4.34360656 C39.3092784,3.21748603 37.1053019,2.21202216 34.3880707,1.32721311 C31.6708395,0.442404065 28.6617578,0 25.3608247,0 C21.3755523,0 17.9739817,0.794317247 15.1561119,2.38295082 C12.3382422,3.97158439 10.1745214,6.36459016 8.66494845,9.56196721 C7.15537555,12.7593443 6.4005891,16.6706008 6.4005891,21.2957377 L6.4005891,31.6721311 L0,31.6721311 L0,45.064918 L6.4005891,45.064918 L6.4005891,92 L22.5832106,92 Z M69.3863394,93 C72.8740659,93 76.1691569,92.290233 79.2716115,90.8706981 C82.3740662,89.4511632 85.1013871,87.3818417 87.4535752,84.6627335 L87.696905,84.6627335 L87.696905,91.9803343 L104,91.9803343 L104,32 L87.696905,32 L87.696905,61.0904621 C87.696905,66.6486401 86.3991465,70.9472301 83.8036286,73.986234 C81.2081107,77.0252379 78.0042693,78.5447394 74.1921025,78.5447394 C70.298826,78.5447394 67.5106727,77.4550964 65.8276414,75.2758112 C64.1446101,73.096526 63.303095,69.3077679 63.303095,63.9095379 L63.303095,32 L47,32 L47,68.1081613 C47,72.5866932 47.5373529,76.4454277 48.6120598,79.6843658 C49.6867666,82.9233038 51.248132,85.5024582 53.296158,87.4218289 C55.3441839,89.3411996 57.686233,90.7507375 60.3223052,91.6504425 C62.9583775,92.5501475 65.9797225,93 69.3863394,93 Z M177,92 L177,55.8231827 C177,51.2351018 176.473647,47.2560573 175.420942,43.8860511 C174.368238,40.5160448 172.839791,37.8362806 170.835602,35.8467583 C168.831414,33.8572361 166.52356,32.3853965 163.912042,31.4312377 C161.300524,30.4770789 158.314485,30 154.953927,30 C151.188482,30 147.615358,30.7612967 144.234555,32.28389 C140.853752,33.8064833 137.928447,36.0091686 135.458639,38.891945 L135.27644,38.891945 L135.27644,31.0353635 L119,31.0353635 L119,91.9390963 L135.27644,91.9390963 L135.27644,61.3045187 C135.27644,55.985593 136.521466,51.884741 139.011518,49.0019646 C141.501571,46.1191883 144.852007,44.6777996 149.062827,44.6777996 C153.030715,44.6777996 155.966143,45.8146696 157.86911,48.0884086 C159.772076,50.3621477 160.72356,54.3005894 160.72356,59.9037328 L160.72356,92 L177,92 Z M218.849904,93 C226.760038,93 232.903441,90.224918 237.280115,84.6747541 L237.641491,84.6747541 L237.641491,91.9744262 L253,91.9744262 L253,1 L236.858509,1 L236.858509,38.4636066 L236.557361,38.4636066 C232.020077,33.2351909 225.956979,30.6209836 218.368069,30.6209836 C214.392925,30.6209836 210.648661,31.4052459 207.135277,32.9737705 C203.621893,34.5422951 200.610421,36.6939894 198.10086,39.4288525 C195.5913,42.1637155 193.613767,45.4817483 192.16826,49.3829508 C190.722753,53.2841533 190,57.4869942 190,61.9914754 C190,64.6056828 190.240918,67.1293992 190.722753,69.562623 C191.204589,71.9958467 191.897228,74.2380328 192.800669,76.2891803 C193.704111,78.3403279 194.798279,80.2507107 196.083174,82.0203279 C197.368069,83.789945 198.833652,85.3383607 200.479924,86.6655738 C202.126195,87.9927869 203.902963,89.1390164 205.810229,90.1042623 C207.717496,91.0695082 209.775334,91.7934426 211.983748,92.2760656 C214.192161,92.7586885 216.48088,93 218.849904,93 Z M221.261538,79 C216.770513,79 213.104167,77.4882462 210.2625,74.4647378 C207.420833,71.4412294 206,67.5226043 206,62.7088608 C206,57.6962025 207.460577,53.6582275 210.381731,50.5949367 C213.302885,47.5316459 216.949359,46 221.321154,46 C225.851923,46 229.597756,47.5913204 232.558654,50.7739602 C235.519552,53.9566001 237,57.9349005 237,62.7088608 C237,65.8915006 236.294552,68.7359855 234.883654,71.2423146 C233.472756,73.7486438 231.575,75.6681739 229.190385,77.0009042 C226.805769,78.3336344 224.162821,79 221.261538,79 Z M294.072254,93 C301.84104,93 307.890174,90.2417795 312.219653,84.7253385 L312.523121,84.7253385 L312.523121,91.9806576 L328,91.9806576 L328,32.0193424 L311.734104,32.0193424 L311.734104,38.794971 L311.491329,38.794971 C306.959537,33.5983234 300.991329,31 293.586705,31 C289.580925,31 285.807803,31.7794971 282.267341,33.3384913 C278.726879,34.8974855 275.692197,37.036106 273.163295,39.754352 C270.634393,42.472598 268.641618,45.7704704 267.184971,49.6479691 C265.728324,53.5254677 265,57.7027721 265,62.1798839 C265,66.7369439 265.728324,70.9442298 267.184971,74.8017408 C268.641618,78.6592518 270.654625,81.9171505 273.223988,84.5754352 C275.793352,87.2337199 278.868497,89.3023853 282.449422,90.7814313 C286.030347,92.2604774 289.904624,93 294.072254,93 Z M297.591356,79 C293.003275,79 289.257695,77.4882462 286.354617,74.4647378 C283.451539,71.4412294 282,67.5226043 282,62.7088608 C282,57.6962025 283.492141,53.6582275 286.476424,50.5949367 C289.460707,47.5316459 293.185986,46 297.652259,46 C302.077931,46 305.742305,47.5913204 308.645383,50.7739602 C311.548461,53.9566001 313,57.9349005 313,62.7088608 C313,67.5226043 311.518009,71.4412294 308.554028,74.4647378 C305.590046,77.4882462 301.935822,79 297.591356,79 Z M369.029289,116 C374.206415,116 378.038703,115.114583 380.526151,113.34375 C383.013598,111.572917 384.257322,109.19839 384.257322,106.22017 C384.257322,103.121212 383.276499,100.726562 381.314854,99.0362216 C379.353208,97.3458807 376.532078,96.4202181 372.851464,96.259233 L372.730126,96.078125 L374.125523,93.3615057 C379.504882,93.1200284 384.348326,92.0132579 388.655858,90.0411932 C392.963389,88.0691285 396.411436,85.5738636 399,82.5553977 L387.83682,72.7755682 C386.259414,74.5464012 384.267434,76.0053267 381.860879,77.1523438 C379.454323,78.2993608 376.754532,78.8728693 373.761506,78.8728693 C368.948396,78.8728693 365.035216,77.3233898 362.021967,74.2244318 C359.008717,71.1254738 357.502092,67.1008523 357.502092,62.1505682 C357.502092,57.2405306 358.988494,53.2460938 361.961297,50.1672585 C364.9341,47.0884233 368.827057,45.5490057 373.640167,45.5490057 C379.343096,45.5490057 384.055091,47.7021783 387.776151,52.0085227 L398.757322,42.5909091 C395.764296,38.8480114 391.962343,35.9804688 387.351464,33.9882812 C382.740586,31.9960938 377.947699,31 372.972803,31 C366.784519,31 361.263598,32.3080022 356.410042,34.9240057 C351.556485,37.5400092 347.774756,41.2225376 345.064854,45.9715909 C342.354951,50.7206442 341,56.1538829 341,62.2713068 C341,67.5435603 342.031381,72.3429211 344.094142,76.6693892 C346.156904,80.9958573 349.028591,84.5375234 352.709205,87.2943892 C356.389819,90.051255 360.636681,91.8925192 365.449791,92.8181818 L365.449791,92.9992898 L363.569038,96.8025568 L363.569038,101.390625 C366.764296,101.390625 369.261855,101.762903 371.061715,102.507457 C372.861576,103.252012 373.761506,104.20786 373.761506,105.375 C373.761506,106.582386 373.175035,107.467803 372.002092,108.03125 C370.82915,108.594697 369.433752,108.87642 367.8159,108.87642 C365.18689,108.87642 363.063459,108.594697 361.445607,108.03125 L361.445607,115.275568 C363.953277,115.758523 366.481172,116 369.029289,116 Z M449.409429,24 C451.679073,24 453.776468,23.333873 455.701613,22.0016181 C457.626758,20.6693632 459.278329,18.8349515 460.656328,16.4983819 C462.034326,14.1618123 463.148883,11.4153179 464,8.25889968 L454.455335,5.06148867 C453.644748,6.98813345 452.631514,8.49460594 451.415633,9.58090615 C450.199752,10.6672064 448.862283,11.210356 447.403226,11.210356 C446.633168,11.210356 445.812448,11.0463859 444.941067,10.7184466 C444.069686,10.3905073 443.411083,10.1035599 442.965261,9.85760518 C442.519438,9.61165049 441.74938,9.14023701 440.655087,8.4433657 C439.358148,7.66450886 438.37531,7.10086331 437.706576,6.75242718 C437.037841,6.40399106 435.973945,6.02481153 434.514888,5.61488673 C433.055831,5.20496193 431.53598,5 429.955335,5 C426.46981,5 423.44024,6.3322549 420.866625,8.99676375 C418.293011,11.6612726 416.337469,15.2071197 415,19.6343042 L424.727047,23.8770227 C426.46981,19.6957929 428.800248,17.605178 431.718362,17.605178 C432.447891,17.605178 433.238213,17.7486513 434.08933,18.0355987 C434.940447,18.3225462 435.639578,18.6094927 436.186725,18.8964401 C436.733871,19.1833876 437.514061,19.6343042 438.527295,20.2491909 C440.391646,21.4379716 442.164805,22.3603017 443.846774,23.0161812 C445.528743,23.6720607 447.382961,24 449.409429,24 Z M435.072254,93 C442.84104,93 448.890174,90.2417795 453.219653,84.7253385 L453.523121,84.7253385 L453.523121,91.9806576 L469,91.9806576 L469,32.0193424 L452.734104,32.0193424 L452.734104,38.794971 L452.491329,38.794971 C447.959537,33.5983234 441.991329,31 434.586705,31 C430.580925,31 426.807803,31.7794971 423.267341,33.3384913 C419.726879,34.8974855 416.692197,37.036106 414.163295,39.754352 C411.634393,42.472598 409.641618,45.7704704 408.184971,49.6479691 C406.728324,53.5254677 406,57.7027721 406,62.1798839 C406,65.8175374 406.465318,69.2453253 407.395954,72.4632495 C408.326589,75.6811737 409.661849,78.5393292 411.401734,81.0377176 C413.141619,83.536106 415.195087,85.6847195 417.562139,87.483559 C419.929191,89.2823985 422.609827,90.6515148 425.604046,91.5909091 C428.598266,92.5303033 431.754335,93 435.072254,93 Z M438.591356,79 C434.003275,79 430.257695,77.4882462 427.354617,74.4647378 C424.451539,71.4412294 423,67.5226043 423,62.7088608 C423,57.6962025 424.492141,53.6582275 427.476424,50.5949367 C430.460707,47.5316459 434.185986,46 438.652259,46 C440.844794,46 442.885069,46.4276676 444.773084,47.2830018 C446.6611,48.138336 448.2852,49.3019888 449.645383,50.7739602 C451.005566,52.2459316 452.071381,54.0162746 452.842829,56.084991 C453.614277,58.1537074 454,60.361664 454,62.7088608 C454,67.5226043 452.518009,71.4412294 449.554028,74.4647378 C446.590046,77.4882462 442.935822,79 438.591356,79 Z M514,93 C520.175439,93 525.689223,91.7108317 530.541353,89.1324952 C535.393484,86.5541586 539.182958,82.9065122 541.909774,78.1895551 C544.636591,73.472598 546,68.0960674 546,62.0599613 C546,57.5029014 545.20802,53.2956154 543.62406,49.4381044 C542.040101,45.5805935 539.844612,42.3027079 537.037594,39.6044487 C534.230576,36.9061896 530.842105,34.7975497 526.87218,33.27853 C522.902256,31.7595103 518.611529,31 514,31 C509.308271,31 504.957394,31.7794971 500.947368,33.3384913 C496.937343,34.8974855 493.548872,37.046099 490.781955,39.7843327 C488.015038,42.5225664 485.859649,45.8104449 484.315789,49.6479691 C482.77193,53.4854932 482,57.622824 482,62.0599613 C482,65.6176657 482.491228,68.9754994 483.473684,72.1334623 C484.45614,75.2914252 485.889725,78.1395877 487.774436,80.6779497 C489.659148,83.2163118 491.894737,85.4048998 494.481203,87.2437137 C497.067669,89.0825277 500.025063,90.5016116 503.353383,91.5009671 C506.681704,92.5003227 510.230576,93 514,93 Z M513.52975,79 C509.007678,79 505.288868,77.4186257 502.373321,74.255877 C499.457774,71.0931284 498,67.1844485 498,62.5298373 C498,57.755877 499.43794,53.8074138 502.31382,50.6844485 C505.189699,47.5614831 508.928343,46 513.52975,46 C517.972489,46 521.661549,47.541591 524.596929,50.624774 C527.532309,53.7079569 529,57.6763113 529,62.5298373 C529,67.3037975 527.512476,71.2423146 524.537428,74.3453888 C521.56238,77.4484629 517.893154,79 513.52975,79 Z M616.849904,93 C624.760038,93 630.903441,90.224918 635.280115,84.6747541 L635.641491,84.6747541 L635.641491,91.9744262 L651,91.9744262 L651,1 L634.858509,1 L634.858509,38.4636066 L634.557361,38.4636066 C630.020077,33.2351909 623.956979,30.6209836 616.368069,30.6209836 C612.392925,30.6209836 608.648661,31.4052459 605.135277,32.9737705 C601.621893,34.5422951 598.610421,36.6939894 596.10086,39.4288525 C593.5913,42.1637155 591.613767,45.4817483 590.16826,49.3829508 C588.722753,53.2841533 588,57.4869942 588,61.9914754 C588,64.6056828 588.240918,67.1293992 588.722753,69.562623 C589.204589,71.9958467 589.897228,74.2380328 590.800669,76.2891803 C591.704111,78.3403279 592.798279,80.2507107 594.083174,82.0203279 C595.368069,83.789945 596.833652,85.3383607 598.479924,86.6655738 C600.126195,87.9927869 601.902963,89.1390164 603.810229,90.1042623 C605.717496,91.0695082 607.775334,91.7934426 609.983748,92.2760656 C612.192161,92.7586885 614.48088,93 616.849904,93 Z M620.261538,79 C615.770513,79 612.104167,77.4882462 609.2625,74.4647378 C606.420833,71.4412294 605,67.5226043 605,62.7088608 C605,57.6962025 606.460577,53.6582275 609.381731,50.5949367 C612.302885,47.5316459 615.949359,46 620.321154,46 C624.851923,46 628.597756,47.5913204 631.558654,50.7739602 C634.519552,53.9566001 636,57.9349005 636,62.7088608 C636,65.8915006 635.294552,68.7359855 633.883654,71.2423146 C632.472756,73.7486438 630.575,75.6681739 628.190385,77.0009042 C625.805769,78.3336344 623.162821,79 620.261538,79 Z M694.072254,93 C701.84104,93 707.890174,90.2417795 712.219653,84.7253385 L712.523121,84.7253385 L712.523121,91.9806576 L728,91.9806576 L728,32.0193424 L711.734104,32.0193424 L711.734104,38.794971 L711.491329,38.794971 C706.959537,33.5983234 700.991329,31 693.586705,31 C689.580925,31 685.807803,31.7794971 682.267341,33.3384913 C678.726879,34.8974855 675.692197,37.036106 673.163295,39.754352 C670.634393,42.472598 668.641618,45.7704704 667.184971,49.6479691 C665.728324,53.5254677 665,57.7027721 665,62.1798839 C665,66.7369439 665.728324,70.9442298 667.184971,74.8017408 C668.641618,78.6592518 670.654625,81.9171505 673.223988,84.5754352 C675.793352,87.2337199 678.868497,89.3023853 682.449422,90.7814313 C686.030347,92.2604774 689.904624,93 694.072254,93 Z M696.591356,79 C692.003275,79 688.257695,77.4882462 685.354617,74.4647378 C682.451539,71.4412294 681,67.5226043 681,62.7088608 C681,57.6962025 682.492141,53.6582275 685.476424,50.5949367 C688.460707,47.5316459 692.185986,46 696.652259,46 C701.077931,46 704.742305,47.5913204 707.645383,50.7739602 C710.548461,53.9566001 712,57.9349005 712,62.7088608 C712,67.5226043 710.518009,71.4412294 707.554028,74.4647378 C704.590046,77.4882462 700.935822,79 696.591356,79 Z M795.019678,92 L795.019678,61.8804124 L805.027728,61.8804124 L824.564401,92 L845,92 L823.485689,60.0659794 L823.485689,59.824055 C827.241205,58.5741119 830.4274,56.7798399 833.044275,54.4412371 C835.661151,52.1026343 837.698718,49.1491409 839.156977,45.580756 C840.615235,42.0123711 841.344365,37.9298969 841.344365,33.3333333 C841.344365,29.0190152 840.735092,25.1079038 839.516547,21.6 C838.298003,18.0920962 836.480173,15.0075601 834.063059,12.3463918 C831.645945,9.68522337 828.469738,7.62886598 824.534436,6.17731959 C820.599135,4.7257732 816.074538,4 810.960644,4 L778,4 L778,92 L795.019678,92 Z M806.332632,47 L794,47 L794,20 L807.065263,20 C812.112281,20 816.029824,21.2080537 818.817895,23.6241611 C821.605965,26.0402685 823,29.3221473 823,33.4697987 C823,37.61745 821.555087,40.9093963 818.665263,43.3456376 C815.775439,45.7818789 811.664561,47 806.332632,47 Z M884.952153,93 C887.926315,93 890.840192,92.6877196 893.69378,92.0631596 C896.547368,91.4385996 899.330622,90.4110972 902.043541,88.9806524 C904.756459,87.5502076 907.137799,85.8175571 909.18756,83.7826991 C911.237321,81.7478411 912.885167,79.1891589 914.1311,76.1066517 C915.377034,73.0241445 916,69.6293569 916,65.9222897 C916,62.2958107 915.437321,59.1125676 914.311962,56.3725616 C912.503349,51.9804922 908.866029,48.2935718 903.4,45.3118004 C901.028708,44.022386 896.185646,41.9472335 888.870813,39.0863447 C886.579904,38.1998718 884.761244,37.464503 883.414833,36.8802366 C882.068421,36.2959703 880.722009,35.6311158 879.375598,34.8856732 C878.029187,34.1402306 877.014354,33.4149347 876.3311,32.7097857 C875.647847,32.0046367 875.105263,31.2088267 874.703349,30.3223537 C874.301435,29.4358807 874.100478,28.4486728 874.100478,27.3607291 C874.14067,24.620723 875.135407,22.4649824 877.084689,20.8935082 C879.033971,19.3220339 881.555981,18.5362968 884.650718,18.5362968 C890.357895,18.5362968 896.728229,21.4173332 903.761722,27.1794052 L913.769378,14.0636393 C904.686124,6.56891589 894.839234,2.88199552 884.228708,3.00287816 C879.044019,3.08346627 874.301435,4.22177837 870.000957,6.4178126 C865.700479,8.61384683 862.304306,11.6258398 859.81244,15.4537896 C857.320574,19.2817394 856.074641,23.5126316 856.074641,28.1464663 C856.074641,30.4432363 856.345933,32.6090499 856.888517,34.6439079 C857.4311,36.6787659 858.13445,38.4718577 858.998565,40.0231852 C859.862679,41.5745126 860.988038,43.045251 862.374641,44.4354013 C863.761244,45.8255516 865.157895,47.0142312 866.564593,48.0014391 C867.971292,48.988647 869.639234,49.9758558 871.568421,50.9630636 C873.497608,51.9502715 875.286125,52.7662293 876.933971,53.410937 C878.581818,54.0556447 880.470814,54.7607928 882.600957,55.5263831 C884.972248,56.332267 886.88134,57.0273422 888.32823,57.6116086 C889.77512,58.1958749 891.171771,58.8607294 892.518182,59.606172 C893.864593,60.3516147 894.889473,61.1071311 895.592823,61.8727215 C896.296173,62.6383118 896.848804,63.5247838 897.250718,64.5321394 C897.652632,65.539495 897.853589,66.6878801 897.853589,67.9772945 C897.853589,69.8308286 897.391387,71.4425964 896.466986,72.8125999 C895.542584,74.1826034 894.125838,75.2705472 892.216746,76.0764311 C890.307655,76.882315 887.986603,77.2852574 885.253589,77.2852574 C883.485168,77.2852574 881.676555,77.063639 879.827751,76.6204029 C877.978947,76.1771669 876.120096,75.5123124 874.251196,74.6258395 C872.382297,73.7393665 870.513397,72.5909815 868.644498,71.1806844 C866.775598,69.7703873 865.037321,68.1384717 863.429665,66.2849376 L853,79.1589383 C857.501436,83.7927729 862.495215,87.2580748 867.98134,89.5548449 C873.467464,91.851615 879.124402,93 884.952153,93 Z M966.620532,92 L966.620532,19.6041237 L991,19.6041237 L991,4 L925,4 L925,19.6041237 L949.258478,19.6041237 L949.258478,92 L966.620532,92 Z" id="fundaçãodaRST-Copy-3" stroke="#362928" fill="#FFFFFF" fill-rule="nonzero"></path>
    </g>
</svg>