<?xml version="1.0" encoding="UTF-8"?>
<svg width="944px" height="116px" viewBox="0 0 944 116" version="1.1" xmlns="http://www.w3.org/2000/svg" xmlns:xlink="http://www.w3.org/1999/xlink">
    <title>outlines / nasce a Fiamma</title>
    <g id="outlines-/-nasce-a-Fiamma" stroke="none" stroke-width="1" fill="none" fill-rule="evenodd" fill-opacity="0" opacity="0.2">
        <path d="M57.8787879,89.030303 L57.8787879,53.030303 C57.8787879,48.4646468 57.353535,44.5050502 56.3030303,41.1515152 C55.2525256,37.7979801 53.7272727,35.1313134 51.7272727,33.1515152 C49.7272727,31.1717169 47.4242424,29.707071 44.8181818,28.7575758 C42.2121212,27.8080805 39.2323229,27.3333333 35.8787879,27.3333333 C32.1212121,27.3333333 28.5555559,28.0909091 25.1818182,29.6060606 C21.8080805,31.1212121 18.8888892,33.3131316 16.4242424,36.1818182 L16.2424242,36.1818182 L16.2424242,28.3636364 L0,28.3636364 L0,88.969697 L16.2424242,88.969697 L16.2424242,58.4848485 C16.2424242,53.1919195 17.4848485,49.1111108 19.969697,46.2424242 C22.4545455,43.3737377 25.7979801,41.9393939 30,41.9393939 C33.9595957,41.9393939 36.8888892,43.0707074 38.7878788,45.3333333 C40.6868684,47.5959593 41.6363636,51.5151515 41.6363636,57.0909091 L41.6363636,89.030303 L57.8787879,89.030303 Z M99.030303,90 C106.787879,90 112.828283,87.2121212 117.151515,81.6363636 L117.454545,81.6363636 L117.454545,88.969697 L132.909091,88.969697 L132.909091,28.3636364 L116.666667,28.3636364 L116.666667,35.2121212 L116.424242,35.2121212 C111.89899,29.9595957 105.939394,27.3333333 98.5454545,27.3333333 C94.5454545,27.3333333 90.7777775,28.1212121 87.2424242,29.6969697 C83.707071,31.2727273 80.676768,33.4343437 78.1515152,36.1818182 C75.6262623,38.9292926 73.6363636,42.262626 72.1818182,46.1818182 C70.7272727,50.1010104 70,54.323232 70,58.8484848 C70,63.4545455 70.7272727,67.707071 72.1818182,71.6060606 C73.6363636,75.5050502 75.646465,78.7979801 78.2121212,81.4848485 C80.7777775,84.1717169 83.8484848,86.262626 87.4242424,87.7575758 C91,89.2525256 94.8686866,90 99.030303,90 Z M102,75.4545455 C97.4343437,75.4545455 93.707071,73.9191922 90.8181818,70.8484848 C87.9292926,67.7777775 86.4848485,63.7979801 86.4848485,58.9090909 C86.4848485,53.8181818 87.969697,49.7171714 90.9393939,46.6060606 C93.9090909,43.4949498 97.6161619,41.9393939 102.060606,41.9393939 C106.464647,41.9393939 110.111111,43.5555559 113,46.7878788 C115.888889,50.0202017 117.333333,54.0606061 117.333333,58.9090909 C117.333333,63.7979801 115.858586,67.7777775 112.909091,70.8484848 C109.959596,73.9191922 106.323232,75.4545455 102,75.4545455 Z M168.424242,90 C176.060606,90 181.888889,88.262626 185.909091,84.7878788 C189.929293,81.3131316 191.939394,76.7676771 191.939394,71.1515152 C191.939394,69.6565653 191.818182,68.3030303 191.575758,67.0909091 C190.80808,63.0505047 188.464647,59.8181818 184.545455,57.3939394 C182.282829,55.9393939 177.79798,53.9797983 171.090909,51.5151515 C167.89899,50.3030303 165.585859,49.2121212 164.151515,48.2424242 C162.717171,47.2727273 162,46.1818182 162,44.969697 C162,43.5151515 162.606061,42.3939394 163.818182,41.6060606 C165.030303,40.8181818 166.404041,40.4242424 167.939394,40.4242424 C170.282829,40.4242424 172.717171,40.9595957 175.242424,42.030303 C177.767677,43.1010104 180.161616,44.707071 182.424242,46.8484848 L190.30303,34.969697 C186.868687,32.3030303 183.373738,30.3636364 179.818182,29.1515152 C176.262626,27.9393939 172.363636,27.3333333 168.121212,27.3333333 C164,27.3333333 160.292929,28.0808078 157,29.5757576 C153.707071,31.0707074 151.10101,33.2020199 149.181818,35.969697 C147.262626,38.737374 146.30303,41.9191922 146.30303,45.5151515 C146.30303,47.4141411 146.525253,49.1717169 146.969697,50.7878788 C147.414141,52.4040407 148.070707,53.8383835 148.939394,55.0909091 C149.80808,56.3434347 150.777777,57.4747472 151.848485,58.4848485 C152.919192,59.4949498 154.20202,60.4141411 155.69697,61.2424242 C157.19192,62.0707074 158.656565,62.7878788 160.090909,63.3939394 C161.525253,64 163.151515,64.6060606 164.969697,65.2121212 C167.838384,66.1414138 169.989899,66.9090909 171.424242,67.5151515 C172.858586,68.1212121 173.979798,68.7777775 174.787879,69.4848485 C175.595959,70.1919195 176,71.0101013 176,71.9393939 C176,73.4343437 175.333333,74.646465 174,75.5757576 C172.666667,76.5050502 170.848485,76.969697 168.545455,76.969697 C162.404041,76.969697 156.80808,74.6060606 151.757576,69.8787879 L143.878788,81.0909091 C150.626262,87.030303 158.80808,90 168.424242,90 Z M232.242424,90 C238.060606,90 243.282829,88.9898987 247.909091,86.969697 C252.535353,84.9494953 256.242424,82.323232 259.030303,79.0909091 L247.878788,69.2727273 C246.30303,71.0505047 244.313132,72.5151515 241.909091,73.6666667 C239.50505,74.8181818 236.80808,75.3939394 233.818182,75.3939394 C229.010101,75.3939394 225.10101,73.8383835 222.090909,70.7272727 C219.080808,67.6161619 217.575758,63.5757576 217.575758,58.6060606 C217.575758,56.1818182 217.959596,53.9393939 218.727273,51.8787879 C219.49495,49.8181818 220.575758,48.0606061 221.969697,46.6060606 C223.363636,45.1515152 225.070707,44.0101013 227.090909,43.1818182 C229.111111,42.353535 231.313132,41.9393939 233.69697,41.9393939 C239.393939,41.9393939 244.10101,44.1010104 247.818182,48.4242424 L258.787879,38.969697 C255.79798,35.2121212 252,32.3333333 247.393939,30.3333333 C242.787879,28.3333333 238,27.3333333 233.030303,27.3333333 C226.848485,27.3333333 221.333333,28.646465 216.484848,31.2727273 C211.636364,33.8989896 207.858586,37.5959593 205.151515,42.3636364 C202.444444,47.1313134 201.090909,52.5858589 201.090909,58.7272727 C201.090909,64.8282831 202.434344,70.262626 205.121212,75.030303 C207.80808,79.7979801 211.515152,83.4848485 216.242424,86.0909091 C220.969697,88.6969697 226.30303,90 232.242424,90 Z M298.242424,90 C304.060606,90 309.19192,88.9595957 313.636364,86.8787879 C318.080808,84.7979801 321.676768,82.0202017 324.424242,78.5454545 L313.878788,68.7272727 C310.080808,73.3333333 305.252526,75.6161619 299.393939,75.5757576 C295.515152,75.5353532 292.212121,74.4848485 289.484848,72.4242424 C286.757576,70.3636364 284.909091,67.5353532 283.939394,63.9393939 L326.424242,63.9393939 C326.707071,62.9292926 326.848485,60.9898987 326.848485,58.1212121 C326.848485,52.2222225 325.616162,46.9393939 323.151515,42.2727273 C320.686868,37.6060606 317.19192,33.9494953 312.666667,31.3030303 C308.141414,28.6565653 302.949495,27.3333333 297.090909,27.3333333 C292.848485,27.3333333 288.868687,28.1010104 285.151515,29.6363636 C281.434344,31.1717169 278.252526,33.3030303 275.606061,36.030303 C272.959596,38.7575758 270.868687,42.0707074 269.333333,45.969697 C267.79798,49.8686866 267.030303,54.0808078 267.030303,58.6060606 C267.030303,64.7878788 268.393939,70.2828286 271.121212,75.0909091 C273.848485,79.8989896 277.575758,83.5858589 282.30303,86.1515152 C287.030303,88.7171714 292.343435,90 298.242424,90 Z M310.727273,52.2424242 L284,52.2424242 C284.929293,48.8080805 286.595959,46.1818182 289,44.3636364 C291.404041,42.5454545 294.282829,41.6363636 297.636364,41.6363636 C301.070707,41.6363636 303.89899,42.5757576 306.121212,44.4545455 C308.343435,46.3333333 309.878788,48.9292926 310.727273,52.2424242 Z M398.060606,90 C405.818182,90 411.858586,87.2121212 416.181818,81.6363636 L416.484848,81.6363636 L416.484848,88.969697 L431.939394,88.969697 L431.939394,28.3636364 L415.69697,28.3636364 L415.69697,35.2121212 L415.454545,35.2121212 C410.929293,29.9595957 404.969697,27.3333333 397.575758,27.3333333 C393.575758,27.3333333 389.80808,28.1212121 386.272727,29.6969697 C382.737374,31.2727273 379.707071,33.4343437 377.181818,36.1818182 C374.656565,38.9292926 372.666667,42.262626 371.212121,46.1818182 C369.757576,50.1010104 369.030303,54.323232 369.030303,58.8484848 C369.030303,63.4545455 369.757576,67.707071 371.212121,71.6060606 C372.666667,75.5050502 374.676768,78.7979801 377.242424,81.4848485 C379.80808,84.1717169 382.878788,86.262626 386.454545,87.7575758 C390.030303,89.2525256 393.89899,90 398.060606,90 Z M401.030303,75.4545455 C396.464647,75.4545455 392.737374,73.9191922 389.848485,70.8484848 C386.959596,67.7777775 385.515152,63.7979801 385.515152,58.9090909 C385.515152,53.8181818 387,49.7171714 389.969697,46.6060606 C392.939394,43.4949498 396.646465,41.9393939 401.090909,41.9393939 C405.49495,41.9393939 409.141414,43.5555559 412.030303,46.7878788 C414.919192,50.0202017 416.363636,54.0606061 416.363636,58.9090909 C416.363636,63.7979801 414.888889,67.7777775 411.939394,70.8484848 C408.989899,73.9191922 405.353535,75.4545455 401.030303,75.4545455 Z M499.212121,88.969697 L499.212121,55.5757576 L533.636364,55.5757576 L533.636364,40 L499.212121,40 L499.212121,16.4242424 L540.484848,16.4242424 L540.484848,0.787878788 L482,0.787878788 L482,88.969697 L499.212121,88.969697 Z M562.363636,19.8181818 C565.111111,19.8181818 567.474747,18.8484848 569.454545,16.9090909 C571.434344,14.969697 572.424242,12.6262623 572.424242,9.87878788 C572.424242,7.17171686 571.434344,4.84848485 569.454545,2.90909091 C567.474747,0.96969697 565.111111,0 562.363636,0 C559.575758,0 557.20202,0.96969697 555.242424,2.90909091 C553.282829,4.84848485 552.30303,7.17171686 552.30303,9.87878788 C552.30303,11.6969697 552.747474,13.3636364 553.636364,14.8787879 C554.525253,16.3939394 555.747474,17.5959593 557.30303,18.4848485 C558.858586,19.3737377 560.545455,19.8181818 562.363636,19.8181818 Z M570.484848,88.969697 L570.484848,28.3636364 L554.242424,28.3636364 L554.242424,88.969697 L570.484848,88.969697 Z M613.272727,90 C621.030303,90 627.070707,87.2121212 631.393939,81.6363636 L631.69697,81.6363636 L631.69697,88.969697 L647.151515,88.969697 L647.151515,28.3636364 L630.909091,28.3636364 L630.909091,35.2121212 L630.666667,35.2121212 C626.141414,29.9595957 620.181818,27.3333333 612.787879,27.3333333 C608.787879,27.3333333 605.020202,28.1212121 601.484848,29.6969697 C597.949495,31.2727273 594.919192,33.4343437 592.393939,36.1818182 C589.868687,38.9292926 587.878788,42.262626 586.424242,46.1818182 C584.969697,50.1010104 584.242424,54.323232 584.242424,58.8484848 C584.242424,63.4545455 584.969697,67.707071 586.424242,71.6060606 C587.878788,75.5050502 589.888889,78.7979801 592.454545,81.4848485 C595.020202,84.1717169 598.090909,86.262626 601.666667,87.7575758 C605.242424,89.2525256 609.111111,90 613.272727,90 Z M616.242424,75.4545455 C611.676768,75.4545455 607.949495,73.9191922 605.060606,70.8484848 C602.171717,67.7777775 600.727273,63.7979801 600.727273,58.9090909 C600.727273,53.8181818 602.212121,49.7171714 605.181818,46.6060606 C608.151515,43.4949498 611.858586,41.9393939 616.30303,41.9393939 C620.707071,41.9393939 624.353535,43.5555559 627.242424,46.7878788 C630.131313,50.0202017 631.575758,54.0606061 631.575758,58.9090909 C631.575758,63.7979801 630.10101,67.7777775 627.151515,70.8484848 C624.20202,73.9191922 620.565656,75.4545455 616.242424,75.4545455 Z M719.030303,89.030303 L719.030303,58.6666667 C719.030303,55.1515152 719.585859,52.1111108 720.69697,49.5454545 C721.80808,46.9797983 723.292929,45.0707074 725.151515,43.8181818 C727.010101,42.5656563 729.090909,41.9393939 731.393939,41.9393939 C738.464647,41.9393939 742,47.1919195 742,57.6969697 L742,89.030303 L758.242424,89.030303 L758.242424,53.7575758 C758.242424,44.7878788 756.373738,38.1414138 752.636364,33.8181818 C748.89899,29.4949498 743.636364,27.3333333 736.848485,27.3333333 C732.484848,27.3333333 728.49495,28.1717169 724.878788,29.8484848 C721.262626,31.5252528 718.222223,33.9393939 715.757576,37.0909091 L715.575758,37.0909091 C712.020202,30.5858589 706.020202,27.3333333 697.575758,27.3333333 C694.181818,27.3333333 690.909091,28.1111108 687.757576,29.6666667 C684.606061,31.2222225 681.838384,33.4545455 679.454545,36.3636364 L679.272727,36.3636364 L679.272727,28.3636364 L663.030303,28.3636364 L663.030303,88.969697 L679.272727,88.969697 L679.272727,58.6666667 C679.272727,55.1515152 679.838384,52.1111108 680.969697,49.5454545 C682.10101,46.9797983 683.616162,45.0707074 685.515152,43.8181818 C687.414141,42.5656563 689.595959,41.9393939 692.060606,41.9393939 C699.212121,41.9393939 702.787879,47.1919195 702.787879,57.6969697 L702.787879,89.030303 L719.030303,89.030303 Z M829.757576,89.030303 L829.757576,58.6666667 C829.757576,55.1515152 830.313132,52.1111108 831.424242,49.5454545 C832.535353,46.9797983 834.020202,45.0707074 835.878788,43.8181818 C837.737374,42.5656563 839.818182,41.9393939 842.121212,41.9393939 C849.19192,41.9393939 852.727273,47.1919195 852.727273,57.6969697 L852.727273,89.030303 L868.969697,89.030303 L868.969697,53.7575758 C868.969697,44.7878788 867.10101,38.1414138 863.363636,33.8181818 C859.626262,29.4949498 854.363636,27.3333333 847.575758,27.3333333 C843.212121,27.3333333 839.222223,28.1717169 835.606061,29.8484848 C831.989899,31.5252528 828.949495,33.9393939 826.484848,37.0909091 L826.30303,37.0909091 C822.747474,30.5858589 816.747474,27.3333333 808.30303,27.3333333 C804.909091,27.3333333 801.636364,28.1111108 798.484848,29.6666667 C795.333333,31.2222225 792.565656,33.4545455 790.181818,36.3636364 L790,36.3636364 L790,28.3636364 L773.757576,28.3636364 L773.757576,88.969697 L790,88.969697 L790,58.6666667 C790,55.1515152 790.565656,52.1111108 791.69697,49.5454545 C792.828283,46.9797983 794.343435,45.0707074 796.242424,43.8181818 C798.141414,42.5656563 800.323232,41.9393939 802.787879,41.9393939 C809.939394,41.9393939 813.515152,47.1919195 813.515152,57.6969697 L813.515152,89.030303 L829.757576,89.030303 Z M910.121212,90 C917.878788,90 923.919192,87.2121212 928.242424,81.6363636 L928.545455,81.6363636 L928.545455,88.969697 L944,88.969697 L944,28.3636364 L927.757576,28.3636364 L927.757576,35.2121212 L927.515152,35.2121212 C922.989899,29.9595957 917.030303,27.3333333 909.636364,27.3333333 C905.636364,27.3333333 901.868687,28.1212121 898.333333,29.6969697 C894.79798,31.2727273 891.767677,33.4343437 889.242424,36.1818182 C886.717171,38.9292926 884.727273,42.262626 883.272727,46.1818182 C881.818182,50.1010104 881.090909,54.323232 881.090909,58.8484848 C881.090909,63.4545455 881.818182,67.707071 883.272727,71.6060606 C884.727273,75.5050502 886.737374,78.7979801 889.30303,81.4848485 C891.868687,84.1717169 894.939394,86.262626 898.515152,87.7575758 C902.090909,89.2525256 905.959596,90 910.121212,90 Z M913.090909,75.4545455 C908.525253,75.4545455 904.79798,73.9191922 901.909091,70.8484848 C899.020202,67.7777775 897.575758,63.7979801 897.575758,58.9090909 C897.575758,53.8181818 899.060606,49.7171714 902.030303,46.6060606 C905,43.4949498 908.707071,41.9393939 913.151515,41.9393939 C917.555556,41.9393939 921.20202,43.5555559 924.090909,46.7878788 C926.979798,50.0202017 928.424242,54.0606061 928.424242,58.9090909 C928.424242,63.7979801 926.949495,67.7777775 924,70.8484848 C921.050505,73.9191922 917.414141,75.4545455 913.090909,75.4545455 Z" id="nasceaFiamma-Copy-2" stroke="#FFFFFF" fill="#FFFFFF" fill-rule="nonzero"></path>
    </g>
</svg>