<svg height="116" viewBox="0 0 1044 116" width="1044" xmlns="http://www.w3.org/2000/svg"><path d="m57.8787879 89.030303v-36c0-4.5656562-.5252529-8.5252528-1.5757576-11.8787878-1.0505047-3.3535351-2.5757576-6.0202018-4.5757576-8-2-1.9797983-4.3030303-3.4444442-6.9090909-4.3939394-2.6060606-.9494953-5.5858589-1.4242425-8.9393939-1.4242425-3.7575758 0-7.323232.7575758-10.6969697 2.2727273s-6.292929 3.707071-8.7575758 6.5757576h-.1818182v-7.8181818h-16.2424242v60.6060606h16.2424242v-30.4848485c0-5.292929 1.2424243-9.3737377 3.7272728-12.2424243 2.4848485-2.8686865 5.8282831-4.3030303 10.030303-4.3030303 3.9595957 0 6.8888892 1.1313135 8.7878788 3.3939394 1.8989896 2.262626 2.8484848 6.1818182 2.8484848 11.7575758v31.9393939zm41.1515151.969697c7.757576 0 13.79798-2.7878788 18.121212-8.3636364h.30303v7.3333334h15.454546v-60.6060606h-16.242424v6.8484848h-.242425c-4.525252-5.2525255-10.484848-7.8787879-17.8787875-7.8787879-4 0-7.767677.7878788-11.3030303 2.3636364-3.5353532 1.5757576-6.5656562 3.737374-9.090909 6.4848485-2.5252529 2.7474744-4.5151516 6.0808078-5.969697 10-1.4545455 3.9191922-2.1818182 8.1414138-2.1818182 12.6666666 0 4.6060607.7272727 8.8585862 2.1818182 12.7575758 1.4545454 3.8989896 3.4646468 7.1919195 6.030303 9.8787879 2.5656563 2.6868684 5.6363636 4.7777775 9.2121212 6.2727273s7.4444442 2.2424242 11.6060606 2.2424242zm2.969697-14.5454545c-4.5656563 0-8.292929-1.5353533-11.1818182-4.6060607-2.8888892-3.0707073-4.3333333-7.0505047-4.3333333-11.9393939 0-5.0909091 1.4848485-9.1919195 4.4545454-12.3030303 2.969697-3.1111108 6.676768-4.6666667 11.1212121-4.6666667 4.404041 0 8.050505 1.616162 10.939394 4.8484849s4.333333 7.2727273 4.333333 12.1212121c0 4.8888892-1.474747 8.8686866-4.424242 11.9393939-2.949495 3.0707074-6.585859 4.6060607-10.909091 4.6060607zm66.424242 14.5454545c7.636364 0 13.464647-1.737374 17.484849-5.2121212s6.030303-8.0202017 6.030303-13.6363636c0-1.4949499-.121212-2.8484849-.363636-4.0606061-.767678-4.0404044-3.111111-7.2727273-7.030303-9.6969697-2.262626-1.4545455-6.747475-3.4141411-13.454546-5.8787879-3.191919-1.2121212-5.50505-2.3030303-6.939394-3.2727273-1.434344-.9696969-2.151515-2.060606-2.151515-3.2727272 0-1.4545455.606061-2.5757576 1.818182-3.3636364s2.585859-1.1818182 4.121212-1.1818182c2.343435 0 4.777777.5353533 7.30303 1.6060606 2.525253 1.0707074 4.919192 2.676768 7.181818 4.8181818l7.878788-11.8787878c-3.434343-2.6666667-6.929292-4.6060606-10.484848-5.8181818-3.555556-1.2121213-7.454546-1.8181819-11.69697-1.8181819-4.121212 0-7.828283.7474745-11.121212 2.2424243s-5.89899 3.6262623-7.818182 6.3939394c-1.919192 2.767677-2.878788 5.9494952-2.878788 9.5454545 0 1.8989896.222223 3.6565654.666667 5.2727273s1.10101 3.0505047 1.969697 4.3030303c.868686 1.2525256 1.838383 2.3838381 2.909091 3.3939394 1.070707 1.0101013 2.353535 1.9292926 3.848485 2.7575757 1.49495.8282832 2.959595 1.5454546 4.393939 2.1515152s3.060606 1.2121212 4.878788 1.8181818c2.868687.9292926 5.020202 1.6969697 6.454545 2.3030303 1.434344.6060606 2.555556 1.262626 3.363637 1.969697.80808.707071 1.212121 1.5252528 1.212121 2.4545454 0 1.4949498-.666667 2.7070711-2 3.6363637s-3.151515 1.3939394-5.454545 1.3939394c-6.141414 0-11.737375-2.3636364-16.787879-7.0909091l-7.878788 11.2121212c6.747474 5.9393939 14.929292 8.9090909 24.545454 8.9090909zm63.818182 0c5.818182 0 11.040405-1.0101013 15.666667-3.030303s8.333333-4.646465 11.121212-7.8787879l-11.151515-9.8181818c-1.575758 1.7777774-3.565656 3.2424242-5.969697 4.3939394-2.404041 1.1515151-5.101011 1.7272727-8.090909 1.7272727-4.808081 0-8.717172-1.5555559-11.727273-4.6666667s-4.515151-7.1515151-4.515151-12.1212121c0-2.4242424.383838-4.6666667 1.151515-6.7272727.767677-2.0606061 1.848485-3.8181818 3.242424-5.2727273 1.393939-1.4545454 3.10101-2.5959593 5.121212-3.4242424 2.020202-.8282832 4.222223-1.2424243 6.606061-1.2424243 5.696969 0 10.40404 2.1616165 14.121212 6.4848485l10.969697-9.4545454c-2.989899-3.7575758-6.787879-6.6363637-11.39394-8.6363637-4.60606-2-9.393939-3-14.363636-3-6.181818 0-11.69697 1.3131317-16.545455 3.939394-4.848484 2.6262623-8.626262 6.323232-11.333333 11.0909091-2.707071 4.767677-4.060606 10.2222225-4.060606 16.3636363 0 6.1010104 1.343435 11.5353533 4.030303 16.3030303 2.686868 4.7676771 6.39394 8.4545455 11.121212 11.0606061 4.727273 2.6060606 10.060606 3.9090909 16 3.9090909zm66 0c5.818182 0 10.949496-1.0404043 15.39394-3.1212121s8.040404-4.8585862 10.787878-8.3333334l-10.545454-9.8181818c-3.79798 4.6060606-8.626262 6.8888892-14.484849 6.8484849-3.878787-.0404044-7.181818-1.0909091-9.909091-3.1515152-2.727272-2.060606-4.575757-4.8888892-5.545454-8.4848485h42.484848c.282829-1.0101013.424243-2.9494952.424243-5.8181818 0-5.8989896-1.232323-11.1818182-3.69697-15.8484848-2.464647-4.6666667-5.959595-8.323232-10.484848-10.969697s-9.717172-3.969697-15.575758-3.969697c-4.242424 0-8.222222.7676771-11.939394 2.3030303-3.717171 1.5353533-6.898989 3.6666667-9.545454 6.3939394-2.646465 2.7272728-4.737374 6.0404044-6.272728 9.939394-1.535353 3.8989896-2.30303 8.1111108-2.30303 12.6363636 0 6.1818182 1.363636 11.676768 4.090909 16.4848485s6.454546 8.4949498 11.181818 11.0606061c4.727273 2.5656562 10.040405 3.8484848 15.939394 3.8484848zm12.484849-37.7575758h-26.727273c.929293-3.4343437 2.595959-6.060606 5-7.8787878 2.404041-1.8181819 5.282829-2.7272728 8.636364-2.7272728 3.434343 0 6.262626.939394 8.484848 2.8181819 2.222223 1.8787878 3.757576 4.4747471 4.606061 7.7878787zm87.333333 37.7575758c7.757576 0 13.79798-2.7878788 18.121212-8.3636364h.30303v7.3333334h15.454546v-60.6060606h-16.242424v6.8484848h-.242425c-4.525252-5.2525255-10.484848-7.8787879-17.878787-7.8787879-4 0-7.767678.7878788-11.303031 2.3636364s-6.565656 3.737374-9.090909 6.4848485c-2.525253 2.7474744-4.515151 6.0808078-5.969697 10-1.454545 3.9191922-2.181818 8.1414138-2.181818 12.6666666 0 4.6060607.727273 8.8585862 2.181818 12.7575758 1.454546 3.8989896 3.464647 7.1919195 6.030303 9.8787879s5.636364 4.7777775 9.212121 6.2727273c3.575758 1.4949498 7.444445 2.2424242 11.606061 2.2424242zm2.969697-14.5454545c-4.565656 0-8.292929-1.5353533-11.181818-4.6060607-2.888889-3.0707073-4.333333-7.0505047-4.333333-11.9393939 0-5.0909091 1.484848-9.1919195 4.454545-12.3030303s6.676768-4.6666667 11.121212-4.6666667c4.404041 0 8.050505 1.616162 10.939394 4.8484849s4.333333 7.2727273 4.333333 12.1212121c0 4.8888892-1.474747 8.8686866-4.424242 11.9393939-2.949495 3.0707074-6.585859 4.6060607-10.909091 4.6060607zm98.181818 13.5151515v-33.3939394h34.424243v-15.5757576h-34.424243v-23.5757576h41.272727v-15.63636361h-58.484848v88.18181821zm63.151515-69.1515152c2.747475 0 5.111111-.969697 7.090909-2.9090909 1.979799-1.9393939 2.969697-4.2828286 2.969697-7.03030302 0-2.70707102-.989898-5.03030303-2.969697-6.96969697-1.979798-1.93939394-4.343434-2.90909091-7.090909-2.90909091-2.787878 0-5.161616.96969697-7.121212 2.90909091-1.959595 1.93939394-2.939394 4.26262595-2.939394 6.96969697 0 1.81818182.444444 3.48484852 1.333334 5.00000002.888889 1.5151515 2.11111 2.7171714 3.666666 3.6060606s3.242425 1.3333333 5.060606 1.3333333zm8.121212 69.1515152v-60.6060606h-16.242424v60.6060606zm42.787879 1.030303c7.757576 0 13.79798-2.7878788 18.121212-8.3636364h.303031v7.3333334h15.454545v-60.6060606h-16.242424v6.8484848h-.242424c-4.525253-5.2525255-10.484849-7.8787879-17.878788-7.8787879-4 0-7.767677.7878788-11.303031 2.3636364-3.535353 1.5757576-6.565656 3.737374-9.090909 6.4848485-2.525252 2.7474744-4.515151 6.0808078-5.969697 10-1.454545 3.9191922-2.181818 8.1414138-2.181818 12.6666666 0 4.6060607.727273 8.8585862 2.181818 12.7575758 1.454546 3.8989896 3.464647 7.1919195 6.030303 9.8787879 2.565657 2.6868684 5.636364 4.7777775 9.212122 6.2727273 3.575757 1.4949498 7.444444 2.2424242 11.60606 2.2424242zm2.969697-14.5454545c-4.565656 0-8.292929-1.5353533-11.181818-4.6060607-2.888889-3.0707073-4.333333-7.0505047-4.333333-11.9393939 0-5.0909091 1.484848-9.1919195 4.454545-12.3030303s6.676768-4.6666667 11.121212-4.6666667c4.404041 0 8.050505 1.616162 10.939394 4.8484849s4.333334 7.2727273 4.333334 12.1212121c0 4.8888892-1.474748 8.8686866-4.424243 11.9393939-2.949495 3.0707074-6.585859 4.6060607-10.909091 4.6060607zm102.787879 13.5757575v-30.3636363c0-3.5151515.555556-6.5555559 1.666667-9.1212122 1.11111-2.5656562 2.595959-4.4747471 4.454545-5.7272727 1.858586-1.2525255 3.939394-1.8787879 6.242424-1.8787879 7.070708 0 10.606061 5.2525256 10.606061 15.7575758v31.3333333h16.242424v-35.2727272c0-8.969697-1.868686-15.616162-5.60606-19.939394s-9-6.4848485-15.787879-6.4848485c-4.363637 0-8.353535.8383836-11.969697 2.5151515-3.616162 1.676768-6.656565 4.0909091-9.121212 7.2424243h-.181818c-3.555556-6.5050502-9.555556-9.7575758-18-9.7575758-3.39394 0-6.666667.7777775-9.818182 2.3333334-3.151515 1.5555558-5.919192 3.7878788-8.303031 6.6969697h-.181818v-8h-16.242424v60.6060606h16.242424v-30.3030303c0-3.5151515.565657-6.5555559 1.69697-9.1212122 1.131313-2.5656562 2.646465-4.4747471 4.545455-5.7272727 1.898989-1.2525255 4.080807-1.8787879 6.545454-1.8787879 7.151515 0 10.727273 5.2525256 10.727273 15.7575758v31.3333333zm110.727273 0v-30.3636363c0-3.5151515.555556-6.5555559 1.666666-9.1212122 1.111111-2.5656562 2.59596-4.4747471 4.454546-5.7272727 1.858586-1.2525255 3.939394-1.8787879 6.242424-1.8787879 7.070708 0 10.606061 5.2525256 10.606061 15.7575758v31.3333333h16.242424v-35.2727272c0-8.969697-1.868687-15.616162-5.606061-19.939394s-9-6.4848485-15.787878-6.4848485c-4.363637 0-8.353535.8383836-11.969697 2.5151515-3.616162 1.676768-6.656566 4.0909091-9.121213 7.2424243h-.181818c-3.555556-6.5050502-9.555556-9.7575758-18-9.7575758-3.393939 0-6.666666.7777775-9.818182 2.3333334-3.151515 1.5555558-5.919192 3.7878788-8.30303 6.6969697h-.181818v-8h-16.242424v60.6060606h16.242424v-30.3030303c0-3.5151515.565656-6.5555559 1.69697-9.1212122 1.131313-2.5656562 2.646465-4.4747471 4.545454-5.7272727 1.89899-1.2525255 4.080808-1.8787879 6.545455-1.8787879 7.151515 0 10.727273 5.2525256 10.727273 15.7575758v31.3333333zm80.363636.969697c7.757576 0 13.79798-2.7878788 18.121212-8.3636364h.303031v7.3333334h15.454545v-60.6060606h-16.242424v6.8484848h-.242424c-4.525253-5.2525255-10.484849-7.8787879-17.878788-7.8787879-4 0-7.767677.7878788-11.303031 2.3636364-3.535353 1.5757576-6.565656 3.737374-9.090909 6.4848485-2.525253 2.7474744-4.515151 6.0808078-5.969697 10-1.454545 3.9191922-2.181818 8.1414138-2.181818 12.6666666 0 4.6060607.727273 8.8585862 2.181818 12.7575758 1.454546 3.8989896 3.464647 7.1919195 6.030303 9.8787879 2.565657 2.6868684 5.636364 4.7777775 9.212122 6.2727273 3.575757 1.4949498 7.444444 2.2424242 11.60606 2.2424242zm2.969697-14.5454545c-4.565656 0-8.292929-1.5353533-11.181818-4.6060607-2.888889-3.0707073-4.333333-7.0505047-4.333333-11.9393939 0-5.0909091 1.484848-9.1919195 4.454545-12.3030303s6.676768-4.6666667 11.121212-4.6666667c4.404041 0 8.050505 1.616162 10.939394 4.8484849s4.333333 7.2727273 4.333333 12.1212121c0 4.8888892-1.474747 8.8686866-4.424242 11.9393939-2.949495 3.0707074-6.585859 4.6060607-10.909091 4.6060607z" fill="none" opacity=".2" stroke="#fff"/></svg>