<svg height="110" viewBox="0 0 1449 110" width="1449" xmlns="http://www.w3.org/2000/svg"><g fill="none" opacity=".20073" stroke="#362928"><g transform="translate(807)"><path d="m30.7852077 87c5.7386018 0 10.7997301-1.0293362 15.183384-3.0880077 4.3836539-2.0586716 7.9304292-4.8068991 10.6403242-8.2446809l-10.4012158-9.7137331c-3.746032 4.55706-8.5082739 6.8156032-14.2867275 6.7756287-3.8257345-.0399746-7.0835866-1.0793037-9.7735562-3.1179884-2.6899696-2.0386848-4.5131712-4.8368798-5.4696048-8.3945842h41.9037487c.2789601-.9993555.4184397-2.9181176.4184397-5.7562862 0-5.8362344-1.2154674-11.0628627-3.6464032-15.679884s-5.8780815-8.234687-10.3414387-10.852998c-4.4633573-2.6183111-9.5842618-3.9274662-15.3627153-3.9274662-4.1843972 0-8.1097606.7595103-11.7760892 2.27853s-6.8046265 3.6276596-9.41489362 6.3259187c-2.61026711 2.6982592-4.67257714 5.9761448-6.18693009 9.8336557-1.51435296 3.857511-2.27152989 8.0248224-2.27152989 12.5019343 0 6.1160541 1.3449848 11.552547 4.03495441 16.3094777 2.6899696 4.7569307 6.36626139 8.404578 11.02887539 10.9429401 4.662614 2.538362 9.9030736 3.8075435 15.7213779 3.8075435z"/><path d="m43 49h-26c.9040057-3.2380955 2.5253209-5.7142857 4.8639456-7.4285714 2.3386246-1.7142857 5.1390781-2.5714286 8.4013605-2.5714286 3.3408922 0 6.0922144.8857143 8.2539683 2.6571429 2.1617539 1.7714285 3.6553288 4.2190473 4.4807256 7.3428571z"/><path d="m79.5653924 86 12.2535211-17.22h.3018108l12.1931587 17.22h17.686117l-20.945674-30.72 20.583501-29.28h-18.289738l-11.2877268 17.16h-.3018109l-11.167002-17.16h-18.4104628l20.583501 29.34-20.7645875 30.66z"/><path d="m149.141491 110v-30.9036568h.240918c4.296367 5.140647 10.21893 7.7109704 17.767687 7.7109704 4.135755 0 7.980401-.7372242 11.533938-2.2116737 3.553538-1.4744494 6.605163-3.5366857 9.154876-6.1867088 2.549713-2.6500232 4.547323-5.8977969 5.99283-9.7433193s2.16826-8.0397328 2.16826-12.5826301c0-3.5864979-.461759-6.9837081-1.385277-10.1916315s-2.238528-6.0771217-3.945029-8.6075949-3.724187-4.7222222-6.053059-6.5752462c-2.328872-1.8530239-4.948853-3.2676983-7.859943-4.2440225-2.911089-.9763241-5.952676-1.4644866-9.124761-1.4644866-7.669216 0-13.75239 2.6300985-18.249522 7.8902954h-.240918v-6.874121h-16.141491v83.9838256z"/><path d="m163.649903 73c-2.918117 0-5.566408-.6663656-7.944874-1.9990958-2.378466-1.3327303-4.257253-3.2522604-5.636364-5.7585896-1.37911-2.5063291-2.068665-5.350814-2.068665-8.5334538 0-2.3471968.389749-4.5551534 1.169246-6.6238698s1.848807-3.8390594 3.20793-5.3110308 3.00806-2.6356242 4.946809-3.4909584c1.938748-.8553342 4.047388-1.2830018 6.325918-1.2830018 4.397163 0 8.054803 1.5316459 10.972921 4.5949367s4.377176 7.1012658 4.377176 12.1139241c0 4.8137435-1.429078 8.7323686-4.287234 11.755877s-6.545777 4.5352622-11.062863 4.5352622z"/><path d="m233.61079 87c7.645472 0 13.598587-2.7582205 17.859345-8.2746615h.298651v7.2553191h15.231214v-59.9613152h-16.007707v6.7756286h-.238921c-4.459859-5.1966476-10.333333-7.794971-17.620424-7.794971-3.942197 0-7.655427.7794971-11.139692 2.3384913-3.484264 1.5589942-6.470777 3.6976147-8.959537 6.4158607-2.488761 2.718246-4.449904 6.0161184-5.88343 9.8936171-1.433526 3.8774986-2.150289 8.054803-2.150289 12.5319148 0 4.55706.716763 8.7643459 2.150289 12.6218569s3.41458 7.1154097 5.94316 9.7736944 5.554913 4.7269501 9.078998 6.2059961c3.524085 1.4790461 7.336865 2.2185687 11.438343 2.2185687z"/><path d="m236.088409 73c-4.440079 0-8.064833-1.5117538-10.874264-4.5352622-2.80943-3.0235084-4.214145-6.9421335-4.214145-11.755877 0-5.0126583 1.444008-9.0506333 4.332024-12.1139241 2.888015-3.0632908 6.493124-4.5949367 10.815324-4.5949367 4.282908 0 7.829076 1.5913204 10.638507 4.7739602 2.80943 3.1826399 4.214145 7.1609403 4.214145 11.9349006 0 4.8137435-1.434184 8.7323686-4.302554 11.755877s-6.404715 4.5352622-10.609037 4.5352622z"/><path d="m339 86v-35.5933202c0-4.5140796-.517278-8.428946-1.551832-11.7445973-1.034555-3.3156513-2.53665-5.9521935-4.506283-7.9096267-1.969634-1.9574332-4.237697-3.4055334-6.804189-4.3443026-2.566492-.9387691-5.501047-1.4081532-8.803665-1.4081532-3.700523 0-7.212041.7490177-10.534555 2.247053-3.322513 1.4980354-6.197381 3.6651935-8.624607 6.5014735h-.179057v-7.7298625h-15.995812v59.9214146h15.995812v-30.1404715c0-5.2331366 1.22356-9.2678458 3.67068-12.1041258 2.447121-2.8362799 5.739791-4.2544204 9.878011-4.2544204 3.899476 0 6.784293 1.1185334 8.65445 3.3555992 1.870157 2.2370659 2.805235 6.1119843 2.805235 11.6247544v31.5785855z"/><path d="m373.003783 87c7.467844 0 13.167508-1.7188913 17.098991-5.1566731 3.931484-3.4377818 5.897226-7.9348804 5.897226-13.491296 0-1.479046-.118537-2.8181818-.355612-4.0174081-.750736-3.9974213-3.042454-7.1953578-6.875157-9.5938104-2.212694-1.4390716-6.598571-3.3778205-13.157629-5.8162476-3.12148-1.1992263-5.383565-2.27853-6.786255-3.237911-1.402691-.9593811-2.104036-2.0386847-2.104036-3.2379111 0-1.4390715.592686-2.5483559 1.778058-3.327853s2.528794-1.1692456 4.030265-1.1692456c2.29172 0 4.672341.529658 7.141867 1.5889749 2.469525 1.0593168 4.810635 2.6482917 7.023329 4.7669245l7.704918-11.7524178c-3.358555-2.6382978-6.776377-4.5570599-10.253468-5.7562862-3.477092-1.1992263-7.290038-1.7988395-11.43884-1.7988395-4.030265 0-7.655528.7395226-10.875788 2.2185687-3.22026 1.479046-5.76881 3.587685-7.645649 6.3259187-1.87684 2.7382337-2.815259 5.8862028-2.815259 9.4439072 0 1.8787876.217319 3.6176657.651955 5.2166344s1.076713 3.0180526 1.926229 4.2572534 1.797814 2.3584781 2.844893 3.3578337c1.047079.9993555 2.301597 1.9087682 3.763556 2.7282398s2.894283 1.5290135 4.296974 2.1286267c1.40269.5996131 2.993064 1.1992263 4.771122 1.7988395 2.80538.9194065 4.909415 1.6789168 6.312106 2.2785299 1.40269.5996132 2.499159 1.2491938 3.289407 1.9487428s1.185372 1.5090267 1.185372 2.4284332c0 1.4790461-.651954 2.6782724-1.955864 3.597679-1.303909.9194065-3.081967 1.3791102-5.334174 1.3791102-6.005884 0-11.478352-2.3384913-16.417402-7.0154739l-7.704918 11.0928434c6.598571 5.8762089 14.599832 8.8143133 24.003783 8.8143133z"/><path d="m446.707196 18c2.223325 0 4.277915-.6310677 6.163772-1.8932039 1.885856-1.2621362 3.503722-3 4.853598-5.2135922 1.349876-2.21359225 2.441687-4.81553429 3.275434-7.80582526l-9.349876-3.02912621c-.794044 1.82524242-1.7866 3.25242689-2.977667 4.2815534s-2.501241 1.54368932-3.930522 1.54368932c-.754342 0-1.558312-.15534011-2.41191-.46601942-.853598-.31067932-1.49876-.58252427-1.935484-.81553398s-1.191067-.67961195-2.263027-1.33980583c-1.270472-.73786437-2.233251-1.27184436-2.888338-1.60194175-.655087-.33009738-1.69727-.68932009-3.126551-1.0776699-1.42928-.38834981-2.918114-.58252427-4.466501-.58252427-3.414392 0-6.382134 1.26213622-8.903226 3.78640777-2.521091 2.52427155-4.436724 5.88349514-5.746898 10.07766993l9.528536 4.0194174c1.707196-3.961165 3.990074-5.9417475 6.848635-5.9417475.71464 0 1.488834.135922 2.322581.407767.833747.2718449 1.51861.543689 2.05459.8155339.535981.271845 1.300248.6990292 2.292804 1.2815534 1.826303 1.1262133 3.563276 1.9999997 5.210919 2.6213593 1.647642.6213595 3.46402.9320388 5.449131.9320388z"/><path d="m432.61079 87c7.645472 0 13.598587-2.7582205 17.859345-8.2746615h.298651v7.2553191h15.231214v-59.9613152h-16.007707v6.7756286h-.238921c-4.459859-5.1966476-10.333333-7.794971-17.620424-7.794971-3.942197 0-7.655427.7794971-11.139692 2.3384913-3.484264 1.5589942-6.470777 3.6976147-8.959537 6.4158607-2.488761 2.718246-4.449904 6.0161184-5.88343 9.8936171-1.433526 3.8774986-2.150289 8.054803-2.150289 12.5319148 0 3.6376535.457932 7.0654414 1.373796 10.2833656.915863 3.2179242 2.229929 6.0760797 3.942196 8.5744681 1.712268 2.4983884 3.733141 4.6470019 6.062621 6.4458414 2.329479 1.7988395 4.967566 3.1679558 7.914258 4.1073501 2.946692.9393942 6.052665 1.4090909 9.317919 1.4090909z"/><path d="m436.088409 73c-4.440079 0-8.064833-1.5117538-10.874264-4.5352622-2.80943-3.0235084-4.214145-6.9421335-4.214145-11.755877 0-5.0126583 1.444008-9.0506333 4.332024-12.1139241 2.888015-3.0632908 6.493124-4.5949367 10.815324-4.5949367 2.121807 0 4.096267.4276676 5.923379 1.2830018s3.398821 2.018987 4.715128 3.4909584c1.316306 1.4719714 2.34774 3.2423144 3.094302 5.3110308s1.119843 4.276673 1.119843 6.6238698c0 4.8137435-1.434184 8.7323686-4.302554 11.755877s-6.404715 4.5352622-10.609037 4.5352622z"/><path d="m510 87c6.175439 0 11.689223-1.2891683 16.541353-3.8675048 4.852131-2.5783366 8.641605-6.225983 11.368421-10.9429401 2.726817-4.7169571 4.090226-10.0934877 4.090226-16.1295938 0-4.5570599-.79198-8.7643459-2.37594-12.6218569-1.583959-3.8575109-3.779448-7.1353965-6.586466-9.8336557-2.807018-2.6982591-6.195489-4.806899-10.165414-6.3259187-3.969924-1.5190197-8.260651-2.27853-12.87218-2.27853-4.691729 0-9.042606.7794971-13.052632 2.3384913-4.010025 1.5589942-7.398496 3.7076077-10.165413 6.4458414s-4.922306 6.0261122-6.466166 9.8636364c-1.543859 3.8375241-2.315789 7.9748549-2.315789 12.4119922 0 3.5577044.491228 6.9155381 1.473684 10.073501s2.416041 6.0061254 4.300752 8.5444874c1.884712 2.5383621 4.120301 4.7269501 6.706767 6.565764 2.586466 1.838814 5.54386 3.2578979 8.87218 4.2572534 3.328321.9993556 6.877193 1.4990329 10.646617 1.4990329z"/><path d="m510.52975 73c-4.522072 0-8.240882-1.5813743-11.156429-4.744123-2.915547-3.1627486-4.373321-7.0714285-4.373321-11.7260397 0-4.7739603 1.43794-8.7224235 4.31382-11.8453888 2.875879-3.1229654 6.614523-4.6844485 11.21593-4.6844485 4.442739 0 8.131799 1.541591 11.067179 4.624774 2.93538 3.0831829 4.403071 7.0515373 4.403071 11.9050633 0 4.7739602-1.487524 8.7124773-4.462572 11.8155515-2.975048 3.1030741-6.644274 4.6546112-11.007678 4.6546112z"/></g><g transform="translate(0 24)"><path d="m57 61v-35.5933202c0-4.5140796-.5172778-8.428946-1.5518325-11.7445973-1.0345546-3.3156513-2.5366492-5.95219352-4.5062827-7.9096267s-4.2376963-3.40553343-6.8041885-4.34430256c-2.5664921-.93876913-5.5010474-1.40815324-8.8036649-1.40815324-3.7005235 0-7.2120416.74901768-10.534555 2.24705305-3.3225134 1.49803536-6.1973819 3.66519349-8.6246073 6.50147347h-.1790576v-7.72986247h-15.9958115v59.92141455h15.9958115v-30.1404715c0-5.2331366 1.2235602-9.2678458 3.6706806-12.1041258 2.4471205-2.8362799 5.7397909-4.2544204 9.8780105-4.2544204 3.8994762 0 6.7842935 1.1185334 8.6544503 3.3555992 1.8701567 2.2370659 2.8052356 6.1119843 2.8052356 11.6247544v31.5785855z"/><path d="m101 62c6.175439 0 11.689223-1.2891683 16.541353-3.8675048 4.852131-2.5783366 8.641605-6.225983 11.368421-10.9429401 2.726817-4.7169571 4.090226-10.0934877 4.090226-16.1295938 0-4.5570599-.79198-8.7643459-2.37594-12.6218569-1.583959-3.8575109-3.779448-7.1353965-6.586466-9.83365566-2.807018-2.69825918-6.195489-4.80689908-10.165414-6.32591876-3.969924-1.51901968-8.260651-2.27852998-12.87218-2.27852998-4.6917293 0-9.0426062.7794971-13.0526316 2.3384913-4.0100253 1.55899419-7.3984962 3.70760769-10.1654135 6.44584139-2.7669173 2.73823371-4.9223055 6.02611221-6.4661654 9.86363641-1.54386 3.8375241-2.3157895 7.9748549-2.3157895 12.4119922 0 3.5577044.4912284 6.9155381 1.4736842 10.073501s2.4160404 6.0061254 4.3007519 8.5444874c1.8847115 2.5383621 4.1203007 4.7269501 6.7067669 6.565764 2.5864662 1.838814 5.54386 3.2578979 8.8721805 4.2572534 3.3283205.9993556 6.8771926 1.4990329 10.6466165 1.4990329z"/><path d="m101.52975 48c-4.5220725 0-8.2408824-1.5813743-11.1564295-4.744123-2.915547-3.1627486-4.3733205-7.0714285-4.3733205-11.7260397 0-4.7739603 1.4379402-8.7224235 4.3138196-11.8453888 2.8758794-3.1229654 6.6145236-4.6844485 11.2159304-4.6844485 4.442739 0 8.131799 1.541591 11.067179 4.624774 2.93538 3.0831829 4.403071 7.0515373 4.403071 11.9050633 0 4.7739602-1.487524 8.7124773-4.462572 11.8155515-2.975048 3.1030741-6.644274 4.6546112-11.007678 4.6546112z"/><path d="m177.503375 61 23.496625-60h-17.099325l-13.751205 40.32h-.179364l-14.050145-40.32h-16.919961l23.556413 60z"/><path d="m235 62c6.175439 0 11.689223-1.2891683 16.541353-3.8675048 4.852131-2.5783366 8.641605-6.225983 11.368421-10.9429401 2.726817-4.7169571 4.090226-10.0934877 4.090226-16.1295938 0-4.5570599-.79198-8.7643459-2.37594-12.6218569-1.583959-3.8575109-3.779448-7.1353965-6.586466-9.83365566-2.807018-2.69825918-6.195489-4.80689908-10.165414-6.32591876-3.969924-1.51901968-8.260651-2.27852998-12.87218-2.27852998-4.691729 0-9.042606.7794971-13.052632 2.3384913-4.010025 1.55899419-7.398496 3.70760769-10.165413 6.44584139-2.766917 2.73823371-4.922306 6.02611221-6.466166 9.86363641-1.543859 3.8375241-2.315789 7.9748549-2.315789 12.4119922 0 3.5577044.491228 6.9155381 1.473684 10.073501s2.416041 6.0061254 4.300752 8.5444874c1.884712 2.5383621 4.120301 4.7269501 6.706767 6.565764 2.586466 1.838814 5.54386 3.2578979 8.87218 4.2572534 3.328321.9993556 6.877193 1.4990329 10.646617 1.4990329z"/><path d="m235.52975 48c-4.522072 0-8.240882-1.5813743-11.156429-4.744123-2.915547-3.1627486-4.373321-7.0714285-4.373321-11.7260397 0-4.7739603 1.43794-8.7224235 4.31382-11.8453888 2.875879-3.1229654 6.614523-4.6844485 11.21593-4.6844485 4.442739 0 8.131799 1.541591 11.067179 4.624774 2.93538 3.0831829 4.403071 7.0515373 4.403071 11.9050633 0 4.7739602-1.487524 8.7124773-4.462572 11.8155515-2.975048 3.1030741-6.644274 4.6546112-11.007678 4.6546112z"/><path d="m299.003783 62c7.467844 0 13.167508-1.7188913 17.098991-5.1566731 3.931484-3.4377818 5.897226-7.9348804 5.897226-13.491296 0-1.479046-.118537-2.8181818-.355612-4.0174081-.750736-3.9974213-3.042454-7.1953578-6.875157-9.5938104-2.212694-1.4390716-6.598571-3.3778205-13.157629-5.8162476-3.12148-1.1992263-5.383565-2.27853-6.786255-3.237911-1.402691-.9593811-2.104036-2.0386847-2.104036-3.2379111 0-1.4390715.592686-2.5483559 1.778058-3.327853s2.528794-1.1692456 4.030265-1.1692456c2.29172 0 4.672341.529658 7.141867 1.5889749 2.469525 1.0593168 4.810635 2.6482917 7.023329 4.7669245l7.704918-11.75241777c-3.358555-2.63829788-6.776377-4.55705997-10.253468-5.75628627-3.477092-1.19922631-7.290038-1.79883946-11.43884-1.79883946-4.030265 0-7.655528.73952258-10.875788 2.21856867-3.22026 1.47904608-5.76881 3.58768505-7.645649 6.32591876-1.87684 2.73823367-2.815259 5.88620277-2.815259 9.44390717 0 1.8787876.217319 3.6176657.651955 5.2166344s1.076713 3.0180526 1.926229 4.2572534 1.797814 2.3584781 2.844893 3.3578337c1.047079.9993555 2.301597 1.9087682 3.763556 2.7282398s2.894283 1.5290135 4.296974 2.1286267c1.40269.5996131 2.993064 1.1992263 4.771122 1.7988395 2.80538.9194065 4.909415 1.6789168 6.312106 2.2785299 1.40269.5996132 2.499159 1.2491938 3.289407 1.9487428s1.185372 1.5090267 1.185372 2.4284332c0 1.4790461-.651954 2.6782724-1.955864 3.597679-1.303909.9194065-3.081967 1.3791102-5.334174 1.3791102-6.005884 0-11.478352-2.3384913-16.417402-7.0154739l-7.704918 11.0928434c6.598571 5.8762089 14.599832 8.8143133 24.003783 8.8143133z"/><path d="m382.791246 61v-27.8308751c0-4.5984926 1.325757-8.3572596 3.977273-11.2763029 2.651515-2.9190432 6.334175-4.3785644 11.047979-4.3785644 1.217734 0 2.612233.0599804 4.183502.179941v-17.63421827c-.23569-.03998719-.648148-.05998033-1.237374-.05998033-3.496071 0-6.776094.84972171-9.840067 2.54916421s-5.715488 4.12864604-7.954546 7.28761062h-.176767v-8.81710915h-15.791246v59.98033432z"/><path d="m433.600854 62c3.36535 0 6.544824-.709767 9.53842-2.1293019 2.993597-1.4195349 5.625222-3.4888564 7.894878-6.2079646h.234791v7.3176008h15.731057v-59.9803343h-15.731057v29.0904621c0 5.558178-1.252223 9.856768-3.75667 12.8957719s-5.595873 4.5585054-9.274279 4.5585054c-3.756671 0-6.446994-1.089643-8.070972-3.2689282-1.623977-2.1792852-2.435965-5.9680433-2.435965-11.3662733v-31.9095379h-15.731057v36.1081613c0 4.4785319.518498 8.3372664 1.555496 11.5762045 1.036998 3.238938 2.543579 5.8180924 4.519744 7.7374631s4.236037 3.3289086 6.779616 4.2286136c2.543578.899705 5.458911 1.3495575 8.745998 1.3495575z"/><path d="m538.287078 61v-30.0206287c0-3.475442.548484-6.4815 1.645449-9.0181729 1.096966-2.5366729 2.562911-4.4241974 4.397836-5.6625736 1.834925-1.2383763 3.889242-1.8575639 6.162953-1.8575639 6.980692 0 10.471038 5.1931896 10.471038 15.5795678v30.9793713h16.035646v-34.8742633c0-8.8683693-1.844897-15.4397514-5.534691-19.71414534-3.689795-4.27439394-8.885424-6.41159136-15.586888-6.41159136-4.308084 0-8.247188.8289126-11.817313 2.4867387-3.570126 1.65782611-6.571823 4.04469548-9.005093 7.16060904h-.179503c-3.510291-6.43156486-9.433907-9.64734774-17.770847-9.64734774-3.350732 0-6.581795.76899118-9.693189 2.30697446s-5.843836 3.74508841-8.197326 6.62131631h-.179504v-7.90962672h-16.035646v59.92141455h16.035646v-29.9607073c0-3.475442.558455-6.4815 1.675366-9.0181729s2.612774-4.4241974 4.487588-5.6625736c1.874814-1.2383763 4.028856-1.8575639 6.462126-1.8575639 7.060471 0 10.590706 5.1931896 10.590706 15.5795678v30.9793713z"/><path d="m620 62c6.175439 0 11.689223-1.2891683 16.541353-3.8675048 4.852131-2.5783366 8.641605-6.225983 11.368421-10.9429401 2.726817-4.7169571 4.090226-10.0934877 4.090226-16.1295938 0-4.5570599-.79198-8.7643459-2.37594-12.6218569-1.583959-3.8575109-3.779448-7.1353965-6.586466-9.83365566-2.807018-2.69825918-6.195489-4.80689908-10.165414-6.32591876-3.969924-1.51901968-8.260651-2.27852998-12.87218-2.27852998-4.691729 0-9.042606.7794971-13.052632 2.3384913-4.010025 1.55899419-7.398496 3.70760769-10.165413 6.44584139-2.766917 2.73823371-4.922306 6.02611221-6.466166 9.86363641-1.543859 3.8375241-2.315789 7.9748549-2.315789 12.4119922 0 3.5577044.491228 6.9155381 1.473684 10.073501s2.416041 6.0061254 4.300752 8.5444874c1.884712 2.5383621 4.120301 4.7269501 6.706767 6.565764 2.586466 1.838814 5.54386 3.2578979 8.87218 4.2572534 3.328321.9993556 6.877193 1.4990329 10.646617 1.4990329z"/><path d="m619.52975 48c-4.522072 0-8.240882-1.5813743-11.156429-4.744123-2.915547-3.1627486-4.373321-7.0714285-4.373321-11.7260397 0-4.7739603 1.43794-8.7224235 4.31382-11.8453888 2.875879-3.1229654 6.614523-4.6844485 11.21593-4.6844485 4.442739 0 8.131799 1.541591 11.067179 4.624774 2.93538 3.0831829 4.403071 7.0515373 4.403071 11.9050633 0 4.7739602-1.487524 8.7124773-4.462572 11.8155515-2.975048 3.1030741-6.644274 4.6546112-11.007678 4.6546112z"/><path d="m684.003783 62c7.467844 0 13.167508-1.7188913 17.098991-5.1566731 3.931484-3.4377818 5.897226-7.9348804 5.897226-13.491296 0-1.479046-.118537-2.8181818-.355612-4.0174081-.750736-3.9974213-3.042454-7.1953578-6.875157-9.5938104-2.212694-1.4390716-6.598571-3.3778205-13.157629-5.8162476-3.12148-1.1992263-5.383565-2.27853-6.786255-3.237911-1.402691-.9593811-2.104036-2.0386847-2.104036-3.2379111 0-1.4390715.592686-2.5483559 1.778058-3.327853s2.528794-1.1692456 4.030265-1.1692456c2.29172 0 4.672341.529658 7.141867 1.5889749 2.469525 1.0593168 4.810635 2.6482917 7.023329 4.7669245l7.704918-11.75241777c-3.358555-2.63829788-6.776377-4.55705997-10.253468-5.75628627-3.477092-1.19922631-7.290038-1.79883946-11.43884-1.79883946-4.030265 0-7.655528.73952258-10.875788 2.21856867-3.22026 1.47904608-5.76881 3.58768505-7.645649 6.32591876-1.87684 2.73823367-2.815259 5.88620277-2.815259 9.44390717 0 1.8787876.217319 3.6176657.651955 5.2166344s1.076713 3.0180526 1.926229 4.2572534 1.797814 2.3584781 2.844893 3.3578337c1.047079.9993555 2.301597 1.9087682 3.763556 2.7282398s2.894283 1.5290135 4.296974 2.1286267c1.40269.5996131 2.993064 1.1992263 4.771122 1.7988395 2.80538.9194065 4.909415 1.6789168 6.312106 2.2785299 1.40269.5996132 2.499159 1.2491938 3.289407 1.9487428s1.185372 1.5090267 1.185372 2.4284332c0 1.4790461-.651954 2.6782724-1.955864 3.597679-1.303909.9194065-3.081967 1.3791102-5.334174 1.3791102-6.005884 0-11.478352-2.3384913-16.417402-7.0154739l-7.704918 11.0928434c6.598571 5.8762089 14.599832 8.8143133 24.003783 8.8143133z"/></g></g></svg>