<?xml version="1.0" encoding="UTF-8"?>
<svg width="1349px" height="110px" viewBox="0 0 1349 110" version="1.1" xmlns="http://www.w3.org/2000/svg" xmlns:xlink="http://www.w3.org/1999/xlink">
    <title>outlines / novos rumos expansão</title>
    <g id="outlines-/-novos-rumos-expansão" stroke="none" stroke-width="1" fill="none" fill-rule="evenodd" opacity="0.200730097">
        <g id="Group" transform="translate(0.000000, 0.000000)" fill-rule="nonzero" stroke="#362928">
            <g id="Group-5-Copy-2" transform="translate(807.000000, 0.000000)">
                <path d="M30.7852077,87 C36.5238095,87 41.5849378,85.9706638 45.9685917,83.9119923 C50.3522456,81.8533207 53.8990209,79.1050932 56.6089159,75.6673114 L46.2077001,65.9535783 C42.4616681,70.5106383 37.6994262,72.7691815 31.9209726,72.729207 C28.0952381,72.6892324 24.837386,71.6499033 22.1474164,69.6112186 C19.4574468,67.5725338 17.6342452,64.7743388 16.6778116,61.2166344 L58.5815603,61.2166344 C58.8605204,60.2172789 59,58.2985168 59,55.4603482 C59,49.6241138 57.7845326,44.3974855 55.3535968,39.7804642 C52.922661,35.1634429 49.4755153,31.5457772 45.0121581,28.9274662 C40.5488008,26.3091551 35.4278963,25 29.6494428,25 C25.4650456,25 21.5396822,25.7595103 17.8733536,27.27853 C14.207025,28.7975497 11.0687271,30.9061896 8.45845998,33.6044487 C5.84819287,36.3027079 3.78588284,39.5805935 2.27152989,43.4381044 C0.757176934,47.2956154 0,51.4629268 0,55.9400387 C0,62.0560928 1.3449848,67.4925857 4.03495441,72.2495164 C6.72492401,77.0064471 10.4012158,80.6540944 15.0638298,83.1924565 C19.7264438,85.7308185 24.9669034,87 30.7852077,87 Z" id="Path"></path>
                <path d="M43,49 L17,49 C17.9040057,45.7619045 19.5253209,43.2857143 21.8639456,41.5714286 C24.2025702,39.8571429 27.0030237,39 30.2653061,39 C33.6061983,39 36.3575205,39.8857143 38.5192744,41.6571429 C40.6810283,43.4285714 42.1746032,45.8761902 43,49 Z" id="Path"></path>
                <polygon id="Path" points="79.5653924 86 91.8189135 68.78 92.1207243 68.78 104.313883 86 122 86 101.054326 55.28 121.637827 26 103.348089 26 92.0603622 43.16 91.7585513 43.16 80.5915493 26 62.1810865 26 82.7645875 55.34 62 86"></polygon>
                <path d="M149.141491,110 L149.141491,79.0963432 L149.382409,79.0963432 C153.678776,84.2369902 159.601339,86.8073136 167.150096,86.8073136 C171.285851,86.8073136 175.130497,86.0700894 178.684034,84.5956399 C182.237572,83.1211905 185.289197,81.0589542 187.83891,78.4089311 C190.388623,75.7589079 192.386233,72.5111342 193.83174,68.6656118 C195.277247,64.8200894 196,60.625879 196,56.0829817 C196,52.4964838 195.538241,49.0992736 194.614723,45.8913502 C193.691205,42.6834268 192.376195,39.8142285 190.669694,37.2837553 C188.963193,34.7532821 186.945507,32.5615331 184.616635,30.7085091 C182.287763,28.8554852 179.667782,27.4408108 176.756692,26.4644866 C173.845603,25.4881625 170.804016,25 167.631931,25 C159.962715,25 153.879541,27.6300985 149.382409,32.8902954 L149.141491,32.8902954 L149.141491,26.0161744 L133,26.0161744 L133,110 L149.141491,110 Z" id="Path"></path>
                <path d="M163.649903,73 C160.731786,73 158.083495,72.3336344 155.705029,71.0009042 C153.326563,69.6681739 151.447776,67.7486438 150.068665,65.2423146 C148.689555,62.7359855 148,59.8915006 148,56.7088608 C148,54.361664 148.389749,52.1537074 149.169246,50.084991 C149.948743,48.0162746 151.018053,46.2459316 152.377176,44.7739602 C153.736299,43.3019888 155.385236,42.138336 157.323985,41.2830018 C159.262733,40.4276676 161.371373,40 163.649903,40 C168.047066,40 171.704706,41.5316459 174.622824,44.5949367 C177.540942,47.6582275 179,51.6962025 179,56.7088608 C179,61.5226043 177.570922,65.4412294 174.712766,68.4647378 C171.85461,71.4882462 168.166989,73 163.649903,73 Z" id="Path"></path>
                <path d="M233.61079,87 C241.256262,87 247.209377,84.2417795 251.470135,78.7253385 L251.768786,78.7253385 L251.768786,85.9806576 L267,85.9806576 L267,26.0193424 L250.992293,26.0193424 L250.992293,32.794971 L250.753372,32.794971 C246.293513,27.5983234 240.420039,25 233.132948,25 C229.190751,25 225.477521,25.7794971 221.993256,27.3384913 C218.508992,28.8974855 215.522479,31.036106 213.033719,33.754352 C210.544958,36.472598 208.583815,39.7704704 207.150289,43.6479691 C205.716763,47.5254677 205,51.7027721 205,56.1798839 C205,60.7369439 205.716763,64.9442298 207.150289,68.8017408 C208.583815,72.6592518 210.564869,75.9171505 213.093449,78.5754352 C215.622029,81.2337199 218.648362,83.3023853 222.172447,84.7814313 C225.696532,86.2604774 229.509312,87 233.61079,87 Z" id="Path"></path>
                <path d="M236.088409,73 C231.64833,73 228.023576,71.4882462 225.214145,68.4647378 C222.404715,65.4412294 221,61.5226043 221,56.7088608 C221,51.6962025 222.444008,47.6582275 225.332024,44.5949367 C228.220039,41.5316459 231.825148,40 236.147348,40 C240.430256,40 243.976424,41.5913204 246.785855,44.7739602 C249.595285,47.9566001 251,51.9349005 251,56.7088608 C251,61.5226043 249.565816,65.4412294 246.697446,68.4647378 C243.829076,71.4882462 240.292731,73 236.088409,73 Z" id="Path"></path>
                <path d="M339,86 L339,50.4066798 C339,45.8926002 338.482722,41.9777338 337.448168,38.6620825 C336.413613,35.3464312 334.911518,32.709889 332.941885,30.7524558 C330.972251,28.7950226 328.704188,27.3469224 326.137696,26.4081532 C323.571204,25.4693841 320.636649,25 317.334031,25 C313.633508,25 310.12199,25.7490177 306.799476,27.247053 C303.476963,28.7450884 300.602095,30.9122465 298.174869,33.7485265 L297.995812,33.7485265 L297.995812,26.018664 L282,26.018664 L282,85.9400786 L297.995812,85.9400786 L297.995812,55.7996071 C297.995812,50.5664705 299.219372,46.5317613 301.666492,43.6954813 C304.113613,40.8592014 307.406283,39.4410609 311.544503,39.4410609 C315.443979,39.4410609 318.328796,40.5595943 320.198953,42.7966601 C322.06911,45.033726 323.004188,48.9086444 323.004188,54.4214145 L323.004188,86 L339,86 Z" id="Path"></path>
                <path d="M373.003783,87 C380.471627,87 386.171291,85.2811087 390.102774,81.8433269 C394.034258,78.4055451 396,73.9084465 396,68.3520309 C396,66.8729849 395.881463,65.5338491 395.644388,64.3346228 C394.893652,60.3372015 392.601934,57.139265 388.769231,54.7408124 C386.556537,53.3017408 382.17066,51.3629919 375.611602,48.9245648 C372.490122,47.7253385 370.228037,46.6460348 368.825347,45.6866538 C367.422656,44.7272727 366.721311,43.6479691 366.721311,42.4487427 C366.721311,41.0096712 367.313997,39.9003868 368.499369,39.1208897 C369.684741,38.3413926 371.028163,37.9516441 372.529634,37.9516441 C374.821354,37.9516441 377.201975,38.4813021 379.671501,39.540619 C382.141026,40.5999358 384.482136,42.1889107 386.69483,44.3075435 L394.399748,32.5551257 C391.041193,29.9168279 387.623371,27.9980658 384.14628,26.7988395 C380.669188,25.5996132 376.856242,25 372.70744,25 C368.677175,25 365.051912,25.7395226 361.831652,27.2185687 C358.611392,28.6976147 356.062842,30.8062537 354.186003,33.5444874 C352.309163,36.2827211 351.370744,39.4306902 351.370744,42.9883946 C351.370744,44.8671822 351.588063,46.6060603 352.022699,48.205029 C352.457335,49.8039977 353.099412,51.2230816 353.948928,52.4622824 C354.798444,53.7014832 355.746742,54.8207605 356.793821,55.8201161 C357.8409,56.8194716 359.095418,57.7288843 360.557377,58.5483559 C362.019336,59.3678275 363.45166,60.0773694 364.854351,60.6769826 C366.257041,61.2765957 367.847415,61.8762089 369.625473,62.4758221 C372.430853,63.3952286 374.534888,64.1547389 375.937579,64.754352 C377.340269,65.3539652 378.436738,66.0035458 379.226986,66.7030948 C380.017234,67.4026438 380.412358,68.2121215 380.412358,69.131528 C380.412358,70.6105741 379.760404,71.8098004 378.456494,72.729207 C377.152585,73.6486135 375.374527,74.1083172 373.12232,74.1083172 C367.116436,74.1083172 361.643968,71.7698259 356.704918,67.0928433 L349,78.1856867 C355.598571,84.0618956 363.599832,87 373.003783,87 Z" id="Path"></path>
                <path d="M446.707196,18 C448.930521,18 450.985111,17.3689323 452.870968,16.1067961 C454.756824,14.8446599 456.37469,13.1067961 457.724566,10.8932039 C459.074442,8.67961165 460.166253,6.07766961 461,3.08737864 L451.650124,0.0582524272 C450.85608,1.88349485 449.863524,3.31067932 448.672457,4.33980583 C447.48139,5.36893234 446.171216,5.88349515 444.741935,5.88349515 C443.987593,5.88349515 443.183623,5.72815504 442.330025,5.41747573 C441.476427,5.10679641 440.831265,4.83495146 440.394541,4.60194175 C439.957817,4.36893204 439.203474,3.9223298 438.131514,3.26213592 C436.861042,2.52427155 435.898263,1.99029156 435.243176,1.66019417 C434.588089,1.33009679 433.545906,0.970874083 432.116625,0.582524272 C430.687345,0.194174461 429.198511,0 427.650124,0 C424.235732,0 421.26799,1.26213622 418.746898,3.78640777 C416.225807,6.31067932 414.310174,9.66990291 413,13.8640777 L422.528536,17.8834951 C424.235732,13.9223301 426.51861,11.9417476 429.377171,11.9417476 C430.091811,11.9417476 430.866005,12.0776696 431.699752,12.3495146 C432.533499,12.6213595 433.218362,12.8932036 433.754342,13.1650485 C434.290323,13.4368935 435.05459,13.8640777 436.047146,14.4466019 C437.873449,15.5728152 439.610422,16.4466016 441.258065,17.0679612 C442.905707,17.6893207 444.722085,18 446.707196,18 Z" id="Path"></path>
                <path d="M432.61079,87 C440.256262,87 446.209377,84.2417795 450.470135,78.7253385 L450.768786,78.7253385 L450.768786,85.9806576 L466,85.9806576 L466,26.0193424 L449.992293,26.0193424 L449.992293,32.794971 L449.753372,32.794971 C445.293513,27.5983234 439.420039,25 432.132948,25 C428.190751,25 424.477521,25.7794971 420.993256,27.3384913 C417.508992,28.8974855 414.522479,31.036106 412.033719,33.754352 C409.544958,36.472598 407.583815,39.7704704 406.150289,43.6479691 C404.716763,47.5254677 404,51.7027721 404,56.1798839 C404,59.8175374 404.457932,63.2453253 405.373796,66.4632495 C406.289659,69.6811737 407.603725,72.5393292 409.315992,75.0377176 C411.02826,77.536106 413.049133,79.6847195 415.378613,81.483559 C417.708092,83.2823985 420.346179,84.6515148 423.292871,85.5909091 C426.239563,86.5303033 429.345536,87 432.61079,87 Z" id="Path"></path>
                <path d="M436.088409,73 C431.64833,73 428.023576,71.4882462 425.214145,68.4647378 C422.404715,65.4412294 421,61.5226043 421,56.7088608 C421,51.6962025 422.444008,47.6582275 425.332024,44.5949367 C428.220039,41.5316459 431.825148,40 436.147348,40 C438.269155,40 440.243615,40.4276676 442.070727,41.2830018 C443.897839,42.138336 445.469548,43.3019888 446.785855,44.7739602 C448.102161,46.2459316 449.133595,48.0162746 449.880157,50.084991 C450.626719,52.1537074 451,54.361664 451,56.7088608 C451,61.5226043 449.565816,65.4412294 446.697446,68.4647378 C443.829076,71.4882462 440.292731,73 436.088409,73 Z" id="Path"></path>
                <path d="M510,87 C516.175439,87 521.689223,85.7108317 526.541353,83.1324952 C531.393484,80.5541586 535.182958,76.9065122 537.909774,72.1895551 C540.636591,67.472598 542,62.0960674 542,56.0599613 C542,51.5029014 541.20802,47.2956154 539.62406,43.4381044 C538.040101,39.5805935 535.844612,36.3027079 533.037594,33.6044487 C530.230576,30.9061896 526.842105,28.7975497 522.87218,27.27853 C518.902256,25.7595103 514.611529,25 510,25 C505.308271,25 500.957394,25.7794971 496.947368,27.3384913 C492.937343,28.8974855 489.548872,31.046099 486.781955,33.7843327 C484.015038,36.5225664 481.859649,39.8104449 480.315789,43.6479691 C478.77193,47.4854932 478,51.622824 478,56.0599613 C478,59.6176657 478.491228,62.9754994 479.473684,66.1334623 C480.45614,69.2914252 481.889725,72.1395877 483.774436,74.6779497 C485.659148,77.2163118 487.894737,79.4048998 490.481203,81.2437137 C493.067669,83.0825277 496.025063,84.5016116 499.353383,85.5009671 C502.681704,86.5003227 506.230576,87 510,87 Z" id="Path"></path>
                <path d="M510.52975,73 C506.007678,73 502.288868,71.4186257 499.373321,68.255877 C496.457774,65.0931284 495,61.1844485 495,56.5298373 C495,51.755877 496.43794,47.8074138 499.31382,44.6844485 C502.189699,41.5614831 505.928343,40 510.52975,40 C514.972489,40 518.661549,41.541591 521.596929,44.624774 C524.532309,47.7079569 526,51.6763113 526,56.5298373 C526,61.3037975 524.512476,65.2423146 521.537428,68.3453888 C518.56238,71.4484629 514.893154,73 510.52975,73 Z" id="Path"></path>
            </g>
            <g id="Group-4-Copy" transform="translate(0.000000, 24.000000)">
                <path d="M57,61 L57,25.4066798 C57,20.8926002 56.4827222,16.9777338 55.4481675,13.6620825 C54.4136129,10.3464312 52.9115183,7.70988898 50.9418848,5.7524558 C48.9722513,3.79502262 46.7041885,2.34692237 44.1376963,1.40815324 C41.5712042,0.469384109 38.6366489,0 35.3340314,0 C31.6335079,0 28.1219898,0.749017682 24.7994764,2.24705305 C21.476963,3.74508841 18.6020945,5.91224654 16.1748691,8.74852652 L15.9958115,8.74852652 L15.9958115,1.01866405 L0,1.01866405 L0,60.9400786 L15.9958115,60.9400786 L15.9958115,30.7996071 C15.9958115,25.5664705 17.2193717,21.5317613 19.6664921,18.6954813 C22.1136126,15.8592014 25.406283,14.4410609 29.5445026,14.4410609 C33.4439788,14.4410609 36.3287961,15.5595943 38.1989529,17.7966601 C40.0691096,20.033726 41.0041885,23.9086444 41.0041885,29.4214145 L41.0041885,61 L57,61 Z" id="Path"></path>
                <path d="M101,62 C107.175439,62 112.689223,60.7108317 117.541353,58.1324952 C122.393484,55.5541586 126.182958,51.9065122 128.909774,47.1895551 C131.636591,42.472598 133,37.0960674 133,31.0599613 C133,26.5029014 132.20802,22.2956154 130.62406,18.4381044 C129.040101,14.5805935 126.844612,11.3027079 124.037594,8.60444874 C121.230576,5.90618956 117.842105,3.79754966 113.87218,2.27852998 C109.902256,0.759510299 105.611529,0 101,0 C96.3082707,0 91.9573938,0.779497099 87.9473684,2.3384913 C83.9373431,3.89748549 80.5488722,6.04609899 77.7819549,8.78433269 C75.0150376,11.5225664 72.8596494,14.8104449 71.3157895,18.6479691 C69.7719295,22.4854932 69,26.622824 69,31.0599613 C69,34.6176657 69.4912284,37.9754994 70.4736842,41.1334623 C71.45614,44.2914252 72.8897246,47.1395877 74.7744361,49.6779497 C76.6591476,52.2163118 78.8947368,54.4048998 81.481203,56.2437137 C84.0676692,58.0825277 87.025063,59.5016116 90.3533835,60.5009671 C93.681704,61.5003227 97.2305761,62 101,62 Z" id="Path"></path>
                <path d="M101.52975,48 C97.0076775,48 93.2888676,46.4186257 90.3733205,43.255877 C87.4577735,40.0931284 86,36.1844485 86,31.5298373 C86,26.755877 87.4379402,22.8074138 90.3138196,19.6844485 C93.189699,16.5614831 96.9283432,15 101.52975,15 C105.972489,15 109.661549,16.541591 112.596929,19.624774 C115.532309,22.7079569 117,26.6763113 117,31.5298373 C117,36.3037975 115.512476,40.2423146 112.537428,43.3453888 C109.56238,46.4484629 105.893154,48 101.52975,48 Z" id="Path"></path>
                <polygon id="Path" points="177.503375 61 201 1 183.900675 1 170.14947 41.32 169.970106 41.32 155.919961 1 139 1 162.556413 61"></polygon>
                <path d="M235,62 C241.175439,62 246.689223,60.7108317 251.541353,58.1324952 C256.393484,55.5541586 260.182958,51.9065122 262.909774,47.1895551 C265.636591,42.472598 267,37.0960674 267,31.0599613 C267,26.5029014 266.20802,22.2956154 264.62406,18.4381044 C263.040101,14.5805935 260.844612,11.3027079 258.037594,8.60444874 C255.230576,5.90618956 251.842105,3.79754966 247.87218,2.27852998 C243.902256,0.759510299 239.611529,0 235,0 C230.308271,0 225.957394,0.779497099 221.947368,2.3384913 C217.937343,3.89748549 214.548872,6.04609899 211.781955,8.78433269 C209.015038,11.5225664 206.859649,14.8104449 205.315789,18.6479691 C203.77193,22.4854932 203,26.622824 203,31.0599613 C203,34.6176657 203.491228,37.9754994 204.473684,41.1334623 C205.45614,44.2914252 206.889725,47.1395877 208.774436,49.6779497 C210.659148,52.2163118 212.894737,54.4048998 215.481203,56.2437137 C218.067669,58.0825277 221.025063,59.5016116 224.353383,60.5009671 C227.681704,61.5003227 231.230576,62 235,62 Z" id="Path"></path>
                <path d="M235.52975,48 C231.007678,48 227.288868,46.4186257 224.373321,43.255877 C221.457774,40.0931284 220,36.1844485 220,31.5298373 C220,26.755877 221.43794,22.8074138 224.31382,19.6844485 C227.189699,16.5614831 230.928343,15 235.52975,15 C239.972489,15 243.661549,16.541591 246.596929,19.624774 C249.532309,22.7079569 251,26.6763113 251,31.5298373 C251,36.3037975 249.512476,40.2423146 246.537428,43.3453888 C243.56238,46.4484629 239.893154,48 235.52975,48 Z" id="Path"></path>
                <path d="M299.003783,62 C306.471627,62 312.171291,60.2811087 316.102774,56.8433269 C320.034258,53.4055451 322,48.9084465 322,43.3520309 C322,41.8729849 321.881463,40.5338491 321.644388,39.3346228 C320.893652,35.3372015 318.601934,32.139265 314.769231,29.7408124 C312.556537,28.3017408 308.17066,26.3629919 301.611602,23.9245648 C298.490122,22.7253385 296.228037,21.6460348 294.825347,20.6866538 C293.422656,19.7272727 292.721311,18.6479691 292.721311,17.4487427 C292.721311,16.0096712 293.313997,14.9003868 294.499369,14.1208897 C295.684741,13.3413926 297.028163,12.9516441 298.529634,12.9516441 C300.821354,12.9516441 303.201975,13.4813021 305.671501,14.540619 C308.141026,15.5999358 310.482136,17.1889107 312.69483,19.3075435 L320.399748,7.55512573 C317.041193,4.91682785 313.623371,2.99806576 310.14628,1.79883946 C306.669188,0.599613153 302.856242,0 298.70744,0 C294.677175,0 291.051912,0.739522583 287.831652,2.21856867 C284.611392,3.69761475 282.062842,5.80625372 280.186003,8.54448743 C278.309163,11.2827211 277.370744,14.4306902 277.370744,17.9883946 C277.370744,19.8671822 277.588063,21.6060603 278.022699,23.205029 C278.457335,24.8039977 279.099412,26.2230816 279.948928,27.4622824 C280.798444,28.7014832 281.746742,29.8207605 282.793821,30.8201161 C283.8409,31.8194716 285.095418,32.7288843 286.557377,33.5483559 C288.019336,34.3678275 289.45166,35.0773694 290.854351,35.6769826 C292.257041,36.2765957 293.847415,36.8762089 295.625473,37.4758221 C298.430853,38.3952286 300.534888,39.1547389 301.937579,39.754352 C303.340269,40.3539652 304.436738,41.0035458 305.226986,41.7030948 C306.017234,42.4026438 306.412358,43.2121215 306.412358,44.131528 C306.412358,45.6105741 305.760404,46.8098004 304.456494,47.729207 C303.152585,48.6486135 301.374527,49.1083172 299.12232,49.1083172 C293.116436,49.1083172 287.643968,46.7698259 282.704918,42.0928433 L275,53.1856867 C281.598571,59.0618956 289.599832,62 299.003783,62 Z" id="Path"></path>
                <path d="M382.791246,61 L382.791246,33.1691249 C382.791246,28.5706323 384.117003,24.8118653 386.768519,21.892822 C389.420034,18.9737788 393.102694,17.5142576 397.816498,17.5142576 C399.034232,17.5142576 400.428731,17.574238 402,17.6941986 L402,0.0599803343 C401.76431,0.0199931397 401.351852,0 400.762626,0 C397.266555,0 393.986532,0.849721708 390.922559,2.54916421 C387.858586,4.24860671 385.207071,6.67781025 382.968013,9.83677483 L382.791246,9.83677483 L382.791246,1.01966568 L367,1.01966568 L367,61 L382.791246,61 Z" id="Path"></path>
                <path d="M433.600854,62 C436.966204,62 440.145678,61.290233 443.139274,59.8706981 C446.132871,58.4511632 448.764496,56.3818417 451.034152,53.6627335 L451.268943,53.6627335 L451.268943,60.9803343 L467,60.9803343 L467,1 L451.268943,1 L451.268943,30.0904621 C451.268943,35.6486401 450.01672,39.9472301 447.512273,42.986234 C445.007826,46.0252379 441.9164,47.5447394 438.237994,47.5447394 C434.481323,47.5447394 431.791,46.4550964 430.167022,44.2758112 C428.543045,42.096526 427.731057,38.3077679 427.731057,32.9095379 L427.731057,1 L412,1 L412,37.1081613 C412,41.5866932 412.518498,45.4454277 413.555496,48.6843658 C414.592494,51.9233038 416.099075,54.5024582 418.07524,56.4218289 C420.051405,58.3411996 422.311277,59.7507375 424.854856,60.6504425 C427.398434,61.5501475 430.313767,62 433.600854,62 Z" id="Path"></path>
                <path d="M538.287078,61 L538.287078,30.9793713 C538.287078,27.5039293 538.835562,24.4978713 539.932527,21.9611984 C541.029493,19.4245255 542.495438,17.537001 544.330363,16.2986248 C546.165288,15.0602485 548.219605,14.4410609 550.493316,14.4410609 C557.474008,14.4410609 560.964354,19.6342505 560.964354,30.0206287 L560.964354,61 L577,61 L577,26.1257367 C577,17.2573674 575.155103,10.6859853 571.465309,6.41159136 C567.775514,2.13719742 562.579885,0 555.878421,0 C551.570337,0 547.631233,0.828912596 544.061108,2.4867387 C540.490982,4.14456481 537.489285,6.53143418 535.056015,9.64734774 L534.876512,9.64734774 C531.366221,3.21578288 525.442605,0 517.105665,0 C513.754933,0 510.52387,0.768991182 507.412476,2.30697446 C504.301082,3.84495774 501.56864,6.05206287 499.21515,8.92829077 L499.035646,8.92829077 L499.035646,1.01866405 L483,1.01866405 L483,60.9400786 L499.035646,60.9400786 L499.035646,30.9793713 C499.035646,27.5039293 499.594101,24.4978713 500.711012,21.9611984 C501.827923,19.4245255 503.323786,17.537001 505.1986,16.2986248 C507.073414,15.0602485 509.227456,14.4410609 511.660726,14.4410609 C518.721197,14.4410609 522.251432,19.6342505 522.251432,30.0206287 L522.251432,61 L538.287078,61 Z" id="Path"></path>
                <path d="M620,62 C626.175439,62 631.689223,60.7108317 636.541353,58.1324952 C641.393484,55.5541586 645.182958,51.9065122 647.909774,47.1895551 C650.636591,42.472598 652,37.0960674 652,31.0599613 C652,26.5029014 651.20802,22.2956154 649.62406,18.4381044 C648.040101,14.5805935 645.844612,11.3027079 643.037594,8.60444874 C640.230576,5.90618956 636.842105,3.79754966 632.87218,2.27852998 C628.902256,0.759510299 624.611529,0 620,0 C615.308271,0 610.957394,0.779497099 606.947368,2.3384913 C602.937343,3.89748549 599.548872,6.04609899 596.781955,8.78433269 C594.015038,11.5225664 591.859649,14.8104449 590.315789,18.6479691 C588.77193,22.4854932 588,26.622824 588,31.0599613 C588,34.6176657 588.491228,37.9754994 589.473684,41.1334623 C590.45614,44.2914252 591.889725,47.1395877 593.774436,49.6779497 C595.659148,52.2163118 597.894737,54.4048998 600.481203,56.2437137 C603.067669,58.0825277 606.025063,59.5016116 609.353383,60.5009671 C612.681704,61.5003227 616.230576,62 620,62 Z" id="Path"></path>
                <path d="M619.52975,48 C615.007678,48 611.288868,46.4186257 608.373321,43.255877 C605.457774,40.0931284 604,36.1844485 604,31.5298373 C604,26.755877 605.43794,22.8074138 608.31382,19.6844485 C611.189699,16.5614831 614.928343,15 619.52975,15 C623.972489,15 627.661549,16.541591 630.596929,19.624774 C633.532309,22.7079569 635,26.6763113 635,31.5298373 C635,36.3037975 633.512476,40.2423146 630.537428,43.3453888 C627.56238,46.4484629 623.893154,48 619.52975,48 Z" id="Path"></path>
                <path d="M684.003783,62 C691.471627,62 697.171291,60.2811087 701.102774,56.8433269 C705.034258,53.4055451 707,48.9084465 707,43.3520309 C707,41.8729849 706.881463,40.5338491 706.644388,39.3346228 C705.893652,35.3372015 703.601934,32.139265 699.769231,29.7408124 C697.556537,28.3017408 693.17066,26.3629919 686.611602,23.9245648 C683.490122,22.7253385 681.228037,21.6460348 679.825347,20.6866538 C678.422656,19.7272727 677.721311,18.6479691 677.721311,17.4487427 C677.721311,16.0096712 678.313997,14.9003868 679.499369,14.1208897 C680.684741,13.3413926 682.028163,12.9516441 683.529634,12.9516441 C685.821354,12.9516441 688.201975,13.4813021 690.671501,14.540619 C693.141026,15.5999358 695.482136,17.1889107 697.69483,19.3075435 L705.399748,7.55512573 C702.041193,4.91682785 698.623371,2.99806576 695.14628,1.79883946 C691.669188,0.599613153 687.856242,0 683.70744,0 C679.677175,0 676.051912,0.739522583 672.831652,2.21856867 C669.611392,3.69761475 667.062842,5.80625372 665.186003,8.54448743 C663.309163,11.2827211 662.370744,14.4306902 662.370744,17.9883946 C662.370744,19.8671822 662.588063,21.6060603 663.022699,23.205029 C663.457335,24.8039977 664.099412,26.2230816 664.948928,27.4622824 C665.798444,28.7014832 666.746742,29.8207605 667.793821,30.8201161 C668.8409,31.8194716 670.095418,32.7288843 671.557377,33.5483559 C673.019336,34.3678275 674.45166,35.0773694 675.854351,35.6769826 C677.257041,36.2765957 678.847415,36.8762089 680.625473,37.4758221 C683.430853,38.3952286 685.534888,39.1547389 686.937579,39.754352 C688.340269,40.3539652 689.436738,41.0035458 690.226986,41.7030948 C691.017234,42.4026438 691.412358,43.2121215 691.412358,44.131528 C691.412358,45.6105741 690.760404,46.8098004 689.456494,47.729207 C688.152585,48.6486135 686.374527,49.1083172 684.12232,49.1083172 C678.116436,49.1083172 672.643968,46.7698259 667.704918,42.0928433 L660,53.1856867 C666.598571,59.0618956 674.599832,62 684.003783,62 Z" id="Path"></path>
            </g>
        </g>
    </g>
</svg>