<svg height="230" viewBox="0 0 72 230" width="72" xmlns="http://www.w3.org/2000/svg"><path d="m-32 150v-12.623331h-25.4288793v-.249473l13.1357759-13.671117c4.3620689-4.557039 7.3775141-8.598501 9.0463362-12.124385 1.668822-3.525885 2.5032327-7.351136 2.5032327-11.4757558 0-3.1599904-.6030893-6.0705086-1.8092672-8.7315531s-2.8336928-4.8647224-4.8825431-6.611033c-2.0488504-1.7463106-4.4033762-3.1017806-7.0635776-4.066409-2.6602014-.9646285-5.460848-1.4469431-8.4019397-1.4469431-5.5186779 0-10.1946841 1.2057862-14.0280172 3.6173577s-6.85704 5.6297725-9.0711207 9.6546029l9.9137931 7.1349263c3.0402296-5.0559848 7.0883621-7.5839776 12.1443966-7.5839776 1.7844827 0 3.3789514.415788 4.7834051 1.2473648 1.4044538.8315767 2.5032328 1.9708362 3.2963362 3.4177793.7931035 1.4469431 1.1896552 3.0685172 1.1896552 4.8647226 0 2.627782-.7600572 5.180721-2.2801724 7.658819s-3.8663793 5.413563-7.0387931 8.806395l-21.7112069 23.0513.1487069 9.13071zm36.47493163 1c5.61531447 0 10.51200267-1.508334 14.69006377-4.525 4.1780612-3.016666 7.3617439-7.225 9.5510484-12.625 2.1893044-5.4 3.2839562-11.683334 3.2839562-18.85 0-5.6-.6684896-10.666666-2.0054695-15.2-1.3369799-4.5333336-3.2087511-8.3166664-5.6153145-11.35-2.4065633-3.0333336-5.3061377-5.3666664-8.6987237-7-3.3925861-1.6333336-7.12777302-2.45-11.20556067-2.45-4.21148587 0-8.03858984.8666664-11.48131267 2.6-3.44272286 1.7333336-6.33394076 4.175-8.67365546 7.325-2.3397146 3.15-4.1446371 6.95-5.4147675 11.4s-1.905196 9.341666-1.905196 14.675c0 5.6.6684896 10.666666 2.0054695 15.2s3.2087511 8.316666 5.6153145 11.35c2.4065633 3.033334 5.297782 5.366666 8.67365538 7 3.37587334 1.633334 7.1027046 2.45 11.18049225 2.45zm.0497363-13.5c-2.69702745 0-5.03225806-.931309-7.0056926-2.793926-1.97343453-1.862617-3.46995547-4.5235-4.48956357-7.982647-1.01960809-3.459146-1.52941176-7.533622-1.52941176-12.223427 0-7.350687 1.15939279-13.021692 3.47817837-17.0130152s5.50094877-5.9869848 9.54648956-5.9869848c4.07843163 0 7.26059477 2.0455531 9.54648957 6.1366594 2.2858947 4.0911066 3.4288425 9.7122206 3.4288425 16.8633406 0 7.350687-1.1429478 13.021692-3.4288425 17.013015-2.2858948 3.991323-5.46805794 5.986985-9.54648957 5.986985zm64.95026367 13.5c5.6153145 0 10.5120027-1.508334 14.6900638-4.525 4.1780612-3.016666 7.3617439-7.225 9.5510484-12.625 2.1893044-5.4 3.2839562-11.683334 3.2839562-18.85 0-5.6-.6684896-10.666666-2.0054695-15.2-1.3369799-4.5333336-3.2087511-8.3166664-5.6153145-11.35-2.4065633-3.0333336-5.3061377-5.3666664-8.6987237-7-3.3925861-1.6333336-7.127773-2.45-11.2055607-2.45-4.2114858 0-8.0385898.8666664-11.4813126 2.6-3.4427229 1.7333336-6.3339408 4.175-8.6736555 7.325-2.3397146 3.15-4.1446371 6.95-5.4147675 11.4s-1.905196 9.341666-1.905196 14.675c0 5.6.6684896 10.666666 2.0054695 15.2s3.2087511 8.316666 5.6153145 11.35c2.4065633 3.033334 5.297782 5.366666 8.6736554 7 3.3758733 1.633334 7.1027046 2.45 11.1804922 2.45zm.0497363-13.5c-2.6970274 0-5.032258-.931309-7.0056926-2.793926-1.9734345-1.862617-3.4699554-4.5235-4.4895635-7.982647-1.0196081-3.459146-1.5294118-7.533622-1.5294118-12.223427 0-7.350687 1.1593928-13.021692 3.4781784-17.0130152 2.3187855-3.9913232 5.5009487-5.9869848 9.5464895-5.9869848 4.0784317 0 7.2605948 2.0455531 9.5464896 6.1366594 2.2858947 4.0911066 3.4288425 9.7122206 3.4288425 16.8633406 0 7.350687-1.1429478 13.021692-3.4288425 17.013015-2.2858948 3.991323-5.4680579 5.986985-9.5464896 5.986985zm81.4753321 12.5v-12.623331h-25.428879v-.249473l13.135776-13.671117c4.362069-4.557039 7.377514-8.598501 9.046336-12.124385 1.668822-3.525885 2.503233-7.351136 2.503233-11.4757558 0-3.1599904-.60309-6.0705086-1.809268-8.7315531s-2.833693-4.8647224-4.882543-6.611033-4.403376-3.1017806-7.063577-4.066409c-2.660202-.9646285-5.460848-1.4469431-8.40194-1.4469431-5.518678 0-10.194684 1.2057862-14.028017 3.6173577s-6.85704 5.6297725-9.071121 9.6546029l9.913793 7.1349263c3.04023-5.0559848 7.088362-7.5839776 12.144397-7.5839776 1.784482 0 3.378951.415788 4.783405 1.2473648 1.404454.8315767 2.503233 1.9708362 3.296336 3.4177793s1.189655 3.0685172 1.189655 4.8647226c0 2.627782-.760057 5.180721-2.280172 7.658819s-3.86638 5.413563-7.038793 8.806395l-21.711207 23.0513.148707 9.13071z" fill="#fff" transform="matrix(0 -1 1 0 -78.5 151.5)"/></svg>