<svg height="230" viewBox="0 0 72 230" width="72" xmlns="http://www.w3.org/2000/svg"><path d="m-32.6403128 150.15v-12.65h-25.627715v-.25l13.2384883-13.7c4.3961772-4.566666 7.435201-8.616666 9.1170721-12.15s2.5228062-7.366666 2.5228062-11.5c0-3.1666664-.607805-6.0833336-1.8234144-8.75-1.2156093-2.6666664-2.8558502-4.875-4.9207211-6.625s-4.4378074-3.1083336-7.1188097-4.075-5.5035479-1.45-8.4676369-1.45c-5.56183 0-10.2743993 1.2083336-14.1377063 3.625s-6.9106572 5.6416664-9.1420504 9.675l9.9913119 7.15c3.0640021-5.0666664 7.143788-7.6 12.2393571-7.6 1.7984361 0 3.4053724.4166664 4.820808 1.25s2.5228062 1.975 3.3221112 3.425c.7993049 1.45 1.1989574 3.075 1.1989574 4.875 0 2.633334-.7660003 5.191666-2.2980017 7.675s-3.8966117 5.425-7.0938315 8.825l-21.880973 23.1.1498696 9.15zm36.76802783.85c5.59513467 0 10.47422557-1.508334 14.63727197-4.525 4.1630463-3.016666 7.3352879-7.225 9.5167246-12.625 2.1814366-5.4 3.2721546-11.683334 3.2721546-18.85 0-5.6-.6660872-10.666666-1.9982624-15.2-1.3321752-4.5333336-3.1972198-8.3166664-5.5951346-11.35-2.3979149-3.0333336-5.287069-5.3666664-8.6674631-7s-7.10215782-2.45-11.16529107-2.45c-4.196351 0-8.00970145.8666664-11.44005213 2.6-3.4303507 1.7333336-6.3111784 4.175-8.6424848 7.325s-4.1297425 6.95-5.3953084 11.4-1.8983493 9.341666-1.8983493 14.675c0 5.6.6660872 10.666666 1.9982624 15.2s3.1972198 8.316666 5.5951347 11.35c2.3979148 3.033334 5.2787433 5.366666 8.64248476 7 3.36374142 1.633334 7.07717952 2.45 11.14031277 2.45zm.04995656-12.95c-2.73095884 0-5.09556907-.933334-7.09383145-2.8s-3.5136111-4.533334-4.54604692-8c-1.03243581-3.466666-1.54865334-7.55-1.54865334-12.25 0-7.366666 1.17397915-13.05 3.52193744-17.05 2.3479583-4 5.57015639-6 9.66659427-6 4.12974251 0 7.35194061 2.05 9.66659431 6.15 2.3146536 4.1 3.4719808 9.733334 3.4719808 16.9 0 7.366666-1.1573272 13.05-3.4719808 17.05-2.3146537 4-5.5368518 6-9.66659431 6zm64.54387491 12.95c5.5951346 0 10.4742255-1.508334 14.6372719-4.525s7.3352879-7.225 9.5167246-12.625 3.2721547-11.683334 3.2721547-18.85c0-5.6-.6660873-10.666666-1.9982624-15.2-1.3321752-4.5333336-3.1972198-8.3166664-5.5951347-11.35-2.3979148-3.0333336-5.287069-5.3666664-8.6674631-7s-7.1021578-2.45-11.165291-2.45c-4.196351 0-8.0097015.8666664-11.4400521 2.6-3.4303507 1.7333336-6.3111785 4.175-8.6424848 7.325-2.3313064 3.15-4.1297426 6.95-5.3953085 11.4s-1.8983492 9.341666-1.8983492 14.675c0 5.6.6660872 10.666666 1.9982623 15.2 1.3321752 4.533334 3.1972199 8.316666 5.5951347 11.35 2.3979149 3.033334 5.2787434 5.366666 8.6424848 7s7.0771795 2.45 11.1403128 2.45zm.0499565-12.95c-2.7309588 0-5.095569-.933334-7.0938314-2.8s-3.5136111-4.533334-4.5460469-8-1.5486534-7.55-1.5486534-12.25c0-7.366666 1.1739792-13.05 3.5219375-17.05s5.5701564-6 9.6665942-6c4.1297425 0 7.3519406 2.05 9.6665943 6.15s3.4719809 9.733334 3.4719809 16.9c0 7.366666-1.1573272 13.05-3.4719809 17.05s-5.5368518 6-9.6665943 6zm58.499131 12.95c4.529395 0 8.592528-.816666 12.189401-2.45 3.596872-1.633334 6.419418-3.966666 8.467637-7s3.072328-6.533334 3.072328-10.5c0-4-.982479-7.466666-2.947437-10.4s-4.679265-5.2-8.142919-6.8v-.25c2.864176-1.7 5.087243-3.916666 6.6692-6.65 1.581958-2.733334 2.372937-5.783334 2.372937-9.15 0-2.9333336-.591152-5.6-1.773458-8-1.182305-2.4-2.789241-4.3833336-4.820808-5.95s-4.412829-2.7666664-7.143788-3.6-5.678396-1.25-8.842311-1.25c-5.062264 0-9.525051 1.15-13.388358 3.45s-6.610918 5.3166664-8.242832 9.05l11.090356 5.95c2.231393-3.9333336 5.645091-5.9 10.241095-5.9 2.631046 0 4.83746.8 6.619244 2.4s2.672676 3.65 2.672676 6.15c0 2.433334-.766 4.425-2.298002 5.975-1.532001 1.55-3.796698 2.325-6.794092 2.325h-6.194613v11.3h5.045612c3.696786 0 6.552636.891666 8.56755 2.675s3.022372 4.025 3.022372 6.725c0 2.833334-1.007458 5.1-3.022372 6.8s-4.471112 2.55-7.368592 2.55c-6.094701 0-10.141182-2.65-12.139444-7.95l-12.089488 5.05c1.798436 4.566666 4.929048 8.283334 9.391833 11.15 4.462786 2.866666 9.724878 4.3 15.786273 4.3z" fill="#fff" transform="matrix(0 -1 1 0 -79 151)"/></svg>