<svg height="208" viewBox="0 0 72 208" width="72" xmlns="http://www.w3.org/2000/svg"><path d="m-21.622297 139.15v-12.65h-25.6376742v-.25l13.2436329-13.7c4.3978856-4.566666 7.4380904-8.616666 9.1206151-12.15 1.6825247-3.5333336 2.5237866-7.3666664 2.5237866-11.5 0-3.1666664-.6080412-6.0833336-1.824123-8.75-1.2160817-2.6666664-2.85696-4.875-4.9226333-6.625s-4.4395321-3.1083336-7.1215762-4.075-5.5056866-1.45-8.4709274-1.45c-5.5639915 0-10.2783921 1.2083336-14.1432004 3.625-3.8648084 2.4166664-6.9133427 5.6416664-9.1456031 9.675l9.9951946 7.15c3.0651928-5.0666664 7.1465642-7.6 12.2441134-7.6 1.7991351 0 3.4066958.4166664 4.8226814 1.25 1.4159857.8333336 2.5237867 1.975 3.3234022 3.425.7996156 1.45 1.1994234 3.075 1.1994234 4.875 0 2.6333336-.766298 5.1916664-2.2988948 7.675-1.5325967 2.483334-3.8981259 5.425-7.0965881 8.825l-21.8894763 23.1.149928 9.15zm36.7823162.85c5.597309 0 10.478296-1.508334 14.6429601-4.525 4.1646642-3.016666 7.3381385-7.225 9.5204229-12.625s3.2734262-11.683334 3.2734262-18.85c0-5.6-.666346-10.6666664-1.9990389-15.2-1.3326928-4.5333336-3.1984623-8.3166664-5.597309-11.35s-5.2891235-5.3666664-8.6708313-7-7.1049178-2.45-11.16963-2.45c-4.1979817 0-8.01281408.8666664-11.44449782 2.6-3.43168374 1.7333336-6.31363101 4.175-8.64584334 7.325s-4.13134736 6.95-5.39740514 11.4c-1.2660577 4.45-1.8990869 9.3416664-1.8990869 14.675 0 5.6.666346 10.666666 1.9990389 15.2 1.33269286 4.533334 3.19846227 8.316666 5.59730898 11.35s5.28079474 5.366666 8.64584334 7 7.07992978 2.45 11.14464198 2.45zm.049976-12.95c-2.7320201 0-5.0975493-.933334-7.09658818-2.8-1.99903893-1.866666-3.51497652-4.533334-4.54781356-8-1.03283703-3.466666-1.54925516-7.55-1.54925516-12.25 0-7.3666664 1.17443537-13.05 3.5233061-17.05 2.34887074-4 5.572321-6 9.6703508-6 4.1313474 0 7.3547976 2.05 9.6703508 6.15s3.4733301 9.7333336 3.4733301 16.9c0 7.366666-1.1577769 13.05-3.4733301 17.05s-5.5390034 6-9.6703508 6zm65.5684767 12.1v-70.3h-11.194618l-21.2897645 15.2 6.6967804 10.35 11.7943296-8.85v53.6zm35.4829411.85c4.531155 0 8.595867-.816666 12.194137-2.45s6.421913-3.966666 8.470928-7 3.073522-6.533334 3.073522-10.5c0-4-.982861-7.466666-2.948582-10.4-1.965722-2.933334-4.681083-5.2-8.146084-6.8v-.25c2.865289-1.7 5.08922-3.9166664 6.671792-6.65 1.582573-2.7333336 2.373859-5.7833336 2.373859-9.15 0-2.9333336-.591382-5.6-1.774147-8s-2.790325-4.3833336-4.822681-5.95c-2.032357-1.5666664-4.414544-2.7666664-7.146564-3.6-2.732021-.8333336-5.680603-1.25-8.845748-1.25-5.064231 0-9.528752 1.15-13.393561 3.45-3.8648079 2.3-6.6134864 5.3166664-8.2460351 9.05l11.0946661 5.95c2.23226-3.9333336 5.647285-5.9 10.245074-5.9 2.632069 0 4.83934.8 6.621817 2.4 1.782476 1.6 2.673714 3.65 2.673714 6.15 0 2.4333336-.766298 4.425-2.298894 5.975-1.532597 1.55-3.798174 2.325-6.796733 2.325h-6.19702v11.3h5.047573c3.698222 0 6.555182.891666 8.570879 2.675 2.015698 1.783334 3.023547 4.025 3.023547 6.725 0 2.833334-1.007849 5.1-3.023547 6.8-2.015697 1.7-4.472849 2.55-7.371456 2.55-6.097068 0-10.145122-2.65-12.144161-7.95l-12.0941857 5.05c1.7991351 4.566666 4.930963 8.283334 9.3954827 11.15 4.46452 2.866666 9.728657 4.3 15.792408 4.3z" fill="#fff" transform="matrix(0 -1 1 0 -68 140)"/></svg>