<?xml version="1.0" encoding="UTF-8"?>
<svg width="72px" height="208px" viewBox="0 0 72 208" version="1.1" xmlns="http://www.w3.org/2000/svg" xmlns:xlink="http://www.w3.org/1999/xlink">
    <title>2013</title>
    <g id="2013" stroke="none" stroke-width="1" fill="none" fill-rule="evenodd">
        <path d="M-21.622297,139.15 L-21.622297,126.5 L-47.2599712,126.5 L-47.2599712,126.25 L-34.0163383,112.55 C-29.6184527,107.983334 -26.5782479,103.933334 -24.8957232,100.4 C-23.2131985,96.8666664 -22.3719366,93.0333336 -22.3719366,88.9 C-22.3719366,85.7333336 -22.9799778,82.8166664 -24.1960596,80.15 C-25.4121413,77.4833336 -27.0530196,75.275 -29.1186929,73.525 C-31.1843662,71.775 -33.558225,70.4166664 -36.2402691,69.45 C-38.9223132,68.4833336 -41.7459557,68 -44.7111965,68 C-50.275188,68 -54.9895886,69.2083336 -58.8543969,71.625 C-62.7192053,74.0416664 -65.7677396,77.2666664 -68,81.3 L-58.0048054,88.45 C-54.9396126,83.3833336 -50.8582412,80.85 -45.760692,80.85 C-43.9615569,80.85 -42.3539962,81.2666664 -40.9380106,82.1 C-39.5220249,82.9333336 -38.4142239,84.075 -37.6146084,85.525 C-36.8149928,86.975 -36.415185,88.6 -36.415185,90.4 C-36.415185,93.0333336 -37.181483,95.5916664 -38.7140798,98.075 C-40.2466765,100.558334 -42.6122057,103.5 -45.8106679,106.9 L-67.7001442,130 L-67.5502162,139.15 L-21.622297,139.15 Z M15.1600192,140 C20.7573282,140 25.6383152,138.491666 29.8029793,135.475 C33.9676435,132.458334 37.1411178,128.25 39.3234022,122.85 C41.5056866,117.45 42.5968284,111.166666 42.5968284,104 C42.5968284,98.4 41.9304824,93.3333336 40.5977895,88.8 C39.2650967,84.2666664 37.3993272,80.4833336 35.0004805,77.45 C32.6016338,74.4166664 29.711357,72.0833336 26.3296492,70.45 C22.9479414,68.8166664 19.2247314,68 15.1600192,68 C10.9620375,68 7.14720512,68.8666664 3.71552138,70.6 C0.283837644,72.3333336 -2.59810963,74.775 -4.93032196,77.925 C-7.26253429,81.075 -9.06166932,84.875 -10.3277271,89.325 C-11.5937848,93.775 -12.226814,98.6666664 -12.226814,104 C-12.226814,109.6 -11.560468,114.666666 -10.2277751,119.2 C-8.89508224,123.733334 -7.02931283,127.516666 -4.63046612,130.55 C-2.23161941,133.583334 0.650328622,135.916666 4.01537722,137.55 C7.38042582,139.183334 11.095307,140 15.1600192,140 Z M15.2099952,127.05 C12.4779751,127.05 10.1124459,126.116666 8.11340702,124.25 C6.11436809,122.383334 4.5984305,119.716666 3.56559346,116.25 C2.53275643,112.783334 2.0163383,108.7 2.0163383,104 C2.0163383,96.6333336 3.19077367,90.95 5.5396444,86.95 C7.88851514,82.95 11.1119654,80.95 15.2099952,80.95 C19.3413426,80.95 22.5647928,83 24.880346,87.1 C27.1958992,91.2 28.3536761,96.8333336 28.3536761,104 C28.3536761,111.366666 27.1958992,117.05 24.880346,121.05 C22.5647928,125.05 19.3413426,127.05 15.2099952,127.05 Z M80.7784719,139.15 L80.7784719,68.85 L69.5838539,68.85 L48.2940894,84.05 L54.9908698,94.4 L66.7851994,85.55 L66.7851994,139.15 L80.7784719,139.15 Z M116.261413,140 C120.792568,140 124.85728,139.183334 128.45555,137.55 C132.05382,135.916666 134.877463,133.583334 136.926478,130.55 C138.975493,127.516666 140,124.016666 140,120.05 C140,116.05 139.017139,112.583334 137.051418,109.65 C135.085696,106.716666 132.370335,104.45 128.905334,102.85 L128.905334,102.6 C131.770623,100.9 133.994554,98.6833336 135.577126,95.95 C137.159699,93.2166664 137.950985,90.1666664 137.950985,86.8 C137.950985,83.8666664 137.359603,81.2 136.176838,78.8 C134.994073,76.4 133.386513,74.4166664 131.354157,72.85 C129.3218,71.2833336 126.939613,70.0833336 124.207593,69.25 C121.475572,68.4166664 118.52699,68 115.361845,68 C110.297614,68 105.833093,69.15 101.968284,71.45 C98.1034761,73.75 95.3547976,76.7666664 93.7222489,80.5 L104.816915,86.45 C107.049175,82.5166664 110.4642,80.55 115.061989,80.55 C117.694058,80.55 119.901329,81.35 121.683806,82.95 C123.466282,84.55 124.35752,86.6 124.35752,89.1 C124.35752,91.5333336 123.591222,93.525 122.058626,95.075 C120.526029,96.625 118.260452,97.4 115.261893,97.4 L109.064873,97.4 L109.064873,108.7 L114.112446,108.7 C117.810668,108.7 120.667628,109.591666 122.683325,111.375 C124.699023,113.158334 125.706872,115.4 125.706872,118.1 C125.706872,120.933334 124.699023,123.2 122.683325,124.9 C120.667628,126.6 118.210476,127.45 115.311869,127.45 C109.214801,127.45 105.166747,124.8 103.167708,119.5 L91.0735223,124.55 C92.8726574,129.116666 96.0044853,132.833334 100.469005,135.7 C104.933525,138.566666 110.197662,140 116.261413,140 Z" fill="#FFFFFF" fill-rule="nonzero" transform="translate(36.000000, 104.000000) rotate(-90.000000) translate(-36.000000, -104.000000) "></path>
    </g>
</svg>