<svg height="180" viewBox="0 0 180 180" width="180" xmlns="http://www.w3.org/2000/svg"><path d="m92 116 .0168572-5.067742c10.7008488-1.060662 19.0665988-10.317176 19.0665988-21.579392 0-5.2356701-1.806398-10.0363779-4.815785-13.7827156l3.499394-3.5701504c3.885958 4.6685675 6.232935 10.7281487 6.232935 17.352866 0 14.058401-10.572505 25.580179-24 26.647134zm0-37v-5c1.7315656 1.328089 3.0414094 3.0514198 4 5zm0 9v-4h6.2199693c.4125679 1.3037836.6629226 2.6523974.7800307 4zm4 13c-.963408 1.964914-2.2752594 3.697829-4 5v-5zm-4-5v-4h7c-.1180194 1.337716-.3739352 2.6902655-.7917653 4zm11.628458-8c-.095068-1.3492879-.301566-2.6921716-.628458-4h3.779709c.608976 1.2549086 1.02587 2.5974551 1.220291 4zm-.628458 8c.345704-1.3279393.567447-2.6754319.672159-4h4.327841c-.1921 1.4014328-.604019 2.7442056-1.205728 4zm-5-21c1.9186474 1.0409401 3.613085 2.4010614 5 4h-2.694193c-.6162701-1.414329-1.3787466-2.7596664-2.305807-4zm2.252623 26h2.747377c-1.384988 1.602331-3.0807103 2.961737-5 4 .8926554-1.238319 1.64205-2.58682 2.252623-4zm-8.2369698-37c6.0800164.4100985 11.6142318 2.5070713 15.9843468 5.7513904l-3.764997 3.2486096c-3.393852-2.4251947-7.612378-4.0116002-12.235003-4.3959558zm-4.0345974 52c-6.0773725-.410521-11.6111297-2.508185-15.9810558-5.75302l3.7670073-3.24698c3.3922421 2.424507 7.6114386 4.011165 12.2329927 4.394866zm-8.2340824-37h-2.7469734c1.3849879-1.6029329 3.0794996-2.963339 5-4-.8934625 1.2382027-1.64205 2.5865764-2.2530266 4zm-.0523406 22c.6155543 1.414084 1.3789723 2.75917 2.3053672 4-1.9181439-1.041418-3.6140838-2.40091-5-4zm-7.6946328-13c.1909896-1.4015337.6030035-2.7450914 1.2048518-4h3.7951482c-.3446284 1.3277155-.5664228 2.674981-.671159 4zm4.3703733 4c.0962362 1.3491783.3011766 2.6919511.6296267 4h-3.7808774c-.6089769-1.254783-1.0270397-2.5975558-1.2191226-4zm11.6281702 9 .0014565 5c-1.7252617-1.303318-3.0350478-3.036233-4-5zm-.0006152-9 .0020717 4h-6.2061087c-.4180774-1.3097345-.674559-2.662284-.7938913-4zm-3.9979283-13c.9658572-1.9632466 2.2764287-3.6971669 3.9981742-5l.0018258 5zm3.9991709 5 .0008291 4h-7c.1193959-1.3381647.3768434-2.6891379.7955582-4zm-23.9991709 6.6464915c0-14.0576474 10.5718299-25.5799869 24-26.6464915l-.0153237 5.0678631c-10.7016984 1.0582463-19.068829 10.3158365-19.068829 21.5786284 0 5.2349961 1.8078151 10.0378065 4.8185417 13.7847295l-3.5010855 3.568779c-3.8868599-4.669497-6.2333035-10.7299329-6.2333035-17.3535085zm57-.1464915c0-16.8450958-13.655037-30.5-30.4996121-30.5-16.8445747 0-30.5003879 13.6549042-30.5003879 30.5 0 16.844708 13.6546494 30.5 30.5003879 30.5 16.8445751 0 30.4996121-13.655292 30.4996121-30.5zm-78.1811223-3.0372345-.057436-.0181247c-5.6542083-1.7242614-9.1177598-7.4931461-7.2543262-13.5532341 1.0763179-3.5049106 2.720524-5.3596697 5.1142292-6.8914067l1.996507 3.0570296c-1.806402 1.1478965-3.110037 2.4162215-3.8951302 4.9718016-1.1398211 3.7054904 1.255502 7.5128819 5.1202963 8.6925972l.057436.017722c4.1535922 1.266311 8.0511493-.5300463 9.313932-4.6370991.5836628-1.8958417.5076208-3.8049749-.0376166-5.3226149l-3.7794493-1.1527297-1.5786805 5.1425763-3.0869818-.9400668 2.6307298-8.561294 8.4819191 2.5865934c1.0916881 2.499595 1.6603852 5.7849956.5658658 9.3470997-1.9338129 6.2896673-7.7073424 9.0542853-13.5912946 7.2611502zm40.0525695 53.5372345-2.455816-3.694616c1.2787681-3.334591.873417-7.501379-2.1804831-8.445722-1.1476026-.354999-2.2152822-.143469-3.1456778.438141l-2.0894703-3.142396c1.8087838-1.113335 3.9781772-1.517832 6.3422155-.786566 6.6684085 2.062705 6.8859979 10.391641 3.5292317 15.631159zm-21.6475378-14.703406c-2.2205539 1.034696-4.8886164.675482-7.2242329.380486l-4.0225579-.466777 5.4083287 6.243494-2.7198021 2.546203-9.6656452-11.158902 2.1564586-2.016814 9.0849266 1.091287c2.0931356.228773 6.8307805.777828 6.8674616-2.692296.033206-2.996525-3.3449241-3.528321-5.5357471-3.266236l-.9158674.109972-.388819-3.783584c1.0154855-.13927 2.0271097-.279344 3.0534064-.283427 6.95511-.030433 11.1286393 9.934033 3.9020897 13.296594zm17.5228214 14.072548 2.2532692 3.374735c-2.0959994 1.905598-4.8773599 2.835207-8.0546891 1.871506-1.2857007-.391664-2.3913793-1.020785-3.290292-1.901634-4.1904022-4.103754-3.0480007-11.602066.833051-15.713749l2.3183326 3.47067c-2.3422823 3.477409-2.627284 9.37497 1.2952806 10.567406.6821678.20495 1.3228227.224771 1.9399271.072149 1.0394177-.253314 1.9542969-.885209 2.7051206-1.741083zm21.2751152-1.925689-2.5541007 3.556547c-3.8736928-5.077775-3.5349654-13.613638 3.5201157-15.634301 2.681726-.767003 5.076095-.272829 7.012139.972564l-2.263132 3.149182c-1.079594-.757983-2.344604-1.084551-3.687875-.700862-3.4550995.989475-3.6316872 5.373904-2.027147 8.65687zm9.016482-9.443453c4.19725 4.98939 4.470205 14.445519-2.702861 16.637526-1.228296.375119-2.442487.464706-3.626562.242455-1.397939-.262659-2.643772-.880234-3.708905-1.743694l2.146278-3.236928c1.13909 1.158143 2.587732 1.755894 4.18162 1.267934.649983-.198234 1.167682-.52532 1.574826-.97592 1.911446-2.110045 1.479522-6.031261-.158206-8.731432zm23.876184.90632c-1.145641 1.210904-2.414555 2.080201-3.809526 2.563231-1.773139.615049-3.152998.599379-4.976639.428184l.080326-3.829763c2.616165.164927 5.46138-.066989 6.700072-2.779477 1.185009-2.595354-1.810519-5.571098-5.448655-1.727232l-1.276469 1.346841-2.318323-1.027564-.695497-7.168661-5.412866 5.717613-2.756935-2.53189 9.369921-9.897602 2.078537 1.910572.651357 7.212538.663685-.40468c6.675417-3.736526 12.483552 4.55607 7.151012 10.18789zm-65.5324728-80.4823117c-1.5156835-5.5716723 1.5641663-11.3950495 7.7186998-13.0297575 2.4777888-.6581241 4.8407291-.457467 6.899261.3431983l-1.8332061 3.0546225c-1.2943317-.4833835-2.7539819-.5843011-4.2529746-.1861281-3.9799608 1.056297-5.9005949 4.9320039-4.8558303 8.7802235l.0162934.0565453c.3552756 1.3044679 1.0328425 2.424771 1.9059303 3.3200711l-1.9432859 3.2372166c-1.7179601-1.3680813-3.0226242-3.2556723-3.6385942-5.5198391zm57.6179608 28.5987204 20.281635-4.0227287.718365 3.5019985-17.036922 3.3794966 2.151137 10.4748839-3.243922.643621zm-14-17.4089846 20.853048-6.6137441 2.146952 2.4039024-9.252339 19.5960976-2.447936-2.7409157.613414-1.2535387.022889-.0463158 1.635391-3.3373727 1.47746-2.9724947 1.249718-2.6177835.001907-.0048951 2.450607-5.1331451-8.237992 2.6757724 2.620365 2.934463-1.463727 2.9901925-4.332051-4.8473427-4.964539 1.624065zm-28.5368096-19.4990241 1.9682314-3.11472c1.9698819 1.3621089 3.4739077 3.3177191 4.1580435 5.7041215l.0140293.0581105c1.5733472 5.4964735-1.624513 11.2393353-8.0140439 12.8517065-2.7493346.6934514-5.3559001.4125842-7.5894507-.5218318l1.9178909-3.0353024c1.4421318.6093849 3.098417.796888 4.8211353.3610596 4.1295722-1.042114 6.1324642-4.8382758 5.0476675-8.6348251l-.0169177-.0553986c-.4130397-1.4442383-1.2300414-2.6835405-2.3065856-3.6129202zm-21.5822129 28.88528-13.8809775-14.5419499 2.5356972-2.4580501 11.6588404 12.2152842 7.5837087-7.3579205 2.2217537 2.327052zm38.645262-23 5.2396885 1.7524852c2.607826.872843 3.590643 2.3618605 3.120829 4.1534409l-.013895.0607675c-.500234 1.9156652-2.135384 2.4617232-4.39207 1.7057409l-5.480792-1.8345001zm1.9623935-8 4.787675 1.4913961c2.138232.6631961 3.055536 2.0015164 2.616546 3.5676612l-.017015.0564591c-.512344 1.8206086-2.19495 2.2543897-4.333182 1.5915912l-4.542657-1.415057zm9.629784 14.3681021.015038-.053945c.795845-2.5655966-.424635-4.2884432-2.511401-5.7004455 1.698144-.3127304 3.435863-1.1422771 4.13752-3.4098555l.017808-.0562085c.394559-1.2682746.258422-2.4207371-.358941-3.5060513-.796636-1.39729-2.398614-2.4939213-4.661091-3.1340944l-8.8924014-2.5075019-5.8649486 18.8947266 9.174173 2.5863447c4.41929 1.246772 7.895518.261426 8.944244-3.1129692zm-21.6188102 97.6318979c-33.9109283 0-61.4996068-27.58916-61.4996068-61.5005898 0-33.9106435 27.5886785-61.4994102 61.4996068-61.4994102 33.9113212 0 61.5003932 27.5887667 61.5003932 61.4994102 0 33.9114298-27.589072 61.5005898-61.5003932 61.5005898zm.4998075-127c-36.3922625 0-65.9994143 29.6067614-65.9994143 65.9990238 0 36.3926532 29.6071518 66.0009762 65.9994143 66.0009762 36.3926527 0 66.0005857-29.608323 66.0005857-66.0009762 0-36.3922624-29.607933-65.9990238-66.0005857-65.9990238z" fill="none" stroke="#fff"/></svg>