<svg viewBox="0 0 260 666" xmlns="http://www.w3.org/2000/svg"><g fill="none" fill-rule="nonzero"><path d="m-89.4456522 454.900826v-244.83471h-38.7879598l-73.766388 52.937234 23.203512 36.046078 40.865886-30.822008v186.673406zm146.6304348 0v-244.83471h-38.7879599l-73.7663879 52.937234 23.2035117 36.046078 40.86588628-30.822008v186.673406zm186.9684794 0v-40.051197h32.977173v-41.444282h-32.977173v-163.339231h-38.878351l-111.948824 173.961505v30.822008h103.444184v40.051197zm-44.468479-78.512396h-54.728261l54.728261-87.809918zm180.64851 81.61157c15.77919 0 29.934049-2.835647 42.464582-8.506944 12.530532-5.671298 22.36352-13.773148 29.498962-24.305556s10.703163-22.685186 10.703163-36.458333c0-13.888889-3.422693-25.925925-10.268075-36.111111-6.845383-10.185187-16.301296-18.055556-28.367734-23.611112v-.868055c9.978016-5.902778 17.722581-13.599536 23.233696-23.090278s8.266671-20.081019 8.266671-31.770833c0-10.185186-2.059415-19.444445-6.178249-27.777778-4.118833-8.333333-9.716963-15.219908-16.794394-20.659722s-15.373106-9.606481-24.88703-12.5c-9.513924-2.89352-19.781999-4.340278-30.804225-4.340278-17.635564 0-33.182708 3.993056-46.641427 11.979167s-23.030654 18.460647-28.715804 31.423611l38.635809 20.659722c7.773572-13.657408 19.665975-20.486111 35.67721-20.486111 9.165854 0 16.852406 2.777778 23.059661 8.333333 6.207255 5.555556 9.310882 12.673611 9.310882 21.354167 0 8.449075-2.668539 15.364583-8.005618 20.746528-5.33708 5.381944-13.226673 8.072916-23.668784 8.072916h-21.580361v39.236111h17.577552c12.878603 0 22.827615 3.096064 29.847032 9.288195 7.019418 6.19213 10.529128 13.975694 10.529128 23.350694 0 9.837964-3.50971 17.708334-10.529128 23.611111-7.019417 5.902778-15.576148 8.854167-25.670188 8.854167-21.232291 0-35.32914-9.201389-42.290547-27.604167l-42.116512 17.534723c6.265266 15.85648 17.171472 28.761575 32.718613 38.715277 15.547141 9.953703 33.878848 14.930556 54.995115 14.930556z" opacity=".2" stroke="#fff" transform="matrix(0 -1 1 0 -202.5 463.5)"/><path d="m67.2743266 256.364525v-68.72905h-6.9477735l-19.3265531 14.175978 4.1099505 6.256983 13.7487631-10.314246v58.610335zm37.6256184 0v-68.72905h-6.9477735l-19.326553 14.175978 4.1099505 6.256983 13.7487631-10.314246v58.610335zm52.695437 0v-12.122905h10.030236v-7.625698h-10.030236v-48.980447h-7.143485l-33.271028 50.593575v6.01257h31.9989v12.122905zm-8.268829-19.553072h-21.968664l21.968664-33.875699zm47.411215 20.188547c4.207806 0 7.999725-.79027 11.375756-2.37081s6.034451-3.829143 7.975261-6.74581 2.911215-6.232542 2.911215-9.947626c0-4.040968-1.043797-7.560521-3.131391-10.558659s-4.958035-5.230447-8.611325-6.696927v-.097766c3.131391-1.499069 5.569635-3.617318 7.314734-6.354748 1.745098-2.737431 2.617647-5.817039 2.617647-9.238827 0-3.715084-.954096-6.949488-2.862287-9.703212-1.908192-2.753725-4.452447-4.823092-7.632766-6.208101-3.180318-1.385009-6.743906-2.077514-10.690764-2.077514-4.762323 0-8.904893.985801-12.427707 2.957402-3.522815 1.971601-6.197545 4.619414-8.024189 7.943436l6.800989 3.715084c3.098772-4.497207 7.600147-6.74581 13.504123-6.74581 3.65329 0 6.711289 1.04283 9.173997 3.128491 2.462708 2.085662 3.694063 4.790503 3.694063 8.114525 0 1.49907-.24464 2.892226-.73392 4.17947-.48928 1.287243-1.215045 2.444134-2.177295 3.47067-.962251 1.026536-2.258842 1.833101-3.889775 2.419693-1.630932.586592-3.506506.879888-5.626718.879888h-6.703133v7.332402h5.724574c2.479018 0 4.697086.325885 6.654205.977654s3.539124 1.547952 4.746014 2.688548c1.206891 1.140595 2.128368 2.444134 2.764431 3.910614.636064 1.46648.954096 3.030726.954096 4.692737 0 2.444135-.636064 4.619414-1.908191 6.525838-1.272128 1.906425-2.984607 3.364758-5.137438 4.375-2.152832 1.010243-4.533994 1.515364-7.143486 1.515364-2.642111 0-5.015118-.374768-7.119021-1.124302-2.103904-.749534-3.857156-1.792365-5.259758-3.128492-1.402603-1.336126-2.527946-2.949255-3.376031-4.839385l-7.29027 3.324022c1.761408 4.106145 4.705242 7.413874 8.831501 9.923185 4.12626 2.50931 9.027213 3.763966 14.702859 3.763966z" fill="#fff" transform="matrix(0 -1 1 0 -92 352)"/></g></svg>