<?xml version="1.0" encoding="UTF-8"?>
<svg width="260px" height="780px" viewBox="0 0 260 780" version="1.1" xmlns="http://www.w3.org/2000/svg" xmlns:xlink="http://www.w3.org/1999/xlink">
    <title>outlines /vertical 1143</title>
    <g id="outlines-/vertical-1143" stroke="none" stroke-width="1" fill="none" fill-rule="evenodd" opacity="0.200000003">
        <path d="M-90.4456522,454.900826 L-90.4456522,210.066116 L-129.233612,210.066116 L-203,263.00335 L-179.796488,299.049428 L-138.930602,268.22742 L-138.930602,454.900826 L-90.4456522,454.900826 Z M56.1847826,454.900826 L56.1847826,210.066116 L17.3968227,210.066116 L-56.3695652,263.00335 L-33.1660535,299.049428 L7.69983278,268.22742 L7.69983278,454.900826 L56.1847826,454.900826 Z M243.153262,454.900826 L243.153262,414.849629 L276.130435,414.849629 L276.130435,373.405347 L243.153262,373.405347 L243.153262,210.066116 L204.274911,210.066116 L92.326087,384.027621 L92.326087,414.849629 L195.770271,414.849629 L195.770271,454.900826 L243.153262,454.900826 Z M198.684783,376.38843 L143.956522,376.38843 L198.684783,288.578512 L198.684783,376.38843 Z M379.333293,458 C395.112483,458 409.267342,455.164353 421.797875,449.493056 C434.328407,443.821758 444.161395,435.719908 451.296837,425.1875 C458.432279,414.655092 462,402.502314 462,388.729167 C462,374.840278 458.577307,362.803242 451.731925,352.618056 C444.886542,342.432869 435.430629,334.5625 423.364191,329.006944 L423.364191,328.138889 C433.342207,322.236111 441.086772,314.539353 446.597887,305.048611 C452.109002,295.557869 454.864558,284.967592 454.864558,273.277778 C454.864558,263.092592 452.805143,253.833333 448.686309,245.5 C444.567476,237.166667 438.969346,230.280092 431.891915,224.840278 C424.814484,219.400464 416.518809,215.233797 407.004885,212.340278 C397.490961,209.446758 387.222886,208 376.20066,208 C358.565096,208 343.017952,211.993056 329.559233,219.979167 C316.100514,227.965278 306.528579,238.439814 300.843429,251.402778 L339.479238,272.0625 C347.25281,258.405092 359.145213,251.576389 375.156448,251.576389 C384.322302,251.576389 392.008854,254.354167 398.216109,259.909722 C404.423364,265.465278 407.526991,272.583333 407.526991,281.263889 C407.526991,289.712964 404.858452,296.628472 399.521373,302.010417 C394.184293,307.392361 386.2947,310.083333 375.852589,310.083333 L354.272228,310.083333 L354.272228,349.319444 L371.84978,349.319444 C384.728383,349.319444 394.677395,352.415508 401.696812,358.607639 C408.71623,364.799769 412.22594,372.583333 412.22594,381.958333 C412.22594,391.796297 408.71623,399.666667 401.696812,405.569444 C394.677395,411.472222 386.120664,414.423611 376.026624,414.423611 C354.794333,414.423611 340.697484,405.222222 333.736077,386.819444 L291.619565,404.354167 C297.884831,420.210647 308.791037,433.115742 324.338178,443.069444 C339.885319,453.023147 358.217026,458 379.333293,458 Z" id="Mask-Copy" stroke="#FFFFFF" fill-rule="nonzero" transform="translate(129.500000, 333.000000) rotate(-90.000000) translate(-129.500000, -333.000000) "></path>
    </g>
</svg>