<svg viewBox="0 0 967 960" xmlns="http://www.w3.org/2000/svg"><g fill="none" stroke="#fe6153" transform="translate(30 30)"><path d="m409.286145 0 36.698523 26.3270535 36.704656-26.3270535-13.970461 42.5742276 37.281137 26.3330821h-45.95288l-14.062452 43.0926903-14.062452-43.1409194-45.922216.0482291 37.250473-26.3330821z" transform="matrix(1 0 0 -1 0 112)"/><path d="m220.310676 59 36.698523 26.3157215 36.680125-26.3157215-13.94593 42.555902 37.256606 26.321748h-45.95288l-14.062452 43.12235-14.056319-43.170558-45.928349.048208 37.250473-26.321748z" transform="matrix(1 0 0 -1 0 230)"/><path d="m111 317-14.0660464-43.170558-45.9339536.048208 37.2599939-26.315722-13.967897-42.561928 36.7079031 26.315722 36.707903-26.315722-13.967897 42.561928 37.259994 26.315722h-45.933954z" transform="matrix(1 0 0 -1 0 522)"/><path d="m60.0122662 420.315722 36.6758663-26.315722-13.9405091 42.555902 37.2523766 26.315722h-45.924563l-14.0631708 43.128376-14.0631708-43.218767-45.9490954.090391 37.2769089-26.315722-13.9650414-42.555902z" transform="matrix(1 0 0 -1 0 900)"/><path d="m129.621 651.87765-15.121 43.12235-15.1209999-43.170558-49.3790001.048208 40.0544934-26.315722-15.0154892-42.561928 39.4609958 26.36393 39.460996-26.36393-15.015489 42.561928 40.054493 26.315722z" transform="matrix(1 0 0 -1 0 1278)"/><path d="m284.604722 806.90731-15.117908 43.09269-15.091536-43.140919-49.395278.048229 40.046305-26.327054-14.986047-42.580256 39.452928 26.333082 39.426556-26.333082-14.986047 42.580256 40.046305 26.327054z" transform="matrix(1 0 0 -1 0 1588)"/><path d="m473.604722 856.87765-15.117908 43.12235-15.091536-43.170558-49.395278.048208 40.046305-26.315722-14.986047-42.561928 39.452928 26.321748 39.426556-26.321748-15.012419 42.561928 40.072677 26.315722z" transform="matrix(1 0 0 -1 0 1688)"/><path d="m652.594622 806.90731-15.094622 43.09269-15.147378-43.140919-49.352622.048229 40.028116-26.327054-14.989112-42.580256 39.460996 26.333082 39.460996-26.333082-15.041867 42.580256 40.080871 26.327054z" transform="matrix(1 0 0 -1 0 1588)"/><path d="m807.647378 651.87765-15.147378 43.12235-15.147378-43.170558-49.352622.048208 40.080871-26.315722-15.041867-42.561928 39.460996 26.36393 39.46759-26.36393-15.048461 42.561928 40.080871 26.315722z" transform="matrix(1 0 0 -1 0 1278)"/><path d="m907 460.262671h-44.791211l-13.732703 42.737329-13.684875-42.785107-44.791211.047778 36.337557-26.08076-13.595196-42.181911 35.733725 26.128538 35.775575-26.128538-13.589218 42.181911z" transform="matrix(1 0 0 -1 0 895)"/><path d="m751.290906 188 36.706027 26.327054 36.712161-26.327054-13.991719 42.574228 37.282625 26.284853h-45.913203l-14.089864 43.140919-14.08373-43.189148-45.913203.048229 37.282625-26.284853z" transform="matrix(1 0 0 -1 0 488)"/><path d="m650.975473 162-14.035769-43.170558-45.939704.096416 37.220235-26.3639297-13.93766-42.5619283 36.741952 26.3639298 36.643843-26.3639298-13.93766 42.5619283 37.26929 26.3639297h-45.988758z" transform="matrix(1 0 0 -1 0 212)"/></g></svg>