<?xml version="1.0" encoding="UTF-8"?>
<svg viewBox="0 0 967 960" version="1.1" xmlns="http://www.w3.org/2000/svg" xmlns:xlink="http://www.w3.org/1999/xlink">
    <title>Estrelas Uniao Europeia</title>
    <g id="Estrelas-Uniao-Europeia" stroke="none" stroke-width="1" fill="none" fill-rule="evenodd">
        <g id="Group-9-Copy-3" transform="translate(30.000000, 30.000000)" fill-rule="nonzero" stroke="#FE6153">
            <polygon id="path18" transform="translate(446.000000, 56.000000) scale(-1, 1) rotate(-180.000000) translate(-446.000000, -56.000000) " points="409.286145 0 445.984668 26.3270535 482.689324 0 468.718863 42.5742276 506 68.9073097 460.04712 68.9073097 445.984668 112 431.922216 68.8590806 386 68.9073097 423.250473 42.5742276"></polygon>
            <polygon id="path22" transform="translate(257.000000, 115.000000) scale(-1, 1) rotate(-180.000000) translate(-257.000000, -115.000000) " points="220.310676 59 257.009199 85.3157215 293.689324 59 279.743394 101.555902 317 127.87765 271.04712 127.87765 256.984668 171 242.928349 127.829442 197 127.87765 234.250473 101.555902"></polygon>
            <polygon id="path26" transform="translate(111.000000, 261.000000) scale(-1, 1) rotate(-180.000000) translate(-111.000000, -261.000000) " points="111 317 96.9339536 273.829442 51 273.87765 88.2599939 247.561928 74.2920969 205 111 231.315722 147.707903 205 133.740006 247.561928 171 273.87765 125.066046 273.87765"></polygon>
            <polygon id="path30" transform="translate(60.000000, 450.000000) scale(-1, 1) rotate(-180.000000) translate(-60.000000, -450.000000) " points="60.0122662 420.315722 96.6881325 394 82.7476234 436.555902 120 462.871624 74.075437 462.871624 60.0122662 506 45.9490954 462.781233 0 462.871624 37.2769089 436.555902 23.3118675 394"></polygon>
            <polygon id="path34" transform="translate(114.500000, 639.000000) scale(-1, 1) rotate(-180.000000) translate(-114.500000, -639.000000) " points="129.621 651.87765 114.5 695 99.3790001 651.829442 50 651.87765 90.0544934 625.561928 75.0390042 583 114.5 609.36393 153.960996 583 138.945507 625.561928 179 651.87765"></polygon>
            <polygon id="path38" transform="translate(269.500000, 794.000000) scale(-1, 1) rotate(-180.000000) translate(-269.500000, -794.000000) " points="284.604722 806.90731 269.486814 850 254.395278 806.859081 205 806.90731 245.046305 780.580256 230.060258 738 269.513186 764.333082 308.939742 738 293.953695 780.580256 334 806.90731"></polygon>
            <polygon id="path42" transform="translate(458.500000, 844.000000) scale(-1, 1) rotate(-180.000000) translate(-458.500000, -844.000000) " points="473.604722 856.87765 458.486814 900 443.395278 856.829442 394 856.87765 434.046305 830.561928 419.060258 788 458.513186 814.321748 497.939742 788 482.927323 830.561928 523 856.87765"></polygon>
            <polygon id="path46" transform="translate(637.500000, 794.000000) scale(-1, 1) rotate(-180.000000) translate(-637.500000, -794.000000) " points="652.594622 806.90731 637.5 850 622.352622 806.859081 573 806.90731 613.028116 780.580256 598.039004 738 637.5 764.333082 676.960996 738 661.919129 780.580256 702 806.90731"></polygon>
            <polygon id="path50" transform="translate(792.500000, 639.000000) scale(-1, 1) rotate(-180.000000) translate(-792.500000, -639.000000) " points="807.647378 651.87765 792.5 695 777.352622 651.829442 728 651.87765 768.080871 625.561928 753.039004 583 792.5 609.36393 831.96759 583 816.919129 625.561928 857 651.87765"></polygon>
            <polygon id="path54" transform="translate(848.500000, 447.500000) scale(-1, 1) rotate(-180.000000) translate(-848.500000, -447.500000) " points="907 460.262671 862.208789 460.262671 848.476086 503 834.791211 460.214893 790 460.262671 826.337557 434.181911 812.742361 392 848.476086 418.128538 884.251661 392 870.662443 434.181911"></polygon>
            <polygon id="path58" transform="translate(788.000000, 244.000000) scale(-1, 1) rotate(-180.000000) translate(-788.000000, -244.000000) " points="751.290906 188 787.996933 214.327054 824.709094 188 810.717375 230.574228 848 256.859081 802.086797 256.859081 787.996933 300 773.913203 256.810852 728 256.859081 765.282625 230.574228"></polygon>
            <polygon id="path62" transform="translate(651.000000, 106.000000) scale(-1, 1) rotate(-180.000000) translate(-651.000000, -106.000000) " points="650.975473 162 636.939704 118.829442 591 118.925858 628.220235 92.5619283 614.282575 50 651.024527 76.3639298 687.66837 50 673.73071 92.5619283 711 118.925858 665.011242 118.925858"></polygon>
        </g>
    </g>
</svg>