<?xml version="1.0" encoding="UTF-8"?>
<svg viewBox="0 0 300 900" version="1.1" xmlns="http://www.w3.org/2000/svg" xmlns:xlink="http://www.w3.org/1999/xlink">
    <title>1977</title>
    <g id="1977" stroke="none" stroke-width="1" fill="none" fill-rule="evenodd">
        <path d="M-117.627364,588.017751 L-117.627364,301.331361 L-162.900395,301.331361 L-249,363.317608 L-221.917026,405.525348 L-174.218653,369.434671 L-174.218653,588.017751 L-117.627364,588.017751 Z M-13.3246373,600 C8.90202787,595.793757 29.4684716,588.161464 48.3746908,577.103121 C67.2809099,566.044777 83.4087947,552.510177 96.7583484,536.499322 C110.107902,520.488466 120.543592,502.035279 128.065421,481.139756 C135.58725,460.244232 139.348165,438.127545 139.348165,414.789688 C139.348165,405.156039 138.501111,395.861601 136.807006,386.906377 C135.112902,377.951153 132.605623,369.674354 129.285177,362.075984 C125.964731,354.477613 122.000524,347.421981 117.392555,340.909091 C112.784587,334.396201 107.53286,328.62958 101.637373,323.609227 C95.741885,318.588873 89.3720487,314.314789 82.5278608,310.786974 C75.6836729,307.25916 68.2973733,304.579376 60.3689588,302.747626 C52.4405443,300.915875 44.274954,300 35.872191,300 C21.6417035,300 8.22438664,302.34057 -4.37975946,307.02171 C-16.9839056,311.702849 -27.8600639,318.181817 -37.0082344,326.458616 C-46.156405,334.735415 -53.3732951,344.810042 -58.6589048,356.682497 C-63.9445144,368.554951 -66.5873192,381.411126 -66.5873192,395.251018 C-66.5873192,406.784262 -65.0965073,417.469472 -62.1148803,427.306649 C-59.1332533,437.143825 -54.9657534,445.691994 -49.6123805,452.951153 C-44.2590077,460.210313 -37.9230515,466.451831 -30.6045151,471.675712 C-23.2859786,476.899594 -15.2898009,480.800542 -6.61597893,483.378562 C2.05784308,485.956582 11.2060136,487.24559 20.8285327,487.24559 C40.2091004,487.24559 57.8955635,482.767978 73.887922,473.812754 L74.2945073,474.016282 C66.1628002,494.233378 53.4570077,510.786975 36.17713,523.677069 C18.8972523,536.567163 -3.16000338,546.743554 -29.994637,554.206242 L-13.3246373,600 Z M34.7474409,438.017751 C20.4588502,438.017751 9.09601751,433.970959 0.658945946,425.877372 C-7.77812562,417.783785 -11.996663,407.34374 -11.996663,394.557233 C-11.996663,381.906754 -7.57400289,371.194654 1.27131412,362.420935 C10.1166311,353.647215 21.6835865,349.260355 35.9721772,349.260355 C50.1246851,349.260355 61.7937019,354.735427 70.9792245,365.685574 C80.164747,376.635722 84.7575083,390.952526 84.7575083,408.635993 L84.7575083,412.104673 C78.6338266,419.722165 71.1493257,425.945384 62.3040087,430.774332 C53.4586917,435.603279 44.2731691,438.017751 34.7474409,438.017751 Z M245.625584,595.118343 L344.839822,340.116365 L344.839822,303.106509 L167.309232,303.106509 L167.309232,354.147575 L282.957731,354.147575 L189.424472,584.9508 L245.625584,595.118343 Z M449.785762,595.118343 L549,340.116365 L549,303.106509 L371.46941,303.106509 L371.46941,354.147575 L487.117909,354.147575 L393.58465,584.9508 L449.785762,595.118343 Z" fill="#362928" fill-rule="nonzero" transform="translate(150.000000, 450.000000) rotate(-90.000000) translate(-150.000000, -450.000000) "></path>
    </g>
</svg>