<svg viewBox="0 0 300 900" xmlns="http://www.w3.org/2000/svg"><path d="m-117.627364 588.017751v-286.68639h-45.273031l-86.099605 61.986247 27.082974 42.20774 47.698373-36.090677v218.58308zm104.3027267 11.982249c22.22666517-4.206243 42.7931089-11.838536 61.6993281-22.896879 18.9062191-11.058344 35.0341039-24.592944 48.3836576-40.603799 13.3495536-16.010856 23.7852436-34.464043 31.3070726-55.359566 7.521829-20.895524 11.282744-43.012211 11.282744-66.350068 0-9.633649-.847054-18.928087-2.541159-27.883311-1.694104-8.955224-4.201383-17.232023-7.521829-24.830393-3.320446-7.598371-7.284653-14.654003-11.892622-21.166893-4.607968-6.51289-9.859695-12.279511-15.755182-17.299864-5.895488-5.020354-12.2653243-9.294438-19.1095122-12.822253-6.8441879-3.527814-14.2304875-6.207598-22.158902-8.039348-7.9284145-1.831751-16.0940048-2.747626-24.4967678-2.747626-14.2304875 0-27.64780436 2.34057-40.25195046 7.02171-12.60414614 4.681139-23.48030444 11.160107-32.62847494 19.436906-9.1481706 8.276799-16.3650607 18.351426-21.6506704 30.223881-5.2856096 11.872454-7.9284144 24.728629-7.9284144 38.568521 0 11.533244 1.4908119 22.218454 4.4724389 32.055631 2.981627 9.837176 7.1491269 18.385345 12.5024998 25.644504 5.3533728 7.25916 11.689329 13.500678 19.0078654 18.724559 7.3185365 5.223882 15.3147142 9.12483 23.98853617 11.70285 8.67382201 2.57802 17.82199253 3.867028 27.44451163 3.867028 19.3805677 0 37.0670308-4.477612 53.0593893-13.432836l.4065853.203528c-8.1317071 20.217096-20.8374996 36.770693-38.1173773 49.660787s-39.33713338 23.066485-66.171767 30.529173zm48.0720782-161.982249c-14.2885907 0-25.65142339-4.046792-34.08849495-12.140379-8.43707157-8.093587-12.65560895-18.533632-12.65560895-31.320139 0-12.650479 4.42266011-23.362579 13.26797712-32.136298 8.84531698-8.77372 20.41227238-13.16058 34.70086308-13.16058 14.1525079 0 25.8215247 5.475072 35.0070473 16.425219 9.1855225 10.950148 13.7782838 25.266952 13.7782838 42.950419v3.46868c-6.1236817 7.617492-13.6081826 13.840711-22.4534996 18.669659-8.845317 4.828947-18.0308396 7.243419-27.5565678 7.243419zm210.8781431 157.100592 99.214238-255.001978v-37.009856h-177.53059v51.041066h115.648499l-93.533259 230.803225zm204.160178 0 99.214238-255.001978v-37.009856h-177.53059v51.041066h115.648499l-93.533259 230.803225z" fill="#362928" transform="matrix(0 -1 1 0 -300 600)"/></svg>