<?xml version="1.0" encoding="UTF-8"?>
<svg height="100%" viewBox="0 0 378 900" fill="none" xmlns="http://www.w3.org/2000/svg">
  <g clip-path="url(#clip0)">
    <path fill-rule="evenodd" clip-rule="evenodd" d="M770.677 -13.7272L786.394 -16.5615L794.735 -35.0816L797.859 -40.6216L801.144 -45.0664L816.892 -58.6585L825.201 -58.1432L829.195 -52.571L830 -45.8072L829.839 -41.9099L829.42 -39.7197L827.263 -31.6353L789.936 22.991L784.107 40.0616L780.404 58.3563L781.885 68.953L787.263 89.8243L793.06 130.182L803.108 158.494L802.4 176.788L796.442 187.643L786.265 190.541L775.444 189.414L765.621 184.905L756.346 178.367L746.266 173.954L732.385 174.437L711.355 184.969L697.12 187.353L683.24 185.291L673.836 181.04L637.476 184.679L650.841 232.864L649.295 241.85L638.635 259.887L614.61 311.711L586.816 342.728L559.377 364.759L548.234 385.212L547.558 391.782L547.815 398.965L549.78 408.853L555.126 418.419L571.422 436.553L578.507 449.63L582.308 460.548L583.499 504.352L591.679 525.159L597.509 529.153L618.7 538.14L638.635 554.18L590.391 573.634L582.308 581.686L575.448 593.313L576.188 604.103L589.393 638.18L596.897 666.266L603.628 676.187L611.647 683.949L619.215 693.515L633.192 717.028L568.234 743.374L540.698 764.02L538.862 772.878L541.31 783.056L553.097 804.861L552.195 825.249L547.493 838.326L513.613 890.827L518.38 938.818L507.784 950.123L508.718 963.232L494.354 982.01L468.783 980.206L460.345 982.751L450.362 994.153L443.695 1006.94L416.836 1041.5L411.329 1055.83L400.443 1066.49L391.651 1073L322.635 1065.69L314.39 1055.74L312.748 1046.27L313.102 1032.09L316.322 1015.93L325.952 992.413L332.393 982.364L338.576 975.987L342.312 973.571L347.368 969.03L349.687 964.617L355.613 941.652L356.998 931.957L355.098 920.878L341.41 895.11L335.13 864.093L321.346 865.414L303.021 873.659L283.602 886.511L273.199 891.181L263.28 888.443L254.906 877.428L251.171 849.47L250.172 834.107L257.483 796.068L212.041 764.6L186.309 804.41L182.09 829.662L172.718 845.992L133.266 841.322L2.51203 707.107L0 703.886L3.63922 682.306L26.2153 611.028L41.3519 520.103L44.4758 515.207L51.2711 510.569L52.0441 543.551L51.2711 554.083L74.8778 514.337L91.9467 500.359L108.661 510.569H115.94V500.874L113.138 496.848L108.371 488.087L105.537 477.748L108.661 468.826L120.223 462.159L126.89 466.732L131.495 475.075L137.292 479.519L149.015 474.753L159.031 463.318L173.298 436.81L154.49 425.505L143.991 407.049L147.179 390.075L169.336 382.506L196.711 379.769L217.967 371.749L236.324 358.607L254.906 340.828L234.971 342.181L205.085 357.448L179.932 362.666L175.327 365.081L168.821 365.597L141.479 353.486L132.912 340.828L123.411 297.765L168.564 234.281L157.098 201.042L155.069 226.648L147.694 247.97L139.031 253.832L132.912 233.089L116.197 264.912L103.476 305.785L95.3605 349.041L92.462 388.368L87.2125 413.556L74.3947 449.597L58.614 483.127L43.9605 500.874L157.292 -32.3117L157.163 -68.1923L157.42 -68.2568L168.628 -71.381L220.318 -78.3381L239.738 -65.7123L277.547 -79.3044L295.775 -92.2202L310.074 -92.6389L320.702 -86.5836L330.525 -76.9854L347.368 -68.0635L359.542 -69.1908L368.495 -75.2783L376.321 -96.8904L381.538 -105.619L402.375 -129.164L426.658 -103.719L432.166 -94.8291L440.829 -77.4685L462.02 -60.6877H471.714L475.643 -67.516L474 -77.694L468.429 -86.487L467.366 -96.1819L468.558 -104.331L499.604 -119.372L523.114 -111.062L580.375 -151.323L584.465 -155.768L589.457 -173L661.243 -126.555L665.172 -116.828L669.166 -101.625L667.878 -90.9962L667.362 -56.8226L756.346 -13.8882L770.677 -13.7272Z" fill="#FE6153" stroke="#F9F9F9" stroke-width="0.5" stroke-linecap="round" stroke-linejoin="round"/>
    <path d="M224.5 548C247.42 548 266 529.196 266 506C266 482.804 247.42 464 224.5 464C201.58 464 183 482.804 183 506C183 529.196 201.58 548 224.5 548Z" stroke="white"/>
    <path d="M224.5 518C230.851 518 236 512.851 236 506.5C236 500.149 230.851 495 224.5 495C218.149 495 213 500.149 213 506.5C213 512.851 218.149 518 224.5 518Z" fill="white"/>
  </g>
  <defs>
    <clipPath id="clip0">
      <rect width="378" height="900" fill="white"/>
    </clipPath>
  </defs>
</svg>