<svg fill="none" viewBox="0 0 378 900" xmlns="http://www.w3.org/2000/svg" xmlns:xlink="http://www.w3.org/1999/xlink"><clipPath id="a"><path d="m0 0h378v900h-378z"/></clipPath><g clip-path="url(#a)"><path d="m770.677-13.7272 15.717-2.8343 8.341-18.5201 3.124-5.54 3.285-4.4448 15.748-13.5921 8.309.5153 3.994 5.5722.805 6.7638-.161 3.8973-.419 2.1902-2.157 8.0844-37.327 54.6263-5.829 17.0706-3.703 18.2947 1.481 10.5967 5.378 20.8713 5.797 40.3577 10.048 28.312-.708 18.294-5.958 10.855-10.177 2.898-10.821-1.127-9.823-4.509-9.275-6.538-10.08-4.413-13.881.483-21.03 10.532-14.235 2.384-13.88-2.062-9.404-4.251-36.36 3.639 13.365 48.185-1.546 8.986-10.66 18.037-24.025 51.824-27.794 31.017-27.439 22.031-11.143 20.453-.676 6.57.257 7.183 1.965 9.888 5.346 9.566 16.296 18.134 7.085 13.077 3.801 10.918 1.191 43.804 8.18 20.807 5.83 3.994 21.191 8.987 19.935 16.04-48.244 19.454-8.083 8.052-6.86 11.627.74 10.79 13.205 34.077 7.504 28.086 6.731 9.921 8.019 7.762 7.568 9.566 13.977 23.513-64.958 26.346-27.536 20.646-1.836 8.858 2.448 10.178 11.787 21.805-.902 20.388-4.702 13.077-33.88 52.501 4.767 47.991-10.596 11.305.934 13.109-14.364 18.778-25.571-1.804-8.438 2.545-9.983 11.402-6.667 12.787-26.859 34.56-5.507 14.33-10.886 10.66-8.792 6.51-69.016-7.31-8.245-9.95-1.642-9.47.354-14.18 3.22-16.16 9.63-23.517 6.441-10.049 6.183-6.377 3.736-2.416 5.056-4.541 2.319-4.413 5.926-22.965 1.385-9.695-1.9-11.079-13.688-25.768-6.28-31.017-13.784 1.321-18.325 8.245-19.419 12.852-10.403 4.67-9.919-2.738-8.374-11.015-3.735-27.958-.999-15.363 7.311-38.039-45.442-31.468-25.732 39.81-4.219 25.252-9.372 16.33-39.452-4.67-130.75397-134.215-2.51203-3.221 3.63922-21.58 22.57608-71.278 15.1366-90.925 3.1239-4.896 6.7953-4.638.773 32.982-.773 10.532 23.6067-39.746 17.0689-13.978 16.7143 10.21h7.279v-9.695l-2.802-4.026-4.767-8.761-2.834-10.339 3.124-8.922 11.562-6.667 6.667 4.573 4.605 8.343 5.797 4.444 11.723-4.766 10.016-11.435 14.267-26.508-18.808-11.305-10.499-18.456 3.188-16.974 22.157-7.569 27.375-2.737 21.256-8.02 18.357-13.142 18.582-17.779-19.935 1.353-29.886 15.267-25.153 5.218-4.605 2.415-6.506.516-27.342-12.111-8.567-12.658-9.501-43.063 45.153-63.484-11.466-33.239-2.029 25.606-7.375 21.322-8.663 5.862-6.119-20.743-16.715 31.823-12.721 40.873-8.1155 43.256-2.8985 39.327-5.2495 25.188-12.8178 36.041-15.7807 33.53-14.6535 17.747 113.3315-533.1857-.129-35.8806.257-.0645 11.208-3.1242 51.69-6.9571 19.42 12.6258 37.809-13.5921 18.228-12.9158 14.299-.4187 10.628 6.0553 9.823 9.5982 16.843 8.9219 12.174-1.1273 8.953-6.0875 7.826-21.6121 5.217-8.7286 20.837-23.545 24.283 25.445 5.508 8.8899 8.663 17.3606 21.191 16.7808h9.694l3.929-6.8283-1.643-10.178-5.571-8.793-1.063-9.6949 1.192-8.1491 31.046-15.041 23.51 8.31 57.261-40.261 4.09-4.445 4.992-17.232 71.786 46.445 3.929 9.727 3.994 15.203-1.288 10.6288-.516 34.1736 88.984 42.9344z" style="fill-rule:evenodd;clip-rule:evenodd;fill:#fe6153;stroke:#f9f9f9;stroke-width:.5;stroke-linecap:round;stroke-linejoin:round"/><path d="m224.5 548c22.92 0 41.5-18.804 41.5-42s-18.58-42-41.5-42-41.5 18.804-41.5 42 18.58 42 41.5 42z" stroke="#fff"/><path d="m224.5 518c6.351 0 11.5-5.149 11.5-11.5s-5.149-11.5-11.5-11.5-11.5 5.149-11.5 11.5 5.149 11.5 11.5 11.5z" fill="#fff"/></g></svg>