<svg viewBox="0 0 1993 900" xmlns="http://www.w3.org/2000/svg"><g fill="none" fill-rule="evenodd"><g stroke="#e6e0de" stroke-linecap="square" transform="matrix(1 0 0 -1 -2 1118.679465)"><path d="m372.5 11.179465v1107.000005"/><path d="m1.5 296.179465 826 827.000005"/><path d="m1041.5.179465-1040 1041.000005"/><path d="m1 668.5 1992.5-.320535"/></g><path d="m371.064549 410.251018c-.258196 0-.512995.003392-.771191.010176l-.044165-.261194-.033973.261194c-21.538984.454545-38.933243 18.00882-39.082725 39.58616l-.132495.020692.132495.023406c0 .078019-.003397.156038-.003397.234057 0 21.987788 17.914048 39.874491 39.935451 39.874491s39.935451-17.886364 39.935451-39.874491c0-21.988128-17.914048-39.874491-39.935451-39.874491zm36.404071 38.919946-.336487.071253-12.116935 2.559374-.343285.070916-15.325458 3.235096-3.167738.665593-4.972531-5.750908 23.509913-.878002.339886-.013507 12.055755-.452846.336487-.009793 2.933216-.111439zm2.500452.190338-1.436632.020141c0-.090492 0-.183903-.003334-.274103 0-.026272-.003333-.052544-.003333-.079107l.593319-.110926.833314-.15442c0 .043494.003333.087573.006666.134278 0 .05809.003334.116472.006667.175146.003333.09633.003333.19266.003333.288991zm-24.123711 15.89643-10.309279-6.146907.548731-3.131444zm-6.391753-9.974694 6.391753-1.365512c-.57708 2.316615-1.677245 4.422629-3.168879 6.185567zm1.030928 6.925097c-1.678922 1.33706-3.638228 2.318261-5.773196 2.843411l.989787-5.773195zm.767712.32983 5.452463 3.256745-.255904-.353957-3.231215-4.792034c1.77768-2.018236 3.064024-4.478579 3.664546-7.191456l6.592089-1.395407c-1.040677 10.642537-9.540104 19.140911-20.206186 20.206185l1.136214-6.449507c2.555629-.547612 4.889474-1.691166 6.847993-3.280569zm12.423477-10.299347.82943-.176762c-.897139 11.474284-10.017481 20.66864-21.443299 21.649484l.159115-.909596c10.819827-1.041236 19.449282-9.709715 20.454754-20.563126zm1.242382-.289864 12.154145-2.567311c.006815.261134.010222.521591.010222.785774 0 19.803518-16.212342 35.915257-36.135327 35.915257h-.153333l2.136431-12.104973c11.741852-.95512 21.118978-10.333595 21.987862-22.028747zm-.619138-5.660094-.819559-.108888c-.863767-5.151768-3.448268-9.725068-7.148184-13.1006l.095218-.13611-.136026.09868c-3.540086-3.212199-8.083366-5.332114-13.102738-5.82211l-.125824-.724787c10.800492.959577 19.536784 9.214656 21.237113 19.793815zm-21.163469-20.055955-2.1355-12.108994h.085012c19.178697 0 34.909309 14.983864 35.997462 33.814433l-12.296129-1.615548c-1.690038-10.757568-10.619693-19.15869-21.650845-20.089891zm9.823263 12.970977c.878045-1.565419 1.935142-3.432525 3.143744-5.551036l.013774-.023465c.044763-.077097.068866-.110618.068866-.11397l.01033-.010056c3.643025 3.251512 6.197963 7.636026 7.072564 12.577319l-6.769553-.871874c-.723095-2.255947-1.945471-4.300712-3.539725-6.006918zm2.680412 6.05405-5.360824-.700564c.134972-.353716.972493-1.936853 2.353364-4.454075 1.315115 1.493849 2.346442 3.238391 3.00746 5.154639zm.412371-11.880377-5.315103 3.83914c-1.836436-1.376679-3.976106-2.374517-6.29976-2.87851l-1.168642-6.606026c4.889214.493845 9.321874 2.547024 12.783505 5.645396zm-5.979381 4.429733-4.367194 3.120747-.993631-5.56701c1.959945.46979 3.773065 1.312056 5.360825 2.446263zm5.56701-3.683377c-4.569528 8.183898-5.429075 9.910559-5.568369 10.309279l-3.709981-.486236zm24.534021 14.261856-.408248-.053608.404124-.016495c0 .020618.004124.045361.004124.070103zm-.204124-.313528-1.375945.072291c-.016037-.308021-.038488-.616042-.067354-.924063l1.379153-.106865c.025658.31745.04811.638044.064146.958637zm-.010757-1.407472.010757.104871-1.541909.137778c0-.032907-.003586-.068708-.007172-.10487-.028687-.31859-.060959-.636819-.100403-.951431l1.534737-.180812c.039445.332694.075303.661771.10399.994464zm-.308455-2.232678c.042385.281557.077706.56659.113027.8478l-1.511734.184229c-.03532-.27113-.070641-.542259-.109494-.809912-.010597-.066044-.017661-.135564-.028257-.201609l1.504669-.225593c.010596.066044.021193.135565.031789.205085zm-.093159-.433062-1.472754.227977c-.055445-.325203-.114355-.650406-.176731-.972257l1.469289-.264856c.065841.334926.124751.670187.180196 1.009136zm-.325466-2.182812c.013632.075585.030672.147391.044304.222976.027264.143612.05112.287224.074976.430836l-1.441594.313678c-.023857-.135675-.044305-.272106-.071569-.40816-.013632-.075585-.027264-.147391-.040896-.222976-.030673-.15495-.064753-.30612-.095425-.45729l1.431371-.354873c.03408.158351.06816.31708.098833.475809zm-.293091-.630996-1.410964.361373c-.073908-.350777-.154534-.697899-.23852-1.044656l1.400886-.398643c.087345.358084.167972.719822.248598 1.081926zm-.245932-1.431482c.013249.049879.026498.102588.039747.152467l-1.377883.403274c-.013249-.053062-.026498-.102587-.039747-.152112-.072868-.283-.152362-.566353-.231855-.848999l1.367946-.442188c.082806.293259.165611.590409.241792.887558zm-.63549-2.189627c.092003.285904.177434.571808.262866.861157l-1.350475.440912c-.082145-.275914-.167577-.551484-.253008-.82361-.016429-.04478-.032859-.093005-.046002-.137441l1.337331-.482248c.016429.044781.032858.09335.049288.14123zm-.149506-.415025-1.318288.479981c-.107152-.312155-.21755-.617598-.331196-.926397l1.305301-.516902c.120139.318868.233785.641093.344183.963318zm-.844513-1.859288c.022596.062324.048419.121368.071015.183693.054875.134489.103295.268978.154942.403467l-1.29441.514996c-.048419-.127929-.096838-.255858-.148486-.383787-.022595-.062324-.048419-.121368-.071015-.183692-.045191-.108248-.090382-.216495-.135574-.324743l1.281498-.551077c.045191.114807.096839.226335.14203.341143zm-.186414-.684633-1.265884.549675c-.12467-.286088-.252537-.572176-.383601-.858264l1.246704-.585035c.137457.295732.271717.594678.402781.893624zm-.715095-1.450055c.032179.053573.060783.113447.092962.170171.003576.003151.003576.006303.003576.009454l-1.387283.582992s-.003576-.003152-.003576-.006303c-.032179-.056723-.060783-.113447-.092962-.17017-.121566-.217441-.246708-.434881-.371849-.64917l1.372981-.617656c.128717.226894.26101.453788.386151.680682zm-.792193-1.850686c.163527.289631.319943.582794.47636.87949l-1.357981.702885c-.149307-.282567-.302168-.561602-.45503-.840637-.01422-.024724-.02844-.049449-.042659-.070641l1.340206-.738207c.01422.021193.028439.045918.039104.06711zm-.348382-.392848-1.330548.73811c-.17031-.294551-.347716-.589102-.525123-.880188l1.309259-.769297c.184503.301481.369005.606428.546412.911375zm-1.015947-1.888942c.039029.058056.07451.116113.11354.174169.095799.146849.191599.297112.28385.443961l-1.298614.771808c-.092252-.143433-.180955-.286867-.273206-.426885-.03903-.058056-.074511-.116113-.11354-.174169-.05677-.081962-.11354-.163924-.17031-.245886l1.280873-.802544c.05677.085377.120637.170754.177407.259546zm-.427352-.442168-1.267806.801178c-.194774-.27267-.389549-.545339-.587865-.814643l1.246558-.834841c.205398.279402.410797.562171.609113.848306zm-1.111592-1.440258c.077909.103092.159361.206185.23727.309278.017707.023279.031873.043232.049579.066511l-1.239474.834719-.042496-.05986c-.07791-.103093-.159361-.20286-.237271-.305953-.109782-.139674-.226647-.279348-.336429-.419022l1.214685-.864649c.116865.146325.237271.29265.354136.438976zm-.537893-.682874-1.209911.862455c-.212888-.255785-.425775-.508291-.645759-.757517l1.185074-.891968c.22708.259064.450612.521408.670596.78703zm-.846031-1.295377c.007096.00976.014193.016267.021289.026027l-1.177978.894691c-.007096-.00976-.014193-.016267-.021289-.026027-.216436-.2375-.432871-.471746-.656403-.702739l1.153141-.920718c.230628.240753.457708.481506.68124.728766zm-1.538584-1.553509c.017843.012887.032117.028995.046391.041882.049961.048325.096353.096649.146313.141752.181998.180413.363997.360825.542427.544459l-1.149089.921392c-.171292-.173969-.342585-.347938-.517446-.518686-.04996-.048324-.096352-.093427-.146312-.141752-.014275-.012887-.028549-.025773-.042824-.03866zm-.295797-.334052-1.119863.952609c-.240483-.226964-.488145-.447534-.735807-.668105l1.087559-.981379c.25843.23016.51327.463518.768111.696875zm-1.390349-1.366681c.044928.050057.093064.096538.137992.146595.07381.07866.147619.160896.221429.243132l-.962734 1.104821c-.070601-.078661-.141201-.157321-.211802-.232406-.044927-.050056-.093064-.100113-.137992-.146594-.112319-.117991-.224638-.232406-.336957-.346821l.940271-1.129849c.115528.121566.234265.239556.349793.361122zm-.671507-.672577-.934708 1.136197c-.236103-.235075-.472205-.466589-.714777-.694541l.908834-1.161129c.252274.235075.49808.477274.740651.719473zm-1.096254-.916197c.022864.021289.042462.039029.065326.060318l-.908033 1.167334c-.022864-.021289-.042462-.03903-.065326-.060318-.222109-.202244-.447484-.404487-.676125-.603182l.878636-1.19217c.23844.205791.473614.41513.705522.628018zm-1.755635-1.445691c.052889.042415.102473.08483.155362.127246.214863.173195.42642.349926.634671.526656l-.879284 1.194698c-.20164-.169661-.403281-.339322-.608227-.505449-.052889-.042415-.105778-.08483-.158668-.127246l-.003305-.003534.849534-1.219441c.003306.003535.006611.003535.009917.00707zm-.240894-.206186-.848116 1.230044c-.263784-.205007-.530907-.40648-.801369-.600883l.818064-1.254787c.280479.205007.557619.413549.831421.625626zm-1.717087-1.192342c.054082.035346.111543.074227.169005.113108.104783.074227.206185.148453.310968.22268l-.817982 1.261856c-.098023-.070692-.196045-.141384-.297448-.212077-.054081-.03888-.111543-.077761-.169005-.116642-.121683-.081296-.243366-.162592-.365049-.243888l.784181-1.283063c.128443.088365.256887.169661.38533.258026zm-.550955-.313507-.786941 1.292594c-.285224-.18415-.573883-.364759-.862543-.541827l.752577-1.313843c.302406.184151.601375.371842.896907.563076zm-1.359168-.723047c.03836.024884.080207.049769.122055.074653l-.753253 1.322432c-.041848-.024885-.080208-.046214-.118568-.071099-.258059-.149307-.519605-.295059-.777664-.44081l.714893-1.343762c.275496.149307.544016.302169.812537.458586zm-1.923838-1.204969c.269593.138908.539186.281378.808779.423847l-.720097 1.353464c-.255404-.135346-.514355-.270692-.773307-.402477-.053209-.024932-.102871-.053426-.15608-.078359l.681077-1.374834c.05321.024932.106419.053426.159628.078359zm-.428334-.227624-.596352 1.386379c-.282316-.154043-.561459-.304502-.846947-.45138l.564631-1.404291c.295004.15046.586836.308085.878668.469292zm-1.781999-.734043c.061624.025672.120004.051345.178385.077018.123248.051346.243253.10911.366501.163665l-.56759 1.261182c-.113518-.051346-.230279-.102692-.34704-.154038-.061624-.022463-.120005-.051345-.178386-.077018-.116761-.048137-.233522-.093065-.350283-.141201l.531912-1.277228c.120005.048137.243253.096274.366501.14762zm-.692228-.410405-.529651 1.293713c-.304549-.119668-.605788-.232868-.913648-.346068l.496548-1.303416c.317791.1132.632271.232868.946751.355771zm-1.606307-.497039c.054336.016331.108672.035929.163008.055527l-.495815 1.322854c-.05094-.019598-.105276-.035929-.159612-.055527-.261492-.08819-.52638-.173114-.787872-.258038l.45846-1.335919c.275076.08819.550152.17638.821831.271103zm-1.965246-.647258c.300542.082309.594094.171204.891141.260098l-.461297 1.35317c-.279573-.085602-.562642-.171204-.849205-.250221-.04543-.01317-.087366-.023047-.132797-.036217l.422855-1.363047c.041936.01317.087367.026339.129303.036217zm-.345973.021382-.421112 1.3857c-.338329-.086815-.680258-.17363-1.022186-.253767l.38152-1.395717c.352726.083476.709052.17363 1.061778.263784zm-2.551812-.676155c.133915.023758.267829.047516.401743.074668.070677.01697.145074.030546.215751.044122.163673.03394.327346.074668.49102.112002l-.375705 1.418692c-.156233-.03394-.312466-.071274-.4687-.105214-.074397-.013576-.145074-.027152-.21947-.040728-.126475-.027152-.25295-.047516-.379424-.074668zm-1.118949-.206186c.33231.061856.66133.127148.990349.199313l-.286247 1.450172c-.315859-.068729-.631717-.130585-.950866-.19244zm-1.485017-.206185c.269978.038523.543373.077046.813351.122573.064931.010506.13328.024514.201629.035021.006835 0 .010252.003502.017087.003502l-.246056 1.488388c-.003417 0-.010252-.003502-.013669-.003502-.064932-.010506-.13328-.024515-.201629-.035021-.256308-.042025-.516034-.080548-.775759-.119071zm-1.279102-.206186c.024813.003555.053171.00711.081529.010665.333206.035549.662866.078208.992527.120867l-.20205 1.517953c-.315482-.039105-.630964-.081764-.94999-.113758-.028358-.003555-.056716-.00711-.085074-.010665zm-1.510957-.206186c.313894.022205.624711.050754.935528.079303l-.126173 1.363996c-.301585-.03172-.600092-.057097-.904755-.079302zm-1.28741 0c.103093.003244.202964.006487.302835.009731.064433.003243.128866.006486.193299.00973.164304.006486.325387.01946.489691.02919l-.086985 1.394648c-.154639-.00973-.309278-.022703-.463917-.02919-.064433-.003243-.128866-.003243-.193299-.006487-.09665-.003243-.190078-.006486-.286727-.00973zm-1.488402 0h.013476c.340274 0 .680547.006621 1.017452.016552l-.040429 1.426747c-.323428-.009931-.650225-.016551-.977023-.016551h-.013476zm.089882 1.649485c19.904621 0 36.215588 15.645958 37.229706 35.257732l-.857577-.112048c-1.068567-19.088884-16.974567-34.293441-36.372129-34.293441-.047643 0-.098689 0-.146332.003395l-.149736-.852243c.09869 0 .197379-.003395.296068-.003395zm-.357923-1.649485.016495 1.443299c-.004124 0-.004124 0-.008248 0l-.07835-.35579-.235052-1.087509zm-.556701 0-.188042 1.436664c-.059381 0-.115463.003317-.174845.006635l-.049484-1.430027c.138556-.003318.273814-.009954.412371-.013272zm-11.142813 29.484536c1.136715 2.180549 2.127086 4.086409 2.276833 4.374322l-4.948453.780318c.558147-1.895687 1.473645-3.638769 2.67162-5.15464zm-3.631725 5.343975-6.668761 1.047778c.692235-5.15078 3.139047-9.753178 6.730445-13.195876.507182.891291 1.871091 3.466511 3.166462 5.929469-1.497558 1.789387-2.611303 3.901952-3.228146 6.218629zm.960105-11.735727c2.63872 1.889469 9.518486 6.439968 9.852587 6.659434l.04432-.064811-.436378 3.302284zm5.360824 3.74843c1.522962-1.131767 3.266443-1.988963 5.15464-2.511317l-.723579 5.360825c-.30666-.193874-2.256878-1.44317-4.431061-2.849508zm-.752668-.655647c-2.336694-1.557194-4.717863-3.168906-5.432899-3.731132 3.332269-3.141647 7.615638-5.288326 12.371134-5.959589l-.886096 6.681964c-2.237478.572447-4.29021 1.61512-6.052139 3.008757zm-12.44969 9.562427-.81826.128295c1.307179-10.611327 9.761405-19.055148 20.412371-20.412371l-.095068.729254c-10.151861 1.384233-18.188468 9.436417-19.499043 19.554822zm-1.177781.256565-12.217799 1.933586c.46874-18.969432 15.709569-34.342441 34.639176-35.051547l-1.606622 12.204086c-10.886307 1.350355-19.527419 10.022483-20.814755 20.913875zm-12.596778 2.00385-.858134.135921c.371177-19.796924 16.307943-35.859413 36.082474-36.494845l-.112374.859702c-19.205847.686402-34.672684 16.273167-35.111966 35.499222zm33.59706-37.953518c.314037-.022602.631245-.038746.945282-.054891l.063441 1.391638c-.30452.012915-.60904.029059-.910388.051661h-.022205l-.098334-1.388408zm-.537972.151295.103396 1.358027c-.298026.025266-.596052.05369-.891037.085272l-.13989-1.351711c.307149-.03474.61734-.066322.927531-.091588zm-1.897541.099111c.070291-.00708.140581-.021238.210872-.028318.193299-.024777.390112-.046015.586926-.070793l.172212 1.514977c-.18627.021238-.376055.042476-.562325.067254-.07029.010619-.137066.021238-.207357.028317-.084348.010619-.168697.024778-.253046.038937l-.214386-1.511438c.087863-.010619.179241-.028317.267104-.038936zm-.692995.107075.219706 1.482448c-.331249.048719-.655738.104397-.983607.167036l-.253507-1.478968c.338009-.062639.676019-.118318 1.017408-.170516zm-1.798084.271072c.062019-.013661.127302-.027321.192585-.040981.03917-.00683.081604-.013661.120774-.023906l.261132 1.447995c-.03917.00683-.075076.01366-.114246.02049-.065283.013661-.130566.027321-.192585.040981-.212169.044396-.424339.092207-.636509.140019l-.293774-1.441165c.221963-.047811.440661-.099037.662623-.143433zm-1.012402.141299.349779 1.420108c-.353461.070837-.706922.14842-1.056701.229376l-.386598-1.406615c.360825-.087703.725332-.168659 1.09352-.242869zm-1.276739.412371.389405 1.386764c-.335817.083139-.675207.17293-1.011024.26272l-.432275-1.376787c.350107-.093116.700214-.186232 1.053894-.272697zm-2.270241.709278c.128063-.039587.252664-.079175.377266-.118763.204207-.06268.408415-.118763.612623-.178144l.432644 1.362474c-.197286.056083-.39111.108866-.584935.168248-.124601.039587-.249202.075876-.373804.115464-.003461 0-.010383.003298-.013844.003298l-.470716-1.345979c.006922-.003299.013844-.003299.020766-.006598zm-.490599.115464.469833 1.330019c-.314349.101056-.625317.208631-.936286.319466l-.507013-1.31372c.324488-.117355.648977-.22819.973466-.335765zm-1.794434.606048c.062752-.022595.122201-.048419.184954-.071015.112293-.041963.224586-.083926.336879-.122662l.50532 1.297638c-.105688.041963-.214678.077471-.320366.119434-.062752.022596-.122202.045191-.184954.071015-.132109.051647-.264219.106523-.396329.161398l-.54165-1.284726c.138715-.058103.277431-.116206.416146-.171082zm-.752408.42488.542448 1.271544c-.290597.12171-.577966.246622-.868563.37794l-.574736-1.258732c.300283-.134521.597338-.26584.900851-.390752zm-1.387829.473154c.037982-.017877.075963-.03933.11711-.060783l.576053 1.39801c-.037981.017877-.075963.03933-.117109.060783-.24055.128717-.4811.261009-.718485.396877l-.607705-1.380132c.24688-.139444.496926-.278887.750136-.414755zm-1.842123.982437c.269015-.146313.53803-.285488.810584-.424663l.693775 1.370341c-.261936.132038-.523871.267644-.778727.40682-.049555.028548-.095571.053529-.141587.078509l-.729171-1.34893c.046016-.028548.095571-.053529.145126-.082077zm-.461597.193893.728842 1.337644c-.296419.166762-.592838.34062-.88577.518027l-.763714-1.316355c.303393-.184503.613761-.361909.920642-.539316zm-1.61962 1.175337c.058177-.038955.116354-.074369.17453-.113323.126621-.081452.256663-.159361.383283-.237271l.759721 1.30676c-.119776.07791-.242974.148737-.362749.226646-.058177.038955-.116354.074369-.174531.113324-.106087.067286-.208752.141654-.314839.20894l-.797365-1.285512c.112931-.070827.222441-.148737.33195-.219564zm-.713901.267962.794322 1.275995c-.277168.190868-.550955.381737-.824742.579676l-.824743-1.254787c.280548-.205007.567856-.402945.855163-.600884zm-1.435815.944919c.053317-.03888.109966-.077761.163283-.120176h.003332l.826408 1.244182c-.056648.038881-.109965.081296-.166614.120177-.209935.159057-.419869.325184-.626471.491311l-.856399-1.222975c.216599-.173196.43653-.346392.656461-.512519zm-1.618387 1.310138c.239866-.205399.479731-.407256.722882-.605572l.857601 1.214685c-.233294.191233-.463302.386007-.69331.580782-.023.017707-.046001.038955-.069002.060203l-.887173-1.193437c.023001-.017706.046002-.038955.069002-.056661zm-.337125.21917.88668 1.185074c-.247749.219984-.495498.443516-.736727.670596l-.912758-1.160237c.251009-.234176.505277-.468353.762805-.695433zm-1.564995 1.31364c.048324-.046392.096649-.092783.144974-.139175.119201-.117764.241623-.231959.360825-.349723l.914948 1.156226c-.115979.110626-.231959.217684-.344717.331879-.048324.049961-.096649.096352-.144974.142744-.074098.074941-.144974.149881-.21585.224822l-.943944-1.131245c.07732-.07851.151418-.157019.228738-.235528zm-.555031.54203.94485 1.124866c-.227405.240019-.454809.483621-.675808.730804l-.973676-1.096206c.230607-.254349.46762-.508697.704634-.759464zm-1.173129 1.209942c.050153-.044753.100306-.089507.150459-.137457l.046571-.041557 1.096207.971789-.042989.038361c-.053735.044753-.100306.089507-.150459.137457-.182701.16303-.358238.332454-.537357.501878l-1.124865-.94302c.186283-.175817.372567-.354831.562433-.527451zm-1.362243 1.560222c.231513-.239337.466589-.47544.705226-.708308l1.125512.944411c-.227952.2264-.455904.452799-.676732.679199l-.024933.025875-1.154006-.915303c.010686-.009703.017809-.016171.024933-.025874zm-.150694.32262 1.156689.916018c-.22708.241229-.450612.485718-.670596.733466l-1.185074-.886679c.230628-.257528.461257-.511797.698981-.762805zm-1.350527 1.406333c.042415-.052573.08483-.105146.127246-.157719.120177-.141291.243888-.282581.364065-.423872l1.191163.887173c-.116642.134719-.236819.266152-.349926.404157-.042416.052573-.084831.105146-.127246.154433-.056554.065717-.109573.134719-.166127.203722l-1.212371-.854315c.060088-.072288.116642-.144576.173196-.213579zm-.569104.655522 1.22065.8564c-.208145.263251-.412763.526502-.610325.793085l-1.245345-.823076c.208146-.279913.419819-.553161.63502-.826409zm-.840027 1.290663c.03888-.057344.081296-.111315.120176-.168659.021208-.030358.04595-.060717.067158-.091076l1.254787.826429c-.021208.026986-.042416.057344-.063623.08433-.038881.057344-.081296.111315-.120177.168659-.134315.188898-.265096.381169-.395876.570067l-1.275995-.792697c.13785-.199018.272165-.398035.41355-.597053zm-.665685.977379 1.283063.792299c-.187334.283452-.371134.570318-.551399.857185l-1.304271-.761563c.187334-.300527.378203-.594224.572607-.887921zm-.6483 1.030928 1.312807.762103c-.177407.292314-.351265.588108-.521575.887381l-1.334096-.727304c.177407-.309714.358361-.615947.542864-.92218zm-1.260958 1.980443c.031994-.063714.067543-.127428.099538-.187602.099538-.187603.20263-.371665.302168-.555728l1.347316.729171c-.099538.176984-.195521.353967-.291503.53095-.031995.060175-.063989.123889-.099538.187603-.03555.067253-.067544.134507-.103093.201761l-1.361536-.693775c.035549-.070793.071099-.141587.106648-.21238zm-.042563.699969 1.379214.606375c-.154042.277922-.308084.555844-.458544.836924l-1.397126-.571635c.154042-.293713.315249-.584268.476456-.871664zm-.841493 1.548917c.025673-.061075.048137-.118935.077019-.176796.019255-.045002.041719-.090005.064182-.135008l1.254764.572177c-.019255.045002-.038509.086791-.057764.128579-.025673.05786-.051346.115721-.077019.173581-.083437.18644-.163665.379308-.243893.568962l-1.270809-.540031c.083437-.199298.166874-.395381.25352-.591464zm-.30436.92531 1.287954.540413c-.122663.299864-.238869.599727-.351847.902886l-1.297638-.504166c.116207-.31634.235641-.629384.361531-.939133zm-.645645 1.237113 1.315042.503634c-.113646.310968-.220797.625317-.324702.939665l-1.324782-.469833c.107151-.324488.21755-.652357.334442-.973466zm-.69424 2.055908c.019715-.06592.039429-.13184.059144-.19776.062431-.208168.128148-.416336.193864-.621034l1.343903.468725c-.062431.197413-.124861.395519-.184006.593279-.019715.065573-.03943.13184-.059145.197413-.016429.062797-.032858.121778-.049288.183882l-1.357046-.430215c.016429-.06245.032859-.12837.052574-.19429zm-.195029.418319 1.379569.428703c-.093304.335459-.179944.675206-.263251 1.014596l-1.386234-.393335c.08664-.353322.176612-.703429.269916-1.049964zm-.334428 1.859246c.016866-.06957.033732-.143557.047225-.213495.016866-.06957.033731-.136195.050597-.202452l1.409989.390548c-.016866.062576-.033732.128833-.047224.191409-.016866.069938-.033732.139876-.047225.213495-.047224.213495-.091076.430671-.134927.647847l-1.420108-.34969c.047224-.224906.091076-.453124.141673-.677662zm-.348714 1.027352 1.444154.294551c-.071865.314187-.140309.628375-.201908.942562l-1.447576-.25855c.061599-.327279.133464-.654557.20533-.978563zm-.23752 1.237113 1.475489.256887c-.059159.328207-.114838.652696-.167037.980227l-1.482448-.216326c.052199-.341389.111358-.679398.173996-1.020788zm-.366023 2.360942c.010619-.07029.017698-.140581.024778-.207708.028317-.238988.063714-.474461.09911-.709935l1.511438.214386c-.031857.22493-.067254.449508-.095571.67479-.007079.069939-.014159.140229-.024778.210871-.007079.045689-.010619.091378-.014158.137067l-1.514978-.168346c.00354-.052718.00708-.101921.014159-.151125zm.074271.525656 1.354869.137661c-.031582.296736-.060005.596531-.085271.893267l-1.358028-.100951c.025266-.312032.056848-.621004.08843-.929977zm-.268784 1.660173c.003229-.063618.009686-.126918.012915-.190854.006458-.076342.012916-.152683.019373-.232205l1.38518.098925c-.003229.072843-.012916.146322-.016144.219164-.003229.063618-.009687.127236-.012916.191172-.009686.174949-.019373.346717-.025831.521666l-1.388408-.057256c.006458-.18481.016144-.369301.025831-.550612zm-.006015 1.02024 1.423483.058285c-.006606.240429-.013211.480857-.016514.724928l-1.426785.247714c.003303-.342428.009908-.684856.019816-1.030927zm-.019816 1.065979-.412371-.004124.412371-.065979zm.003303.512081c0-.044134 0-.087932-.003303-.134761h.885135l.54165.090964v.040428c0 .289738.006606.576107.016514.862813l-1.423483.036722c-.009908-.296476-.016513-.596321-.016513-.896166zm.035617 2.185308c-.016217-.273308-.025947-.549186-.03892-.825385l1.397892-.051385c.00973.263352.01946.526704.035677.790056.003243.051386.006486.102772.00973.154158l-1.394649.086713c-.003243-.051385-.006486-.102771-.00973-.154157zm.167265.456021 1.367002-.095678c.022253.301495.047686.60299.076297.901408l-1.363822.12952c-.028611-.310725-.057223-.624525-.079477-.93525zm.071099 1.96027c-.00711-.070541-.01422-.141435-.024885-.20914-.017774-.148879-.031994-.297758-.046214-.446637l1.525063-.163058c.014219.14179.024884.283579.042659.425369.010664.070895.017774.141435.024884.209139.017775.1347.039104.265856.056879.400556l-1.521507.20205c-.017775-.138245-.039105-.27649-.056879-.418279zm.135087.832354 1.48907-.20789c.048821.33092.101131.661157.160415.991736l-1.482095.245378c-.059284-.340803-.115081-.685013-.16739-1.029224zm28.659794 5.985295 5.043447-2.481844.729749 5.56701c-2.151735-.606749-4.112507-1.672846-5.773196-3.085166zm5.95913 4.01884.844993 6.489006c-5.285415-.752793-9.981691-3.382458-13.402061-7.203989l5.847621-2.899104c1.891977 1.703152 4.181201 2.963484 6.709447 3.614087zm-11.938512-1.552231 7.051107-9.484536 3.464357.565188zm3.66599-5.154639c-1.110726-1.529176-1.947116-3.270681-2.428876-5.154639l5.56701.907716zm-.573206.817055-3.852665 5.162326c-3.028072-3.368665-5.060472-7.649877-5.631871-12.371134l6.589905 1.062189c.526918 2.265479 1.526011 4.352958 2.894631 6.146619zm9.569139 12.694599.121582.921336c-10.773571-1.367045-19.301241-10.107493-20.412371-21.030928l.834192.13599c1.192185 10.328477 9.253789 18.5763 19.456597 19.973602zm.360504 1.332152 1.616749 12.166503c-19.203151-.683964-34.637299-16.29533-34.845361-35.463917l12.221116 1.962885c1.101709 11.100453 9.89491 19.990968 21.007496 21.334529zm1.71074 12.546105.112194.857512c-19.933246-.610426-35.973679-16.912969-36.082474-36.907217l.853359.138964c.180192 19.424833 15.751447 35.249814 35.116921 35.910741zm-37.173101-29.223318c-.010287-.062513-.024005-.121737-.034292-.18096l1.454015-.253674c.010288.059552.024005.118447.034293.17767.051439.259926.106308.516561.161176.773525l-1.447157.285918c-.058298-.266177-.116595-.532682-.168035-.802479zm.378079 2.130759c-.070982-.326875-.141964-.65709-.206186-.991015l1.423019-.337265c.064221.315374.128443.630377.199425.946122.00676.037102.0169.077915.027041.115018l-1.419639.382159c-.00676-.037103-.01352-.077916-.02366-.115019zm.206185.290619 1.395718-.381785c.080137.341843.163613.683686.253767 1.018333l-1.382362.424965c-.093493-.352638-.183647-.704917-.267123-1.061513zm.603712 2.162335c-.019794-.066399-.039588-.132798-.059382-.199196-.046185-.160755-.089072-.318016-.131959-.47877l1.365774-.422856c.042886.150271.082474.304037.12536.454308.019794.069893.039588.136641.059382.202691.03299.108684.065979.216669.098969.321509l-1.352577.464791c-.03299-.111829-.072578-.227153-.105567-.342477zm.221031.597808 1.333279-.461516c.101055.315828.20537.628259.316205.940691l-1.32024.502608c-.114094-.326356-.224929-.652371-.329244-.981783zm.496297 1.498906c-.022595-.063041-.048419-.126082-.071015-.186136-.003227-.01294-.009683-.026212-.012911-.039483l1.304093-.49769c.006456.009622.009684.022894.012912.03318.022596.059722.045191.122763.067787.185804.083927.232255.174309.461523.264692.690129l-1.287954.534186c-.09361-.238891-.187221-.477781-.277604-.71999zm.900469 1.911269c-.125155-.286059-.247101-.575369-.365839-.861103l1.277228-.536361c.112319.276632.231056.552614.349793.825671.006418.016253.012837.032832.022464.04876l-1.264391.568868c-.006418-.016579-.012836-.029581-.019255-.045835zm.046532.408703 1.407008-.569054c.147161.282938.294323.565875.448663.842454l-1.389061.600845c-.157929-.289296-.315859-.58177-.46661-.874245zm.975417 1.848237c-.032118-.060446-.067804-.124449-.099921-.188451-.089215-.170318-.171293-.341346-.256939-.511664l1.37391-.686248.246233.490685c.035686.064003.067803.124449.099921.188096.042823.081781.089215.163562.135606.248898l-1.356066.721805c-.046392-.088892-.096352-.174228-.142744-.263121zm.261697.570652 1.343761-.719902c.167081.300542.337718.597589.511909.894636l-1.325987.754849c-.181301-.307531-.359047-.618557-.529683-.929583zm.785 1.54771c-.035413-.06183-.070827-.120225-.10624-.17862-.021249-.030914-.038955-.065264-.060203-.099614l1.313842-.752264c.017707.031258.035414.062173.053121.093088.035413.058395.070827.11679.109782.175185.123947.19923.251436.395024.378925.590819l-1.292595.790392c-.13103-.206786-.265602-.412886-.396632-.618986zm.658299.993846 1.283063-.787231c.187334.278026.378203.556731.572607.831362l-1.261856.818123c-.201472-.285155-.399411-.57031-.593814-.862254zm.618557 1.0651 1.254786-.821403c.194404.270462.395876.534246.600884.79803l-1.230045.851455c-.212076-.273468-.420618-.550942-.625625-.828082zm1.338238 1.693731c-.042496-.052784-.084992-.105567-.127488-.158351-.131031-.15802-.258519-.32-.386008-.47802l1.225309-.847835c.123947.151752.244353.303505.368301.455258l.127488.15835c.042497.052454.088534.102268.134572.155052l-1.200519.880824c-.046038-.056412-.095617-.109196-.141655-.165278zm.311246.425184 1.192171-.878462c.219983.248516.439967.496706.663499.741631l-1.167333.907853c-.230629-.255048-.461257-.509769-.688337-.771022zm1.290935 1.336122c-.046302-.0482-.096167-.097048-.142469-.145248-.03918-.042054-.078359-.084431-.117538-.126485l1.164691-.911924c.035618.038496.071235.080873.110414.119369.046303.051759.092606.097371.138908.145571.146032.148806.295625.297613.441657.446419l-1.132635.938126c-.156717-.155276-.309872-.310552-.463028-.465828zm.564735.786159 1.127677-.938888c.239096.231507.48176.459798.727993.684874l-1.102696.964611c-.25337-.234401-.506741-.469444-.752974-.710597zm1.030928.971314.980082-1.085459c.220999.246825.441998.494367.669403.737969l-.951257 1.117701c-.237013-.254349-.46762-.508698-.698228-.770211zm1.643041 1.687519c-.048324-.046303-.096649-.092962-.144974-.14247-.157861-.156361-.3125-.320201-.467139-.480836l.950386-1.118745c.148196.156717.296392.309872.44781.463384l.144974.138908c.035438.035617.070876.067317.106314.10329l-.921391 1.150089c-.03866-.038824-.07732-.074441-.11598-.11362zm.418815.232285.922152-1.149593c.24028.230628.480559.45416.727332.677692l-.892929 1.177978c-.253268-.230628-.506535-.468353-.756555-.706077zm1.354933 1.144811c-.049091-.042496-.101456-.088534-.150548-.13103-.05891-.049579-.114547-.102699-.173457-.155819l.89347-1.182813c.052365.049933.104729.099158.160367.145196.049092.046037.101456.088533.153821.134571.144002.124302.294551.247895.441826.371842l-.867288 1.204061c-.150549-.127489-.307642-.254978-.458191-.386008zm.706922.570632.86465-1.215552c.259394.212077.522115.417084.784835.618557l-.831394 1.237113c-.276022-.208895-.548719-.420972-.818091-.640118zm1.237114.856908.8348-1.247718c.268209.201473.53977.395877.814684.586746l-.797921 1.268925c-.288325-.197939-.569944-.402946-.851563-.607953zm1.814774 1.372606c-.057937-.03888-.115873-.074226-.17381-.113107-.204481-.134315-.405555-.272165-.610036-.410015l.800886-1.272459c.194257.13078.388515.261561.58618.388807.057937.038881.115873.074227.173809.113107.030673.017673.057937.035346.088609.056554l-.770214 1.297202c-.030672-.021208-.064752-.038881-.095424-.060089zm.453267.129381.767685-1.306406c.290475.18061.584408.354136.8818.527662l-.736563 1.328009c-.307765-.180964-.612073-.361573-.912922-.549265zm1.673224 1.104136c-.063306-.035556-.126612-.067201-.186402-.103112-.084408-.046223-.1653-.096001-.249709-.141869l.735059-1.340818c.077374.046223.154749.092445.23564.135113.05979.035911.123096.067556.186402.103112.161784.08889.327084.170669.492384.259559l-.699888 1.357886c-.172334-.088535-.344668-.177425-.513486-.269871zm.801003.403362.702824-1.370605c.311967.156692.627521.314097.94666.464007l-.663379 1.391664c-.329897-.160261-.659794-.320879-.986105-.485066zm1.262772.510639c-.009622-.003516-.019244-.00959-.025659-.012787l.580527-1.2499c.009622.003197.019244.00959.028866.012787.275831.127547.554868.252537.833906.374011l-.548453 1.262687c-.291868-.124671-.580527-.252538-.869187-.386798zm2.077434.979681c-.062324-.022142-.121368-.047815-.183693-.0706-.229615-.089855-.455951-.186129-.682286-.279193l.551077-1.274018c.216495.089855.43299.17971.649485.266356.062324.022464.124648.048137.183693.070601.019681.006739.039362.012836.059044.022464l-.511716 1.290063c-.022961-.009627-.042642-.016045-.065604-.025673zm.371134.097108.515703-1.308548c.304734.11397.616165.224044.927596.328273l-.475518 1.321211c-.324826-.110398-.646304-.224044-.967781-.340936zm2.115001.658208c-.124006-.039351-.251457-.078703-.375464-.118054-.099894-.032793-.199788-.065258-.296238-.098379l.475359-1.337952c.093005.029514.186009.062307.282459.09182.124007.039352.248013.078703.37202.114776.103339.03312.210122.059355.313461.09182l-.440912 1.351069c-.110228-.032793-.220457-.062307-.330685-.0951zm.565411.228685.437256-1.370699c.334163.092929.668326.182539 1.006043.26883l-.398151 1.380655c-.351938-.08961-.70032-.182539-1.045148-.278786zm2.325083.691157c-.27474-.060606-.553143-.117844-.824219-.181817-.069601-.016835-.139202-.03367-.212465-.050168-.018316-.003367-.032969-.010101-.051285-.013468l.395625-1.404032c.018316.003367.032969.009765.051285.013468.0696.016835.139201.03367.212465.050168.260087.060943.523837.118181.783924.172053zm1.278847.206185c-.015113-.003408-.034005-.007156-.049118-.010224-.362714-.064411-.721649-.132913-1.080585-.204481l.355158-1.434779c.343822.071568.687645.13598 1.035245.197665.015113.003408.034005.006816.052896.009884zm1.53227.206186c-.338613-.055445-.677227-.11782-1.012488-.180196l.268209-1.469289c.32185.062376.643701.117821.968904.173266zm1.280528.206186c-.094091-.014066-.191666-.02145-.289241-.035515-.069697-.010197-.139393-.021097-.20909-.02813-.18818-.024262-.372876-.055909-.557572-.084039l.223029-1.501801c.177726.02813.355452.05626.533178.080874.069697.010198.135909.021098.205605.031647.090606.010549.184696.021098.275302.031646zm1.309167.206185c-.309278-.032343-.615525-.068279-.921771-.107809l.145543-1.541675c.294117.03917.588235.075466.885385.107809zm1.483097 0c-.223841-.009324-.450834-.022185-.674675-.038261-.063053-.006752-.126107-.006752-.189161-.01286-.031527-.003537-.063053-.006752-.097733-.009646l.104039-1.382532c.031526.003215.059901.006431.091428.009324.063053.006752.126107.009646.189161.012861.214382.016397.428765.029258.6463.038582zm.275544-.029582.06598-1.413717c.183276.006903.366552.013148.549828.020051l.208935 1.423248c-.274914-.006574-.549828-.016435-.824743-.029582zm1.24533-14.946939-.247585 12.028255-.006783.335435-.057657 2.819017-.373073-2.83257-.044091-.335435-1.607607-12.173949-.047482-.348989-1.8925-14.3492-.498562-3.764335 5.263727-5.272103-23.581632-.152471-.339158-.003388-12.040097-.074541-.339158-.003727-1.075129-.006777v-.091821l-1.471945-.013553 2.553858-.402862.339157-.054212 12.185935-1.924521.349332-.0576 13.813892-2.182027 4.341218-.694589 5.263727 5.66175-.478212-23.55505-.006783-.338824-.244194-12.028254-.006783-.335436-.06444-3.222217.566393 3.21544.057657.338824 2.126519 12.106185.061048.342212 2.536899 14.437294.522303 2.96471-5.070407 6.075116-.481604 23.55505zm.347231 12.473107c.071239.003387.142477.003387.213716.003387 20.024827 0 36.314717-16.265985 36.314717-36.257284 0-.287918-.003392-.572448-.013569-.856978l.848078-.179525c.010177.345839.01357.691002.01357 1.036842 0 20.462467-16.669829 37.107488-37.162796 37.107488-.122123 0-.240854-.003388-.362978-.003388zm.147214 2.503414c-.097702 0-.198773-.003657-.296476-.003657l.013477-1.432992c.094333 0 .188666.003325.282999.003325.235834 0 .471667-.003325.704131-.009975l.030321 1.436317c-.242571.003657-.488511.006982-.734452.006982zm1.75042-.029315c-.065042.003257-.130085.00684-.195128.009772-.191876.009771-.383752.013029-.578881.019543l-.035773-1.403886c.185372-.00684.367491-.013029.552863-.019869.065043-.003257.130086-.003257.195129-.006515.068295-.003257.136589-.009772.204884-.013029l.078052 1.400629c-.071547.003583-.146347.010097-.221146.013355zm.714252.029315-.080735-1.372746c.30431-.019474.605515-.045013.909825-.070553l.121103 1.369554c-.316731.029051-.630357.051398-.950193.073745zm1.689124-.039197c-.07151.007483-.143019.018173-.214529.024944-.057207.007483-.114415.01069-.168047.014253l-.15017-1.528686c.053632-.007127.103689-.01069.157321-.014254.071509-.007126.143019-.017816.214528-.024587.225255-.024943.446934-.05345.672189-.081957l.193076 1.525123c-.235982.02815-.468387.06022-.704368.085164zm1.106429-.166988-.195876-1.498285c.333334-.049228.666667-.098104.996564-.1512l.24055 1.494417c-.347079.056612-.694158.109356-1.041238.155068zm1.27672-.206186-.235482-1.466592c.318399-.058664.636798-.117327.955197-.182893l.281916 1.456585c-.331666.068671-.666648.134236-1.001631.1929zm2.254235-.386068c-.071043.013576-.145826.027152-.216869.044122-.235564.047516-.474868.091978-.710432.13576l-.325303-1.435662c.224347-.040728.452433-.081456.67678-.128972.074782-.013576.145826-.027152.220608-.044122.059826-.013576.115913-.027152.175738-.040728l.370173 1.42548c-.063565.01697-.12713.030546-.190695.044122zm.35709-.232489-.372581-1.401844c.343643-.076969.687286-.160631 1.027311-.24764l.415988 1.392139c-.354494.090021-.712606.17703-1.070718.257345zm1.899474-.524536c-.066722.016495-.133444.036289-.200166.056083-.070233.020123-.143978.036288-.214212.056082l-.414378-1.368742c.066722-.020124.136956-.036289.203678-.052784.066721-.020123.133443-.039587.203677-.056082.196654-.052784.389796-.112495.582938-.171876l.453006 1.359175c-.207189.059381-.407354.122062-.614543.178144zm.863236-.300206-.454878-1.339247c.321493-.09797.639566-.202471.954219-.310237l.48908 1.329123c-.328334.111359-.656667.219126-.988421.320361zm1.475076-.412371-.486655-1.313119c.306659-.106731.613318-.220255.916645-.336366l.526654 1.300182c-.316659.119669-.636652.236103-.956644.349303zm1.883079-.743554c-.058777.025723-.117553.051446-.179596.077169-.208984.086815-.421234.170414-.633484.254014l-.525726-1.286148c.202453-.080384.404907-.160768.607361-.244368.058777-.022508.117553-.051446.179596-.077169.032654-.012861.065307-.028938.094696-.0418l.561646 1.273287c-.03592.012861-.068574.028938-.104493.045015zm.457106-.287374-.558799-1.257297c.284189-.127325.568379-.25848.849375-.392187l.593924 1.241341c-.290576.14009-.587538.274116-.8845.408143zm1.811439-.633267c-.064546.032117-.129091.064235-.193636.092783-.08606.042824-.175706.085647-.265351.128113l-.674138-1.38069c.082475-.042823.168535-.078866.251009-.121689.064545-.032117.125504-.064235.190049-.096352.168534-.082078.329897-.171293.494846-.256939l.713581 1.366772c-.17212.089572-.34424.182356-.51636.268002zm.816426-.603846-.712437-1.354426c.30182-.163527.603641-.330608.901952-.501244l.747532 1.333096c-.308839.177746-.621189.351937-.937047.522574zm1.105274-.643351c-.013803.007438-.027606.01771-.04141.024794l-.745373-1.321178c.013803-.007084.027606-.01771.041409-.02444.279515-.166829.552129-.336493.828193-.510052l.779882 1.299925c-.286417.18029-.572833.357391-.862701.530951zm2.062481-1.153404c-.057698.038963-.115397.077925-.169701.116887-.22061.152308-.44122.297531-.665224.442754l-.777226-1.292487c.213822-.138493.427644-.27982.634678-.421502.057698-.038962.115396-.077924.1697-.116887.010182-.007084.023758-.01771.03394-.024794l.811167 1.268047c-.013576.010272-.023758.020898-.037334.027982zm.436294-.265101-.811332-1.258675c.271562-.194403.543123-.395876.80798-.596995l.841505 1.240648c-.278267.208542-.556533.413549-.838153.615022zm1.4948-.957944c-.052995.042424-.102679.084847-.155674.12727-.092742.074241-.185484.141412-.274914.212117l-.844616-1.229925c.086118-.06717.175548-.130805.261665-.201511.052996-.042423.105991-.084847.158987-.126916.122552-.095807.23848-.19833.357719-.297318l.871114 1.209421c-.125865.101816-.248417.204339-.374281.306862zm.629558-.691541-.873834-1.202814c.252005-.212888.500736-.432872.746195-.652856l.90329 1.170882c-.255278.234176-.513828.461257-.775651.684788zm1.139007-.899381c-.025925.024524-.055091.04976-.081016.074639l-.900897-1.169346c.029166-.024879.055091-.050114.081016-.074639.213882-.199393.427764-.405539.638405-.611685l.930063 1.140912c-.220363.217164-.440726.430774-.667571.640119zm1.569884-1.355283c-.196137.203877-.392275.40847-.591627.60518l-.929242-1.14264c.189707-.189902.379413-.383388.565905-.580457.0418-.04658.083599-.089576.125399-.132573l.95818 1.113975c-.0418.046938-.086815.089935-.128615.136515zm.472258-.425748-.962199-1.105505c.223767-.247304.447534-.495324.664908-.750165l.984576 1.08038c-.226964.26202-.453928.52045-.687285.77529zm1.417873-1.452223c-.050056.04824-.096537.096801-.146594.141504-.096538.093263-.196651.186527-.296764.279791l-1.111972-.958367c.092962-.086832.1895-.173663.282462-.26339.050057-.04824.096538-.096801.146595-.141504.096537-.096479.1895-.192959.286037-.286223l1.140576.929423c-.100113.099696-.200226.19907-.30034.298766zm.414098-.609633-1.144686-.928646c.23107-.236708.458585-.477312.6861-.720838l1.16957.902671c-.234625.253267-.472805.50004-.710984.746813zm.96911-1.152021c-.038955.039274-.074369.08182-.113324.121094l-1.17573-.900017c.038955-.039273.074369-.081819.113324-.121093.18415-.206185.364759-.418917.541827-.628375l1.200519.870561c-.187691.22255-.375383.441827-.566616.65783zm1.512875-1.608521c-.186978.235214-.373956.467116-.564462.698687l-1.206539-.867976c.18345-.225276.366901-.447239.543295-.675497.028223-.036441.056447-.069901.08467-.106012l1.227705.841473c-.028223.036441-.056446.072883-.084669.109325zm.084669-.332241-1.237113-.838153c.201473-.268209.402945-.53977.597349-.811332l1.258321.811332c-.201473.28162-.410015.563239-.618557.838153zm1.337261-1.94646c-.038881.057698-.074227.115396-.113108.173434-.120176.179542-.243888.35637-.367599.535913l-1.268925-.807773c.116642-.1697.236819-.3394.353461-.512494.038881-.057698.074227-.115396.113108-.173094.035346-.05091.067157-.105553.098969-.156124l1.290132.777226c-.035346.054304-.070692.108608-.106038.162912zm.168602-.527767-1.299677-.77481c.18415-.289262.361218-.581968.534745-.874674l1.320925.743817c-.180609.306481-.36476.606074-.555993.905667zm.858161-1.391566c-.031994.063024-.067543.122547-.103092.185571-.031995.059523-.067544.115544-.103093.175067l-1.333096-.745787c.031994-.056021.063988-.108891.095983-.164913.035549-.059523.071098-.119046.106647-.18207.103093-.185571.202631-.371493.302169-.556714l1.350871.707272c-.103093.196425-.209741.388999-.316389.581574zm.648665-.876475-1.363204-.708456c.160587-.311291.317605-.62616.471055-.941029l1.384615.672675c-.160587.328824-.324742.654427-.492466.97681zm.651592-1.443299-1.396239-.589297c.15434-.283818.301501-.566999.441484-.854002l1.414186.554257c-.147162.300064-.301502.595986-.459431.889042zm.817247-2.020349c-.022464.058499-.048137.120247-.070601.178746-.083437.201497-.170083.402993-.256729.60449l-1.2676-.559315c.083437-.191747.163665-.383493.243893-.57524.022464-.058499.048137-.120248.0706-.178747.016046-.042249.032092-.084823.051346-.129997l1.283646.52324c-.019255.045824-.0353.091323-.054555.136823zm.117623-.453878-1.300182-.523321c.116435-.306659.229635-.613318.3396-.919978l1.309885.486655c-.1132.319993-.229634.639985-.349303.956644zm.582027-1.647775c-.022864.061548-.042462.126515-.065326.191483-.022864.075567-.052261.147373-.075125.219179l-1.329386-.485545c.022864-.068387.048994-.136773.071858-.208579.019598-.061548.042462-.126515.065326-.191483.058794-.184643.114321-.369287.169848-.557692l1.342452.451351c-.06206.194902-.117587.390146-.179647.581286zm.307167-.826452-1.364633-.447313c.096054-.33047.188796-.661644.274914-.995986l1.37457.411768c-.08943.345252-.185484.690151-.284851 1.031531zm.442424-1.443299-1.394686-.409678c.083815-.344419.16763-.688839.24474-1.033621l1.404744.370161c-.080462.359284-.16763.717842-.254798 1.073138zm.646805-2.234042c-.013576.070834-.030546.146166-.044122.217375-.05091.26235-.105214.520952-.159518.779554l-1.42548-.363917c.054304-.246983.108608-.494342.156124-.745448.013576-.074957.027152-.146541.040728-.221124.006788-.037853.013576-.074957.020364-.11281l1.432268.326063c-.006788.041602-.013576.07908-.020364.120307zm.036756-.44637-1.459691-.276023c.065566-.319255.12768-.641835.182893-.96109l1.466592.236115c-.058664.335883-.124229.668441-.189794 1.000998zm.322122-1.929049c-.010551.0689-.021102.134701-.031653.203257-.014068.09336-.031653.186032-.049238.282493l-1.494736-.234263c.014068-.089915.031653-.176041.045721-.265612.010551-.068901.017586-.137457.028137-.206702.028136-.175697.049238-.354839.073857-.530536l1.50177.192922c-.02462.186376-.045722.372408-.073858.558441zm.165296-.751363-1.534737-.18641c.04303-.35131.078888-.699035.114746-1.050704l1.534738.146977c-.032272.366008-.071717.728072-.114747 1.090137zm.047691-1.480663c0 .012454-.003193.024909-.003193.037364l-1.37305-.115205c0-.015568.003193-.028023.003193-.040478.025545-.289569.047897-.582251.063863-.875245l1.376243.081266c-.019159.305137-.041511.610274-.067056.912298zm.067056-2.348778c-.003258.065249-.006516.130171-.006516.195746-.009774.251534-.022806.499152-.035838.747097l-1.400945-.071774c.009774-.238157.022806-.476315.03258-.714472 0-.064922.006516-.130171.006516-.195746v-.048936l1.404203.035887zm-.006666-.294271-1.436633-.023254c.003333-.208949.006667-.421268.006667-.630217 0-.121325-.003334-.242651-.003334-.360606l1.436633-.016851c0 .128066.003333.249391.003333.377457 0 .219059-.003333.434412-.006666.653471z" fill="#fe6153" fill-rule="nonzero"/></g></svg>