<?xml version="1.0" encoding="UTF-8"?>
<svg height="100%" viewBox="0 0 1993 900" version="1.1" xmlns="http://www.w3.org/2000/svg" xmlns:xlink="http://www.w3.org/1999/xlink">
    <title>Rosa dos ventos pequena c_linhas</title>
    <g id="Rosa-dos-ventos-pequena-c_linhas" stroke="none" stroke-width="1" fill="none" fill-rule="evenodd">
        <g id="Group-46" transform="translate(995.000000, 556.679465) scale(1, -1) translate(-995.000000, -556.679465) translate(-2.000000, -5.320535)" stroke="#E6E0DE" stroke-linecap="square">
            <line x1="372.5" y1="11.1794651" x2="372.5" y2="1118.17947" id="Line-2"></line>
            <line x1="1.5" y1="296.179465" x2="827.5" y2="1123.17947" id="Line-2"></line>
            <line x1="1041.5" y1="0.179465056" x2="1.5" y2="1041.17947" id="Line-2"></line>
            <line x1="1" y1="668.5" x2="1993.5" y2="668.179465" id="Line-2"></line>
        </g>
        <path d="M371.064549,410.251018 C370.806353,410.251018 370.551554,410.25441 370.293358,410.261194 L370.249193,410 L370.21522,410.261194 C348.676236,410.715739 331.281977,428.270014 331.132495,449.847354 L331,449.868046 L331.132495,449.891452 C331.132495,449.969471 331.129098,450.04749 331.129098,450.125509 C331.129098,472.113297 349.043146,490 371.064549,490 C393.085952,490 411,472.113636 411,450.125509 C411,428.137381 393.085952,410.251018 371.064549,410.251018 Z M407.46862,449.170964 L407.132133,449.242217 L395.015198,451.801591 L394.671913,451.872507 L379.346455,455.107603 L376.178717,455.773196 L371.206186,450.022288 L394.716099,449.144286 L395.055985,449.130779 L407.11174,448.677933 L407.448227,448.66814 L410.381443,448.556701 L407.46862,449.170964 Z M409.969072,449.361302 L408.53244,449.381443 C408.53244,449.290951 408.53244,449.19754 408.529106,449.10734 C408.529106,449.081068 408.525773,449.054796 408.525773,449.028233 L409.119092,448.917307 L409.952406,448.762887 C409.952406,448.806381 409.955739,448.85046 409.959072,448.897165 C409.959072,448.955255 409.962406,449.013637 409.965739,449.072311 C409.969072,449.168641 409.969072,449.264971 409.969072,449.361302 Z M385.845361,465.257732 L375.536082,459.110825 L376.084813,455.979381 L385.845361,465.257732 Z M379.453608,455.283038 L385.845361,453.917526 C385.268281,456.234141 384.168116,458.340155 382.676482,460.103093 L379.453608,455.283038 Z M380.484536,462.208135 C378.805614,463.545195 376.846308,464.526396 374.71134,465.051546 L375.701127,459.278351 L380.484536,462.208135 Z M381.252248,462.537965 L386.704711,465.79471 L386.448807,465.440753 L383.217592,460.648719 C384.995272,458.630483 386.281616,456.17014 386.882138,453.457263 L393.474227,452.061856 C392.43355,462.704393 383.934123,471.202767 373.268041,472.268041 L374.404255,465.818534 C376.959884,465.270922 379.293729,464.127368 381.252248,462.537965 Z M393.675725,452.238618 L394.505155,452.061856 C393.608016,463.53614 384.487674,472.730496 373.061856,473.71134 L373.220971,472.801744 C384.040798,471.760508 392.670253,463.092029 393.675725,452.238618 Z M394.918107,451.948754 L407.072252,449.381443 C407.079067,449.642577 407.082474,449.903034 407.082474,450.167217 C407.082474,469.970735 390.870132,486.082474 370.947147,486.082474 L370.793814,486.082474 L372.930245,473.977501 C384.672097,473.022381 394.049223,463.643906 394.918107,451.948754 Z M394.298969,446.28866 L393.47941,446.179772 C392.615643,441.028004 390.031142,436.454704 386.331226,433.079172 L386.426444,432.943062 L386.290418,433.041742 C382.750332,429.829543 378.207052,427.709628 373.18768,427.219632 L373.061856,426.494845 C383.862348,427.454422 392.59864,435.709501 394.298969,446.28866 Z M373.1355,426.232705 L371,414.123711 L371.085012,414.123711 C390.263709,414.123711 405.994321,429.107575 407.082474,447.938144 L394.786345,446.322596 C393.096307,435.565028 384.166652,427.163906 373.1355,426.232705 Z M382.958763,439.203682 C383.836808,437.638263 384.893905,435.771157 386.102507,433.652646 L386.116281,433.629181 C386.161044,433.552084 386.185147,433.518563 386.185147,433.515211 L386.195477,433.505155 C389.838502,436.756667 392.39344,441.141181 393.268041,446.082474 L386.498488,445.2106 C385.775393,442.954653 384.553017,440.909888 382.958763,439.203682 Z M385.639175,445.257732 L380.278351,444.557168 C380.413323,444.203452 381.250844,442.620315 382.631715,440.103093 C383.94683,441.596942 384.978157,443.341484 385.639175,445.257732 Z M386.051546,433.377355 L380.736443,437.216495 C378.900007,435.839816 376.760337,434.841978 374.436683,434.337985 L373.268041,427.731959 C378.157255,428.225804 382.589915,430.278983 386.051546,433.377355 Z M380.072165,437.807088 L375.704971,440.927835 L374.71134,435.360825 C376.671285,435.830615 378.484405,436.672881 380.072165,437.807088 Z M385.639175,434.123711 C381.069647,442.307609 380.2101,444.03427 380.070806,444.43299 L376.360825,443.946754 L385.639175,434.123711 Z M410.173196,448.385567 L409.764948,448.331959 L410.169072,448.315464 C410.169072,448.336082 410.173196,448.360825 410.173196,448.385567 Z M409.969072,448.072039 L408.593127,448.14433 C408.57709,447.836309 408.554639,447.528288 408.525773,447.220267 L409.904926,447.113402 C409.930584,447.430852 409.953036,447.751446 409.969072,448.072039 Z M409.958315,446.664567 L409.969072,446.769438 L408.427163,446.907216 C408.427163,446.874309 408.423577,446.838508 408.419991,446.802346 C408.391304,446.483756 408.359032,446.165527 408.319588,445.850915 L409.854325,445.670103 C409.89377,446.002797 409.929628,446.331874 409.958315,446.664567 Z M409.64986,444.431889 C409.692245,444.713446 409.727566,444.998479 409.762887,445.279689 L408.251153,445.463918 C408.215833,445.192788 408.180512,444.921659 408.141659,444.654006 C408.131062,444.587962 408.123998,444.518442 408.113402,444.452397 L409.618071,444.226804 C409.628667,444.292848 409.639264,444.362369 409.64986,444.431889 Z M409.556701,443.998827 L408.083947,444.226804 C408.028502,443.901601 407.969592,443.576398 407.907216,443.254547 L409.376505,442.989691 C409.442346,443.324617 409.501256,443.659878 409.556701,443.998827 Z M409.231235,441.816015 C409.244867,441.8916 409.261907,441.963406 409.275539,442.038991 C409.302803,442.182603 409.326659,442.326215 409.350515,442.469827 L407.908921,442.783505 C407.885064,442.64783 407.864616,442.511399 407.837352,442.375345 C407.82372,442.29976 407.810088,442.227954 407.796456,442.152369 C407.765783,441.997419 407.731703,441.846249 407.701031,441.695079 L409.132402,441.340206 C409.166482,441.498557 409.200562,441.657286 409.231235,441.816015 Z M408.938144,441.185019 L407.52718,441.546392 C407.453272,441.195615 407.372646,440.848493 407.28866,440.501736 L408.689546,440.103093 C408.776891,440.461177 408.857518,440.822915 408.938144,441.185019 Z M408.692212,439.753537 C408.705461,439.803416 408.71871,439.856125 408.731959,439.906004 L407.354076,440.309278 C407.340827,440.256216 407.327578,440.206691 407.314329,440.157166 C407.241461,439.874166 407.161967,439.590813 407.082474,439.308167 L408.45042,438.865979 C408.533226,439.159238 408.616031,439.456388 408.692212,439.753537 Z M408.056722,437.56391 C408.148725,437.849814 408.234156,438.135718 408.319588,438.425067 L406.969113,438.865979 C406.886968,438.590065 406.801536,438.314495 406.716105,438.042369 C406.699676,437.997589 406.683246,437.949364 406.670103,437.904928 L408.007434,437.42268 C408.023863,437.467461 408.040292,437.51603 408.056722,437.56391 Z M407.907216,437.148885 L406.588928,437.628866 C406.481776,437.316711 406.371378,437.011268 406.257732,436.702469 L407.563033,436.185567 C407.683172,436.504435 407.796818,436.82666 407.907216,437.148885 Z M407.062703,435.289597 C407.085299,435.351921 407.111122,435.410965 407.133718,435.47329 C407.188593,435.607779 407.237013,435.742268 407.28866,435.876757 L405.99425,436.391753 C405.945831,436.263824 405.897412,436.135895 405.845764,436.007966 C405.823169,435.945642 405.797345,435.886598 405.774749,435.824274 C405.729558,435.716026 405.684367,435.607779 405.639175,435.499531 L406.920673,434.948454 C406.965864,435.063261 407.017512,435.174789 407.062703,435.289597 Z M406.876289,434.604964 L405.610405,435.154639 C405.485735,434.868551 405.357868,434.582463 405.226804,434.296375 L406.473508,433.71134 C406.610965,434.007072 406.745225,434.306018 406.876289,434.604964 Z M406.161194,433.154909 C406.193373,433.208482 406.221977,433.268356 406.254156,433.32508 C406.257732,433.328231 406.257732,433.331383 406.257732,433.334534 L404.870449,433.917526 C404.870449,433.917526 404.866873,433.914374 404.866873,433.911223 C404.834694,433.8545 404.80609,433.797776 404.773911,433.741053 C404.652345,433.523612 404.527203,433.306172 404.402062,433.091883 L405.775043,432.474227 C405.90376,432.701121 406.036053,432.928015 406.161194,433.154909 Z M405.369001,431.304223 C405.532528,431.593854 405.688944,431.887017 405.845361,432.183713 L404.48738,432.886598 C404.338073,432.604031 404.185212,432.324996 404.03235,432.045961 C404.01813,432.021237 404.00391,431.996512 403.989691,431.97532 L405.329897,431.237113 C405.344117,431.258306 405.358336,431.283031 405.369001,431.304223 Z M405.020619,430.911375 L403.690071,431.649485 C403.519761,431.354934 403.342355,431.060383 403.164948,430.769297 L404.474207,430 C404.65871,430.301481 404.843212,430.606428 405.020619,430.911375 Z M404.004672,429.022433 C404.043701,429.080489 404.079182,429.138546 404.118212,429.196602 C404.214011,429.343451 404.309811,429.493714 404.402062,429.640563 L403.103448,430.412371 C403.011196,430.268938 402.922493,430.125504 402.830242,429.985486 C402.791212,429.92743 402.755731,429.869373 402.716702,429.811317 C402.659932,429.729355 402.603162,429.647393 402.546392,429.565431 L403.827265,428.762887 C403.884035,428.848264 403.947902,428.933641 404.004672,429.022433 Z M403.57732,428.580265 L402.309514,429.381443 C402.11474,429.108773 401.919965,428.836104 401.721649,428.5668 L402.968207,427.731959 C403.173605,428.011361 403.379004,428.29413 403.57732,428.580265 Z M402.465728,427.140007 C402.543637,427.243099 402.625089,427.346192 402.702998,427.449285 C402.720705,427.472564 402.734871,427.492517 402.752577,427.515796 L401.513103,428.350515 L401.470607,428.290655 C401.392697,428.187562 401.311246,428.087795 401.233336,427.984702 C401.123554,427.845028 401.006689,427.705354 400.896907,427.56568 L402.111592,426.701031 C402.228457,426.847356 402.348863,426.993681 402.465728,427.140007 Z M401.927835,426.457133 L400.717924,427.319588 C400.505036,427.063803 400.292149,426.811297 400.072165,426.562071 L401.257239,425.670103 C401.484319,425.929167 401.707851,426.191511 401.927835,426.457133 Z M401.081804,425.161756 C401.0889,425.171516 401.095997,425.178023 401.103093,425.187783 L399.925115,426.082474 C399.918019,426.072714 399.910922,426.066207 399.903826,426.056447 C399.68739,425.818947 399.470955,425.584701 399.247423,425.353708 L400.400564,424.43299 C400.631192,424.673743 400.858272,424.914496 401.081804,425.161756 Z M399.54322,423.608247 C399.561063,423.621134 399.575337,423.637242 399.589611,423.650129 C399.639572,423.698454 399.685964,423.746778 399.735924,423.791881 C399.917922,423.972294 400.099921,424.152706 400.278351,424.33634 L399.129262,425.257732 C398.95797,425.083763 398.786677,424.909794 398.611816,424.739046 C398.561856,424.690722 398.515464,424.645619 398.465504,424.597294 C398.451229,424.584407 398.436955,424.571521 398.42268,424.558634 L399.54322,423.608247 Z M399.247423,423.274195 L398.12756,424.226804 C397.887077,423.99984 397.639415,423.77927 397.391753,423.558699 L398.479312,422.57732 C398.737742,422.80748 398.992582,423.040838 399.247423,423.274195 Z M397.857074,421.907514 C397.902002,421.957571 397.950138,422.004052 397.995066,422.054109 C398.068876,422.132769 398.142685,422.215005 398.216495,422.297241 L397.253761,423.402062 C397.18316,423.323401 397.11256,423.244741 397.041959,423.169656 C396.997032,423.1196 396.948895,423.069543 396.903967,423.023062 C396.791648,422.905071 396.679329,422.790656 396.56701,422.676241 L397.507281,421.546392 C397.622809,421.667958 397.741546,421.785948 397.857074,421.907514 Z M397.185567,421.234937 L396.250859,422.371134 C396.014756,422.136059 395.778654,421.904545 395.536082,421.676593 L396.444916,420.515464 C396.69719,420.750539 396.942996,420.992738 397.185567,421.234937 Z M396.089313,420.31874 C396.112177,420.340029 396.131775,420.357769 396.154639,420.379058 L395.246606,421.546392 C395.223742,421.525103 395.204144,421.507362 395.18128,421.486074 C394.959171,421.28383 394.733796,421.081587 394.505155,420.882892 L395.383791,419.690722 C395.622231,419.896513 395.857405,420.105852 396.089313,420.31874 Z M394.333678,418.873049 C394.386567,418.915464 394.436151,418.957879 394.48904,419.000295 C394.703903,419.17349 394.91546,419.350221 395.123711,419.526951 L394.244427,420.721649 C394.042787,420.551988 393.841146,420.382327 393.6362,420.2162 C393.583311,420.173785 393.530422,420.13137 393.477532,420.088954 L393.474227,420.08542 L394.323761,418.865979 C394.327067,418.869514 394.330372,418.869514 394.333678,418.873049 Z M394.092784,418.666863 L393.244668,419.896907 C392.980884,419.6919 392.713761,419.490427 392.443299,419.296024 L393.261363,418.041237 C393.541842,418.246244 393.818982,418.454786 394.092784,418.666863 Z M392.375697,417.474521 C392.429779,417.509867 392.48724,417.548748 392.544702,417.587629 C392.649485,417.661856 392.750887,417.736082 392.85567,417.810309 L392.037688,419.072165 C391.939665,419.001473 391.841643,418.930781 391.74024,418.860088 C391.686159,418.821208 391.628697,418.782327 391.571235,418.743446 C391.449552,418.66215 391.327869,418.580854 391.206186,418.499558 L391.990367,417.216495 C392.11881,417.30486 392.247254,417.386156 392.375697,417.474521 Z M391.824742,417.161014 L391.037801,418.453608 C390.752577,418.269458 390.463918,418.088849 390.175258,417.911781 L390.927835,416.597938 C391.230241,416.782089 391.52921,416.96978 391.824742,417.161014 Z M390.465574,416.437967 C390.503934,416.462851 390.545781,416.487736 390.587629,416.51262 L389.834376,417.835052 C389.792528,417.810167 389.754168,417.788838 389.715808,417.763953 C389.457749,417.614646 389.196203,417.468894 388.938144,417.323143 L389.653037,415.979381 C389.928533,416.128688 390.197053,416.28155 390.465574,416.437967 Z M388.541736,415.232998 C388.811329,415.371906 389.080922,415.514376 389.350515,415.656845 L388.630418,417.010309 C388.375014,416.874963 388.116063,416.739617 387.857111,416.607832 C387.803902,416.5829 387.75424,416.554406 387.701031,416.529473 L388.382108,415.154639 C388.435318,415.179571 388.488527,415.208065 388.541736,415.232998 Z M388.113402,415.005374 L387.51705,416.391753 C387.234734,416.23771 386.955591,416.087251 386.670103,415.940373 L387.234734,414.536082 C387.529738,414.686542 387.82157,414.844167 388.113402,415.005374 Z M386.331403,414.271331 C386.393027,414.297003 386.451407,414.322676 386.509788,414.348349 C386.633036,414.399695 386.753041,414.457459 386.876289,414.512014 L386.308699,415.773196 C386.195181,415.72185 386.07842,415.670504 385.961659,415.619158 C385.900035,415.596695 385.841654,415.567813 385.783273,415.54214 C385.666512,415.494003 385.549751,415.449075 385.43299,415.400939 L385.964902,414.123711 C386.084907,414.171848 386.208155,414.219985 386.331403,414.271331 Z M385.639175,413.860926 L385.109524,415.154639 C384.804975,415.034971 384.503736,414.921771 384.195876,414.808571 L384.692424,413.505155 C385.010215,413.618355 385.324695,413.738023 385.639175,413.860926 Z M384.032868,413.363887 C384.087204,413.380218 384.14154,413.399816 384.195876,413.419414 L383.700061,414.742268 C383.649121,414.72267 383.594785,414.706339 383.540449,414.686741 C383.278957,414.598551 383.014069,414.513627 382.752577,414.428703 L383.211037,413.092784 C383.486113,413.180974 383.761189,413.269164 384.032868,413.363887 Z M382.067622,412.716629 C382.368164,412.798938 382.661716,412.887833 382.958763,412.976727 L382.497466,414.329897 C382.217893,414.244295 381.934824,414.158693 381.648261,414.079676 C381.602831,414.066506 381.560895,414.056629 381.515464,414.043459 L381.938319,412.680412 C381.980255,412.693582 382.025686,412.706751 382.067622,412.716629 Z M381.721649,412.738011 L381.300537,414.123711 C380.962208,414.036896 380.620279,413.950081 380.278351,413.869944 L380.659871,412.474227 C381.012597,412.557703 381.368923,412.647857 381.721649,412.738011 Z M379.169837,412.061856 C379.303752,412.085614 379.437666,412.109372 379.57158,412.136524 C379.642257,412.153494 379.716654,412.16707 379.787331,412.180646 C379.951004,412.214586 380.114677,412.255314 380.278351,412.292648 L379.902646,413.71134 C379.746413,413.6774 379.59018,413.640066 379.433946,413.606126 C379.359549,413.59255 379.288872,413.578974 379.214476,413.565398 C379.088001,413.538246 378.961526,413.517882 378.835052,413.49073 L379.169837,412.061856 Z M378.050888,411.85567 C378.383198,411.917526 378.712218,411.982818 379.041237,412.054983 L378.75499,413.505155 C378.439131,413.436426 378.123273,413.37457 377.804124,413.312715 L378.050888,411.85567 Z M376.565871,411.649485 C376.835849,411.688008 377.109244,411.726531 377.379222,411.772058 C377.444153,411.782564 377.512502,411.796572 377.580851,411.807079 C377.587686,411.807079 377.591103,411.810581 377.597938,411.810581 L377.351882,413.298969 C377.348465,413.298969 377.34163,413.295467 377.338213,413.295467 C377.273281,413.284961 377.204933,413.270952 377.136584,413.260446 C376.880276,413.218421 376.62055,413.179898 376.360825,413.141375 L376.565871,411.649485 Z M375.286769,411.443299 C375.311582,411.446854 375.33994,411.450409 375.368298,411.453964 C375.701504,411.489513 376.031164,411.532172 376.360825,411.574831 L376.158775,413.092784 C375.843293,413.053679 375.527811,413.01102 375.208785,412.979026 C375.180427,412.975471 375.152069,412.971916 375.123711,412.968361 L375.286769,411.443299 Z M373.775812,411.237113 C374.089706,411.259318 374.400523,411.287867 374.71134,411.316416 L374.585167,412.680412 C374.283582,412.648692 373.985075,412.623315 373.680412,412.60111 L373.775812,411.237113 Z M372.488402,411.237113 C372.591495,411.240357 372.691366,411.2436 372.791237,411.246844 C372.85567,411.250087 372.920103,411.25333 372.984536,411.256574 C373.14884,411.26306 373.309923,411.276034 373.474227,411.285764 L373.387242,412.680412 C373.232603,412.670682 373.077964,412.657709 372.923325,412.651222 C372.858892,412.647979 372.794459,412.647979 372.730026,412.644735 C372.633376,412.641492 372.539948,412.638249 372.443299,412.635005 L372.488402,411.237113 Z M371,411.237113 L371.013476,411.237113 C371.35375,411.237113 371.694023,411.243734 372.030928,411.253665 L371.990499,412.680412 C371.667071,412.670481 371.340274,412.663861 371.013476,412.663861 L371,412.663861 L371,411.237113 Z M371.089882,412.886598 C390.994503,412.886598 407.30547,428.532556 408.319588,448.14433 L407.462011,448.032282 C406.393444,428.943398 390.487444,413.738841 371.089882,413.738841 C371.042239,413.738841 370.991193,413.738841 370.94355,413.742236 L370.793814,412.889993 C370.892504,412.889993 370.991193,412.886598 371.089882,412.886598 Z M370.731959,411.237113 L370.748454,412.680412 C370.74433,412.680412 370.74433,412.680412 370.740206,412.680412 L370.661856,412.324622 L370.426804,411.237113 L370.731959,411.237113 Z M370.175258,411.237113 L369.987216,412.673777 C369.927835,412.673777 369.871753,412.677094 369.812371,412.680412 L369.762887,411.250385 C369.901443,411.247067 370.036701,411.240431 370.175258,411.237113 Z M359.032445,440.721649 C360.16916,442.902198 361.159531,444.808058 361.309278,445.095971 L356.360825,445.876289 C356.918972,443.980602 357.83447,442.23752 359.032445,440.721649 Z M355.40072,446.065624 L348.731959,447.113402 C349.424194,441.962622 351.871006,437.360224 355.462404,433.917526 C355.969586,434.808817 357.333495,437.384037 358.628866,439.846995 C357.131308,441.636382 356.017563,443.748947 355.40072,446.065624 Z M356.360825,434.329897 C358.999545,436.219366 365.879311,440.769865 366.213412,440.989331 L366.257732,440.92452 L365.821354,444.226804 L356.360825,434.329897 Z M361.721649,438.078327 C363.244611,436.94656 364.988092,436.089364 366.876289,435.56701 L366.15271,440.927835 C365.84605,440.733961 363.895832,439.484665 361.721649,438.078327 Z M360.968981,437.42268 C358.632287,435.865486 356.251118,434.253774 355.536082,433.691548 C358.868351,430.549901 363.15172,428.403222 367.907216,427.731959 L367.02112,434.413923 C364.783642,434.98637 362.73091,436.029043 360.968981,437.42268 Z M348.519291,446.985107 L347.701031,447.113402 C349.00821,436.502075 357.462436,428.058254 368.113402,426.701031 L368.018334,427.430285 C357.866473,428.814518 349.829866,436.866702 348.519291,446.985107 Z M347.34151,447.241672 L335.123711,449.175258 C335.592451,430.205826 350.83328,414.832817 369.762887,414.123711 L368.156265,426.327797 C357.269958,427.678152 348.628846,436.35028 347.34151,447.241672 Z M334.744732,449.245522 L333.886598,449.381443 C334.257775,429.584519 350.194541,413.52203 369.969072,412.886598 L369.856698,413.7463 C350.650851,414.432702 335.184014,430.019467 334.744732,449.245522 Z M368.341792,411.292004 C368.655829,411.269402 368.973037,411.253258 369.287074,411.237113 L369.350515,412.628751 C369.045995,412.641666 368.741475,412.65781 368.440127,412.680412 L368.417922,412.680412 L368.319588,411.292004 L368.341792,411.292004 Z M367.80382,411.443299 L367.907216,412.801326 C367.60919,412.826592 367.311164,412.855016 367.016179,412.886598 L366.876289,411.534887 C367.183438,411.500147 367.493629,411.468565 367.80382,411.443299 Z M365.906279,411.54241 C365.97657,411.53533 366.04686,411.521172 366.117151,411.514092 C366.31045,411.489315 366.507263,411.468077 366.704077,411.443299 L366.876289,412.958276 C366.690019,412.979514 366.500234,413.000752 366.313964,413.02553 C366.243674,413.036149 366.176898,413.046768 366.106607,413.053847 C366.022259,413.064466 365.93791,413.078625 365.853561,413.092784 L365.639175,411.581346 C365.727038,411.570727 365.818416,411.553029 365.906279,411.54241 Z M365.213284,411.649485 L365.43299,413.131933 C365.101741,413.180652 364.777252,413.23633 364.449383,413.298969 L364.195876,411.820001 C364.533885,411.757362 364.871895,411.701683 365.213284,411.649485 Z M363.4152,411.920557 C363.477219,411.906896 363.542502,411.893236 363.607785,411.879576 C363.646955,411.872746 363.689389,411.865915 363.728559,411.85567 L363.989691,413.303665 C363.950521,413.310495 363.914615,413.317325 363.875445,413.324155 C363.810162,413.337816 363.744879,413.351476 363.68286,413.365136 C363.470691,413.409532 363.258521,413.457343 363.046351,413.505155 L362.752577,412.06399 C362.97454,412.016179 363.193238,411.964953 363.4152,411.920557 Z M362.402798,412.061856 L362.752577,413.481964 C362.399116,413.552801 362.045655,413.630384 361.695876,413.71134 L361.309278,412.304725 C361.670103,412.217022 362.03461,412.136066 362.402798,412.061856 Z M361.126059,412.474227 L361.515464,413.860991 C361.179647,413.94413 360.840257,414.033921 360.50444,414.123711 L360.072165,412.746924 C360.422272,412.653808 360.772379,412.560692 361.126059,412.474227 Z M358.855818,413.183505 C358.983881,413.143918 359.108482,413.10433 359.233084,413.064742 C359.437291,413.002062 359.641499,412.945979 359.845707,412.886598 L360.278351,414.249072 C360.081065,414.305155 359.887241,414.357938 359.693416,414.41732 C359.568815,414.456907 359.444214,414.493196 359.319612,414.532784 C359.316151,414.532784 359.309229,414.536082 359.305768,414.536082 L358.835052,413.190103 C358.841974,413.186804 358.848896,413.186804 358.855818,413.183505 Z M358.365219,413.298969 L358.835052,414.628988 C358.520703,414.730044 358.209735,414.837619 357.898766,414.948454 L357.391753,413.634734 C357.716241,413.517379 358.04073,413.406544 358.365219,413.298969 Z M356.570785,413.905017 C356.633537,413.882422 356.692986,413.856598 356.755739,413.834002 C356.868032,413.792039 356.980325,413.750076 357.092618,413.71134 L357.597938,415.008978 C357.49225,415.050941 357.38326,415.086449 357.277572,415.128412 C357.21482,415.151008 357.15537,415.173603 357.092618,415.199427 C356.960509,415.251074 356.828399,415.30595 356.696289,415.360825 L356.154639,414.076099 C356.293354,414.017996 356.43207,413.959893 356.570785,413.905017 Z M355.818377,414.329897 L356.360825,415.601441 C356.070228,415.723151 355.782859,415.848063 355.492262,415.979381 L354.917526,414.720649 C355.217809,414.586128 355.514864,414.454809 355.818377,414.329897 Z M354.430548,414.803051 C354.46853,414.785174 354.506511,414.763721 354.547658,414.742268 L355.123711,416.140278 C355.08573,416.158155 355.047748,416.179608 355.006602,416.201061 C354.766052,416.329778 354.525502,416.46207 354.288117,416.597938 L353.680412,415.217806 C353.927292,415.078362 354.177338,414.938919 354.430548,414.803051 Z M352.588425,415.785488 C352.85744,415.639175 353.126455,415.5 353.399009,415.360825 L354.092784,416.731166 C353.830848,416.863204 353.568913,416.99881 353.314057,417.137986 C353.264502,417.166534 353.218486,417.191515 353.17247,417.216495 L352.443299,415.867565 C352.489315,415.839017 352.53887,415.814036 352.588425,415.785488 Z M352.126828,415.979381 L352.85567,417.317025 C352.559251,417.483787 352.262832,417.657645 351.9699,417.835052 L351.206186,416.518697 C351.509579,416.334194 351.819947,416.156788 352.126828,415.979381 Z M350.507208,417.154718 C350.565385,417.115763 350.623562,417.080349 350.681738,417.041395 C350.808359,416.959943 350.938401,416.882034 351.065021,416.804124 L351.824742,418.110884 C351.704966,418.188794 351.581768,418.259621 351.461993,418.33753 C351.403816,418.376485 351.345639,418.411899 351.287462,418.450854 C351.181375,418.51814 351.07871,418.592508 350.972623,418.659794 L350.175258,417.374282 C350.288189,417.303455 350.397699,417.225545 350.507208,417.154718 Z M349.793307,417.42268 L350.587629,418.698675 C350.310461,418.889543 350.036674,419.080412 349.762887,419.278351 L348.938144,418.023564 C349.218692,417.818557 349.506,417.620619 349.793307,417.42268 Z M348.357492,418.367599 C348.410809,418.328719 348.467458,418.289838 348.520775,418.247423 C348.520775,418.247423 348.520775,418.247423 348.524107,418.247423 L349.350515,419.491605 C349.293867,419.530486 349.24055,419.572901 349.183901,419.611782 C348.973966,419.770839 348.764032,419.936966 348.55743,420.103093 L347.701031,418.880118 C347.91763,418.706922 348.137561,418.533726 348.357492,418.367599 Z M346.739105,419.677737 C346.978971,419.472338 347.218836,419.270481 347.461987,419.072165 L348.319588,420.28685 C348.086294,420.478083 347.856286,420.672857 347.626278,420.867632 C347.603278,420.885339 347.580277,420.906587 347.557276,420.927835 L346.670103,419.734398 C346.693104,419.716692 346.716105,419.695443 346.739105,419.677737 Z M346.40198,419.896907 L347.28866,421.081981 C347.040911,421.301965 346.793162,421.525497 346.551933,421.752577 L345.639175,420.59234 C345.890184,420.358164 346.144452,420.123987 346.40198,419.896907 Z M344.836985,421.210547 C344.885309,421.164155 344.933634,421.117764 344.981959,421.071372 C345.10116,420.953608 345.223582,420.839413 345.342784,420.721649 L346.257732,421.877875 C346.141753,421.988501 346.025773,422.095559 345.913015,422.209754 C345.864691,422.259715 345.816366,422.306106 345.768041,422.352498 C345.693943,422.427439 345.623067,422.502379 345.552191,422.57732 L344.608247,421.446075 C344.685567,421.367565 344.759665,421.289056 344.836985,421.210547 Z M344.281954,421.752577 L345.226804,422.877443 C344.999399,423.117462 344.771995,423.361064 344.550996,423.608247 L343.57732,422.512041 C343.807927,422.257692 344.04494,422.003344 344.281954,421.752577 Z M343.108825,422.962519 C343.158978,422.917766 343.209131,422.873012 343.259284,422.825062 L343.305855,422.783505 L344.402062,423.755294 L344.359073,423.793655 C344.305338,423.838408 344.258767,423.883162 344.208614,423.931112 C344.025913,424.094142 343.850376,424.263566 343.671257,424.43299 L342.546392,423.48997 C342.732675,423.314153 342.918959,423.135139 343.108825,422.962519 Z M341.746582,424.522741 C341.978095,424.283404 342.213171,424.047301 342.451808,423.814433 L343.57732,424.758844 C343.349368,424.985244 343.121416,425.211643 342.900588,425.438043 L342.875655,425.463918 L341.721649,424.548615 C341.732335,424.538912 341.739458,424.532444 341.746582,424.522741 Z M341.595888,424.845361 L342.752577,425.761379 C342.525497,426.002608 342.301965,426.247097 342.081981,426.494845 L340.896907,425.608166 C341.127535,425.350638 341.358164,425.096369 341.595888,424.845361 Z M340.245361,426.251694 C340.287776,426.199121 340.330191,426.146548 340.372607,426.093975 C340.492784,425.952684 340.616495,425.811394 340.736672,425.670103 L341.927835,426.557276 C341.811193,426.691995 341.691016,426.823428 341.577909,426.961433 C341.535493,427.014006 341.493078,427.066579 341.450663,427.115866 C341.394109,427.181583 341.34109,427.250585 341.284536,427.319588 L340.072165,426.465273 C340.132253,426.392985 340.188807,426.320697 340.245361,426.251694 Z M339.676257,426.907216 L340.896907,427.763616 C340.688762,428.026867 340.484144,428.290118 340.286582,428.556701 L339.041237,427.733625 C339.249383,427.453712 339.461056,427.180464 339.676257,426.907216 Z M338.83623,428.197879 C338.87511,428.140535 338.917526,428.086564 338.956406,428.02922 C338.977614,427.998862 339.002356,427.968503 339.023564,427.938144 L340.278351,428.764573 C340.257143,428.791559 340.235935,428.821917 340.214728,428.848903 C340.175847,428.906247 340.133432,428.960218 340.094551,429.017562 C339.960236,429.20646 339.829455,429.398731 339.698675,429.587629 L338.42268,428.794932 C338.56053,428.595914 338.694845,428.396897 338.83623,428.197879 Z M338.170545,429.175258 L339.453608,429.967557 C339.266274,430.251009 339.082474,430.537875 338.902209,430.824742 L337.597938,430.063179 C337.785272,429.762652 337.976141,429.468955 338.170545,429.175258 Z M337.522245,430.206186 L338.835052,430.968289 C338.657645,431.260603 338.483787,431.556397 338.313477,431.85567 L336.979381,431.128366 C337.156788,430.818652 337.337742,430.512419 337.522245,430.206186 Z M336.261287,432.186629 C336.293281,432.122915 336.32883,432.059201 336.360825,431.999027 C336.460363,431.811424 336.563455,431.627362 336.662993,431.443299 L338.010309,432.17247 C337.910771,432.349454 337.814788,432.526437 337.718806,432.70342 C337.686811,432.763595 337.654817,432.827309 337.619268,432.891023 C337.583718,432.958276 337.551724,433.02553 337.516175,433.092784 L336.154639,432.399009 C336.190188,432.328216 336.225738,432.257422 336.261287,432.186629 Z M336.218724,432.886598 L337.597938,433.492973 C337.443896,433.770895 337.289854,434.048817 337.139394,434.329897 L335.742268,433.758262 C335.89631,433.464549 336.057517,433.173994 336.218724,432.886598 Z M335.377231,434.435515 C335.402904,434.37444 335.425368,434.31658 335.45425,434.258719 C335.473505,434.213717 335.495969,434.168714 335.518432,434.123711 L336.773196,434.695888 C336.753941,434.74089 336.734687,434.782679 336.715432,434.824467 C336.689759,434.882327 336.664086,434.940188 336.638413,434.998048 C336.554976,435.184488 336.474748,435.377356 336.39452,435.56701 L335.123711,435.026979 C335.207148,434.827681 335.290585,434.631598 335.377231,434.435515 Z M335.072871,435.360825 L336.360825,435.901238 C336.238162,436.201102 336.121956,436.500965 336.008978,436.804124 L334.71134,436.299958 C334.827547,435.983618 334.946981,435.670574 335.072871,435.360825 Z M334.427226,436.597938 L335.742268,437.101572 C335.628622,437.41254 335.521471,437.726889 335.417566,438.041237 L334.092784,437.571404 C334.199935,437.246916 334.310334,436.919047 334.427226,436.597938 Z M333.732986,438.653846 C333.752701,438.587926 333.772415,438.522006 333.79213,438.456086 C333.854561,438.247918 333.920278,438.03975 333.985994,437.835052 L335.329897,438.303777 C335.267466,438.50119 335.205036,438.699296 335.145891,438.897056 C335.126176,438.962629 335.106461,439.028896 335.086746,439.094469 C335.070317,439.157266 335.053888,439.216247 335.037458,439.278351 L333.680412,438.848136 C333.696841,438.785686 333.713271,438.719766 333.732986,438.653846 Z M333.537957,439.072165 L334.917526,439.500868 C334.824222,439.836327 334.737582,440.176074 334.654275,440.515464 L333.268041,440.122129 C333.354681,439.768807 333.444653,439.4187 333.537957,439.072165 Z M333.203529,440.931411 C333.220395,440.861841 333.237261,440.787854 333.250754,440.717916 C333.26762,440.648346 333.284485,440.581721 333.301351,440.515464 L334.71134,440.906012 C334.694474,440.968588 334.677608,441.034845 334.664116,441.097421 C334.64725,441.167359 334.630384,441.237297 334.616891,441.310916 C334.569667,441.524411 334.525815,441.741587 334.481964,441.958763 L333.061856,441.609073 C333.10908,441.384167 333.152932,441.155949 333.203529,440.931411 Z M332.854815,441.958763 L334.298969,442.253314 C334.227104,442.567501 334.15866,442.881689 334.097061,443.195876 L332.649485,442.937326 C332.711084,442.610047 332.782949,442.282769 332.854815,441.958763 Z M332.617295,443.195876 L334.092784,443.452763 C334.033625,443.78097 333.977946,444.105459 333.925747,444.43299 L332.443299,444.216664 C332.495498,443.875275 332.554657,443.537266 332.617295,443.195876 Z M332.251272,445.556818 C332.261891,445.486528 332.26897,445.416237 332.27605,445.34911 C332.304367,445.110122 332.339764,444.874649 332.37516,444.639175 L333.886598,444.853561 C333.854741,445.078491 333.819344,445.303069 333.791027,445.528351 C333.783948,445.59829 333.776868,445.66858 333.766249,445.739222 C333.75917,445.784911 333.75563,445.8306 333.752091,445.876289 L332.237113,445.707943 C332.240653,445.655225 332.244193,445.606022 332.251272,445.556818 Z M332.325543,446.082474 L333.680412,446.220135 C333.64883,446.516871 333.620407,446.816666 333.595141,447.113402 L332.237113,447.012451 C332.262379,446.700419 332.293961,446.391447 332.325543,446.082474 Z M332.056759,447.742647 C332.059988,447.679029 332.066445,447.615729 332.069674,447.551793 C332.076132,447.475451 332.08259,447.39911 332.089047,447.319588 L333.474227,447.418513 C333.470998,447.491356 333.461311,447.564835 333.458083,447.637677 C333.454854,447.701295 333.448396,447.764913 333.445167,447.828849 C333.435481,448.003798 333.425794,448.175566 333.419336,448.350515 L332.030928,448.293259 C332.037386,448.108449 332.047072,447.923958 332.056759,447.742647 Z M332.050744,448.762887 L333.474227,448.821172 C333.467621,449.061601 333.461016,449.302029 333.457713,449.5461 L332.030928,449.793814 C332.034231,449.451386 332.040836,449.108958 332.050744,448.762887 Z M332.030928,449.828866 L331.618557,449.824742 L332.030928,449.758763 L332.030928,449.828866 Z M332.034231,450.340947 C332.034231,450.296813 332.034231,450.253015 332.030928,450.206186 L332.916063,450.206186 L333.457713,450.29715 L333.457713,450.337578 C333.457713,450.627316 333.464319,450.913685 333.474227,451.200391 L332.050744,451.237113 C332.040836,450.940637 332.034231,450.640792 332.034231,450.340947 Z M332.069848,452.526255 C332.053631,452.252947 332.043901,451.977069 332.030928,451.70087 L333.42882,451.649485 C333.43855,451.912837 333.44828,452.176189 333.464497,452.439541 C333.46774,452.490927 333.470983,452.542313 333.474227,452.593699 L332.079578,452.680412 C332.076335,452.629027 332.073092,452.577641 332.069848,452.526255 Z M332.237113,452.982276 L333.604115,452.886598 C333.626368,453.188093 333.651801,453.489588 333.680412,453.788006 L332.31659,453.917526 C332.287979,453.606801 332.259367,453.293001 332.237113,452.982276 Z M332.308212,454.942546 C332.301102,454.872005 332.293992,454.801111 332.283327,454.733406 C332.265553,454.584527 332.251333,454.435648 332.237113,454.286769 L333.762176,454.123711 C333.776395,454.265501 333.78706,454.40729 333.804835,454.54908 C333.815499,454.619975 333.822609,454.690515 333.829719,454.758219 C333.847494,454.892919 333.868823,455.024075 333.886598,455.158775 L332.365091,455.360825 C332.347316,455.22258 332.325986,455.084335 332.308212,454.942546 Z M332.443299,455.7749 L333.932369,455.56701 C333.98119,455.89793 334.0335,456.228167 334.092784,456.558746 L332.610689,456.804124 C332.551405,456.463321 332.495608,456.119111 332.443299,455.7749 Z M361.103093,461.760195 L366.14654,459.278351 L366.876289,464.845361 C364.724554,464.238612 362.763782,463.172515 361.103093,461.760195 Z M367.062223,465.779035 L367.907216,472.268041 C362.621801,471.515248 357.925525,468.885583 354.505155,465.064052 L360.352776,462.164948 C362.244753,463.8681 364.533977,465.128432 367.062223,465.779035 Z M355.123711,464.226804 L362.174818,454.742268 L365.639175,455.307456 L355.123711,464.226804 Z M358.789701,459.072165 C357.678975,457.542989 356.842585,455.801484 356.360825,453.917526 L361.927835,454.825242 L358.789701,459.072165 Z M358.216495,459.88922 L354.36383,465.051546 C351.335758,461.682881 349.303358,457.401669 348.731959,452.680412 L355.321864,453.742601 C355.848782,456.00808 356.847875,458.095559 358.216495,459.88922 Z M367.785634,472.583819 L367.907216,473.505155 C357.133645,472.13811 348.605975,463.397662 347.494845,452.474227 L348.329037,452.610217 C349.521222,462.938694 357.582826,471.186517 367.785634,472.583819 Z M368.146138,473.915971 L369.762887,486.082474 C350.559736,485.39851 335.125588,469.787144 334.917526,450.618557 L347.138642,452.581442 C348.240351,463.681895 357.033552,472.57241 368.146138,473.915971 Z M369.856878,486.462076 L369.969072,487.319588 C350.035826,486.709162 333.995393,470.406619 333.886598,450.412371 L334.739957,450.551335 C334.920149,469.976168 350.491404,485.801149 369.856878,486.462076 Z M332.683777,457.238758 C332.67349,457.176245 332.659772,457.117021 332.649485,457.057798 L334.1035,456.804124 C334.113788,456.863676 334.127505,456.922571 334.137793,456.981794 C334.189232,457.24172 334.244101,457.498355 334.298969,457.755319 L332.851812,458.041237 C332.793514,457.77506 332.735217,457.508555 332.683777,457.238758 Z M333.061856,459.369517 C332.990874,459.042642 332.919892,458.712427 332.85567,458.378502 L334.278689,458.041237 C334.34291,458.356611 334.407132,458.671614 334.478114,458.987359 C334.484874,459.024461 334.495014,459.065274 334.505155,459.102377 L333.085516,459.484536 C333.078756,459.447433 333.071996,459.40662 333.061856,459.369517 Z M333.268041,459.660136 L334.663759,459.278351 C334.743896,459.620194 334.827372,459.962037 334.917526,460.296684 L333.535164,460.721649 C333.441671,460.369011 333.351517,460.016732 333.268041,459.660136 Z M333.871753,461.822471 C333.851959,461.756072 333.832165,461.689673 333.812371,461.623275 C333.766186,461.46252 333.723299,461.305259 333.680412,461.144505 L335.046186,460.721649 C335.089072,460.87192 335.12866,461.025686 335.171546,461.175957 C335.19134,461.24585 335.211134,461.312598 335.230928,461.378648 C335.263918,461.487332 335.296907,461.595317 335.329897,461.700157 L333.97732,462.164948 C333.94433,462.053119 333.904742,461.937795 333.871753,461.822471 Z M334.092784,462.420279 L335.426063,461.958763 C335.527118,462.274591 335.631433,462.587022 335.742268,462.899454 L334.422028,463.402062 C334.307934,463.075706 334.197099,462.749691 334.092784,462.420279 Z M334.589081,463.919185 C334.566486,463.856144 334.540662,463.793103 334.518066,463.733049 C334.514839,463.720109 334.508383,463.706837 334.505155,463.693566 L335.809248,463.195876 C335.815704,463.205498 335.818932,463.21877 335.82216,463.229056 C335.844756,463.288778 335.867351,463.351819 335.889947,463.41486 C335.973874,463.647115 336.064256,463.876383 336.154639,464.104989 L334.866685,464.639175 C334.773075,464.400284 334.679464,464.161394 334.589081,463.919185 Z M335.48955,465.830454 C335.364395,465.544395 335.242449,465.255085 335.123711,464.969351 L336.400939,464.43299 C336.513258,464.709622 336.631995,464.985604 336.750732,465.258661 C336.75715,465.274914 336.763569,465.291493 336.773196,465.307421 L335.508805,465.876289 C335.502387,465.85971 335.495969,465.846708 335.48955,465.830454 Z M335.536082,466.239157 L336.94309,465.670103 C337.090251,465.953041 337.237413,466.235978 337.391753,466.512557 L336.002692,467.113402 C335.844763,466.824106 335.686833,466.531632 335.536082,466.239157 Z M336.511499,468.087394 C336.479381,468.026948 336.443695,467.962945 336.411578,467.898943 C336.322363,467.728625 336.240285,467.557597 336.154639,467.387279 L337.528549,466.701031 L337.774782,467.191716 C337.810468,467.255719 337.842585,467.316165 337.874703,467.379812 C337.917526,467.461593 337.963918,467.543374 338.010309,467.62871 L336.654243,468.350515 C336.607851,468.261623 336.557891,468.176287 336.511499,468.087394 Z M336.773196,468.658046 L338.116957,467.938144 C338.284038,468.238686 338.454675,468.535733 338.628866,468.83278 L337.302879,469.587629 C337.121578,469.280098 336.943832,468.969072 336.773196,468.658046 Z M337.558196,470.205756 C337.522783,470.143926 337.487369,470.085531 337.451956,470.027136 C337.430707,469.996222 337.413001,469.961872 337.391753,469.927522 L338.705595,469.175258 C338.723302,469.206516 338.741009,469.237431 338.758716,469.268346 C338.794129,469.326741 338.829543,469.385136 338.868498,469.443531 C338.992445,469.642761 339.119934,469.838555 339.247423,470.03435 L337.954828,470.824742 C337.823798,470.617956 337.689226,470.411856 337.558196,470.205756 Z M338.216495,471.199602 L339.499558,470.412371 C339.686892,470.690397 339.877761,470.969102 340.072165,471.243733 L338.810309,472.061856 C338.608837,471.776701 338.410898,471.491546 338.216495,471.199602 Z M338.835052,472.264702 L340.089838,471.443299 C340.284242,471.713761 340.485714,471.977545 340.690722,472.241329 L339.460677,473.092784 C339.248601,472.819316 339.040059,472.541842 338.835052,472.264702 Z M340.17329,473.958433 C340.130794,473.905649 340.088298,473.852866 340.045802,473.800082 C339.914771,473.642062 339.787283,473.480082 339.659794,473.322062 L340.885103,472.474227 C341.00905,472.625979 341.129456,472.777732 341.253404,472.929485 L341.380892,473.087835 C341.423389,473.140289 341.469426,473.190103 341.515464,473.242887 L340.314945,474.123711 C340.268907,474.067299 340.219328,474.014515 340.17329,473.958433 Z M340.484536,474.383617 L341.676707,473.505155 C341.89669,473.753671 342.116674,474.001861 342.340206,474.246786 L341.172873,475.154639 C340.942244,474.899591 340.711616,474.64487 340.484536,474.383617 Z M341.775471,475.719739 C341.729169,475.671539 341.679304,475.622691 341.633002,475.574491 C341.593822,475.532437 341.554643,475.49006 341.515464,475.448006 L342.680155,474.536082 C342.715773,474.574578 342.75139,474.616955 342.790569,474.655451 C342.836872,474.70721 342.883175,474.752822 342.929477,474.801022 C343.075509,474.949828 343.225102,475.098635 343.371134,475.247441 L342.238499,476.185567 C342.081782,476.030291 341.928627,475.875015 341.775471,475.719739 Z M342.340206,476.505898 L343.467883,475.56701 C343.706979,475.798517 343.949643,476.026808 344.195876,476.251884 L343.09318,477.216495 C342.83981,476.982094 342.586439,476.747051 342.340206,476.505898 Z M343.371134,477.477212 L344.351216,476.391753 C344.572215,476.638578 344.793214,476.88612 345.020619,477.129722 L344.069362,478.247423 C343.832349,477.993074 343.601742,477.738725 343.371134,477.477212 Z M345.014175,479.164731 C344.965851,479.118428 344.917526,479.071769 344.869201,479.022261 C344.71134,478.8659 344.556701,478.70206 344.402062,478.541425 L345.352448,477.42268 C345.500644,477.579397 345.64884,477.732552 345.800258,477.886064 L345.945232,478.024972 C345.98067,478.060589 346.016108,478.092289 346.051546,478.128262 L345.130155,479.278351 C345.091495,479.239527 345.052835,479.20391 345.014175,479.164731 Z M345.43299,479.397016 L346.355142,478.247423 C346.595422,478.478051 346.835701,478.701583 347.082474,478.925115 L346.189545,480.103093 C345.936277,479.872465 345.68301,479.63474 345.43299,479.397016 Z M346.787923,480.541827 C346.738832,480.499331 346.686467,480.453293 346.637375,480.410797 C346.578465,480.361218 346.522828,480.308098 346.463918,480.254978 L347.357388,479.072165 C347.409753,479.122098 347.462117,479.171323 347.517755,479.217361 C347.566847,479.263398 347.619211,479.305894 347.671576,479.351932 C347.815578,479.476234 347.966127,479.599827 348.113402,479.723774 L347.246114,480.927835 C347.095565,480.800346 346.938472,480.672857 346.787923,480.541827 Z M347.494845,481.112459 L348.359495,479.896907 C348.618889,480.108984 348.88161,480.313991 349.14433,480.515464 L348.312936,481.752577 C348.036914,481.543682 347.764217,481.331605 347.494845,481.112459 Z M348.731959,481.969367 L349.566759,480.721649 C349.834968,480.923122 350.106529,481.117526 350.381443,481.308395 L349.583522,482.57732 C349.295197,482.379381 349.013578,482.174374 348.731959,481.969367 Z M350.546733,483.341973 C350.488796,483.303093 350.43086,483.267747 350.372923,483.228866 C350.168442,483.094551 349.967368,482.956701 349.762887,482.818851 L350.563773,481.546392 C350.75803,481.677172 350.952288,481.807953 351.149953,481.935199 C351.20789,481.97408 351.265826,482.009426 351.323762,482.048306 C351.354435,482.065979 351.381699,482.083652 351.412371,482.10486 L350.642157,483.402062 C350.611485,483.380854 350.577405,483.363181 350.546733,483.341973 Z M351,483.471354 L351.767685,482.164948 C352.05816,482.345558 352.352093,482.519084 352.649485,482.69261 L351.912922,484.020619 C351.605157,483.839655 351.300849,483.659046 351,483.471354 Z M352.673224,484.57549 C352.609918,484.539934 352.546612,484.508289 352.486822,484.472378 C352.402414,484.426155 352.321522,484.376377 352.237113,484.330509 L352.972172,482.989691 C353.049546,483.035914 353.126921,483.082136 353.207812,483.124804 C353.267602,483.160715 353.330908,483.19236 353.394214,483.227916 C353.555998,483.316806 353.721298,483.398585 353.886598,483.487475 L353.18671,484.845361 C353.014376,484.756826 352.842042,484.667936 352.673224,484.57549 Z M353.474227,484.978852 L354.177051,483.608247 C354.489018,483.764939 354.804572,483.922344 355.123711,484.072254 L354.460332,485.463918 C354.130435,485.303657 353.800538,485.143039 353.474227,484.978852 Z M354.736999,485.489491 C354.727377,485.485975 354.717755,485.479901 354.71134,485.476704 L355.291867,484.226804 C355.301489,484.230001 355.311111,484.236394 355.320733,484.239591 C355.596564,484.367138 355.875601,484.492128 356.154639,484.613602 L355.606186,485.876289 C355.314318,485.751618 355.025659,485.623751 354.736999,485.489491 Z M356.814433,486.469172 C356.752109,486.44703 356.693065,486.421357 356.63074,486.398572 C356.401125,486.308717 356.174789,486.212443 355.948454,486.119379 L356.499531,484.845361 C356.716026,484.935216 356.932521,485.025071 357.149016,485.111717 C357.21134,485.134181 357.273664,485.159854 357.332709,485.182318 C357.35239,485.189057 357.372071,485.195154 357.391753,485.204782 L356.880037,486.494845 C356.857076,486.485218 356.837395,486.4788 356.814433,486.469172 Z M357.185567,486.56628 L357.70127,485.257732 C358.006004,485.371702 358.317435,485.481776 358.628866,485.586005 L358.153348,486.907216 C357.828522,486.796818 357.507044,486.683172 357.185567,486.56628 Z M359.300568,487.224488 C359.176562,487.185137 359.049111,487.145785 358.925104,487.106434 C358.82521,487.073641 358.725316,487.041176 358.628866,487.008055 L359.104225,485.670103 C359.19723,485.699617 359.290234,485.73241 359.386684,485.761923 C359.510691,485.801275 359.634697,485.840626 359.758704,485.876699 C359.862043,485.909819 359.968826,485.936054 360.072165,485.968519 L359.631253,487.319588 C359.521025,487.286795 359.410796,487.257281 359.300568,487.224488 Z M359.865979,487.453173 L360.303235,486.082474 C360.637398,486.175403 360.971561,486.265013 361.309278,486.351304 L360.911127,487.731959 C360.559189,487.642349 360.210807,487.54942 359.865979,487.453173 Z M362.191062,488.14433 C361.916322,488.083724 361.637919,488.026486 361.366843,487.962513 C361.297242,487.945678 361.227641,487.928843 361.154378,487.912345 C361.136062,487.908978 361.121409,487.902244 361.103093,487.898877 L361.498718,486.494845 C361.517034,486.498212 361.531687,486.50461 361.550003,486.508313 C361.619603,486.525148 361.689204,486.541983 361.762468,486.558481 C362.022555,486.619424 362.286305,486.676662 362.546392,486.730534 L362.191062,488.14433 Z M363.469909,488.350515 C363.454796,488.347107 363.435904,488.343359 363.420791,488.340291 C363.058077,488.27588 362.699142,488.207378 362.340206,488.13581 L362.695364,486.701031 C363.039186,486.772599 363.383009,486.837011 363.730609,486.898696 C363.745722,486.902104 363.764614,486.905512 363.783505,486.90858 L363.469909,488.350515 Z M365.002179,488.556701 C364.663566,488.501256 364.324952,488.438881 363.989691,488.376505 L364.2579,486.907216 C364.57975,486.969592 364.901601,487.025037 365.226804,487.080482 L365.002179,488.556701 Z M366.282707,488.762887 C366.188616,488.748821 366.091041,488.741437 365.993466,488.727372 C365.923769,488.717175 365.854073,488.706275 365.784376,488.699242 C365.596196,488.67498 365.4115,488.643333 365.226804,488.615203 L365.449833,487.113402 C365.627559,487.141532 365.805285,487.169662 365.983011,487.194276 C366.052708,487.204474 366.11892,487.215374 366.188616,487.225923 C366.279222,487.236472 366.373312,487.247021 366.463918,487.257569 L366.282707,488.762887 Z M367.591874,488.969072 C367.282596,488.936729 366.976349,488.900793 366.670103,488.861263 L366.815646,487.319588 C367.109763,487.358758 367.403881,487.395054 367.701031,487.427397 L367.591874,488.969072 Z M369.074971,488.969072 C368.85113,488.959748 368.624137,488.946887 368.400296,488.930811 C368.337243,488.924059 368.274189,488.924059 368.211135,488.917951 C368.179608,488.914414 368.148082,488.911199 368.113402,488.908305 L368.217441,487.525773 C368.248967,487.528988 368.277342,487.532204 368.308869,487.535097 C368.371922,487.541849 368.434976,487.544743 368.49803,487.547958 C368.712412,487.564355 368.926795,487.577216 369.14433,487.58654 L369.074971,488.969072 Z M369.350515,488.93949 L369.416495,487.525773 C369.599771,487.532676 369.783047,487.538921 369.966323,487.545824 L370.175258,488.969072 C369.900344,488.962498 369.62543,488.952637 369.350515,488.93949 Z M370.595845,473.992551 L370.34826,486.020806 L370.341477,486.356241 L370.28382,489.175258 L369.910747,486.342688 L369.866656,486.007253 L368.259049,473.833304 L368.211567,473.484315 L366.319067,459.135115 L365.820505,455.37078 L371.084232,450.098677 L347.5026,449.946206 L347.163442,449.942818 L335.123345,449.868277 L334.784187,449.86455 L333.709058,449.857773 L333.709058,449.765952 L332.237113,449.752399 L334.790971,449.349537 L335.130128,449.295325 L347.316063,447.370804 L347.665395,447.313204 L361.479287,445.131177 L365.820505,444.436588 L371.084232,450.098338 L370.60602,426.543288 L370.599237,426.204464 L370.355043,414.17621 L370.34826,413.840774 L370.28382,410.618557 L370.850213,413.833997 L370.90787,414.172821 L373.034389,426.279006 L373.095437,426.621218 L375.632336,441.058512 L376.154639,444.023222 L371.084232,450.098338 L370.602628,473.653388 L370.595845,473.992551 Z M370.943076,486.465658 C371.014315,486.469045 371.085553,486.469045 371.156792,486.469045 C391.181619,486.469045 407.471509,470.20306 407.471509,450.211761 C407.471509,449.923843 407.468117,449.639313 407.45794,449.354783 L408.306018,449.175258 C408.316195,449.521097 408.319588,449.86626 408.319588,450.2121 C408.319588,470.674567 391.649759,487.319588 371.156792,487.319588 C371.034669,487.319588 370.915938,487.3162 370.793814,487.3162 L370.943076,486.465658 Z M371.09029,488.969072 C370.992588,488.969072 370.891517,488.965415 370.793814,488.965415 L370.807291,487.532423 C370.901624,487.532423 370.995957,487.535748 371.09029,487.535748 C371.326124,487.535748 371.561957,487.532423 371.794421,487.525773 L371.824742,488.96209 C371.582171,488.965747 371.336231,488.969072 371.09029,488.969072 Z M372.84071,488.939757 C372.775668,488.943014 372.710625,488.946597 372.645582,488.949529 C372.453706,488.9593 372.26183,488.962558 372.066701,488.969072 L372.030928,487.565186 C372.2163,487.558346 372.398419,487.552157 372.583791,487.545317 C372.648834,487.54206 372.713877,487.54206 372.77892,487.538802 C372.847215,487.535545 372.915509,487.52903 372.983804,487.525773 L373.061856,488.926402 C372.990309,488.929985 372.915509,488.936499 372.84071,488.939757 Z M373.554962,488.969072 L373.474227,487.596326 C373.778537,487.576852 374.079742,487.551313 374.384052,487.525773 L374.505155,488.895327 C374.188424,488.924378 373.874798,488.946725 373.554962,488.969072 Z M375.244086,488.929875 C375.172576,488.937358 375.101067,488.948048 375.029557,488.954819 C374.97235,488.962302 374.915142,488.965509 374.86151,488.969072 L374.71134,487.440386 C374.764972,487.433259 374.815029,487.429696 374.868661,487.426132 C374.94017,487.419006 375.01168,487.408316 375.083189,487.401545 C375.308444,487.376602 375.530123,487.348095 375.755378,487.319588 L375.948454,488.844711 C375.712472,488.872861 375.480067,488.904931 375.244086,488.929875 Z M376.350515,488.762887 L376.154639,487.264602 C376.487973,487.215374 376.821306,487.166498 377.151203,487.113402 L377.391753,488.607819 C377.044674,488.664431 376.697595,488.717175 376.350515,488.762887 Z M377.627235,488.556701 L377.391753,487.090109 C377.710152,487.031445 378.028551,486.972782 378.34695,486.907216 L378.628866,488.363801 C378.2972,488.432472 377.962218,488.498037 377.627235,488.556701 Z M379.88147,488.170633 C379.810427,488.184209 379.735644,488.197785 379.664601,488.214755 C379.429037,488.262271 379.189733,488.306733 378.954169,488.350515 L378.628866,486.914853 C378.853213,486.874125 379.081299,486.833397 379.305646,486.785881 C379.380428,486.772305 379.451472,486.758729 379.526254,486.741759 C379.58608,486.728183 379.642167,486.714607 379.701992,486.701031 L380.072165,488.126511 C380.0086,488.143481 379.945035,488.157057 379.88147,488.170633 Z M380.23856,487.938144 L379.865979,486.5363 C380.209622,486.459331 380.553265,486.375669 380.89329,486.28866 L381.309278,487.680799 C380.954784,487.77082 380.596672,487.857829 380.23856,487.938144 Z M382.138034,487.413608 C382.071312,487.430103 382.00459,487.449897 381.937868,487.469691 C381.867635,487.489814 381.79389,487.505979 381.723656,487.525773 L381.309278,486.157031 C381.376,486.136907 381.446234,486.120742 381.512956,486.104247 C381.579677,486.084124 381.646399,486.06466 381.716633,486.048165 C381.913287,485.995381 382.106429,485.93567 382.299571,485.876289 L382.752577,487.235464 C382.545388,487.294845 382.345223,487.357526 382.138034,487.413608 Z M383.00127,487.113402 L382.546392,485.774155 C382.867885,485.676185 383.185958,485.571684 383.500611,485.463918 L383.989691,486.793041 C383.661357,486.9044 383.333024,487.012167 383.00127,487.113402 Z M384.476346,486.701031 L383.989691,485.387912 C384.29635,485.281181 384.603009,485.167657 384.906336,485.051546 L385.43299,486.351728 C385.116331,486.471397 384.796338,486.587831 384.476346,486.701031 Z M386.359425,485.957477 C386.300648,485.9832 386.241872,486.008923 386.179829,486.034646 C385.970845,486.121461 385.758595,486.20506 385.546345,486.28866 L385.020619,485.002512 C385.223072,484.922128 385.425526,484.841744 385.62798,484.758144 C385.686757,484.735636 385.745533,484.706698 385.807576,484.680975 C385.84023,484.668114 385.872883,484.652037 385.902272,484.639175 L386.463918,485.912462 C386.427998,485.925323 386.395344,485.9414 386.359425,485.957477 Z M386.816531,485.670103 L386.257732,484.412806 C386.541921,484.285481 386.826111,484.154326 387.107107,484.020619 L387.701031,485.26196 C387.410455,485.40205 387.113493,485.536076 386.816531,485.670103 Z M388.62797,485.036836 C388.563424,485.068953 388.498879,485.101071 388.434334,485.129619 C388.348274,485.172443 388.258628,485.215266 388.168983,485.257732 L387.494845,483.877042 C387.57732,483.834219 387.66338,483.798176 387.745854,483.755353 C387.810399,483.723236 387.871358,483.691118 387.935903,483.659001 C388.104437,483.576923 388.2658,483.487708 388.430749,483.402062 L389.14433,484.768834 C388.97221,484.858406 388.80009,484.95119 388.62797,485.036836 Z M389.444396,484.43299 L388.731959,483.078564 C389.033779,482.915037 389.3356,482.747956 389.633911,482.57732 L390.381443,483.910416 C390.072604,484.088162 389.760254,484.262353 389.444396,484.43299 Z M390.54967,483.789639 C390.535867,483.797077 390.522064,483.807349 390.50826,483.814433 L389.762887,482.493255 C389.77669,482.486171 389.790493,482.475545 389.804296,482.468815 C390.083811,482.301986 390.356425,482.132322 390.632489,481.958763 L391.412371,483.258688 C391.125954,483.438978 390.839538,483.616079 390.54967,483.789639 Z M392.612151,482.636235 C392.554453,482.675198 392.496754,482.71416 392.44245,482.753122 C392.22184,482.90543 392.00123,483.050653 391.777226,483.195876 L391,481.903389 C391.213822,481.764896 391.427644,481.623569 391.634678,481.481887 C391.692376,481.442925 391.750074,481.403963 391.804378,481.365 C391.81456,481.357916 391.828136,481.34729 391.838318,481.340206 L392.649485,482.608253 C392.635909,482.618525 392.625727,482.629151 392.612151,482.636235 Z M393.048445,482.371134 L392.237113,481.112459 C392.508675,480.918056 392.780236,480.716583 393.045093,480.515464 L393.886598,481.756112 C393.608331,481.964654 393.330065,482.169661 393.048445,482.371134 Z M394.543245,481.41319 C394.49025,481.455614 394.440566,481.498037 394.387571,481.54046 C394.294829,481.614701 394.202087,481.681872 394.112657,481.752577 L393.268041,480.522652 C393.354159,480.455482 393.443589,480.391847 393.529706,480.321141 C393.582702,480.278718 393.635697,480.236294 393.688693,480.194225 C393.811245,480.098418 393.927173,479.995895 394.046412,479.896907 L394.917526,481.106328 C394.791661,481.208144 394.669109,481.310667 394.543245,481.41319 Z M395.172803,480.721649 L394.298969,479.518835 C394.550974,479.305947 394.799705,479.085963 395.045164,478.865979 L395.948454,480.036861 C395.693176,480.271037 395.434626,480.498118 395.172803,480.721649 Z M396.31181,479.822268 C396.285885,479.846792 396.256719,479.872028 396.230794,479.896907 L395.329897,478.727561 C395.359063,478.702682 395.384988,478.677447 395.410913,478.652922 C395.624795,478.453529 395.838677,478.247383 396.049318,478.041237 L396.979381,479.182149 C396.759018,479.399313 396.538655,479.612923 396.31181,479.822268 Z M397.881694,478.466985 C397.685557,478.670862 397.489419,478.875455 397.290067,479.072165 L396.360825,477.929525 C396.550532,477.739623 396.740238,477.546137 396.92673,477.349068 C396.96853,477.302488 397.010329,477.259492 397.052129,477.216495 L398.010309,478.33047 C397.968509,478.377408 397.923494,478.420405 397.881694,478.466985 Z M398.353952,478.041237 L397.391753,476.935732 C397.61552,476.688428 397.839287,476.440408 398.056661,476.185567 L399.041237,477.265947 C398.814273,477.527967 398.587309,477.786397 398.353952,478.041237 Z M399.771825,476.589014 C399.721769,476.637254 399.675288,476.685815 399.625231,476.730518 C399.528693,476.823781 399.42858,476.917045 399.328467,477.010309 L398.216495,476.051942 C398.309457,475.96511 398.405995,475.878279 398.498957,475.788552 C398.549014,475.740312 398.595495,475.691751 398.645552,475.647048 C398.742089,475.550569 398.835052,475.454089 398.931589,475.360825 L400.072165,476.290248 C399.972052,476.389944 399.871939,476.489318 399.771825,476.589014 Z M400.185923,475.979381 L399.041237,475.050735 C399.272307,474.814027 399.499822,474.573423 399.727337,474.329897 L400.896907,475.232568 C400.662282,475.485835 400.424102,475.732608 400.185923,475.979381 Z M401.155033,474.82736 C401.116078,474.866634 401.080664,474.90918 401.041709,474.948454 L399.865979,474.048437 C399.904934,474.009164 399.940348,473.966618 399.979303,473.927344 C400.163453,473.721159 400.344062,473.508427 400.52113,473.298969 L401.721649,474.16953 C401.533958,474.39208 401.346266,474.611357 401.155033,474.82736 Z M402.667908,473.218839 C402.48093,473.454053 402.293952,473.685955 402.103446,473.917526 L400.896907,473.04955 C401.080357,472.824274 401.263808,472.602311 401.440202,472.374053 C401.468425,472.337612 401.496649,472.304152 401.524872,472.268041 L402.752577,473.109514 C402.724354,473.145955 402.696131,473.182397 402.667908,473.218839 Z M402.752577,472.886598 L401.515464,472.048445 C401.716937,471.780236 401.918409,471.508675 402.112813,471.237113 L403.371134,472.048445 C403.169661,472.330065 402.961119,472.611684 402.752577,472.886598 Z M404.089838,470.940138 C404.050957,470.997836 404.015611,471.055534 403.97673,471.113572 C403.856554,471.293114 403.732842,471.469942 403.609131,471.649485 L402.340206,470.841712 C402.456848,470.672012 402.577025,470.502312 402.693667,470.329218 C402.732548,470.27152 402.767894,470.213822 402.806775,470.156124 C402.842121,470.105214 402.873932,470.050571 402.905744,470 L404.195876,470.777226 C404.16053,470.83153 404.125184,470.885834 404.089838,470.940138 Z M404.25844,470.412371 L402.958763,469.637561 C403.142913,469.348299 403.319981,469.055593 403.493508,468.762887 L404.814433,469.506704 C404.633824,469.813185 404.449673,470.112778 404.25844,470.412371 Z M405.116601,469.020805 C405.084607,469.083829 405.049058,469.143352 405.013509,469.206376 C404.981514,469.265899 404.945965,469.32192 404.910416,469.381443 L403.57732,468.635656 C403.609314,468.579635 403.641308,468.526765 403.673303,468.470743 C403.708852,468.41122 403.744401,468.351697 403.77995,468.288673 C403.883043,468.103102 403.982581,467.91718 404.082119,467.731959 L405.43299,468.439231 C405.329897,468.635656 405.223249,468.82823 405.116601,469.020805 Z M405.765266,468.14433 L404.402062,467.435874 C404.562649,467.124583 404.719667,466.809714 404.873117,466.494845 L406.257732,467.16752 C406.097145,467.496344 405.93299,467.821947 405.765266,468.14433 Z M406.416858,466.701031 L405.020619,466.111734 C405.174959,465.827916 405.32212,465.544735 405.462103,465.257732 L406.876289,465.811989 C406.729127,466.112053 406.574787,466.407975 406.416858,466.701031 Z M407.234105,464.680682 C407.211641,464.739181 407.185968,464.800929 407.163504,464.859428 C407.080067,465.060925 406.993421,465.262421 406.906775,465.463918 L405.639175,464.904603 C405.722612,464.712856 405.80284,464.52111 405.883068,464.329363 C405.905532,464.270864 405.931205,464.209115 405.953668,464.150616 C405.969714,464.108367 405.98576,464.065793 406.005014,464.020619 L407.28866,464.543859 C407.269405,464.589683 407.25336,464.635182 407.234105,464.680682 Z M407.351728,464.226804 L406.051546,463.703483 C406.167981,463.396824 406.281181,463.090165 406.391146,462.783505 L407.701031,463.27016 C407.587831,463.590153 407.471397,463.910145 407.351728,464.226804 Z M407.933755,462.579029 C407.910891,462.640577 407.891293,462.705544 407.868429,462.770512 C407.845565,462.846079 407.816168,462.917885 407.793304,462.989691 L406.463918,462.504146 C406.486782,462.435759 406.512912,462.367373 406.535776,462.295567 C406.555374,462.234019 406.578238,462.169052 406.601102,462.104084 C406.659896,461.919441 406.715423,461.734797 406.77095,461.546392 L408.113402,461.997743 C408.051342,462.192645 407.995815,462.387889 407.933755,462.579029 Z M408.240922,461.752577 L406.876289,461.305264 C406.972343,460.974794 407.065085,460.64362 407.151203,460.309278 L408.525773,460.721046 C408.436343,461.066298 408.340289,461.411197 408.240922,461.752577 Z M408.683346,460.309278 L407.28866,459.8996 C407.372475,459.555181 407.45629,459.210761 407.5334,458.865979 L408.938144,459.23614 C408.857682,459.595424 408.770514,459.953982 408.683346,460.309278 Z M409.330151,458.075236 C409.316575,458.14607 409.299605,458.221402 409.286029,458.292611 C409.235119,458.554961 409.180815,458.813563 409.126511,459.072165 L407.701031,458.708248 C407.755335,458.461265 407.809639,458.213906 407.857155,457.9628 C407.870731,457.887843 407.884307,457.816259 407.897883,457.741676 C407.904671,457.703823 407.911459,457.666719 407.918247,457.628866 L409.350515,457.954929 C409.343727,457.996531 409.336939,458.034009 409.330151,458.075236 Z M409.366907,457.628866 L407.907216,457.352843 C407.972782,457.033588 408.034896,456.711008 408.090109,456.391753 L409.556701,456.627868 C409.498037,456.963751 409.432472,457.296309 409.366907,457.628866 Z M409.689029,455.699817 C409.678478,455.768717 409.667927,455.834518 409.657376,455.903074 C409.643308,455.996434 409.625723,456.089106 409.608138,456.185567 L408.113402,455.951304 C408.12747,455.861389 408.145055,455.775263 408.159123,455.685692 C408.169674,455.616791 408.176709,455.548235 408.18726,455.47899 C408.215396,455.303293 408.236498,455.124151 408.261117,454.948454 L409.762887,455.141376 C409.738267,455.327752 409.717165,455.513784 409.689029,455.699817 Z M409.854325,454.948454 L408.319588,454.762044 C408.362618,454.410734 408.398476,454.063009 408.434334,453.71134 L409.969072,453.858317 C409.9368,454.224325 409.897355,454.586389 409.854325,454.948454 Z M409.902016,453.467791 C409.902016,453.480245 409.898823,453.4927 409.898823,453.505155 L408.525773,453.38995 C408.525773,453.374382 408.528966,453.361927 408.528966,453.349472 C408.554511,453.059903 408.576863,452.767221 408.592829,452.474227 L409.969072,452.555493 C409.949913,452.86063 409.927561,453.165767 409.902016,453.467791 Z M409.969072,451.119013 C409.965814,451.184262 409.962556,451.249184 409.962556,451.314759 C409.952782,451.566293 409.93975,451.813911 409.926718,452.061856 L408.525773,451.990082 C408.535547,451.751925 408.548579,451.513767 408.558353,451.27561 C408.558353,451.210688 408.564869,451.145439 408.564869,451.079864 L408.564869,451.030928 L409.969072,451.066815 L409.969072,451.119013 L409.969072,451.119013 Z M409.962406,450.824742 L408.525773,450.801488 C408.529106,450.592539 408.53244,450.38022 408.53244,450.171271 C408.53244,450.049946 408.529106,449.92862 408.529106,449.810665 L409.965739,449.793814 C409.965739,449.92188 409.969072,450.043205 409.969072,450.171271 C409.969072,450.39033 409.965739,450.605683 409.962406,450.824742 Z" id="Shape-Copy-3" fill="#FE6153" fill-rule="nonzero"></path>
    </g>
</svg>