<?xml version="1.0" encoding="UTF-8"?>
<svg viewBox="0 0 1400 1400" version="1.1" xmlns="http://www.w3.org/2000/svg" xmlns:xlink="http://www.w3.org/1999/xlink">
    <title>Rosa dos ventos Grande</title>
    <g id="Rosa-dos-ventos-Grande" stroke="none" stroke-width="1" fill="none" fill-rule="evenodd">
        <path d="M701.599754,23.276713 C697.200739,23.276713 692.859606,23.3345064 688.460591,23.4500933 L687.708128,19 L687.12931,23.4500933 C320.158867,31.1944115 23.8041872,330.275356 21.2573892,697.899296 L19,698.251836 L21.2573892,698.650611 C21.2573892,699.979859 21.1995074,701.309108 21.1995074,702.638357 C21.1995074,1077.2553 326.410099,1382 701.599754,1382 C1076.78941,1382 1382,1077.26108 1382,702.638357 C1382,328.015633 1076.78941,23.276713 701.599754,23.276713 Z M1321.40613,685.554796 L1315.67708,686.77913 L1109.3735,730.756481 L1103.52872,731.975012 L842.596651,787.563219 L788.662589,799 L704,700.182967 L1104.28102,685.096397 L1110.06793,684.864296 L1315.32986,677.083107 L1321.05891,676.914834 L1371,675 L1321.40613,685.554796 Z M1366,690.60925 L1341.11547,691 C1341.11547,689.244455 1341.11547,687.432279 1341.05774,685.682397 C1341.05774,685.172723 1341,684.663049 1341,684.147711 L1351.27714,681.995753 L1365.71132,679 C1365.71132,679.843794 1365.76905,680.698915 1365.82679,681.605002 C1365.82679,682.731949 1365.88453,683.864559 1365.94226,685.002832 C1366,686.871638 1366,688.740444 1366,690.60925 Z M954,959 L780,854.9875 L789.261477,802 L954,959 Z M844,789.179572 L953,766 C943.158923,805.324547 924.397571,841.074135 898.960401,871 L844,789.179572 Z M861,908.225613 C832.209479,930.690604 798.610884,947.176541 762,956 L778.973084,859 L861,908.225613 Z M875.531915,915.831952 L968.08747,971.11521 L963.743499,965.106788 L908.893617,883.762001 C939.06974,849.502442 960.905437,807.738134 971.099291,761.687047 L1083,738 C1065.33452,918.657066 921.056738,1062.91696 740,1081 L759.287234,971.519623 C802.669031,962.223901 842.286052,942.812077 875.531915,915.831952 Z M1087.84307,737.012788 L1102,734 C1086.6874,929.570983 931.018945,1086.28221 736,1103 L738.715819,1087.49658 C923.391538,1069.74946 1070.6814,922.001426 1087.84307,737.012788 Z M1109.17465,733.789959 L1315.8262,690 C1315.94207,694.454097 1316,698.896641 1316,703.402732 C1316,1041.18623 1040.34873,1316 701.607042,1316 L699,1316 L735.324789,1109.52861 C934.966291,1093.23736 1094.40141,933.271133 1109.17465,733.789959 Z M1099,638 L1085.0301,636.151625 C1070.30665,548.700361 1026.2522,471.068592 963.184788,413.768953 L964.807846,411.458484 L962.489191,413.133574 C902.146197,358.606498 824.703122,322.620939 739.144756,314.303249 L737,302 C921.101201,318.288809 1070.01681,458.418773 1099,638 Z M736.338894,296.624474 L700,90 L701.446612,90 C1027.80228,90 1295.48337,345.680453 1314,667 L1104.76204,639.432736 C1076.00339,455.868616 924.051268,312.51422 736.338894,296.624474 Z M905,516.865195 C919.819639,489.981051 937.661323,457.915807 958.06012,421.532982 L958.292585,421.130007 C959.048096,419.805949 959.45491,419.230271 959.45491,419.172703 L959.629259,419 C1021.11623,474.840729 1064.23848,550.139362 1079,635 L964.743487,620.026625 C952.539078,581.283521 931.907816,546.167186 905,516.865195 Z M948,619 L858,607.175883 C860.265978,601.205863 874.326662,574.485676 897.509361,532 C919.588121,557.213191 936.902518,586.657562 948,619 Z M958,416.42582 L867.360341,482 C836.043177,458.485735 799.554904,441.442225 759.929104,432.833809 L740,320 C823.376866,328.435093 898.968017,363.50428 958,416.42582 Z M854,492.184448 L779.866879,546 L763,450 C796.270064,458.101266 827.047771,472.625678 854,492.184448 Z M950,430 C872.186012,569.715503 857.548883,599.193051 855.176858,606 L792,597.698984 L950,430 Z M1365.97,673.51 L1360.03,672.73 L1365.91,672.49 C1365.91,672.79 1365.97,673.15 1365.97,673.51 Z M1365,666.667683 L1340.21333,668 C1339.92444,662.323171 1339.52,656.646341 1339,650.969512 L1363.84444,649 C1364.30667,654.85061 1364.71111,660.759146 1365,666.667683 Z M1363.82391,642.07717 L1364,643.772581 L1338.76087,646 C1338.76087,645.467992 1338.70217,644.889214 1338.64348,644.304589 C1338.17391,639.154049 1337.64565,634.009354 1337,628.923122 L1362.12174,626 C1362.76739,631.378544 1363.35435,636.698626 1363.82391,642.07717 Z M1360.14989,606.315538 C1360.84368,610.867378 1361.42184,615.475414 1362,620.021635 L1337.25482,623 C1336.67666,618.616746 1336.0985,614.233493 1335.46253,609.906434 C1335.28908,608.838719 1335.17345,607.714808 1335,606.647092 L1359.62955,603 C1359.803,604.067716 1359.97645,605.191627 1360.14989,606.315538 Z M1357,597.130081 L1332.89286,601 C1331.98529,595.479675 1331.02101,589.95935 1330,584.495935 L1354.05042,580 C1355.12815,585.685366 1356.09244,591.376423 1357,597.130081 Z M1351.97521,562.582351 C1352.20661,563.786855 1352.49587,564.931134 1352.72727,566.135638 C1353.19008,568.424195 1353.59504,570.712752 1354,573.001309 L1329.52893,578 C1329.12397,575.837916 1328.77686,573.663786 1328.31405,571.495679 C1328.08264,570.291176 1327.85124,569.146897 1327.61983,567.942393 C1327.09917,565.473161 1326.52066,563.064153 1326,560.655145 L1350.29752,555 C1350.87603,557.523435 1351.45455,560.052893 1351.97521,562.582351 Z M1348,550.241266 L1324.04888,556 C1322.7943,550.410127 1321.42566,544.878481 1320,539.352658 L1343.78004,533 C1345.26273,538.706329 1346.63136,544.470886 1348,550.241266 Z M1343.3012,524.758824 C1343.53414,525.588235 1343.76707,526.464706 1344,527.294118 L1319.7751,534 C1319.54217,533.117647 1319.30924,532.294118 1319.07631,531.470588 C1317.79518,526.764706 1316.39759,522.052941 1315,517.352941 L1339.0502,510 C1340.50602,514.876471 1341.96185,519.817647 1343.3012,524.758824 Z M1332.37849,490.348449 C1333.99602,495.102625 1335.49801,499.856802 1337,504.668258 L1313.25697,512 C1311.81275,507.411933 1310.31076,502.829594 1308.80876,498.304535 C1308.51992,497.559905 1308.23108,496.757995 1308,496.019093 L1331.51195,488 C1331.8008,488.74463 1332.08964,489.552267 1332.37849,490.348449 Z M1329,481.686047 L1305.82283,490 C1303.93898,484.593023 1301.99803,479.302326 1300,473.953488 L1322.94882,465 C1325.06102,470.523256 1327.05906,476.104651 1329,481.686047 Z M1316.0274,450.145455 C1316.42466,451.268182 1316.87867,452.331818 1317.27593,453.454545 C1318.2407,455.877273 1319.09198,458.3 1320,460.722727 L1297.24266,470 C1296.39139,467.695455 1295.54012,465.390909 1294.63209,463.086364 C1294.23483,461.963636 1293.78082,460.9 1293.38356,459.777273 C1292.58904,457.827273 1291.79452,455.877273 1291,453.927273 L1313.53033,444 C1314.32485,446.068182 1315.23288,448.077273 1316.0274,450.145455 Z M1311,439.097996 L1288.74419,449 C1286.55233,443.846325 1284.30426,438.69265 1282,433.538976 L1303.9186,423 C1306.33527,428.327394 1308.69574,433.712695 1311,439.097996 Z M1300.43931,414.262009 C1300.95954,415.227074 1301.42197,416.305677 1301.9422,417.327511 C1302,417.384279 1302,417.441048 1302,417.497817 L1279.57225,428 C1279.57225,428 1279.51445,427.943231 1279.51445,427.886463 C1278.99422,426.864629 1278.53179,425.842795 1278.01156,424.820961 C1276.04624,420.90393 1274.02312,416.9869 1272,413.126638 L1294.19653,402 C1296.27746,406.087336 1298.41618,410.174672 1300.43931,414.262009 Z M1284.29885,382.098501 C1286.94253,386.8394 1289.47126,391.638116 1292,396.494647 L1270.04598,408 C1267.63218,403.374732 1265.16092,398.807281 1262.68966,394.239829 C1262.45977,393.835118 1262.22989,393.430407 1262,393.083512 L1283.66667,381 C1283.89655,381.346895 1284.12644,381.751606 1284.29885,382.098501 Z M1280,375.918067 L1258.48948,388 C1255.73614,383.178571 1252.86807,378.357143 1250,373.592437 L1271.16635,361 C1274.14914,365.934874 1277.13193,370.926471 1280,375.918067 Z M1261.57553,344.405797 C1262.2065,345.391304 1262.78011,346.376812 1263.41109,347.362319 C1264.95985,349.855072 1266.5086,352.405797 1268,354.898551 L1247.00574,368 C1245.51434,365.565217 1244.08031,363.130435 1242.58891,360.753623 C1241.95793,359.768116 1241.38432,358.782609 1240.75335,357.797101 C1239.83556,356.405797 1238.91778,355.014493 1238,353.623188 L1258.70746,340 C1259.62524,341.449275 1260.65774,342.898551 1261.57553,344.405797 Z M1256,335.4 L1235.50382,349 C1232.35496,344.371429 1229.20611,339.742857 1226,335.171429 L1246.15267,321 C1249.47328,325.742857 1252.79389,330.542857 1256,335.4 Z M1237.3626,310.451613 C1238.62214,312.201613 1239.93893,313.951613 1241.19847,315.701613 C1241.48473,316.096774 1241.71374,316.435484 1242,316.830645 L1221.96183,331 L1221.27481,329.983871 C1220.01527,328.233871 1218.69847,326.540323 1217.43893,324.790323 C1215.66412,322.419355 1213.77481,320.048387 1212,317.677419 L1231.6374,303 C1233.52672,305.483871 1235.47328,307.967742 1237.3626,310.451613 Z M1227,297.836978 L1207.43977,313 C1203.99809,308.502982 1200.55641,304.063618 1197,299.681909 L1216.1587,284 C1219.82983,288.554672 1223.44359,293.166998 1227,297.836978 Z M1212.65583,278.812623 C1212.77055,278.984221 1212.88528,279.098619 1213,279.270217 L1193.95602,295 C1193.8413,294.828402 1193.72658,294.714004 1193.61185,294.542406 C1190.11281,290.366864 1186.61377,286.248521 1183,282.187377 L1201.64245,266 C1205.37094,270.232742 1209.04207,274.465483 1212.65583,278.812623 Z M1186.11538,249 C1186.40385,249.226563 1186.63462,249.509766 1186.86538,249.736328 C1187.67308,250.585937 1188.42308,251.435547 1189.23077,252.228516 C1192.17308,255.400391 1195.11538,258.572266 1198,261.800781 L1179.42308,278 C1176.65385,274.941406 1173.88462,271.882813 1171.05769,268.880859 C1170.25,268.03125 1169.5,267.238281 1168.69231,266.388672 C1168.46154,266.162109 1168.23077,265.935547 1168,265.708984 L1186.11538,249 Z M1182,244.251938 L1163.89555,261 C1160.00774,257.00969 1156.00387,253.131783 1152,249.253876 L1169.58221,232 C1173.76015,236.046512 1177.88008,240.149225 1182,244.251938 Z M1158.68093,220.83815 C1159.47082,221.647399 1160.31712,222.398844 1161.107,223.208092 C1162.40467,224.479769 1163.70233,225.809249 1165,227.138728 L1148.07393,245 C1146.83268,243.728324 1145.59144,242.456647 1144.35019,241.242775 C1143.56031,240.433526 1142.71401,239.624277 1141.92412,238.872832 C1139.94942,236.965318 1137.97471,235.115607 1136,233.265896 L1152.53113,215 C1154.56226,216.965318 1156.64981,218.872832 1158.68093,220.83815 Z M1147,211.631478 L1130.56667,230 C1126.41569,226.199616 1122.26471,222.456814 1118,218.771593 L1133.97843,200 C1138.41373,203.800384 1142.73529,207.715931 1147,211.631478 Z M1128.85149,195.152964 C1129.25347,195.497132 1129.59802,195.783939 1130,196.128107 L1114.03564,215 C1113.63366,214.655832 1113.28911,214.369025 1112.88713,214.024857 C1108.98218,210.755258 1105.0198,207.48566 1101,204.273423 L1116.44752,185 C1120.6396,188.32696 1124.77426,191.711281 1128.85149,195.152964 Z M1098.11022,170.114286 C1099.04008,170.8 1099.91182,171.485714 1100.84168,172.171429 C1104.61924,174.971429 1108.33868,177.828571 1112,180.685714 L1096.54108,200 C1092.99599,197.257143 1089.4509,194.514286 1085.8477,191.828571 C1084.91784,191.142857 1083.98798,190.457143 1083.05812,189.771429 L1083,189.714286 L1097.93587,170 C1097.99399,170.057143 1098.0521,170.057143 1098.11022,170.114286 Z M1093,167.114286 L1078.60324,187 C1074.12551,183.685714 1069.59109,180.428571 1065,177.285714 L1078.88664,157 C1083.64777,160.314286 1088.35223,163.685714 1093,167.114286 Z M1065.85246,147.171429 C1066.77049,147.742857 1067.7459,148.371429 1068.72131,149 C1070.5,150.2 1072.22131,151.4 1074,152.6 L1060.11475,173 C1058.45082,171.857143 1056.78689,170.714286 1055.06557,169.571429 C1054.14754,168.942857 1053.17213,168.314286 1052.19672,167.685714 C1050.13115,166.371429 1048.06557,165.057143 1046,163.742857 L1059.31148,143 C1061.4918,144.428571 1063.67213,145.742857 1065.85246,147.171429 Z M1054,140.103053 L1040.64167,161 C1035.8,158.022901 1030.9,155.103053 1026,152.240458 L1038.775,131 C1043.90833,133.977099 1048.98333,137.01145 1054,140.103053 Z M1032.00211,127.413793 C1032.63002,127.816092 1033.31501,128.218391 1034,128.62069 L1021.67019,150 C1020.9852,149.597701 1020.35729,149.252874 1019.72939,148.850575 C1015.50529,146.436782 1011.2241,144.08046 1007,141.724138 L1018.7019,120 C1023.21142,122.413793 1027.60677,124.885057 1032.00211,127.413793 Z M999.76129,109.266795 C1004.17419,111.512476 1008.5871,113.815739 1013,116.119002 L1001.2129,138 C997.032258,135.8119 992.793548,133.6238 988.554839,131.493282 C987.683871,131.090211 986.870968,130.629559 986,130.226488 L997.148387,108 C998.019355,108.403071 998.890323,108.863724 999.76129,109.266795 Z M992,105.586873 L981.257143,128 C976.171429,125.509653 971.142857,123.07722 966,120.702703 L976.171429,98 C981.485714,100.432432 986.742857,102.980695 992,105.586873 Z M961.18427,91.5953307 C962.294382,92.0466926 963.346067,92.4980545 964.397753,92.9494163 C966.617978,93.8521401 968.779775,94.8677043 971,95.8268482 L960.775281,118 C958.730337,117.097276 956.626966,116.194553 954.523596,115.291829 C953.413483,114.896887 952.361798,114.389105 951.310112,113.937743 C949.206742,113.09144 947.103371,112.301556 945,111.455253 L954.582022,89 C956.74382,89.8463035 958.964045,90.692607 961.18427,91.5953307 Z M949,86.254902 L939.825688,109 C934.550459,106.896078 929.332569,104.905882 924,102.915686 L932.600917,80 C938.105505,81.9901961 943.552752,84.0941176 949,86.254902 Z M924.176471,76.7663366 C925.117647,77.0534653 926.058824,77.3980198 927,77.7425743 L918.411765,101 C917.529412,100.655446 916.588235,100.368317 915.647059,100.023762 C911.117647,98.4732673 906.529412,96.980198 902,95.4871287 L909.941176,72 C914.705882,73.550495 919.470588,75.1009901 924.176471,76.7663366 Z M889.181598,65.6367265 C894.179177,67.0838323 899.060533,68.6467066 904,70.2095808 L896.329298,94 C891.680387,92.49501 886.973366,90.99002 882.208232,89.6007984 C881.452785,89.3692615 880.755448,89.1956088 880,88.9640719 L887.031477,65 C887.728814,65.2315369 888.484262,65.4630739 889.181598,65.6367265 Z M883,64.4777328 L875.997506,88 C870.371571,86.5263158 864.685786,85.0526316 859,83.6923077 L865.34414,60 C871.209476,61.417004 877.134663,62.9473684 883,64.4777328 Z M841.335052,54 C843.469072,54.4032922 845.603093,54.8065844 847.737113,55.2674897 C848.863402,55.5555556 850.048969,55.7860082 851.175258,56.0164609 C853.783505,56.5925926 856.391753,57.2839506 859,57.9176955 L853.012887,82 C850.523196,81.4238683 848.033505,80.7901235 845.543814,80.2139918 C844.358247,79.9835391 843.231959,79.7530864 842.046392,79.5226337 C840.030928,79.0617284 838.015464,78.7160494 836,78.255144 L841.335052,54 Z M819.18883,50 C824.829787,51.05 830.414894,52.1583333 836,53.3833333 L831.140957,78 C825.779255,76.8333333 820.417553,75.7833333 815,74.7333333 L819.18883,50 Z M794.480663,46 C799.063536,46.6305732 803.70442,47.2611465 808.287293,48.0063694 C809.389503,48.1783439 810.549724,48.4076433 811.709945,48.5796178 C811.825967,48.5796178 811.883978,48.6369427 812,48.6369427 L807.823204,73 C807.765193,73 807.649171,72.9426752 807.59116,72.9426752 C806.48895,72.7707006 805.328729,72.5414013 804.168508,72.3694268 C799.81768,71.6815287 795.40884,71.0509554 791,70.4203822 L794.480663,46 Z M772.636103,43 C773.037249,43.0581897 773.495702,43.1163793 773.954155,43.174569 C779.340974,43.7564655 784.670487,44.4547414 790,45.1530172 L786.733524,70 C781.633238,69.3599138 776.532951,68.6616379 771.375358,68.137931 C770.916905,68.0797414 770.458453,68.0215517 770,67.9633621 L772.636103,43 Z M748.758209,40 C754.543284,40.4 760.271642,40.9142857 766,41.4285714 L763.674627,66 C758.116418,65.4285714 752.614925,64.9714286 747,64.5714286 L748.758209,40 Z M725.7875,39 C727.5875,39.058427 729.33125,39.1168539 731.075,39.1752809 C732.2,39.2337079 733.325,39.2921348 734.45,39.3505618 C737.31875,39.4674157 740.13125,39.7011236 743,39.8764045 L741.48125,65 C738.78125,64.8247191 736.08125,64.5910112 733.38125,64.4741573 C732.25625,64.4157303 731.13125,64.4157303 730.00625,64.3573034 C728.31875,64.2988764 726.6875,64.2404494 725,64.1820225 L725.7875,39 Z M701,39 L701.235294,39 C707.176471,39 713.117647,39.1146789 719,39.2866972 L718.294118,64 C712.647059,63.8279817 706.941176,63.7133028 701.235294,63.7133028 L701,63.7133028 L701,39 Z M702.033645,70 C1040.445,70 1317.75832,336.255778 1335,670 L1320.41979,668.09322 C1302.25238,343.247304 1031.82416,84.5030817 702.033645,84.5030817 C701.223633,84.5030817 700.355763,84.5030817 699.545751,84.5608629 L697,70.0577812 C698.677882,70.0577812 700.355763,70 702.033645,70 Z M696.1,39 L696.34,64 C696.28,64 696.28,64 696.22,64 L695.08,57.8372093 L691.66,39 L696.1,39 Z M685,39 L681.808,63.8850575 C680.8,63.8850575 679.848,63.9425287 678.84,64 L678,39.2298851 C680.352,39.1724138 682.648,39.0574713 685,39 Z M497.890646,542 C517.416094,579.226316 534.427785,611.763158 537,616.678421 L452,630 C461.587345,597.636842 477.31293,567.878947 497.890646,542 Z M434.528393,632.213973 L322,650 C333.680748,562.565507 374.968144,484.439804 435.569252,426 C444.127424,441.129673 467.141967,484.844032 489,526.652746 C463.730263,557.027584 444.936981,592.888373 434.528393,632.213973 Z M450,436 C494.792284,467.882818 611.5763,544.667752 617.247675,548.37102 L618,547.277399 L610.592491,603 L450,436 Z M544,496.098064 C569.704545,476.675203 599.131016,461.964397 631,453 L618.787433,545 C613.611631,541.672829 580.695856,520.232979 544,496.098064 Z M530.223451,487 C490.558075,460.486287 450.137721,433.044304 438,423.471519 C494.565265,369.979958 567.275442,333.429325 648,322 L632.958518,435.771097 C594.977323,445.517932 560.13219,463.271097 530.223451,487 Z M315.9501,650.806484 L302,653 C324.285429,471.573106 468.417166,327.205094 650,304 L648.379242,316.468409 C475.305389,340.135296 338.293413,477.807311 315.9501,650.806484 Z M296.455285,655.011887 L88,688 C95.9974505,364.370342 356.030496,102.097764 679,90 L651.588449,298.208886 C465.850559,321.246733 318.419298,469.198335 296.455285,655.011887 Z M82.5787089,688.687151 L68,691 C74.3058701,354.13352 345.053322,80.8125698 681,70 L679.090883,84.6287709 C352.805493,96.3086592 90.0416195,361.534637 82.5787089,688.687151 Z M654.409231,39.9888143 C660.196923,39.5816555 666.043077,39.2908277 671.830769,39 L673,64.0693512 C667.387692,64.3020134 661.775385,64.5928412 656.221538,65 L655.812308,65 L654,39.9888143 L654.409231,39.9888143 Z M648.094395,42 L650,66.463895 C644.507375,66.9190372 639.014749,67.4310722 633.578171,68 L631,43.6498906 C636.660767,43.02407 642.377581,42.4551422 648.094395,42 Z M612.318182,44.6223176 C613.454545,44.5064378 614.590909,44.2746781 615.727273,44.1587983 C618.852273,43.7532189 622.034091,43.4055794 625.215909,43 L628,67.7982833 C624.988636,68.1459227 621.920455,68.4935622 618.909091,68.8991416 C617.772727,69.0729614 616.693182,69.2467811 615.556818,69.3626609 C614.193182,69.5364807 612.829545,69.7682403 611.465909,70 L608,45.2596567 C609.420455,45.0858369 610.897727,44.7961373 612.318182,44.6223176 Z M601.270492,46 L605,70.2658228 C599.377049,71.0632911 593.868852,71.9746835 588.303279,73 L584,48.7911392 C589.737705,47.7658228 595.47541,46.8544304 601.270492,46 Z M572.248021,52.1014493 C573.300792,51.8695652 574.408971,51.6376812 575.51715,51.4057971 C576.182058,51.2898551 576.902375,51.173913 577.567282,51 L582,75.5797101 C581.335092,75.6956522 580.725594,75.8115942 580.060686,75.9275362 C578.952507,76.1594203 577.844327,76.3913043 576.791557,76.6231884 C573.189974,77.3768116 569.588391,78.1884058 565.986807,79 L561,54.5362319 C564.76781,53.7246377 568.480211,52.8550725 572.248021,52.1014493 Z M554.42602,55 L560,79.1063395 C554.367347,80.3087935 548.734694,81.6257669 543.160714,83 L537,59.1226994 C542.75,57.6339468 548.558673,56.2597137 554.42602,55 Z M532.524752,61 L539,84.5403226 C533.415842,85.9516129 527.772277,87.4758065 522.188119,89 L515,65.6290323 C520.821782,64.0483871 526.643564,62.4677419 532.524752,61 Z M492.345324,73.22 C494.47482,72.524 496.546763,71.828 498.618705,71.132 C502.014388,70.03 505.410072,69.044 508.805755,68 L516,91.954 C512.719424,92.94 509.496403,93.868 506.273381,94.912 C504.201439,95.608 502.129496,96.246 500.057554,96.942 C500,96.942 499.884892,97 499.827338,97 L492,73.336 C492.115108,73.278 492.230216,73.278 492.345324,73.22 Z M486.861827,74 L495,97.3833992 C489.555035,99.1600791 484.168618,101.051383 478.782201,103 L470,79.9031621 C475.620609,77.8399209 481.241218,75.8913043 486.861827,74 Z M455.208238,85.4050881 C456.295195,85.0078278 457.324943,84.553816 458.411899,84.1565558 C460.356979,83.4187867 462.302059,82.6810176 464.24714,82 L473,104.81409 C471.169336,105.551859 469.281465,106.176125 467.450801,106.913894 C466.363844,107.311155 465.334096,107.708415 464.24714,108.162427 C461.95881,109.07045 459.670481,110.035225 457.382151,111 L448,88.4129159 C450.402746,87.3913894 452.805492,86.369863 455.208238,85.4050881 Z M443.228188,91 L453,113.35534 C447.765101,115.495146 442.588367,117.691262 437.353468,120 L427,97.8699029 C432.409396,95.5048544 437.760626,93.1961165 443.228188,91 Z M419.513158,100.982659 C420.197368,100.693642 420.881579,100.346821 421.622807,100 L432,122.601156 C431.315789,122.890173 430.631579,123.236994 429.890351,123.583815 C425.557018,125.66474 421.223684,127.803468 416.947368,130 L406,107.687861 C410.447368,105.433526 414.951754,103.179191 419.513158,100.982659 Z M386.375536,117.865385 C390.77897,115.5 395.182403,113.25 399.643777,111 L411,133.153846 C406.712446,135.288462 402.424893,137.480769 398.253219,139.730769 C397.44206,140.192308 396.688841,140.596154 395.935622,141 L384,119.192308 C384.753219,118.730769 385.564378,118.326923 386.375536,117.865385 Z M379.069767,122 L391,143.625239 C386.147992,146.321224 381.295983,149.131931 376.501057,152 L364,130.718929 C368.966173,127.736138 374.046512,124.868069 379.069767,122 Z M349.634855,139.667939 C350.622407,139.038168 351.609959,138.465649 352.59751,137.835878 C354.746888,136.519084 356.954357,135.259542 359.103734,134 L372,155.125954 C369.966805,156.385496 367.875519,157.530534 365.842324,158.790076 C364.854772,159.419847 363.86722,159.992366 362.879668,160.622137 C361.078838,161.709924 359.3361,162.912214 357.53527,164 L344,143.217557 C345.917012,142.072519 347.775934,140.812977 349.634855,139.667939 Z M339.516393,147 L353,167.628571 C348.295082,170.714286 343.647541,173.8 339,177 L325,156.714286 C329.762295,153.4 334.639344,150.2 339.516393,147 Z M316.143434,161.942857 C317.048485,161.314286 318.010101,160.685714 318.915152,160 C318.915152,160 318.915152,160 318.971717,160 L333,180.114286 C332.038384,180.742857 331.133333,181.428571 330.171717,182.057143 C326.608081,184.628571 323.044444,187.314286 319.537374,190 L305,170.228571 C308.676768,167.428571 312.410101,164.628571 316.143434,161.942857 Z M287.213147,183.790076 C291.430279,180.469466 295.64741,177.206107 299.922311,174 L315,193.637405 C310.898406,196.729008 306.854582,199.877863 302.810757,203.026718 C302.406375,203.312977 302.001992,203.656489 301.59761,204 L286,184.706107 C286.404382,184.419847 286.808765,184.076336 287.213147,183.790076 Z M282.411067,188 L298,207.1587 C293.644269,210.715105 289.288538,214.328872 285.047431,218 L269,199.24283 C273.413043,195.456979 277.883399,191.671128 282.411067,188 Z M255.021484,210.903846 C255.871094,210.153846 256.720703,209.403846 257.570313,208.653846 C259.666016,206.75 261.818359,204.903846 263.914063,203 L280,221.692308 C277.960937,223.480769 275.921875,225.211538 273.939453,227.057692 C273.089844,227.865385 272.240234,228.615385 271.390625,229.365385 C270.087891,230.576923 268.841797,231.788462 267.595703,233 L251,214.711538 C252.359375,213.442308 253.662109,212.173077 255.021484,210.903846 Z M246.38835,219 L263,237.185328 C259.001942,241.065637 255.003883,245.003861 251.118447,249 L234,231.277992 C238.054369,227.166023 242.221359,223.054054 246.38835,219 Z M227.092664,239.147287 C227.903475,238.360465 228.714286,237.573643 229.525097,236.73062 L230.277992,236 L248,253.085271 L247.305019,253.75969 C246.436293,254.546512 245.683398,255.333333 244.872587,256.176357 C241.918919,259.042636 239.081081,262.021318 236.185328,265 L218,248.420543 C221.011583,245.329457 224.023166,242.182171 227.092664,239.147287 Z M202.403071,265.452941 C206.145873,261.245098 209.946257,257.094118 213.804223,253 L232,269.603922 C228.314779,273.584314 224.629559,277.564706 221.059501,281.545098 L220.65643,282 L202,265.907843 C202.172745,265.737255 202.287908,265.623529 202.403071,265.452941 Z M198.300191,271 L217,287.104743 C213.328872,291.34585 209.715105,295.644269 206.1587,300 L187,284.411067 C190.728489,279.883399 194.456979,275.413043 198.300191,271 Z M175.8,297.2251 C176.485714,296.300797 177.171429,295.376494 177.857143,294.452191 C179.8,291.968127 181.8,289.484064 183.742857,287 L203,302.59761 C201.114286,304.966135 199.171429,307.276892 197.342857,309.703187 C196.657143,310.62749 195.971429,311.551793 195.285714,312.418327 C194.371429,313.573705 193.514286,314.786853 192.6,316 L173,300.98008 C173.971429,299.709163 174.885714,298.438247 175.8,297.2251 Z M168.26616,307 L188,321.537374 C184.634981,326.006061 181.326996,330.474747 178.13308,335 L158,321.028283 C161.365019,316.276768 164.787072,311.638384 168.26616,307 Z M151.685714,330.408998 C152.314286,329.435583 153,328.519427 153.628571,327.546012 C153.971429,327.030675 154.371429,326.515337 154.714286,326 L175,340.02863 C174.657143,340.486708 174.314286,341.002045 173.971429,341.460123 C173.342857,342.433538 172.657143,343.349693 172.028571,344.323108 C169.857143,347.529652 167.742857,350.793456 165.628571,354 L145,340.543967 C147.228571,337.165644 149.4,333.787321 151.685714,330.408998 Z M141.257143,345 L162,358.449275 C158.971429,363.26087 156,368.130435 153.085714,373 L132,360.072464 C135.028571,354.971014 138.114286,349.985507 141.257143,345 Z M129.776291,365 L151,377.474684 C148.131931,382.259494 145.321224,387.101266 142.567878,392 L121,380.094937 C123.868069,375.025316 126.793499,370.012658 129.776291,365 Z M110.724138,397.167382 C111.241379,396.124464 111.816092,395.081545 112.333333,394.096567 C113.942529,391.025751 115.609195,388.012876 117.218391,385 L139,396.935622 C137.390805,399.832618 135.83908,402.729614 134.287356,405.626609 C133.770115,406.611588 133.252874,407.654506 132.678161,408.697425 C132.103448,409.798283 131.586207,410.899142 131.011494,412 L109,400.643777 C109.574713,399.484979 110.149425,398.32618 110.724138,397.167382 Z M106.702703,407 L129,417.923414 C126.509653,422.929978 124.019305,427.936543 121.586873,433 L99,422.702407 C101.490347,417.411379 104.096525,412.177243 106.702703,407 Z M94.4571984,433.616927 C94.9085603,432.516704 95.3035019,431.474388 95.811284,430.432071 C96.1498054,429.621381 96.5447471,428.81069 96.9396887,428 L119,438.30735 C118.661479,439.11804 118.322957,439.870824 117.984436,440.623608 C117.533074,441.665924 117.081712,442.708241 116.63035,443.750557 C115.163424,447.109131 113.752918,450.583519 112.342412,454 L90,444.271715 C91.4669261,440.681514 92.9338521,437.14922 94.4571984,433.616927 Z M87.3561644,450 L110,459.360731 C107.843444,464.554795 105.800391,469.748858 103.81409,475 L81,466.267123 C83.0430528,460.787671 85.1428571,455.365297 87.3561644,450 Z M77.8799213,472 L101,480.723653 C99.0019685,486.11007 97.1181102,491.555035 95.2913386,497 L72,488.861827 C73.8838583,483.241218 75.8248031,477.562061 77.8799213,472 Z M65.9243028,508.615385 C66.2709163,507.519231 66.6175299,506.423077 66.9641434,505.326923 C68.061753,501.865385 69.2171315,498.403846 70.37251,495 L94,502.794231 C92.9023904,506.076923 91.8047809,509.371154 90.7649402,512.659615 C90.4183267,513.75 90.0717131,514.851923 89.7250996,515.942308 C89.436255,516.986538 89.1474104,517.967308 88.8585657,519 L65,511.846154 C65.2888446,510.807692 65.5776892,509.711538 65.9243028,508.615385 Z M63.5818182,516 L87,523.128713 C85.4161616,528.706931 83.9454545,534.356436 82.5313131,540 L59,533.459406 C60.4707071,527.584158 61.9979798,521.762376 63.5818182,516 Z M55.404908,546.628411 C55.6912065,545.519765 55.9775051,544.340729 56.206544,543.226218 C56.4928425,542.117572 56.7791411,541.055853 57.0654397,540 L81,546.223667 C80.7137014,547.220862 80.4274029,548.276715 80.198364,549.27391 C79.9120654,550.388421 79.6257669,551.502933 79.396728,552.676103 C78.595092,556.078296 77.8507157,559.539148 77.1063395,563 L53,557.427442 C53.801636,553.843407 54.5460123,550.20658 55.404908,546.628411 Z M51.4854772,563 L76,568 C74.780083,573.333333 73.6182573,578.666667 72.5726141,584 L48,579.611111 C49.0456432,574.055556 50.2655602,568.5 51.4854772,563 Z M47.8481013,585 L72,589.360656 C71.0316456,594.931967 70.1202532,600.440164 69.2658228,606 L45,602.327869 C45.8544304,596.532787 46.8227848,590.795082 47.8481013,585 Z M42.2317597,623.835227 C42.4055794,622.698864 42.5214592,621.5625 42.6373391,620.477273 C43.1008584,616.613636 43.6802575,612.806818 44.2596567,609 L69,612.465909 C68.4785408,616.102273 67.8991416,619.732955 67.4356223,623.375 C67.3197425,624.505682 67.2038627,625.642045 67.0300429,626.784091 C66.9141631,627.522727 66.8562232,628.261364 66.7982833,629 L42,626.278409 C42.0579399,625.426136 42.1158798,624.630682 42.2317597,623.835227 Z M40.5929978,632 L65,634.537092 C64.4310722,640.005935 63.9190372,645.531157 63.463895,651 L39,649.139466 C39.4551422,643.388724 40.02407,637.694362 40.5929978,632 Z M37.4653244,662.796976 C37.5234899,661.624499 37.639821,660.457883 37.6979866,659.279543 C37.8143177,657.87257 37.9306488,656.465597 38.0469799,655 L63,656.823203 C62.9418345,658.16569 62.7673378,659.519901 62.7091723,660.862388 C62.6510067,662.034866 62.5346756,663.207343 62.4765101,664.385683 C62.3020134,667.609997 62.1275168,670.775687 62.0111857,674 L37,672.94477 C37.1163311,669.538723 37.2908277,666.138537 37.4653244,662.796976 Z M37.3432494,678 L62,678.961131 C61.8855835,682.925795 61.771167,686.890459 61.7139588,690.915194 L37,695 C37.0572082,689.353357 37.1716247,683.706714 37.3432494,678 Z M35,698.51 L29,698.45 L35,697.49 L35,698.51 Z M37.0572082,705.352941 C37.0572082,704.582353 37.0572082,703.817647 37,703 L52.3318078,703 L61.7139588,704.588235 L61.7139588,705.294118 C61.7139588,710.352941 61.8283753,715.352941 62,720.358824 L37.3432494,721 C37.1716247,715.823529 37.0572082,710.588235 37.0572082,705.352941 Z M37.7011236,742.308411 C37.4089888,737.536449 37.2337079,732.719626 37,727.897196 L62.1820225,727 C62.3573034,731.598131 62.5325843,736.196262 62.8247191,740.794393 C62.8831461,741.691589 62.941573,742.588785 63,743.485981 L37.8764045,745 C37.8179775,744.102804 37.7595506,743.205607 37.7011236,742.308411 Z M39,751.763354 L63.6255507,750 C64.0264317,755.55655 64.4845815,761.113101 65,766.612951 L40.4317181,769 C39.9162996,763.273351 39.4008811,757.490003 39,751.763354 Z M41.1637931,784.237822 C41.0474138,783.097421 40.9310345,781.951289 40.7564655,780.856734 C40.4655172,778.449857 40.2327586,776.04298 40,773.636103 L64.9633621,771 C65.1961207,773.292264 65.3706897,775.584527 65.6616379,777.876791 C65.8362069,779.022923 65.9525862,780.163324 66.0689655,781.25788 C66.3599138,783.43553 66.7090517,785.555874 67,787.733524 L42.0948276,791 C41.8038793,788.765043 41.4547414,786.530086 41.1637931,784.237822 Z M44,797.528926 L68.3742072,794 C69.1733615,799.617355 70.0295983,805.22314 71,810.834711 L46.7399577,815 C45.769556,809.214876 44.8562368,803.371901 44,797.528926 Z M533,900.906404 L618.612522,859 L631,953 C594.474306,942.754926 561.190195,924.753695 533,900.906404 Z M633.498618,970.170263 L648,1080 C557.294147,1067.2586 476.698819,1022.75017 418,958.068813 L518.354182,909 C550.823411,937.826703 590.110023,959.158463 633.498618,970.170263 Z M429,944 L549.027805,783 L608,792.594073 L429,944 Z M491.884615,856 C472.730769,829.89391 458.307692,800.162934 450,768 L546,783.496529 L491.884615,856 Z M481,869.369511 L416.007215,957 C364.924964,899.816901 330.63925,827.143331 321,747 L432.168831,765.030655 C441.05772,803.487158 457.911977,838.922121 481,869.369511 Z M647.921244,1085.36033 L650,1101 C465.79914,1077.79442 319.997518,929.425315 301,744 L315.262574,746.308438 C335.64593,921.634336 473.478987,1061.64113 647.921244,1085.36033 Z M652.532498,1106.44441 L680,1314 C353.750979,1302.33185 91.5348473,1036.0083 88,709 L295.628818,742.48602 C314.346124,931.855234 463.736883,1083.52381 652.532498,1106.44441 Z M680.090832,1321.38566 L682,1336 C342.804485,1325.59667 69.8513144,1047.75671 68,707 L82.5212475,709.368332 C85.587487,1040.42066 350.556864,1310.12164 680.090832,1321.38566 Z M47.5821206,823.377926 C47.4074844,822.316755 47.1746362,821.311436 47,820.306117 L71.6819127,816 C71.8565489,817.010904 72.0893971,818.010638 72.2640333,819.015957 C73.1372141,823.428191 74.0686071,827.784574 75,832.146543 L50.4345114,837 C49.4449064,832.481649 48.4553015,827.957713 47.5821206,823.377926 Z M55.5,859.167095 C54.295082,853.958098 53.0901639,848.695887 52,843.37455 L76.1557377,838 C77.2459016,843.025707 78.3360656,848.045501 79.5409836,853.077121 C79.6557377,853.66838 79.8278689,854.318766 80,854.910026 L55.9016393,861 C55.7868852,860.40874 55.6721311,859.758355 55.5,859.167095 Z M57,866.348542 L80.6923077,860 C82.0526316,865.684368 83.4696356,871.368736 85,876.933433 L61.534413,884 C59.9473684,878.136126 58.417004,872.278235 57,866.348542 Z M66.364,900.305085 C66.016,899.200969 65.668,898.096852 65.32,896.992736 C64.508,894.319613 63.754,891.7046 63,889.031477 L87.012,882 C87.766,884.498789 88.462,887.05569 89.216,889.554479 C89.564,890.716707 89.912,891.826634 90.26,892.924939 C90.84,894.732203 91.42,896.527845 92,898.271186 L68.22,906 C67.64,904.140436 66.944,902.22276 66.364,900.305085 Z M71,911.994118 L94.4407115,904 C96.2173913,909.470588 98.0513834,914.882353 100,920.294118 L76.7885375,929 C74.7826087,923.347059 72.8339921,917.7 71,911.994118 Z M80.4755382,937.528736 C80.0782779,936.436782 79.6242661,935.344828 79.2270059,934.304598 C79.1702544,934.08046 79.0567515,933.850575 79,933.62069 L101.927593,925 C102.041096,925.166667 102.097847,925.396552 102.154599,925.574713 C102.551859,926.609195 102.949119,927.701149 103.34638,928.793103 C104.821918,932.816092 106.410959,936.787356 108,940.747126 L85.3561644,950 C83.7103718,945.862069 82.0645793,941.724138 80.4755382,937.528736 Z M94.4319066,972.174324 C92.2315175,967.021171 90.0875486,961.809459 88,956.662162 L110.455253,947 C112.429961,951.983333 114.51751,956.954955 116.605058,961.873874 C116.717899,962.166667 116.830739,962.465315 117,962.752252 L94.770428,973 C94.6575875,972.701351 94.5447471,972.467117 94.4319066,972.174324 Z M97,977.251101 L119.746615,967 C122.125725,972.096916 124.504836,977.193833 127,982.176211 L104.54352,993 C101.990329,987.788546 99.4371373,982.519824 97,977.251101 Z M112.769231,1009.69304 C112.25,1008.7036 111.673077,1007.65596 111.153846,1006.60832 C109.711538,1003.82044 108.384615,1001.02091 107,998.233024 L129.211538,987 L133.192308,995.031903 C133.769231,996.079543 134.288462,997.06898 134.807692,998.1108 C135.5,999.44945 136.25,1000.7881 137,1002.18495 L115.076923,1014 C114.326923,1012.54495 113.519231,1011.14809 112.769231,1009.69304 Z M117,1019.7839 L138.724138,1008 C141.425287,1012.91949 144.183908,1017.78178 147,1022.64407 L125.563218,1035 C122.632184,1029.9661 119.758621,1024.875 117,1019.7839 Z M132.69084,1044.49271 C132.118321,1043.44315 131.545802,1042.4519 130.973282,1041.46064 C130.629771,1040.93586 130.343511,1040.35277 130,1039.76968 L151.240458,1027 C151.526718,1027.53061 151.812977,1028.05539 152.099237,1028.58017 C152.671756,1029.57143 153.244275,1030.56268 153.874046,1031.55394 C155.877863,1034.93586 157.938931,1038.25948 160,1041.58309 L139.103053,1055 C136.984733,1051.4898 134.80916,1047.99125 132.69084,1044.49271 Z M142,1060.36324 L162.742857,1047 C165.771429,1051.71949 168.857143,1056.4505 172,1061.11237 L151.6,1075 C148.342857,1070.1595 145.142857,1065.319 142,1060.36324 Z M155,1078.94332 L175.285714,1065 C178.428571,1069.59109 181.685714,1074.06883 185,1078.54656 L165.114286,1093 C161.685714,1088.35789 158.314286,1083.64777 155,1078.94332 Z M177.301527,1109.0942 C176.614504,1108.1662 175.927481,1107.2382 175.240458,1106.3102 C173.122137,1103.532 171.061069,1100.6842 169,1097.906 L188.80916,1083 C190.812977,1085.668 192.759542,1088.336 194.763359,1091.004 L196.824427,1093.788 C197.51145,1094.7102 198.255725,1095.586 199,1096.514 L179.591603,1112 C178.847328,1111.0082 178.045802,1110.0802 177.301527,1109.0942 Z M183,1116.44447 L202.273423,1101 C205.829828,1105.36923 209.386233,1109.73273 213,1114.0388 L194.128107,1130 C190.399618,1125.51594 186.671128,1121.03762 183,1116.44447 Z M202.203455,1139.81016 C201.454894,1138.96274 200.648752,1138.10394 199.900192,1137.25652 C199.266795,1136.51716 198.633397,1135.77211 198,1135.03275 L216.829175,1119 C217.40499,1119.6768 217.980806,1120.42185 218.614203,1121.09865 C219.362764,1122.00863 220.111324,1122.81055 220.859885,1123.65797 C223.220729,1126.27417 225.639155,1128.89037 228,1131.50657 L209.68906,1148 C207.15547,1145.27005 204.679463,1142.54011 202.203455,1139.81016 Z M214,1152.50682 L232.230769,1136 C236.096154,1140.07018 240.019231,1144.08382 244,1148.04094 L226.173077,1165 C222.076923,1160.87895 217.980769,1156.74659 214,1152.50682 Z M230,1169.54826 L247.231068,1152 C251.116505,1155.99035 255.001942,1159.99228 259,1163.9305 L242.275728,1182 C238.108738,1177.88803 234.054369,1173.77606 230,1169.54826 Z M257.761719,1196.16315 C256.912109,1195.41459 256.0625,1194.66027 255.212891,1193.85988 C252.4375,1191.33205 249.71875,1188.6833 247,1186.08637 L263.708984,1168 C266.314453,1170.53359 268.919922,1173.0096 271.582031,1175.49136 L274.130859,1177.73704 C274.753906,1178.31286 275.376953,1178.82534 276,1179.40691 L259.800781,1198 C259.121094,1197.37236 258.441406,1196.79655 257.761719,1196.16315 Z M265,1202.58509 L281.212598,1184 C285.437008,1187.72849 289.661417,1191.34226 294,1194.95602 L278.301181,1214 C273.848425,1210.27151 269.395669,1206.4283 265,1202.58509 Z M288.696429,1221.75954 C287.833333,1221.07252 286.912698,1220.32824 286.049603,1219.64122 C285.013889,1218.83969 284.035714,1217.98092 283,1217.12214 L298.708333,1198 C299.628968,1198.80725 300.549603,1199.60305 301.527778,1200.34733 C302.390873,1201.0916 303.311508,1201.77863 304.232143,1202.5229 C306.763889,1204.53244 309.410714,1206.53053 312,1208.53435 L296.751984,1228 C294.105159,1225.93893 291.343254,1223.87786 288.696429,1221.75954 Z M301,1231.65143 L315.677419,1212 C320.080645,1215.42857 324.540323,1218.74286 329,1222 L314.887097,1242 C310.201613,1238.62286 305.572581,1235.19429 301,1231.65143 Z M320,1246.17143 L334.170732,1226 C338.723577,1229.25714 343.333333,1232.4 348,1235.48571 L334.455285,1256 C329.560976,1252.8 324.780488,1249.48571 320,1246.17143 Z M352.305785,1267.02857 C351.322314,1266.4 350.338843,1265.82857 349.355372,1265.2 C345.884298,1263.02857 342.471074,1260.8 339,1258.57143 L352.595041,1238 C355.892562,1240.11429 359.190083,1242.22857 362.545455,1244.28571 C363.528926,1244.91429 364.512397,1245.48571 365.495868,1246.11429 C366.016529,1246.4 366.479339,1246.68571 367,1247.02857 L353.92562,1268 C353.404959,1267.65714 352.826446,1267.37143 352.305785,1267.02857 Z M359,1271.12023 L371.566038,1250 C376.320755,1252.91985 381.132075,1255.72519 386,1258.53053 L373.943396,1280 C368.90566,1277.07443 363.924528,1274.15458 359,1271.12023 Z M387.138593,1287.6371 C386.102345,1287.06227 385.066098,1286.55068 384.08742,1285.97011 C382.705757,1285.22284 381.381663,1284.41809 380,1283.67657 L392.031983,1262 C393.298507,1262.74727 394.565032,1263.49454 395.889126,1264.18433 C396.867804,1264.7649 397.904051,1265.27649 398.940299,1265.85131 C401.588486,1267.28837 404.294243,1268.61046 407,1270.04752 L395.54371,1292 C392.722814,1290.56869 389.901919,1289.13163 387.138593,1287.6371 Z M401,1295.15811 L412.504348,1273 C417.61087,1275.53318 422.776087,1278.0779 428,1280.50144 L417.141304,1303 C411.741304,1300.40912 406.341304,1297.81246 401,1295.15811 Z M423.462222,1305.19961 C423.288889,1305.13779 423.115556,1305.03101 423,1304.97481 L433.457778,1283 C433.631111,1283.0562 433.804444,1283.1686 433.977778,1283.22481 C438.946667,1285.46725 443.973333,1287.66473 449,1289.80039 L439.12,1312 C433.862222,1309.80814 428.662222,1307.56008 423.462222,1305.19961 Z M459.6,1320.54864 C458.477273,1320.15934 457.413636,1319.70798 456.290909,1319.30739 C452.154545,1317.72763 448.077273,1316.03502 444,1314.39883 L453.927273,1292 C457.827273,1293.57977 461.727273,1295.15953 465.627273,1296.68288 C466.75,1297.07782 467.872727,1297.52918 468.936364,1297.92412 C469.290909,1298.04261 469.645455,1298.14981 470,1298.31907 L460.781818,1321 C460.368182,1320.83074 460.013636,1320.7179 459.6,1320.54864 Z M465,1323.00591 L473.932715,1300 C479.211137,1302.00374 484.605568,1303.93898 490,1305.77146 L481.763341,1329 C476.136891,1327.05906 470.568445,1325.06102 465,1323.00591 Z M499.634845,1335.32803 C497.486874,1334.63618 495.279236,1333.94433 493.131265,1333.25249 C491.400955,1332.67594 489.670644,1332.10517 488,1331.52286 L496.23389,1308 C497.844869,1308.51889 499.455847,1309.09543 501.126492,1309.61431 C503.274463,1310.30616 505.422434,1310.99801 507.570406,1311.63221 C509.360382,1312.21451 511.210024,1312.67575 513,1313.24652 L505.362768,1337 C503.453461,1336.42346 501.544153,1335.90457 499.634845,1335.32803 Z M510,1337.26761 L517.270936,1314 C522.827586,1315.57746 528.384236,1317.09859 534,1318.56338 L527.37931,1342 C521.527094,1340.47887 515.73399,1338.90141 510,1337.26761 Z M550.337563,1349 C545.959391,1347.97122 541.522843,1346.99959 537.203046,1345.91366 C536.093909,1345.62788 534.984772,1345.34211 533.817259,1345.06205 C533.525381,1345.0049 533.291878,1344.89059 533,1344.83344 L539.304569,1321 C539.596447,1321.05715 539.829949,1321.16575 540.121827,1321.22862 C541.230964,1321.51439 542.340102,1321.80016 543.507614,1322.08022 C547.652284,1323.11472 551.85533,1324.08634 556,1325.00082 L550.337563,1349 Z M573.002618,1354 C572.76178,1353.94215 572.460733,1353.87851 572.219895,1353.82645 C566.439791,1352.73306 560.719895,1351.57025 555,1350.35537 L560.659686,1326 C566.138743,1327.21488 571.617801,1328.30826 577.157068,1329.35537 C577.397906,1329.41322 577.698953,1329.47107 578,1329.52314 L573.002618,1354 Z M597.186992,1358 C591.439024,1357.09244 585.691057,1356.07143 580,1355.05042 L584.552846,1331 C590.01626,1332.02101 595.479675,1332.92857 601,1333.83613 L597.186992,1358 Z M620.070423,1362 C618.549296,1361.76977 616.971831,1361.6489 615.394366,1361.41867 C614.267606,1361.25176 613.140845,1361.07333 612.014085,1360.95822 C608.971831,1360.56107 605.985915,1360.04306 603,1359.5826 L606.605634,1335 C609.478873,1335.46046 612.352113,1335.92091 615.225352,1336.32381 C616.352113,1336.49073 617.422535,1336.66915 618.549296,1336.84182 C620.014085,1337.0145 621.535211,1337.18717 623,1337.35984 L620.070423,1362 Z M643.988235,1364 C638.288235,1363.47059 632.644118,1362.88235 627,1362.23529 L629.682353,1337 C635.102941,1337.64118 640.523529,1338.23529 646,1338.76471 L643.988235,1364 Z M666.721713,1365 C662.59633,1364.83203 658.412844,1364.60036 654.287462,1364.31076 C653.125382,1364.18913 651.963303,1364.18913 650.801223,1364.07908 C650.220183,1364.01537 649.639144,1363.95745 649,1363.90532 L650.917431,1339 C651.498471,1339.05792 652.021407,1339.11584 652.602446,1339.16797 C653.764526,1339.2896 654.926606,1339.34172 656.088685,1339.39964 C660.039755,1339.69503 663.990826,1339.92671 668,1340.09468 L666.721713,1365 Z M673,1365.46709 L674.12,1340 C677.231111,1340.12435 680.342222,1340.23685 683.453333,1340.36119 L687,1366 C682.333333,1365.88158 677.666667,1365.70394 673,1365.46709 Z M693.06989,1110.01729 L688.841764,1315.19217 L688.725925,1320.91394 L687.741293,1369 L681.370144,1320.68276 L680.617191,1314.96098 L653.163333,1107.30089 L652.35246,1101.34793 L620.033362,856.582974 L611.519191,792.371907 L701.410302,702.441736 L298.695807,699.840928 L292.903854,699.783132 L87.2895204,698.511626 L81.4975674,698.448051 L63.1370762,698.332459 L63.1370762,696.766195 L38,696.535012 L81.6134064,689.663098 L87.4053595,688.738366 L295.510232,655.910386 L301.475944,654.927859 L537.382192,617.707403 L611.519191,605.859276 L701.410302,702.435957 L693.243648,300.639976 L693.127809,294.860402 L688.957603,89.6855265 L688.841764,83.9637483 L687.741293,29 L697.413854,83.8481568 L698.398486,89.6277307 L734.714032,296.131908 L735.756584,301.969278 L779.080392,548.236924 L788,598.808196 L701.410302,702.435957 L693.185729,1104.23194 L693.06989,1110.01729 Z M698.545652,1321.44858 C699.760622,1321.5063 700.975592,1321.5063 702.190562,1321.5063 C1043.71289,1321.5063 1321.53607,1044.32512 1321.53607,703.662573 C1321.53607,698.756303 1321.47821,693.907753 1321.30465,689.059204 L1335.76858,686 C1335.94214,691.893296 1336,697.775049 1336,703.668345 C1336,1052.35986 1051.69698,1336 702.190562,1336 C700.107756,1336 698.082806,1335.94228 696,1335.94228 L698.545652,1321.44858 Z M702.176471,1366 C700.470588,1366 698.705882,1365.93665 697,1365.93665 L697.235294,1341.11518 C698.882353,1341.11518 700.529412,1341.17277 702.176471,1341.17277 C706.294118,1341.17277 710.411765,1341.11518 714.470588,1341 L715,1365.87906 C710.764706,1365.94241 706.470588,1366 702.176471,1366 Z M733.138801,1365.4719 C732.003155,1365.53058 730.867508,1365.59513 729.731861,1365.64794 C726.381703,1365.82397 723.031546,1365.88265 719.624606,1366 L719,1340.71 C722.236593,1340.58677 725.416404,1340.47529 728.652997,1340.35206 C729.788644,1340.29339 730.92429,1340.29339 732.059937,1340.23471 C733.252366,1340.17603 734.444795,1340.05868 735.637224,1340 L737,1365.23132 C735.750789,1365.29587 734.444795,1365.41323 733.138801,1365.4719 Z M743.487952,1365 L742,1340.27096 C747.608434,1339.92015 753.159639,1339.46008 758.768072,1339 L761,1363.67153 C755.162651,1364.19487 749.38253,1364.59743 743.487952,1365 Z M772.612717,1362.35839 C771.456647,1362.48088 770.300578,1362.65587 769.144509,1362.76669 C768.219653,1362.88918 767.294798,1362.94167 766.427746,1363 L764,1337.97732 C764.867052,1337.86066 765.676301,1337.80233 766.543353,1337.74401 C767.699422,1337.62735 768.855491,1337.45237 770.011561,1337.34154 C773.653179,1336.93325 777.236994,1336.46662 780.878613,1336 L784,1360.96436 C780.184971,1361.42515 776.427746,1361.9501 772.612717,1362.35839 Z M791.166667,1361 L788,1336.47495 C793.388889,1335.66915 798.777778,1334.86911 804.111111,1334 L808,1358.46174 C802.388889,1359.3884 796.777778,1360.25176 791.166667,1361 Z M814.997319,1357 L811,1332.1046 C816.404826,1331.10879 821.809651,1330.11297 827.214477,1329 L832,1353.72552 C826.369973,1354.89121 820.683646,1356.00418 814.997319,1357 Z M851.96114,1349.9465 C850.829016,1350.17695 849.637306,1350.40741 848.505181,1350.69547 C844.751295,1351.50206 840.937824,1352.25679 837.183938,1353 L832,1328.62963 C835.57513,1327.93827 839.209845,1327.24691 842.784974,1326.44033 C843.976684,1326.20988 845.108808,1325.97942 846.300518,1325.69136 C847.253886,1325.46091 848.147668,1325.23045 849.101036,1325 L855,1349.19753 C853.987047,1349.4856 852.974093,1349.71605 851.96114,1349.9465 Z M859.937343,1347 L854,1323.20369 C859.47619,1321.89714 864.952381,1320.47697 870.370927,1319 L877,1342.63157 C871.350877,1344.15967 865.64411,1345.63664 859.937343,1347 Z M889.781022,1339.028 C888.671533,1339.318 887.562044,1339.666 886.452555,1340.014 C885.284672,1340.3678 884.058394,1340.652 882.890511,1341 L876,1316.9358 C877.109489,1316.582 878.277372,1316.2978 879.386861,1316.0078 C880.49635,1315.654 881.605839,1315.3118 882.773723,1315.0218 C886.043796,1314.0938 889.255474,1313.044 892.467153,1312 L900,1335.896 C896.554745,1336.94 893.226277,1338.042 889.781022,1339.028 Z M904.879147,1334 L897,1310.45437 C902.56872,1308.73193 908.078199,1306.89467 913.528436,1305 L922,1328.36765 C916.312796,1330.32548 910.625592,1332.22015 904.879147,1334 Z M928.429561,1327 L920,1303.91373 C925.311778,1302.03725 930.623557,1300.04137 935.877598,1298 L945,1320.85882 C939.515012,1322.96275 933.972286,1325.0098 928.429561,1327 Z M964.117647,1312.17739 C963.058824,1312.62963 962,1313.08187 960.882353,1313.53411 C957.117647,1315.06043 953.294118,1316.53021 949.470588,1318 L940,1295.38791 C943.647059,1293.97466 947.294118,1292.5614 950.941176,1291.09162 C952,1290.69591 953.058824,1290.18713 954.176471,1289.73489 C954.764706,1289.50877 955.352941,1289.22612 955.882353,1289 L966,1311.38596 C965.352941,1311.61209 964.764706,1311.89474 964.117647,1312.17739 Z M971.066372,1309 L961,1286.89514 C966.119469,1284.65661 971.238938,1282.35074 976.300885,1280 L987,1301.82434 C981.765487,1304.28729 976.415929,1306.64364 971.066372,1309 Z M1000.54783,1295.42885 C999.491304,1295.94808 998.434783,1296.46731 997.378261,1296.92885 C995.969565,1297.62115 994.502174,1298.31346 993.034783,1299 L982,1276.67885 C983.35,1275.98654 984.758696,1275.40385 986.108696,1274.71154 C987.165217,1274.19231 988.163043,1273.67308 989.219565,1273.15385 C991.978261,1271.82692 994.619565,1270.38462 997.319565,1269 L1009,1291.09615 C1006.18261,1292.54423 1003.36522,1294.04423 1000.54783,1295.42885 Z M1013.6617,1288 L1002,1266.10345 C1006.94043,1263.45977 1011.88085,1260.75862 1016.76383,1258 L1029,1279.55172 C1023.94468,1282.42529 1018.83191,1285.24138 1013.6617,1288 Z M1034.35565,1276.59916 C1034.12134,1276.71941 1033.88703,1276.88547 1033.65272,1277 L1021,1255.64096 C1021.23431,1255.52644 1021.46862,1255.35465 1021.70293,1255.24585 C1026.4477,1252.54877 1031.07531,1249.80588 1035.76151,1247 L1049,1268.01546 C1044.13808,1270.93014 1039.27615,1273.79328 1034.35565,1276.59916 Z M1069.36626,1255.95247 C1068.38683,1256.58236 1067.40741,1257.21225 1066.4856,1257.84215 C1062.74074,1260.30445 1058.99588,1262.65222 1055.19342,1265 L1042,1244.10479 C1045.62963,1241.86581 1049.25926,1239.58103 1052.77366,1237.29051 C1053.75309,1236.66062 1054.73251,1236.03073 1055.65432,1235.40084 C1055.82716,1235.28631 1056.05761,1235.11453 1056.23045,1235 L1070,1255.5001 C1069.76955,1255.66616 1069.59671,1255.83795 1069.36626,1255.95247 Z M1074.77236,1252 L1061,1231.65143 C1065.60976,1228.50857 1070.21951,1225.25143 1074.71545,1222 L1089,1242.05714 C1084.27642,1245.42857 1079.55285,1248.74286 1074.77236,1252 Z M1101.41968,1233.51324 C1100.48795,1234.19909 1099.61446,1234.88493 1098.68273,1235.57078 C1097.05221,1236.771 1095.42169,1237.85693 1093.8494,1239 L1079,1219.11621 C1080.51406,1218.03029 1082.08635,1217.00152 1083.6004,1215.85845 C1084.53213,1215.1726 1085.46386,1214.48676 1086.39558,1213.80663 C1088.5502,1212.25776 1090.58835,1210.6003 1092.68474,1209 L1108,1228.5523 C1105.78715,1230.19832 1103.63253,1231.85578 1101.41968,1233.51324 Z M1112.3631,1224 L1097,1204.55449 C1101.43056,1201.11281 1105.80357,1197.55641 1110.11905,1194 L1126,1212.92925 C1121.5119,1216.71511 1116.96627,1220.38623 1112.3631,1224 Z M1132.26326,1207.79333 C1131.80747,1208.18981 1131.2947,1208.59778 1130.8389,1209 L1115,1190.09558 C1115.51277,1189.69335 1115.96857,1189.28539 1116.42436,1188.88891 C1120.18468,1185.66539 1123.94499,1182.33269 1127.64833,1179 L1144,1197.44474 C1140.12574,1200.95556 1136.25147,1204.40893 1132.26326,1207.79333 Z M1158.73879,1184.21626 C1155.29045,1187.51226 1151.84211,1190.81985 1148.33723,1194 L1132,1175.52732 C1135.33528,1172.45723 1138.67057,1169.32921 1141.94932,1166.14327 C1142.68421,1165.39023 1143.4191,1164.69511 1144.154,1164 L1161,1182.00927 C1160.26511,1182.7681 1159.47368,1183.46322 1158.73879,1184.21626 Z M1165.91667,1178 L1149,1160.12766 C1152.93411,1156.12959 1156.86822,1152.11992 1160.68992,1148 L1178,1165.46615 C1174.00969,1169.70213 1170.01938,1173.88008 1165.91667,1178 Z M1189.14451,1153.5931 C1188.33526,1154.44122 1187.58382,1155.29499 1186.77457,1156.08091 C1185.21387,1157.72061 1183.59538,1159.3603 1181.97688,1161 L1164,1144.15071 C1165.50289,1142.6241 1167.06358,1141.09748 1168.56647,1139.51998 C1169.37572,1138.67187 1170.12717,1137.81809 1170.93642,1137.03217 C1172.49711,1135.33593 1174,1133.6397 1175.56069,1132 L1194,1148.34042 C1192.3815,1150.0932 1190.76301,1151.84032 1189.14451,1153.5931 Z M1197.50575,1144 L1179,1127.67323 C1182.73563,1123.51161 1186.41379,1119.2815 1190.09195,1115 L1209,1130.87008 C1205.2069,1135.32283 1201.35632,1139.66142 1197.50575,1144 Z M1214.83969,1123.87103 C1214.20992,1124.56151 1213.6374,1125.30952 1213.00763,1126 L1194,1110.17659 C1194.62977,1109.48611 1195.20229,1108.7381 1195.83206,1108.04762 C1198.80916,1104.42262 1201.72901,1100.68254 1204.5916,1097 L1224,1112.30556 C1220.96565,1116.21825 1217.9313,1120.07341 1214.83969,1123.87103 Z M1237.63118,1095.71621 C1234.60837,1099.85158 1231.58555,1103.9287 1228.5057,1108 L1209,1092.73991 C1211.96578,1088.77927 1214.93156,1084.87688 1217.78327,1080.86383 C1218.23954,1080.22314 1218.69582,1079.63487 1219.15209,1079 L1239,1093.79414 C1238.54373,1094.43483 1238.08745,1095.07552 1237.63118,1095.71621 Z M1242,1089 L1222,1074.77236 C1225.25714,1070.21951 1228.51429,1065.60976 1231.65714,1061 L1252,1074.77236 C1248.74286,1079.55285 1245.37143,1084.33333 1242,1089 Z M1263.28571,1057.95885 C1262.65714,1058.93827 1262.08571,1059.9177 1261.45714,1060.90288 C1259.51429,1063.95062 1257.51429,1066.95226 1255.51429,1070 L1235,1056.28807 C1236.88571,1053.40741 1238.82857,1050.52675 1240.71429,1047.58848 C1241.34286,1046.60905 1241.91429,1045.62963 1242.54286,1044.65021 C1243.11429,1043.78601 1243.62857,1042.85844 1244.14286,1042 L1265,1055.19342 C1264.42857,1056.11523 1263.85714,1057.03704 1263.28571,1057.95885 Z M1268.01145,1049 L1247,1035.8476 C1249.9771,1030.93737 1252.83969,1025.96868 1255.64504,1021 L1277,1033.6263 C1274.08015,1038.82881 1271.10305,1043.91441 1268.01145,1049 Z M1282.88506,1023.09679 C1282.36782,1024.12842 1281.7931,1025.10274 1281.21839,1026.13437 C1280.70115,1027.10868 1280.12644,1028.02568 1279.55172,1029 L1258,1016.7924 C1258.51724,1015.8754 1259.03448,1015.00998 1259.55172,1014.09297 C1260.12644,1013.11866 1260.70115,1012.14434 1261.27586,1011.11271 C1262.94253,1008.07514 1264.55172,1005.03184 1266.16092,1002 L1288,1013.57716 C1286.33333,1016.7924 1284.6092,1019.9446 1282.88506,1023.09679 Z M1291.03846,1009 L1269,997.403471 C1271.59615,992.308026 1274.13462,987.154013 1276.61538,982 L1299,993.010846 C1296.40385,998.393275 1293.75,1003.72299 1291.03846,1009 Z M1302.57253,987 L1280,976.384242 C1282.49516,971.271463 1284.87427,966.170161 1287.13733,961 L1310,970.984551 C1307.62089,976.38998 1305.12573,981.720812 1302.57253,987 Z M1318.04086,951.890565 C1317.64591,952.944382 1317.19455,954.056744 1316.79961,955.110561 C1315.33268,958.740374 1313.80934,962.370187 1312.28599,966 L1290,955.924341 C1291.46693,952.470164 1292.87743,949.015987 1294.28794,945.56181 C1294.68288,944.507994 1295.13424,943.395632 1295.52918,942.341815 C1295.81128,941.580725 1296.09339,940.813781 1296.43191,940 L1319,949.425805 C1318.66148,950.251295 1318.37938,951.07093 1318.04086,951.890565 Z M1320.85882,944 L1298,934.935335 C1300.04706,929.623557 1302.03725,924.311778 1303.97059,919 L1327,927.429561 C1325.0098,932.972286 1322.96275,938.515012 1320.85882,944 Z M1330.84158,914.886757 C1330.4396,915.952855 1330.09505,917.078181 1329.69307,918.203506 C1329.29109,919.512438 1328.77426,920.756219 1328.37228,922 L1305,913.589671 C1305.40198,912.405117 1305.86139,911.220564 1306.26337,909.976783 C1306.60792,908.910685 1307.0099,907.785359 1307.41188,906.660033 C1308.44554,903.461739 1309.42178,900.263445 1310.39802,897 L1334,904.818053 C1332.90891,908.19403 1331.93267,911.57593 1330.84158,914.886757 Z M1335.99197,900 L1312,892.561814 C1313.68876,887.066569 1315.31928,881.55962 1316.83333,876 L1341,882.84711 C1339.42771,888.588149 1337.73896,894.323336 1335.99197,900 Z M1342.6748,877 L1319,870.47149 C1320.42276,864.982919 1321.84553,859.494348 1323.15447,854 L1347,859.898769 C1345.63415,865.624215 1344.15447,871.338106 1342.6748,877 Z M1352.65432,839.113217 C1352.42387,840.242015 1352.1358,841.442482 1351.90535,842.577253 C1351.04115,846.757985 1350.11934,850.878992 1349.19753,855 L1325,849.200727 C1325.92181,845.264866 1326.84362,841.323033 1327.65021,837.321475 C1327.88066,836.12698 1328.11111,834.986237 1328.34156,833.797715 C1328.45679,833.194495 1328.57202,832.60322 1328.68724,832 L1353,837.196053 C1352.88477,837.858998 1352.76955,838.456245 1352.65432,839.113217 Z M1353.77824,831 L1329,826.314516 C1330.11297,820.895161 1331.16736,815.419355 1332.1046,810 L1357,814.008065 C1356.00418,819.709677 1354.89121,825.354839 1353.77824,831 Z M1359.79104,799.147034 C1359.61834,800.26093 1359.44563,801.324701 1359.27292,802.433027 C1359.04264,803.942356 1358.7548,805.440546 1358.46695,807 L1334,803.212754 C1334.23028,801.75912 1334.51812,800.36675 1334.7484,798.918686 C1334.92111,797.80479 1335.03625,796.696463 1335.20896,795.576998 C1335.66951,792.736564 1336.01493,789.840434 1336.41791,787 L1361,790.118908 C1360.59701,793.131997 1360.2516,796.139515 1359.79104,799.147034 Z M1362.12174,784 L1337,780.986381 C1337.70435,775.306868 1338.2913,769.685309 1338.87826,764 L1364,766.376123 C1363.47174,772.293248 1362.82609,778.146624 1362.12174,784 Z M1363.79204,760.311386 C1363.79204,760.540924 1363.73451,760.770462 1363.73451,761 L1339,758.876774 C1339,758.589852 1339.05752,758.360314 1339.05752,758.130776 C1339.5177,752.79402 1339.92035,747.399879 1340.20796,742 L1365,743.497735 C1364.65487,749.121413 1364.25221,754.745092 1363.79204,760.311386 Z M1366,720.537975 C1365.94131,721.677215 1365.88262,722.810759 1365.88262,723.955696 C1365.70655,728.347468 1365.47178,732.670886 1365.23702,737 L1340,735.746835 C1340.17607,731.588608 1340.41084,727.43038 1340.58691,723.272152 C1340.58691,722.138608 1340.70429,720.999367 1340.70429,719.85443 L1340.70429,719 L1366,719.626582 L1366,720.537975 L1366,720.537975 Z M1365.88453,715 L1341,714.593985 C1341.05774,710.945734 1341.11547,707.23864 1341.11547,703.590389 C1341.11547,701.47205 1341.05774,699.35371 1341.05774,697.294214 L1365.94226,697 C1365.94226,699.236025 1366,701.354364 1366,703.590389 C1366,707.415168 1365.94226,711.175221 1365.88453,715 Z" id="Shape-Copy-3" fill="#FE6153" fill-rule="nonzero"></path>
    </g>
</svg>