<svg viewBox="0 0 1400 1400" xmlns="http://www.w3.org/2000/svg"><path d="m701.599754 23.276713c-4.399015 0-8.740148.0577934-13.139163.1733803l-.752463-4.4500933-.578818 4.4500933c-366.970443 7.7443182-663.3251228 306.8252627-665.8719208 674.4492027l-2.2573892.35254 2.2573892.398775c0 1.329248-.0578818 2.658497-.0578818 3.987746 0 374.616943 305.2105916 679.361643 680.4002466 679.361643 375.189656 0 680.400246-304.73892 680.400246-679.361643 0-374.622724-305.21059-679.361644-680.400246-679.361644zm619.806376 662.278083-5.72905 1.224334-206.30358 43.977351-5.84478 1.218531-260.932069 55.588207-53.934062 11.436781-84.662589-98.817033 400.28102-15.08657 5.78691-.232101 205.26193-7.781189 5.72905-.168273 49.94109-1.914834zm44.59387 5.054454-24.88453.39075c0-1.755545 0-3.567721-.05773-5.317603 0-.509674-.05774-1.019348-.05774-1.534686l10.27714-2.151958 14.43418-2.995753c0 .843794.05773 1.698915.11547 2.605002 0 1.126947.05774 2.259557.11547 3.39783.05774 1.868806.05774 3.737612.05774 5.606418zm-412 268.39075-174-104.0125 9.261477-52.9875zm-110-169.820428 109-23.179572c-9.841077 39.324547-28.602429 75.074135-54.039599 105zm17 119.046041c-28.790521 22.464991-62.389116 38.950928-99 47.774387l16.973084-97zm14.531915 7.606339 92.555555 55.283258-4.343971-6.008422-54.849882-81.344787c30.176123-34.259559 52.01182-76.023867 62.205674-122.074954l111.900709-23.687047c-17.66548 180.657066-161.943262 324.91696-343 343l19.287234-109.480377c43.381797-9.295722 82.998818-28.707546 116.244681-55.687671zm212.311155-178.819164 14.15693-3.012788c-15.3126 195.570983-170.981055 352.28221-366 369l2.715819-15.50342c184.675719-17.74712 331.965581-165.495154 349.127251-350.483792zm21.33158-3.222829 206.65155-43.789959c.11587 4.454097.1738 8.896641.1738 13.402732 0 337.783498-275.65127 612.597268-614.392958 612.597268h-2.607042l36.324789-206.47139c199.641502-16.29125 359.076621-176.257477 373.849861-375.738651zm-10.17465-95.789959-13.9699-1.848375c-14.72345-87.451264-58.7779-165.083033-121.845312-222.382672l1.623058-2.310469-2.318655 1.67509c-60.342994-54.527076-137.786069-90.512635-223.344435-98.830325l-2.144756-12.303249c184.101201 16.288809 333.01681 156.418773 362 336zm-362.661106-341.375526-36.338894-206.624474h1.446612c326.355668 0 594.036758 255.680453 612.553388 577l-209.23796-27.567264c-28.75865-183.56412-180.710772-326.918516-368.423146-342.808262zm168.661106 220.240721c14.819639-26.884144 32.661323-58.949388 53.06012-95.332213l.232465-.402975c.755511-1.324058 1.162325-1.899736 1.162325-1.957304l.174349-.172703c61.486971 55.840729 104.609221 131.139362 119.370741 216l-114.256513-14.973375c-12.204409-38.743104-32.835671-73.859439-59.743487-103.16143zm43 102.134805-90-11.824117c2.265978-5.97002 16.326662-32.690207 39.509361-75.175883 22.07876 25.213191 39.393157 54.657562 50.490639 87zm10-202.57418-90.639659 65.57418c-31.317164-23.514265-67.805437-40.557775-107.431237-49.166191l-19.929104-112.833809c83.376866 8.435093 158.968017 43.50428 218 96.42582zm-104 75.758628-74.133121 53.815552-16.866879-96c33.270064 8.101266 64.047771 22.625678 91 42.184448zm96-62.184448c-77.813988 139.715503-92.451117 169.193051-94.823142 176l-63.176858-8.301016zm415.97 243.51-5.94-.78 5.88-.24c0 .3.06.66.06 1.02zm-.97-6.842317-24.78667 1.332317c-.28889-5.676829-.69333-11.353659-1.21333-17.030488l24.84444-1.969512c.46223 5.85061.86667 11.759146 1.15556 17.667683zm-1.17609-24.590513.17609 1.695411-25.23913 2.227419c0-.532008-.0587-1.110786-.11739-1.695411-.46957-5.15054-.99783-10.295235-1.64348-15.381467l25.12174-2.923122c.64565 5.378544 1.23261 10.698626 1.70217 16.07717zm-3.67402-35.761632c.69379 4.55184 1.27195 9.159876 1.85011 13.706097l-24.74518 2.978365c-.57816-4.383254-1.15632-8.766507-1.79229-13.093566-.17345-1.067715-.28908-2.191626-.46253-3.259342l24.62955-3.647092c.17345 1.067716.3469 2.191627.52034 3.315538zm-3.14989-9.185457-24.10714 3.869919c-.90757-5.520325-1.87185-11.04065-2.89286-16.504065l24.05042-4.495935c1.07773 5.685366 2.04202 11.376423 2.94958 17.130081zm-5.02479-34.54773c.2314 1.204504.52066 2.348783.75206 3.553287.46281 2.288557.86777 4.577114 1.27273 6.865671l-24.47107 4.998691c-.40496-2.162084-.75207-4.336214-1.21488-6.504321-.23141-1.204503-.46281-2.348782-.69422-3.553286-.52066-2.469232-1.09917-4.87824-1.61983-7.287248l24.29752-5.655145c.57851 2.523435 1.15703 5.052893 1.67769 7.582351zm-3.97521-12.341085-23.95112 5.758734c-1.25458-5.589873-2.62322-11.121519-4.04888-16.647342l23.78004-6.352658c1.48269 5.706329 2.85132 11.470886 4.21996 17.241266zm-4.6988-25.482442c.23294.829411.46587 1.705882.6988 2.535294l-24.2249 6.705882c-.23293-.882353-.46586-1.705882-.69879-2.529412-1.28113-4.705882-2.67872-9.417647-4.07631-14.117647l24.0502-7.352941c1.45582 4.876471 2.91165 9.817647 4.251 14.758824zm-10.92271-34.410375c1.61753 4.754176 3.11952 9.508353 4.62151 14.319809l-23.74303 7.331742c-1.44422-4.588067-2.94621-9.170406-4.44821-13.695465-.28884-.74463-.57768-1.54654-.80876-2.285442l23.51195-8.019093c.28885.74463.57769 1.552267.86654 2.348449zm-3.37849-8.662402-23.17717 8.313953c-1.88385-5.406977-3.8248-10.697674-5.82283-16.046512l22.94882-8.953488c2.1122 5.523256 4.11024 11.104651 6.05118 16.686047zm-12.9726-31.540592c.39726 1.122727.85127 2.186363 1.24853 3.30909.96477 2.422728 1.81605 4.845455 2.72407 7.268182l-22.75734 9.277273c-.85127-2.304545-1.70254-4.609091-2.61057-6.913636-.39726-1.122728-.85127-2.186364-1.24853-3.309091-.79452-1.95-1.58904-3.9-2.38356-5.85l22.53033-9.927273c.79452 2.068182 1.70255 4.077273 2.49707 6.145455zm-5.0274-11.047459-22.25581 9.902004c-2.19186-5.153675-4.43993-10.30735-6.74419-15.461024l21.9186-10.538976c2.41667 5.327394 4.77714 10.712695 7.0814 16.097996zm-10.56069-24.835987c.52023.965065.98266 2.043668 1.50289 3.065502.0578.056768.0578.113537.0578.170306l-22.42775 10.502183s-.0578-.056769-.0578-.113537c-.52023-1.021834-.98266-2.043668-1.50289-3.065502-1.96532-3.917031-3.98844-7.834061-6.01156-11.694323l22.19653-11.126638c2.08093 4.087336 4.21965 8.174672 6.24278 12.262009zm-16.14046-32.163508c2.64368 4.740899 5.17241 9.539615 7.70115 14.396146l-21.95402 11.505353c-2.4138-4.625268-4.88506-9.192719-7.35632-13.760171-.22989-.404711-.45977-.809422-.68966-1.156317l21.66667-12.083512c.22988.346895.45977.751606.63218 1.098501zm-4.29885-6.180434-21.51052 12.081933c-2.75334-4.821429-5.62141-9.642857-8.48948-14.407563l21.16635-12.592437c2.98279 4.934874 5.96558 9.926471 8.83365 14.918067zm-18.42447-31.51227c.63097.985507 1.20458 1.971015 1.83556 2.956522 1.54876 2.492753 3.09751 5.043478 4.58891 7.536232l-20.99426 13.101449c-1.4914-2.434783-2.92543-4.869565-4.41683-7.246377-.63098-.985507-1.20459-1.971014-1.83556-2.956522-.91779-1.391304-1.83557-2.782608-2.75335-4.173913l20.70746-13.623188c.91778 1.449275 1.95028 2.898551 2.86807 4.405797zm-5.57553-9.005797-20.49618 13.6c-3.14886-4.628571-6.29771-9.257143-9.50382-13.828571l20.15267-14.171429c3.32061 4.742857 6.64122 9.542857 9.84733 14.4zm-18.6374-24.948387c1.25954 1.75 2.57633 3.5 3.83587 5.25.28626.395161.51527.733871.80153 1.129032l-20.03817 14.169355-.68702-1.016129c-1.25954-1.75-2.57634-3.443548-3.83588-5.193548-1.77481-2.370968-3.66412-4.741936-5.43893-7.112904l19.6374-14.677419c1.88932 2.483871 3.83588 4.967742 5.7252 7.451613zm-10.3626-12.614635-19.56023 15.163022c-3.44168-4.497018-6.88336-8.936382-10.43977-13.318091l19.1587-15.681909c3.67113 4.554672 7.28489 9.166998 10.8413 13.836978zm-14.34417-19.024355c.11472.171598.22945.285996.34417.457594l-19.04398 15.729783c-.11472-.171598-.22944-.285996-.34417-.457594-3.49904-4.175542-6.99808-8.293885-10.61185-12.355029l18.64245-16.187377c3.72849 4.232742 7.39962 8.465483 11.01338 12.812623zm-26.54045-29.812623c.28847.226563.51924.509766.75.736328.8077.849609 1.5577 1.699219 2.36539 2.492188 2.94231 3.171875 5.88461 6.34375 8.76923 9.572265l-18.57692 16.199219c-2.76923-3.058594-5.53846-6.117187-8.36539-9.119141-.80769-.849609-1.55769-1.642578-2.36538-2.492187-.23077-.226563-.46154-.453125-.69231-.679688zm-4.11538-4.748062-18.10445 16.748062c-3.88781-3.99031-7.89168-7.868217-11.89555-11.746124l17.58221-17.253876c4.17794 4.046512 8.29787 8.149225 12.41779 12.251938zm-23.31907-23.413788c.78989.809249 1.63619 1.560694 2.42607 2.369942 1.29767 1.271677 2.59533 2.601157 3.893 3.930636l-16.92607 17.861272c-1.24125-1.271676-2.48249-2.543353-3.72374-3.757225-.78988-.809249-1.63618-1.618498-2.42607-2.369943-1.9747-1.907514-3.94941-3.757225-5.92412-5.606936l16.53113-18.265896c2.03113 1.965318 4.11868 3.872832 6.1498 5.83815zm-11.68093-9.206672-16.43333 18.368522c-4.15098-3.800384-8.30196-7.543186-12.56667-11.228407l15.97843-18.771593c4.4353 3.800384 8.75686 7.715931 13.02157 11.631478zm-18.14851-16.478514c.40198.344168.74653.630975 1.14851.975143l-15.96436 18.871893c-.40198-.344168-.74653-.630975-1.14851-.975143-3.90495-3.269599-7.86733-6.539197-11.88713-9.751434l15.44752-19.273423c4.19208 3.32696 8.32674 6.711281 12.40397 10.152964zm-30.74127-25.038678c.92986.685714 1.8016 1.371428 2.73146 2.057143 3.77756 2.8 7.497 5.657142 11.15832 8.514285l-15.45892 19.314286c-3.54509-2.742857-7.09018-5.485714-10.69338-8.171429-.92986-.685714-1.85972-1.371428-2.78958-2.057142l-.05812-.057143 14.93587-19.714286c.05812.057143.11623.057143.17435.114286zm-5.11022-3-14.39676 19.885714c-4.47773-3.314286-9.01215-6.571429-13.60324-9.714286l13.88664-20.285714c4.76113 3.314286 9.46559 6.685714 14.11336 10.114286zm-27.14754-19.942857c.91803.571428 1.89344 1.2 2.86885 1.828571 1.77869 1.2 3.5 2.4 5.27869 3.6l-13.88525 20.4c-1.66393-1.142857-3.32786-2.285714-5.04918-3.428571-.91803-.628572-1.89344-1.257143-2.86885-1.885715-2.06557-1.314285-4.13115-2.628571-6.19672-3.942857l13.31148-20.742857c2.18032 1.428571 4.36065 2.742857 6.54098 4.171429zm-11.85246-7.068376-13.35833 20.896947c-4.84167-2.977099-9.74167-5.896947-14.64167-8.759542l12.775-21.240458c5.13333 2.977099 10.20833 6.01145 15.225 9.103053zm-21.99789-12.68926c.62791.402299 1.3129.804598 1.99789 1.206897l-12.32981 21.37931c-.68499-.402299-1.3129-.747126-1.9408-1.149425-4.2241-2.413793-8.50529-4.770115-12.72939-7.126437l11.7019-21.724138c4.50952 2.413793 8.90487 4.885057 13.30021 7.413793zm-32.24082-18.146998c4.4129 2.245681 8.82581 4.548944 13.23871 6.852207l-11.7871 21.880998c-4.180642-2.1881-8.419352-4.3762-12.658061-6.506718-.870968-.403071-1.683871-.863723-2.554839-1.266794l11.148387-22.226488c.870968.403071 1.741936.863724 2.612903 1.266795zm-7.76129-3.679922-10.742857 22.413127c-5.085714-2.490347-10.114286-4.92278-15.257143-7.297297l10.171429-22.702703c5.314285 2.432432 10.571428 4.980695 15.828571 7.586873zm-30.81573-13.9915423c1.110112.4513619 2.161797.9027238 3.213483 1.3540856 2.220225.9027238 4.382022 1.918288 6.602247 2.8774319l-10.224719 22.1731518c-2.044944-.902724-4.148315-1.805447-6.251685-2.708171-1.110113-.394942-2.161798-.902724-3.213484-1.354086-2.10337-.846303-4.206741-1.636187-6.310112-2.48249l9.582022-22.455253c2.161798.8463035 4.382023 1.692607 6.602248 2.5953307zm-12.18427-5.3404287-9.174312 22.745098c-5.275229-2.103922-10.493119-4.094118-15.825688-6.084314l8.600917-22.915686c5.504588 1.9901961 10.951835 4.0941176 16.399083 6.254902zm-24.823529-9.4885654c.941176.2871287 1.882353.6316832 2.823529.9762377l-8.588235 23.2574257c-.882353-.344554-1.82353-.631683-2.764706-.976238-4.529412-1.5504947-9.117647-3.043564-13.647059-4.5366333l7.941176-23.4871287c4.764706 1.550495 9.529412 3.1009901 14.235295 4.7663366zm-34.994873-11.1296101c4.997579 1.4471058 9.878935 3.0099801 14.818402 4.5728543l-7.670702 23.7904192c-4.648911-1.50499-9.355932-3.00998-14.121066-4.3992016-.755447-.2315369-1.452784-.4051896-2.208232-.6367265l7.031477-23.9640719c.697337.2315369 1.452785.4630739 2.150121.6367265zm-6.181598-1.1589937-7.002494 23.5222672c-5.625935-1.4736842-11.31172-2.9473684-16.997506-4.3076923l6.34414-23.6923077c5.865336 1.417004 11.790523 2.9473684 17.65586 4.4777328zm-41.664948-10.4777328c2.13402.4032922 4.268041.8065844 6.402061 1.2674897 1.126289.2880659 2.311856.5185185 3.438145.7489712 2.608247.5761317 5.216495 1.2674897 7.824742 1.9012346l-5.987113 24.0823045c-2.489691-.5761317-4.979382-1.2098765-7.469073-1.7860082-1.185567-.2304527-2.311855-.4609054-3.497422-.6913581-2.015464-.4609053-4.030928-.8065843-6.046392-1.2674897zm-22.146222-4c5.640957 1.05 11.226064 2.1583333 16.81117 3.3833333l-4.859043 24.6166667c-5.361702-1.1666667-10.723404-2.2166667-16.140957-3.2666667zm-24.708167-4c4.582873.6305732 9.223757 1.2611465 13.80663 2.0063694 1.10221.1719745 2.262431.4012739 3.422652.5732484.116022 0 .174033.0573249.290055.0573249l-4.176796 24.3630573c-.058011 0-.174033-.0573248-.232044-.0573248-1.10221-.1719746-2.262431-.4012739-3.422652-.5732484-4.350828-.6878981-8.759668-1.3184714-13.168508-1.9490446zm-21.84456-3c.401146.0581897.859599.1163793 1.318052.174569 5.386819.5818965 10.716332 1.2801724 16.045845 1.9784482l-3.266476 24.8469828c-5.100286-.6400862-10.200573-1.3383621-15.358166-1.862069-.458453-.0581896-.916905-.1163793-1.375358-.1745689zm-23.877894-3c5.785075.4 11.513433.9142857 17.241791 1.4285714l-2.325373 24.5714286c-5.558209-.5714286-11.059702-1.0285714-16.674627-1.4285714zm-22.970709-1c1.8.058427 3.54375.1168539 5.2875.1752809 1.125.058427 2.25.1168539 3.375.1752809 2.86875.1168539 5.68125.3505618 8.55.5258427l-1.51875 25.1235955c-2.7-.1752809-5.4-.4089888-8.1-.5258427-1.125-.058427-2.25-.058427-3.375-.1168539-1.6875-.058427-3.31875-.116854-5.00625-.1752809zm-24.7875 0h.235294c5.941177 0 11.882353.1146789 17.764706.2866972l-.705882 24.7133028c-5.647059-.1720183-11.352942-.2866972-17.058824-.2866972h-.235294zm1.033645 31c338.411355 0 615.724675 266.255778 632.966355 600l-14.58021-1.90678c-18.16741-324.845916-288.59563-583.5901383-618.386145-583.5901383-.810012 0-1.677882 0-2.487894.0577812l-2.545751-14.5030817c1.677882 0 3.355763-.0577812 5.033645-.0577812zm-5.933645-31 .24 25c-.06 0-.06 0-.12 0l-1.14-6.1627907-3.42-18.8372093zm-11.1 0-3.192 24.8850575c-1.008 0-1.96.0574712-2.968.1149425l-.84-24.7701149c2.352-.0574713 4.648-.1724138 7-.2298851zm-187.109354 503c19.525448 37.226316 36.537139 69.763158 39.109354 74.678421l-85 13.321579c9.587345-32.363158 25.31293-62.121053 45.890646-88zm-63.362253 90.213973-112.528393 17.786027c11.680748-87.434493 52.968144-165.560196 113.569252-224 8.558172 15.129673 31.572715 58.844032 53.430748 100.652746-25.269737 30.374838-44.063019 66.235627-54.471607 105.561227zm15.471607-196.213973c44.792284 31.882818 161.5763 108.667752 167.247675 112.37102l.752325-1.093621-7.407509 55.722601zm94 60.098064c25.704545-19.422861 55.131016-34.133667 87-43.098064l-12.212567 92c-5.175802-3.327171-38.091577-24.767021-74.787433-48.901936zm-13.776549-9.098064c-39.665376-26.513713-80.08573-53.955696-92.223451-63.528481 56.565265-53.491561 129.275442-90.042194 210-101.471519l-15.041482 113.771097c-37.981195 9.746835-72.826328 27.5-102.735067 51.228903zm-214.273351 163.806484-13.9501 2.193516c22.285429-181.426894 166.417166-325.794906 348-349l-1.620758 12.468409c-173.073853 23.666887-310.085829 161.338902-332.429142 334.338075zm-19.494815 4.205403-208.455285 32.988113c7.9974505-323.629658 268.030496-585.902236 591-598l-27.411551 208.208886c-185.73789 23.037847-333.169151 170.989449-355.133164 356.803001zm-213.8765761 33.675264-14.5787089 2.312849c6.3058701-336.86648 277.053322-610.1874302 613-621l-1.909117 14.6287709c-326.28539 11.6798883-589.0492635 276.9058661-596.5121741 604.0583801zm571.8305221-648.6983367c5.787692-.4071588 11.633846-.6979866 17.421538-.9888143l1.169231 25.0693512c-5.612308.2326622-11.224615.52349-16.778462.9306488h-.40923l-1.812308-25.0111857zm-6.314836 2.0111857 1.905605 24.463895c-5.492625.4551422-10.985251.9671772-16.421829 1.536105l-2.578171-24.3501094c5.660767-.6258206 11.377581-1.1947484 17.094395-1.6498906zm-35.776213 2.6223176c1.136363-.1158798 2.272727-.3476395 3.409091-.4635193 3.125-.4055794 6.306818-.7532189 9.488636-1.1587983l2.784091 24.7982833c-3.011364.3476394-6.079545.6952789-9.090909 1.1008583-1.136364.1738198-2.215909.3476395-3.352273.4635193-1.363636.1738198-2.727273.4055794-4.090909.6373391l-3.465909-24.7403433c1.420455-.1738198 2.897727-.4635194 4.318182-.6373391zm-11.04769 1.3776824 3.729508 24.2658228c-5.622951.7974683-11.131148 1.7088607-16.696721 2.7341772l-4.303279-24.2088608c5.737705-1.0253164 11.47541-1.9367088 17.270492-2.7911392zm-29.022471 6.1014493c1.052771-.2318841 2.16095-.4637681 3.269129-.6956522.664908-.115942 1.385225-.2318841 2.050132-.4057971l4.432718 24.5797101c-.664908.1159421-1.274406.2318841-1.939314.3478261-1.108179.2318841-2.216359.4637681-3.269129.6956522-3.601583.7536232-7.203166 1.5652174-10.80475 2.3768116l-4.986807-24.4637681c3.76781-.8115942 7.480211-1.6811594 11.248021-2.4347826zm-17.822001 2.8985507 5.57398 24.1063395c-5.632653 1.202454-11.265306 2.5194274-16.839286 3.8936605l-6.160714-23.8773006c5.75-1.4887526 11.558673-2.8629857 17.42602-4.1226994zm-21.901268 6 6.475248 23.5403226c-5.584158 1.4112903-11.227723 2.9354839-16.811881 4.4596774l-7.188119-23.3709677c5.821782-1.5806452 11.643564-3.1612904 17.524752-4.6290323zm-40.179428 12.22c2.129496-.696 4.201439-1.392 6.273381-2.088 3.395683-1.102 6.791367-2.088 10.18705-3.132l7.194245 23.954c-3.280576.986-6.503597 1.914-9.726619 2.958-2.071942.696-4.143885 1.334-6.215827 2.03-.057554 0-.172662.058-.230216.058l-7.827338-23.664c.115108-.058.230216-.058.345324-.116zm-5.483497.78 8.138173 23.3833992c-5.444965 1.7766799-10.831382 3.6679838-16.217799 5.6166008l-8.782201-23.0968379c5.620609-2.0632412 11.241218-4.0118578 16.861827-5.9031621zm-31.653589 11.4050881c1.086957-.3972603 2.116705-.8512721 3.203661-1.2485323 1.94508-.7377691 3.89016-1.4755382 5.835241-2.1565558l8.75286 22.81409c-1.830664.737769-3.718535 1.362035-5.549199 2.099804-1.086957.397261-2.116705.794521-3.203661 1.248533-2.28833.908023-4.576659 1.872798-6.864989 2.837573l-9.382151-22.5870841c2.402746-1.0215265 4.805492-2.0430529 7.208238-3.0078278zm-11.98005 5.5949119 9.771812 22.35534c-5.234899 2.139806-10.411633 4.335922-15.646532 6.64466l-10.353468-22.1300971c5.409396-2.3650485 10.760626-4.6737864 16.228188-6.8699029zm-23.71503 9.982659c.68421-.289017 1.368421-.635838 2.109649-.982659l10.377193 22.601156c-.684211.289017-1.368421.635838-2.109649.982659-4.333333 2.080925-8.666667 4.219653-12.942983 6.416185l-10.947368-22.312139c4.447368-2.254335 8.951754-4.50867 13.513158-6.705202zm-33.137622 16.882726c4.403434-2.365385 8.806867-4.615385 13.268241-6.865385l11.356223 22.153846c-4.287554 2.134616-8.575107 4.326923-12.746781 6.576923-.811159.461539-1.564378.865385-2.317597 1.269231l-11.935622-21.807692c.753219-.461539 1.564378-.865385 2.375536-1.326923zm-7.305769 4.134615 11.930233 21.625239c-4.852008 2.695985-9.704017 5.506692-14.498943 8.374761l-12.501057-21.281071c4.966173-2.982791 10.046512-5.85086 15.069767-8.718929zm-29.434912 17.667939c.987552-.629771 1.975104-1.20229 2.962655-1.832061 2.149378-1.316794 4.356847-2.576336 6.506224-3.835878l12.896266 21.125954c-2.033195 1.259542-4.124481 2.40458-6.157676 3.664122-.987552.629771-1.975104 1.20229-2.962656 1.832061-1.80083 1.087787-3.543568 2.290077-5.344398 3.377863l-13.53527-20.782443c1.917012-1.145038 3.775934-2.40458 5.634855-3.549618zm-10.118462 7.332061 13.483607 20.628571c-4.704918 3.085715-9.352459 6.171429-14 9.371429l-14-20.285714c4.762295-3.314286 9.639344-6.514286 14.516393-9.714286zm-23.372959 14.942857c.905051-.628571 1.866667-1.257143 2.771718-1.942857h.056565l14.028283 20.114286c-.961616.628571-1.866667 1.314285-2.828283 1.942857-3.563636 2.571428-7.127273 5.257143-10.634343 7.942857l-14.537374-19.771429c3.676768-2.8 7.410101-5.6 11.143434-8.285714zm-28.930287 21.847219c4.217132-3.32061 8.434263-6.583969 12.709164-9.790076l15.077689 19.637405c-4.101594 3.091603-8.145418 6.240458-12.189243 9.389313-.404382.286259-.808765.629771-1.213147.973282l-15.59761-19.293893c.404382-.28626.808765-.629771 1.213147-.916031zm-4.80208 4.209924 15.588933 19.1587c-4.355731 3.556405-8.711462 7.170172-12.952569 10.8413l-16.047431-18.75717c4.413043-3.785851 8.883399-7.571702 13.411067-11.24283zm-27.389583 22.903846c.84961-.75 1.699219-1.5 2.548829-2.25 2.095703-1.903846 4.248046-3.75 6.34375-5.653846l16.085937 18.692308c-2.039063 1.788461-4.078125 3.51923-6.060547 5.365384-.849609.807693-1.699219 1.557693-2.548828 2.307693-1.302734 1.211538-2.548828 2.423077-3.794922 3.634615l-16.595703-18.288462c1.359375-1.26923 2.662109-2.538461 4.021484-3.807692zm-8.633134 8.096154 16.61165 18.185328c-3.998058 3.880309-7.996117 7.818533-11.881553 11.814672l-17.118447-17.722008c4.054369-4.111969 8.221359-8.223938 12.38835-12.277992zm-19.295686 20.147287c.810811-.786822 1.621622-1.573644 2.432433-2.416667l.752895-.73062 17.722008 17.085271-.694981.674419c-.868726.786822-1.621621 1.573643-2.432432 2.416667-2.953668 2.866279-5.791506 5.844961-8.687259 8.823643l-18.185328-16.579457c3.011583-3.091086 6.023166-6.238372 9.092664-9.273256zm-24.689593 26.305654c3.742802-4.207843 7.543186-8.358823 11.401152-12.452941l18.195777 16.603922c-3.685221 3.980392-7.370441 7.960784-10.940499 11.941176l-.403071.454902-18.65643-16.092157c.172745-.170588.287908-.284314.403071-.454902zm-4.10288 5.547059 18.699809 16.104743c-3.671128 4.241107-7.284895 8.539526-10.8413 12.895257l-19.1587-15.588933c3.728489-4.527668 7.456979-8.998024 11.300191-13.411067zm-22.500191 26.2251c.685714-.924303 1.371429-1.848606 2.057143-2.772909 1.942857-2.484064 3.942857-4.968127 5.885714-7.452191l19.257143 15.59761c-1.885714 2.368525-3.828571 4.679282-5.657143 7.105577-.685714.924303-1.371428 1.848606-2.057143 2.71514-.914285 1.155378-1.771428 2.368526-2.685714 3.581673l-19.6-15.01992c.971429-1.270917 1.885714-2.541833 2.8-3.75498zm-7.53384 9.7749 19.73384 14.537374c-3.365019 4.468687-6.673004 8.937373-9.86692 13.462626l-20.13308-13.971717c3.365019-4.751515 6.787072-9.389899 10.26616-14.028283zm-16.580446 23.408998c.628572-.973415 1.314286-1.889571 1.942857-2.862986.342858-.515337.742858-1.030675 1.085715-1.546012l20.285714 14.02863c-.342857.458078-.685714.973415-1.028571 1.431493-.628572.973415-1.314286 1.88957-1.942858 2.862985-2.171428 3.206544-4.285714 6.470348-6.4 9.676892l-20.628571-13.456033c2.228571-3.378323 4.4-6.756646 6.685714-10.134969zm-10.428571 14.591002 20.742857 13.449275c-3.028571 4.811595-6 9.68116-8.914286 14.550725l-21.085714-12.927536c3.028571-5.10145 6.114286-10.086957 9.257143-15.072464zm-11.480852 20 21.223709 12.474684c-2.868069 4.78481-5.678776 9.626582-8.432122 14.525316l-21.567878-11.905063c2.868069-5.069621 5.793499-10.082279 8.776291-15.094937zm-19.052153 32.167382c.517241-1.042918 1.091954-2.085837 1.609195-3.070815 1.609196-3.070816 3.275862-6.083691 4.885058-9.096567l21.781609 11.935622c-1.609195 2.896996-3.16092 5.793992-4.712644 8.690987-.517241.984979-1.034482 2.027897-1.609195 3.070816-.574713 1.100858-1.091954 2.201717-1.666667 3.302575l-22.011494-11.356223c.574713-1.158798 1.149425-2.317597 1.724138-3.476395zm-4.021435 9.832618 22.297297 10.923414c-2.490347 5.006564-4.980695 10.013129-7.413127 15.076586l-22.586873-10.297593c2.490347-5.291028 5.096525-10.525164 7.702703-15.702407zm-12.2455046 26.616927c.4513619-1.100223.8463035-2.142539 1.3540856-3.184856.3385214-.81069.7334631-1.621381 1.1284047-2.432071l22.0603113 10.30735c-.338521.81069-.677043 1.563474-1.015564 2.316258-.451362 1.042316-.902724 2.084633-1.354086 3.126949-1.466926 3.358574-2.877432 6.832962-4.287938 10.249443l-22.342412-9.728285c1.4669261-3.590201 2.9338521-7.122495 4.4571984-10.654788zm-7.101034 16.383073 22.6438356 9.360731c-2.156556 5.194064-4.199609 10.388127-6.18591 15.639269l-22.81409-8.732877c2.0430528-5.479452 4.1428571-10.901826 6.3561644-16.267123zm-9.4762431 22 23.1200787 8.723653c-1.9980315 5.386417-3.8818898 10.831382-5.7086614 16.276347l-23.2913386-8.138173c1.8838583-5.620609 3.8248031-11.299766 5.8799213-16.861827zm-11.9556185 36.615385c.3466135-1.096154.6932271-2.192308 1.0398406-3.288462 1.0976096-3.461538 2.2529881-6.923077 3.4083666-10.326923l23.62749 7.794231c-1.0976096 3.282692-2.1952191 6.576923-3.2350598 9.865384-.3466135 1.090385-.6932271 2.192308-1.0398406 3.282693-.2888446 1.04423-.5776892 2.025-.8665339 3.057692l-23.8585657-7.153846c.2888446-1.038462.5776892-2.134616.9243028-3.230769zm-2.3424846 7.384615 23.4181818 7.128713c-1.5838384 5.578218-3.0545455 11.227723-4.4686869 16.871287l-23.5313131-6.540594c1.4707071-5.875248 2.9979798-11.69703 4.5818182-17.459406zm-8.1769102 30.628411c.2862985-1.108646.5725971-2.287682.801636-3.402193.2862985-1.108646.5725971-2.170365.8588957-3.226218l23.9345603 6.223667c-.2862986.997195-.5725971 2.053048-.801636 3.050243-.2862986 1.114511-.5725971 2.229023-.801636 3.402193-.801636 3.402193-1.5460123 6.863045-2.2903885 10.323897l-24.1063395-5.572558c.801636-3.584035 1.5460123-7.220862 2.404908-10.799031zm-3.9194308 16.371589 24.5145228 5c-1.219917 5.333333-2.3817427 10.666667-3.4273859 16l-24.5726141-4.388889c1.0456432-5.555555 2.2655602-11.111111 3.4854772-16.611111zm-3.6373759 22 24.1518987 4.360656c-.9683544 5.571311-1.8797468 11.079508-2.7341772 16.639344l-24.2658228-3.672131c.8544304-5.795082 1.8227848-11.532787 2.8481013-17.327869zm-5.6163416 38.835227c.1738197-1.136363.2896995-2.272727.4055794-3.357954.4635193-3.863637 1.0429184-7.670455 1.6223176-11.477273l24.7403433 3.465909c-.5214592 3.636364-1.1008584 7.267046-1.5643777 10.909091-.1158798 1.130682-.2317596 2.267045-.4055794 3.409091-.1158798.738636-.1738197 1.477273-.2317596 2.215909l-24.7982833-2.721591c.0579399-.852273.1158798-1.647727.2317597-2.443182zm-1.6387619 8.164773 24.4070022 2.537092c-.5689278 5.468843-1.0809628 10.994065-1.536105 16.462908l-24.463895-1.860534c.4551422-5.750742 1.02407-11.445104 1.5929978-17.139466zm-3.1276734 30.796976c.0581655-1.172477.1744966-2.339093.2326622-3.517433.1163311-1.406973.2326622-2.813946.3489933-4.279543l24.9530201 1.823203c-.0581655 1.342487-.2326622 2.696698-.2908277 4.039185-.0581656 1.172478-.1744967 2.344955-.2326622 3.523295-.1744967 3.224314-.3489933 6.390004-.4653244 9.614317l-25.0111857-1.05523c.1163311-3.406047.2908277-6.806233.4653244-10.147794zm-.122075 15.203024 24.6567506.961131c-.1144165 3.964664-.228833 7.929328-.2860412 11.954063l-24.7139588 4.084806c.0572082-5.646643.1716247-11.293286.3432494-17zm-2.3432494 20.51-6-.06 6-.96zm2.0572082 6.842941c0-.770588 0-1.535294-.0572082-2.352941h15.3318078l9.382151 1.588235v.705883c0 5.058823.1144165 10.058823.2860412 15.064706l-24.6567506.641176c-.1716247-5.176471-.2860412-10.411765-.2860412-15.647059zm.6439154 36.95547c-.2921348-4.771962-.4674157-9.588785-.7011236-14.411215l25.1820225-.897196c.1752809 4.598131.3505618 9.196262.6426966 13.794393.058427.897196.1168539 1.794392.1752809 2.691588l-25.1235955 1.514019c-.058427-.897196-.1168539-1.794393-.1752809-2.691589zm1.2988764 9.454943 24.6255507-1.763354c.400881 5.55655.8590308 11.113101 1.3744493 16.612951l-24.5682819 2.387049c-.5154185-5.726649-1.030837-11.509997-1.4317181-17.236646zm2.1637931 32.474468c-.1163793-1.140401-.2327586-2.286533-.4073276-3.381088-.2909483-2.406877-.5237069-4.813754-.7564655-7.220631l24.9633621-2.636103c.2327586 2.292264.4073276 4.584527.6982758 6.876791.174569 1.146132.2909483 2.286533.4073276 3.381089.2909483 2.17765.6400862 4.297994.9310345 6.475644l-24.9051724 3.266476c-.2909483-2.234957-.6400862-4.469914-.9310345-6.762178zm2.8362069 13.291104 24.3742072-3.528926c.7991543 5.617355 1.6553911 11.22314 2.6257928 16.834711l-24.2600423 4.165289c-.9704017-5.785124-1.8837209-11.628099-2.7399577-17.471074zm489 103.377478 85.612522-41.906404 12.387478 94c-36.525694-10.245074-69.809805-28.246305-98-52.093596zm100.498618 69.263859 14.501382 109.829737c-90.705853-12.7414-171.301181-57.24983-230-121.931187l100.354182-49.068813c32.469229 28.826703 71.755841 50.158463 115.144436 61.170263zm-204.498618-26.170263 120.027805-161 58.972195 9.594073zm62.884615-88c-19.153846-26.10609-33.576923-55.837066-41.884615-88l96 15.496529zm-10.884615 13.369511-64.992785 87.630489c-51.082251-57.183099-85.367965-129.856669-95.007215-210l111.168831 18.030655c8.888889 38.456503 25.743146 73.891466 48.831169 104.338856zm166.921244 215.990819 2.078756 15.63967c-184.20086-23.20558-330.002482-171.574685-349-357l14.262574 2.308438c20.383356 175.325898 158.216413 315.332692 332.65867 339.051892zm4.611254 21.08408 27.467502 207.55559c-326.249021-11.66815-588.4651527-277.9917-592-605l207.628818 33.48602c18.717306 189.369214 168.108065 341.03779 356.90368 363.95839zm27.558334 214.94125 1.909168 14.61434c-339.195515-10.40333-612.1486856-288.24329-614-629l14.5212475 2.368332c3.0662395 331.052328 268.0356165 600.753308 597.5695845 612.017328zm-632.5087114-498.007734c-.1746362-1.061171-.4074844-2.06649-.5821206-3.071809l24.6819127-4.306117c.1746362 1.010904.4074844 2.010638.5821206 3.015957.8731808 4.412234 1.8045738 8.768617 2.7359667 13.130586l-24.5654886 4.853457c-.989605-4.518351-1.9792099-9.042287-2.8523908-13.622074zm7.9178794 35.789169c-1.204918-5.208997-2.4098361-10.471208-3.5-15.792545l24.1557377-5.37455c1.0901639 5.025707 2.1803279 10.045501 3.3852459 15.077121.1147541.591259.2868853 1.241645.4590164 1.832905l-24.0983607 6.089974c-.1147541-.59126-.2295082-1.241645-.4016393-1.832905zm1.5 7.181447 23.6923077-6.348542c1.3603239 5.684368 2.7773279 11.368736 4.3076923 16.933433l-23.465587 7.066567c-1.5870446-5.863874-3.117409-11.721765-4.534413-17.651458zm9.364 33.956543c-.348-1.104116-.696-2.208233-1.044-3.312349-.812-2.673123-1.566-5.288136-2.32-7.961259l24.012-7.031477c.754 2.498789 1.45 5.05569 2.204 7.554479.348 1.162228.696 2.272155 1.044 3.37046.58 1.807264 1.16 3.602906 1.74 5.346247l-23.78 7.728814c-.58-1.859564-1.276-3.77724-1.856-5.694915zm4.636 11.689033 23.4407115-7.994118c1.7766798 5.470588 3.6106719 10.882353 5.5592885 16.294118l-23.2114625 8.705882c-2.0059288-5.652941-3.9545454-11.3-5.7885375-17.005882zm9.4755382 25.534618c-.3972603-1.091954-.8512721-2.183908-1.2485323-3.224138-.0567515-.224138-.1702544-.454023-.2270059-.683908l22.927593-8.62069c.113503.166667.170254.396552.227006.574713.39726 1.034482.79452 2.126436 1.191781 3.21839 1.475538 4.022989 3.064579 7.994253 4.65362 11.954023l-22.6438356 9.252874c-1.6457926-4.137931-3.2915851-8.275862-4.8806262-12.471264zm13.9563684 34.645588c-2.2003891-5.153153-4.344358-10.364865-6.4319066-15.512162l22.455253-9.662162c1.974708 4.983333 4.062257 9.954955 6.149805 14.873874.112841.292793.225681.591441.394942.878378l-22.229572 10.247748c-.1128405-.298649-.2256809-.532883-.3385214-.825676zm2.5680934 5.076777 22.746615-10.251101c2.37911 5.096916 4.758221 10.193833 7.253385 15.176211l-22.45648 10.823789c-2.553191-5.211454-5.1063827-10.480176-7.54352-15.748899zm15.769231 32.441939c-.519231-.98944-1.096154-2.03708-1.615385-3.08472-1.442308-2.78788-2.769231-5.58741-4.153846-8.375296l22.211538-11.233024 3.98077 8.031903c.576923 1.04764 1.096154 2.037077 1.615384 3.078897.692308 1.33865 1.442308 2.6773 2.192308 4.07415l-21.923077 11.81505c-.75-1.45505-1.557692-2.85191-2.307692-4.30696zm4.230769 10.09086 21.724138-11.7839c2.701149 4.91949 5.45977 9.78178 8.275862 14.64407l-21.436782 12.35593c-2.931034-5.0339-5.804597-10.125-8.563218-15.2161zm15.69084 24.70881c-.572519-1.04956-1.145038-2.04081-1.717558-3.03207-.343511-.52478-.629771-1.10787-.973282-1.69096l21.240458-12.76968c.28626.53061.572519 1.05539.858779 1.58017.572519.99126 1.145038 1.98251 1.774809 2.97377 2.003817 3.38192 4.064885 6.70554 6.125954 10.02915l-20.896947 13.41691c-2.11832-3.5102-4.293893-7.00875-6.412213-10.50729zm9.30916 15.87053 20.742857-13.36324c3.028572 4.71949 6.114286 9.4505 9.257143 14.11237l-20.4 13.88763c-3.257143-4.8405-6.457143-9.681-9.6-14.63676zm13 18.58008 20.285714-13.94332c3.142857 4.59109 6.4 9.06883 9.714286 13.54656l-19.885714 14.45344c-3.428572-4.64211-6.8-9.35223-10.114286-14.05668zm22.301527 30.15088c-.687023-.928-1.374046-1.856-2.061069-2.784-2.118321-2.7782-4.179389-5.626-6.240458-8.4042l19.80916-14.906c2.003817 2.668 3.950382 5.336 5.954199 8.004l2.061068 2.784c.687023.9222 1.431298 1.798 2.175573 2.726l-19.408397 15.486c-.744275-.9918-1.545801-1.9198-2.290076-2.9058zm5.698473 7.35027 19.273423-15.44447c3.556405 4.36923 7.11281 8.73273 10.726577 13.0388l-18.871893 15.9612c-3.728489-4.48406-7.456979-8.96238-11.128107-13.55553zm19.203455 23.36569c-.748561-.84742-1.554703-1.70622-2.303263-2.55364-.633397-.73936-1.266795-1.48441-1.900192-2.22377l18.829175-16.03275c.575815.6768 1.151631 1.42185 1.785028 2.09865.748561.90998 1.497121 1.7119 2.245682 2.55932 2.360844 2.6162 4.77927 5.2324 7.140115 7.8486l-18.31094 16.49343c-2.53359-2.72995-5.009597-5.45989-7.485605-8.18984zm11.796545 12.69666 18.230769-16.50682c3.865385 4.07018 7.788462 8.08382 11.769231 12.04094l-17.826923 16.95906c-4.096154-4.12105-8.192308-8.25341-12.173077-12.49318zm16 17.04144 17.231068-17.54826c3.885437 3.99035 7.770874 7.99228 11.768932 11.9305l-16.724272 18.0695c-4.16699-4.11197-8.221359-8.22394-12.275728-12.45174zm27.761719 26.61489c-.84961-.74856-1.699219-1.50288-2.548828-2.30327-2.775391-2.52783-5.494141-5.17658-8.212891-7.77351l16.708984-18.08637c2.605469 2.53359 5.210938 5.0096 7.873047 7.49136l2.548828 2.24568c.623047.57582 1.246094 1.0883 1.869141 1.66987l-16.199219 18.59309c-.679687-.62764-1.359375-1.20345-2.039062-1.83685zm7.238281 6.42194 16.212598-18.58509c4.22441 3.72849 8.448819 7.34226 12.787402 10.95602l-15.698819 19.04398c-4.452756-3.72849-8.905512-7.5717-13.301181-11.41491zm23.696429 19.17445c-.863096-.68702-1.783731-1.4313-2.646826-2.11832-1.035714-.80153-2.013889-1.6603-3.049603-2.51908l15.708333-19.12214c.920635.80725 1.84127 1.60305 2.819445 2.34733.863095.74427 1.78373 1.4313 2.704365 2.17557 2.531746 2.00954 5.178571 4.00763 7.767857 6.01145l-15.248016 19.46565c-2.646825-2.06107-5.40873-4.12214-8.055555-6.24046zm12.303571 9.89189 14.677419-19.65143c4.403226 3.42857 8.862904 6.74286 13.322581 10l-14.112903 20c-4.685484-3.37714-9.314516-6.80571-13.887097-10.34857zm19 14.52 14.170732-20.17143c4.552845 3.25714 9.162601 6.4 13.829268 9.48571l-13.544715 20.51429c-4.894309-3.2-9.674797-6.51429-14.455285-9.82857zm32.305785 20.85714c-.983471-.62857-1.966942-1.2-2.950413-1.82857-3.471074-2.17143-6.884298-4.4-10.355372-6.62857l13.595041-20.57143c3.297521 2.11429 6.595042 4.22857 9.950414 6.28571.983471.62858 1.966942 1.2 2.950413 1.82858.520661.28571.983471.57142 1.504132.91428l-13.07438 20.97143c-.520661-.34286-1.099174-.62857-1.619835-.97143zm6.694215 4.09166 12.566038-21.12023c4.754717 2.91985 9.566037 5.72519 14.433962 8.53053l-12.056604 21.46947c-5.037736-2.92557-10.018868-5.84542-14.943396-8.87977zm28.138593 16.51687c-1.036248-.57483-2.072495-1.08642-3.051173-1.66699-1.381663-.74727-2.705757-1.55202-4.08742-2.29354l12.031983-21.67657c1.266524.74727 2.533049 1.49454 3.857143 2.18433.978678.58057 2.014925 1.09216 3.051173 1.66698 2.648187 1.43706 5.353944 2.75915 8.059701 4.19621l-11.45629 21.95248c-2.820896-1.43131-5.641791-2.86837-8.405117-4.3629zm13.861407 7.52101 11.504348-22.15811c5.106522 2.53318 10.271739 5.0779 15.495652 7.50144l-10.858696 22.49856c-5.4-2.59088-10.8-5.18754-16.141304-7.84189zm22.462222 10.0415c-.173333-.06182-.346666-.1686-.462222-.2248l10.457778-21.97481c.173333.0562.346666.1686.52.22481 4.968889 2.24244 9.995555 4.43992 15.022222 6.57558l-9.88 22.19961c-5.257778-2.19186-10.457778-4.43992-15.657778-6.80039zm36.137778 15.34903c-1.122727-.3893-2.186364-.84066-3.309091-1.24125-4.136364-1.57976-8.213636-3.27237-12.290909-4.90856l9.927273-22.39883c3.9 1.57977 7.8 3.15953 11.7 4.68288 1.122727.39494 2.245454.8463 3.309091 1.24124.354545.11849.709091.22569 1.063636.39495l-9.218182 22.68093c-.413636-.16926-.768182-.2821-1.181818-.45136zm5.4 2.45727 8.932715-23.00591c5.278422 2.00374 10.672853 3.93898 16.067285 5.77146l-8.236659 23.22854c-5.62645-1.94094-11.194896-3.93898-16.763341-5.99409zm34.634845 12.32212c-2.147971-.69185-4.355609-1.3837-6.50358-2.07554-1.73031-.57655-3.460621-1.14732-5.131265-1.72963l8.23389-23.52286c1.610979.51889 3.221957 1.09543 4.892602 1.61431 2.147971.69185 4.295942 1.3837 6.443914 2.0179 1.789976.5823 3.639618 1.04354 5.429594 1.61431l-7.637232 23.75348c-1.909307-.57654-3.818615-1.09543-5.727923-1.67197zm10.365155 1.93958 7.270936-23.26761c5.55665 1.57746 11.1133 3.09859 16.729064 4.56338l-6.62069 23.43662c-5.852216-1.52113-11.64532-3.09859-17.37931-4.73239zm40.337563 11.73239c-4.378172-1.02878-8.81472-2.00041-13.134517-3.08634-1.109137-.28578-2.218274-.57155-3.385787-.85161-.291878-.05715-.525381-.17146-.817259-.22861l6.304569-23.83344c.291878.05715.52538.16575.817258.22862 1.109137.28577 2.218275.57154 3.385787.8516 4.14467 1.0345 8.347716 2.00612 12.492386 2.9206zm22.665055 5c-.240838-.05785-.541885-.12149-.782723-.17355-5.780104-1.09339-11.5-2.2562-17.219895-3.47108l5.659686-24.35537c5.479057 1.21488 10.958115 2.30826 16.497382 3.35537.240838.05785.541885.1157.842932.16777zm24.184374 4c-5.747968-.90756-11.495935-1.92857-17.186992-2.94958l4.552846-24.05042c5.463414 1.02101 10.926829 1.92857 16.447154 2.83613zm22.883431 4c-1.521127-.23023-3.098592-.3511-4.676057-.58133-1.12676-.16691-2.253521-.34534-3.380281-.46045-3.042254-.39715-6.02817-.91516-9.014085-1.37562l3.605634-24.5826c2.873239.46046 5.746479.92091 8.619718 1.32381 1.126761.16692 2.197183.34534 3.323944.51801 1.464789.17268 2.985915.34535 4.450704.51802zm23.917812 2c-5.7-.52941-11.344117-1.11765-16.988235-1.76471l2.682353-25.23529c5.420588.64118 10.841176 1.23529 16.317647 1.76471zm22.733478 1c-4.125383-.16797-8.308869-.39964-12.434251-.68924-1.16208-.12163-2.324159-.12163-3.486239-.23168-.58104-.06371-1.162079-.12163-1.801223-.17376l1.917431-24.90532c.58104.05792 1.103976.11584 1.685015.16797 1.16208.12163 2.32416.17375 3.486239.23167 3.95107.29539 7.902141.52707 11.911315.69504zm6.278287.46709 1.12-25.46709c3.111111.12435 6.222222.23685 9.333333.36119l3.546667 25.63881c-4.666667-.11842-9.333333-.29606-14-.53291zm20.06989-255.4498-4.228126 205.17488-.115839 5.72177-.984632 48.08606-6.371149-48.31724-.752953-5.72178-27.453858-207.66009-.810873-5.95296-32.319098-244.764956-8.514171-64.211067 89.891111-89.930171-402.714495-2.600808-5.791953-.057796-205.6143336-1.271506-5.791953-.063575-18.3604912-.115592v-1.566264l-25.1370762-.231183 43.6134064-6.871914 5.7919531-.924732 208.1048725-32.82798 5.965712-.982527 235.906248-37.220456 74.136999-11.848127 89.891111 96.576681-8.166654-401.795981-.115839-5.779574-4.170206-205.1748755-.115839-5.7217782-1.100471-54.9637483 9.672561 54.8481568.984632 5.7795739 36.315546 206.5041773 1.042552 5.83737 43.323808 246.267646 8.919608 50.571272-86.589698 103.627761-8.224573 401.795983zm5.475762 211.43129c1.21497.05772 2.42994.05772 3.64491.05772 341.522328 0 619.345508-277.18118 619.345508-617.843727 0-4.90627-.05786-9.75482-.23142-14.603369l14.46393-3.059204c.17356 5.893296.23142 11.775049.23142 17.668345 0 348.691515-284.30302 632.331655-633.809438 632.331655-2.082806 0-4.107756-.05772-6.190562-.05772zm3.630819 44.55142c-1.705883 0-3.470589-.06335-5.176471-.06335l.235294-24.82147c1.647059 0 3.294118.05759 4.941177.05759 4.117647 0 8.235294-.05759 12.294117-.17277l.529412 24.87906c-4.235294.06335-8.529412.12094-12.823529.12094zm30.96233-.5281c-1.135646.05868-2.271293.12323-3.40694.17604-3.350158.17603-6.700315.23471-10.107255.35206l-.624606-25.29c3.236593-.12323 6.416404-.23471 9.652997-.35794 1.135647-.05867 2.271293-.05867 3.40694-.11735 1.192429-.05868 2.384858-.17603 3.577287-.23471l1.362776 25.23132c-1.249211.06455-2.555205.18191-3.861199.24058zm10.349151-.4719-1.487952-24.72904c5.608434-.35081 11.159639-.81088 16.768072-1.27096l2.231928 24.67153c-5.837349.52334-11.61747.9259-17.512048 1.32847zm29.124765-2.64161c-1.15607.12249-2.312139.29748-3.468208.4083-.924856.12249-1.849711.17498-2.716763.23331l-2.427746-25.02268c.867052-.11666 1.676301-.17499 2.543353-.23331 1.156069-.11666 2.312138-.29164 3.468208-.40247 3.641618-.40829 7.225433-.87492 10.867052-1.34154l3.121387 24.96436c-3.815029.46079-7.572254.98574-11.387283 1.39403zm18.55395-1.35839-3.166667-24.52505c5.388889-.8058 10.777778-1.60584 16.111111-2.47495l3.888889 24.46174c-5.611111.92666-11.222222 1.79002-16.833333 2.53826zm23.830652-4-3.997319-24.8954c5.404826-.99581 10.809651-1.99163 16.214477-3.1046l4.785523 24.72552c-5.630027 1.16569-11.316354 2.27866-17.002681 3.27448zm36.963821-7.0535c-1.132124.23045-2.323834.46091-3.455959.74897-3.753886.80659-7.567357 1.56132-11.321243 2.30453l-5.183938-24.37037c3.57513-.69136 7.209845-1.38272 10.784974-2.1893 1.19171-.23045 2.323834-.46091 3.515544-.74897.953368-.23045 1.84715-.46091 2.800518-.69136l5.898964 24.19753c-1.012953.28807-2.025907.51852-3.03886.74897zm7.976203-2.9465-5.937343-23.79631c5.47619-1.30655 10.952381-2.72672 16.370927-4.20369l6.629073 23.63157c-5.649123 1.5281-11.35589 3.00507-17.062657 4.36843zm29.843679-7.972c-1.109489.29-2.218978.638-3.328467.986-1.167883.3538-2.394161.638-3.562044.986l-6.890511-24.0642c1.109489-.3538 2.277372-.638 3.386861-.928 1.109489-.3538 2.218978-.696 3.386862-.986 3.270073-.928 6.481751-1.9778 9.69343-3.0218l7.532847 23.896c-3.445255 1.044-6.773723 2.146-10.218978 3.132zm15.098125-5.028-7.879147-23.54563c5.56872-1.72244 11.078199-3.5597 16.528436-5.45437l8.471564 23.36765c-5.687204 1.95783-11.374408 3.8525-17.120853 5.63235zm23.550414-7-8.429561-23.08627c5.311778-1.87648 10.623557-3.87236 15.877598-5.91373l9.122402 22.85882c-5.484988 2.10393-11.027714 4.15098-16.570439 6.14118zm35.688086-14.82261c-1.058823.45224-2.117647.90448-3.235294 1.35672-3.764706 1.52632-7.588235 2.9961-11.411765 4.46589l-9.470588-22.61209c3.647059-1.41325 7.294118-2.82651 10.941176-4.29629 1.058824-.39571 2.117648-.90449 3.235295-1.35673.588235-.22612 1.17647-.50877 1.705882-.73489l10.117647 22.38596c-.647059.22613-1.235294.50878-1.882353.79143zm6.948725-3.17739-10.066372-22.10486c5.119469-2.23853 10.238938-4.5444 15.300885-6.89514l10.699115 21.82434c-5.234513 2.46295-10.584071 4.8193-15.933628 7.17566zm29.481458-13.57115c-1.056526.51923-2.113047 1.03846-3.169569 1.5-1.408696.6923-2.876087 1.38461-4.343478 2.07115l-11.034783-22.32115c1.35-.69231 2.758696-1.275 4.108696-1.96731 1.056521-.51923 2.054347-1.03846 3.110869-1.55769 2.758696-1.32693 5.4-2.76923 8.1-4.15385l11.680435 22.09615c-2.81739 1.44808-5.63478 2.94808-8.45217 4.3327zm13.11387-7.42885-11.6617-21.89655c4.94043-2.64368 9.88085-5.34483 14.76383-8.10345l12.23617 21.55172c-5.05532 2.87357-10.16809 5.68966-15.3383 8.44828zm20.69395-11.40084c-.23431.12025-.46862.28631-.70293.40084l-12.65272-21.35904c.23431-.11452.46862-.28631.70293-.39511 4.74477-2.69708 9.37238-5.43997 14.05858-8.24585l13.23849 21.01546c-4.86192 2.91468-9.72385 5.77782-14.64435 8.5837zm35.01061-20.64669c-.97943.62989-1.95885 1.25978-2.88066 1.88968-3.74486 2.4623-7.48972 4.81007-11.29218 7.15785l-13.19342-20.89521c3.62963-2.23898 7.25926-4.52376 10.77366-6.81428.97943-.62989 1.95885-1.25978 2.88066-1.88967.17284-.11453.40329-.28631.57613-.40084l13.76955 20.5001c-.23045.16606-.40329.33785-.63374.45237zm5.4061-3.95247-13.77236-20.34857c4.60976-3.14286 9.21951-6.4 13.71545-9.65143l14.28455 20.05714c-4.72358 3.37143-9.44715 6.68572-14.22764 9.94286zm26.64732-18.48676c-.93173.68585-1.80522 1.37169-2.73695 2.05754-1.63052 1.20022-3.26104 2.28615-4.83333 3.42922l-14.8494-19.88379c1.51406-1.08592 3.08635-2.11469 4.6004-3.25776.93173-.68585 1.86346-1.37169 2.79518-2.05182 2.15462-1.54887 4.19277-3.20633 6.28916-4.80663l15.31526 19.5523c-2.21285 1.64602-4.36747 3.30348-6.58032 4.96094zm10.94342-9.51324-15.3631-19.44551c4.43056-3.44168 8.80357-6.99808 13.11905-10.55449l15.88095 18.92925c-4.4881 3.78586-9.03373 7.45698-13.6369 11.07075zm19.90016-16.20667c-.45579.39648-.96856.80445-1.42436 1.20667l-15.8389-18.90442c.51277-.40223.96857-.81019 1.42436-1.20667 3.76032-3.22352 7.52063-6.55622 11.22397-9.88891l16.35167 18.44474c-3.87426 3.51082-7.74853 6.96419-11.73674 10.34859zm26.47553-23.57707c-3.44834 3.296-6.89668 6.60359-10.40156 9.78374l-16.33723-18.47268c3.33528-3.07009 6.67057-6.19811 9.94932-9.38405.73489-.75304 1.46978-1.44816 2.20468-2.14327l16.846 18.00927c-.73489.75883-1.52632 1.45395-2.26121 2.20699zm7.17788-6.21626-16.91667-17.87234c3.93411-3.99807 7.86822-8.00774 11.68992-12.12766l17.31008 17.46615c-3.99031 4.23598-7.98062 8.41393-12.08333 12.53385zm23.22784-24.4069c-.80925.84812-1.56069 1.70189-2.36994 2.48781-1.5607 1.6397-3.17919 3.27939-4.79769 4.91909l-17.97688-16.84929c1.50289-1.52661 3.06358-3.05323 4.56647-4.63073.80925-.84811 1.5607-1.70189 2.36995-2.48781 1.56069-1.69624 3.06358-3.39247 4.62427-5.03217l18.43931 16.34042c-1.6185 1.75278-3.23699 3.4999-4.85549 5.25268zm8.36124-9.5931-18.50575-16.32677c3.73563-4.16162 7.41379-8.39173 11.09195-12.67323l18.90805 15.87008c-3.7931 4.45275-7.64368 8.79134-11.49425 13.12992zm17.33394-20.12897c-.62977.69048-1.20229 1.43849-1.83206 2.12897l-19.00763-15.82341c.62977-.69048 1.20229-1.43849 1.83206-2.12897 2.9771-3.625 5.89695-7.36508 8.75954-11.04762l19.4084 15.30556c-3.03435 3.91269-6.0687 7.76785-9.16031 11.56547zm22.79149-28.15482c-3.02281 4.13537-6.04563 8.21249-9.12548 12.28379l-19.5057-15.26009c2.96578-3.96064 5.93156-7.86303 8.78327-11.87608.45627-.64069.91255-1.22896 1.36882-1.86383l19.84791 14.79414c-.45627.64069-.91255 1.28138-1.36882 1.92207zm4.36882-6.71621-20-14.22764c3.25714-4.55285 6.51429-9.1626 9.65714-13.77236l20.34286 13.77236c-3.25714 4.78049-6.62857 9.56097-10 14.22764zm21.28571-31.04115c-.62857.97942-1.2 1.95885-1.82857 2.94403-1.94285 3.04774-3.94285 6.04938-5.94285 9.09712l-20.51429-13.71193c1.88571-2.88066 3.82857-5.76132 5.71429-8.69959.62857-.97943 1.2-1.95885 1.82857-2.93827.57143-.8642 1.08571-1.79177 1.6-2.65021l20.85714 13.19342c-.57143.92181-1.14286 1.84362-1.71429 2.76543zm4.72574-8.95885-21.01145-13.1524c2.9771-4.91023 5.83969-9.87892 8.64504-14.8476l21.35496 12.6263c-2.91985 5.20251-5.89695 10.28811-8.98855 15.3737zm14.87361-25.90321c-.51724 1.03163-1.09196 2.00595-1.66667 3.03758-.51724.97431-1.09195 1.89131-1.66667 2.86563l-21.55172-12.2076c.51724-.917 1.03448-1.78242 1.55172-2.69943.57472-.97431 1.14943-1.94863 1.72414-2.98026 1.66667-3.03757 3.27586-6.08087 4.88506-9.11271l21.83908 11.57716c-1.66667 3.21524-3.3908 6.36744-5.11494 9.51963zm8.1534-14.09679-22.03846-11.596529c2.59615-5.095445 5.13462-10.249458 7.61538-15.403471l22.38462 11.010846c-2.59615 5.382429-5.25 10.712144-7.96154 15.989154zm11.53407-22-22.57253-10.615758c2.49516-5.112779 4.87427-10.214081 7.13733-15.384242l22.86267 9.984551c-2.37911 5.405429-4.87427 10.736261-7.42747 16.015449zm15.46833-35.109435c-.39495 1.053817-.84631 2.166179-1.24125 3.219996-1.46693 3.629813-2.99027 7.259626-4.51362 10.889439l-22.28599-10.075659c1.46693-3.454177 2.87743-6.908354 4.28794-10.362531.39494-1.053816.8463-2.166178 1.24124-3.219995.2821-.76109.56421-1.528034.90273-2.341815l22.56809 9.425805c-.33852.82549-.62062 1.645125-.95914 2.46476zm2.81796-7.890565-22.85882-9.064665c2.04706-5.311778 4.03725-10.623557 5.97059-15.935335l23.02941 8.429561c-1.9902 5.542725-4.03725 11.085451-6.14118 16.570439zm9.98276-29.113243c-.40198 1.066098-.74653 2.191424-1.14851 3.316749-.40198 1.308932-.91881 2.552713-1.32079 3.796494l-23.37228-8.410329c.40198-1.184554.86139-2.369107 1.26337-3.612888.34455-1.066098.74653-2.191424 1.14851-3.31675 1.03366-3.198294 2.0099-6.396588 2.98614-9.660033l23.60198 7.818053c-1.09109 3.375977-2.06733 6.757877-3.15842 10.068704zm5.15039-14.886757-23.99197-7.438186c1.68876-5.495245 3.31928-11.002194 4.83333-16.561814l24.16667 6.84711c-1.57229 5.741039-3.26104 11.476226-5.00803 17.15289zm6.68283-23-23.6748-6.52851c1.42276-5.488571 2.84553-10.977142 4.15447-16.47149l23.84553 5.898769c-1.36585 5.725446-2.84553 11.439337-4.3252 17.101231zm9.97952-37.886783c-.23045 1.128798-.51852 2.329265-.74897 3.464036-.8642 4.180732-1.78601 8.301739-2.70782 12.422747l-24.19753-5.799273c.92181-3.935861 1.84362-7.877694 2.65021-11.879252.23045-1.194495.4609-2.335238.69135-3.52376.11523-.60322.23046-1.194495.34568-1.797715l24.31276 5.196053c-.11523.662945-.23045 1.260192-.34568 1.917164zm1.12392-8.113217-24.77824-4.685484c1.11297-5.419355 2.16736-10.895161 3.1046-16.314516l24.8954 4.008065c-.99582 5.701612-2.10879 11.346774-3.22176 16.991935zm6.0128-31.852966c-.1727 1.113896-.34541 2.177667-.51812 3.285993-.23028 1.509329-.51812 3.007519-.80597 4.566973l-24.46695-3.787246c.23028-1.453634.51812-2.846004.7484-4.294068.17271-1.113896.28785-2.222223.46056-3.341688.46055-2.840434.80597-5.736564 1.20895-8.576998l24.58209 3.118908c-.40299 3.013089-.7484 6.020607-1.20896 9.028126zm2.3307-15.147034-25.12174-3.013619c.70435-5.679513 1.2913-11.301072 1.87826-16.986381l25.12174 2.376123c-.52826 5.917125-1.17391 11.770501-1.87826 17.623877zm1.6703-23.688614c0 .229538-.05753.459076-.05753.688614l-24.73451-2.123226c0-.286922.05752-.51646.05752-.745998.46018-5.336756.86283-10.730897 1.15044-16.130776l24.79204 1.497735c-.34513 5.623678-.74779 11.247357-1.20796 16.813651zm2.20796-39.773411c-.05869 1.13924-.11738 2.272784-.11738 3.417721-.17607 4.391772-.41084 8.71519-.6456 13.044304l-25.23702-1.253165c.17607-4.158227.41084-8.316455.58691-12.474683 0-1.133544.11738-2.272785.11738-3.417722v-.85443l25.29571.626582zm-.11547-5.537975-24.88453-.406015c.05774-3.648251.11547-7.355345.11547-11.003596 0-2.118339-.05773-4.236679-.05773-6.296175l24.88452-.294214c0 2.236025.05774 4.354364.05774 6.590389 0 3.824779-.05774 7.584832-.11547 11.409611z" fill="#fe6153"/></svg>