<svg viewBox="0 0 260 718" xmlns="http://www.w3.org/2000/svg"><g fill="none" fill-rule="nonzero"><path d="m-117.796642 475.350068v-238.466757h-37.977773l-72.225585 51.56038 22.718846 35.108548 40.012296-30.020353v181.818182zm182.76803 0v-39.009498h32.2132892v-40.36635h-32.2132892v-159.090909h-37.9777725l-109.3556396 169.436906v30.020353h101.0480019v39.009498zm-43.0640813-77.001357h-53.0671554l53.0671554-85.651289zm138.5171433 85.651289c18.536769-3.505202 35.688934-9.865446 51.456491-19.080733 15.767557-9.215286 29.218018-20.494119 40.351383-33.836499 11.133366-13.34238 19.836605-28.720035 26.109719-46.132972 6.273114-17.412936 9.409671-35.843508 9.409671-55.291723 0-8.02804-.706432-15.773405-2.119295-23.236092s-3.503902-14.360019-6.273114-20.691995c-2.769212-6.331975-6.075313-12.211668-9.918302-17.639077-3.84299-5.427408-8.222866-10.232925-13.139632-14.416554-4.916765-4.183628-10.229131-7.745364-15.9371-10.68521-5.70797-2.939845-11.868054-5.172998-18.480256-6.699457-6.612201-1.526459-13.422205-2.289688-20.430007-2.289688-11.868054 0-23.057933 1.950475-33.569638 5.851425-10.511705 3.900949-19.582289 9.300089-27.211752 16.197422-7.629464 6.897332-13.648262 15.292854-18.056397 25.186567-4.408134 9.893712-6.612201 20.607191-6.612201 32.140434 0 9.611037 1.243319 18.515379 3.72996 26.713026 2.48664 8.197647 5.962285 15.321121 10.426933 21.37042 4.464648 6.0493 9.748758 11.250565 15.852329 15.6038 6.10357 4.353234 12.772286 7.604024 20.006148 9.752374s14.863325 3.222524 22.88839 3.222524c16.163158 0 30.913453-3.731343 44.250886-11.19403l.339088.169607c-6.781745 16.847579-17.378222 30.642244-31.789431 41.383989-14.411208 10.741745-32.806691 19.22207-55.18645 25.440977zm40.690471-133.649932c-11.868054 0-21.305984-3.363862-28.313786-10.091588s-10.511705-15.405924-10.511705-26.034599c0-10.515604 3.673446-19.419946 11.020336-26.713026s16.954363-10.93962 28.822417-10.93962c11.755024 0 21.447268 4.551107 29.076732 13.653324 7.629463 9.102217 11.444194 21.002939 11.444194 35.702171v2.883311c-5.086308 6.331975-11.302909 11.504974-18.649799 15.518996-7.346889 4.014021-14.976352 6.021031-22.888389 6.021031zm201.078742 127.883311c16.163158 0 30.800426-2.741973 43.911799-8.225916s23.538306-13.511987 31.2808-24.084125c7.742493-10.572139 11.613738-22.755541 11.613738-36.550204 0-15.603799-3.899503-28.833107-11.69851-39.687924s-17.971625-18.600181-30.517853-23.236092v-.508819c8.025064-3.505203 14.976353-9.837178 20.853866-18.99593s8.816269-19.391677 8.816269-30.698779c0-12.777023-3.221329-23.914518-9.663987-33.412483s-15.230669-16.677973-26.364034-21.540027c-11.133366-4.862054-23.877394-7.29308-38.232088-7.29308-14.015608 0-26.533578 2.317957-37.553914 6.953867-11.020335 4.635911-19.836604 11.731118-26.448806 21.285617-6.612201 9.5545-9.918302 20.88987-9.918302 34.006106 0 11.307102 2.967014 21.568296 8.901041 30.783582 5.934027 9.215287 12.857057 15.518996 20.769094 18.911127v.508819c-12.433198 4.635911-22.521044 12.381275-30.263537 23.236092-7.742494 10.854817-11.613739 24.084125-11.613739 39.687924 0 13.568521 3.72996 25.610584 11.18988 36.126188 7.459919 10.515603 17.717309 18.600181 30.772168 24.253731 13.054859 5.653549 27.776897 8.480326 44.166115 8.480326zm0-150.78019c-5.877513 0-11.105108-1.130711-15.682786-3.392131-4.577678-2.261419-8.166352-5.455677-10.76602-9.582768s-3.899503-8.79127-3.899503-13.992537c0-4.975123 1.271577-9.554499 3.814731-13.738127 2.543155-4.183629 6.160084-7.519222 10.850792-10.006785s9.918302-3.731343 15.682786-3.731343c8.703238 0 15.965359 2.600632 21.786356 7.8019 5.820997 5.201267 8.731497 11.759384 8.731497 19.674355 0 7.914972-2.825728 14.388285-8.477182 19.419946-5.651453 5.031661-12.998345 7.54749-22.040671 7.54749zm0 110.413839c-10.850792 0-19.97789-3.307327-27.381296-9.921981s-11.105108-14.840569-11.105108-24.677747c0-10.176391 3.588675-18.543645 10.766021-25.101764s16.417473-9.837178 27.720383-9.837178c7.572949 0 14.269923 1.49819 20.09092 4.494573 5.820997 2.996382 10.342161 7.151742 13.56349 12.466078 3.221329 5.314337 4.831993 11.307102 4.831993 17.978291 0 9.497965-3.61693 17.639077-10.850792 24.423338-7.233862 6.78426-16.445732 10.17639-27.635611 10.17639z" opacity=".2" stroke="#fff" transform="matrix(0 -1 1 0 -228.5 489.5)"/><path d="m55.2394775 267.59673v-68.959128h-6.9385583l-19.3009192 14.223433 4.1044993 6.27793 13.7305273-10.348774v58.806539zm52.6255445 0v-12.163487h10.016933v-7.651227h-10.016933v-49.144414h-7.134011l-33.2268988 50.762943v6.032698h31.9564587v12.163487zm-8.2578619-19.618528h-21.9395258l21.9395258-33.989101zm37.2336719 22.021798c3.615869-.653951 7.142155-1.814714 10.578858-3.482289 3.436704-1.667575 6.686099-3.841961 9.748186-6.523161 3.062087-2.681199 5.741413-5.730245 8.037978-9.147139s4.120787-7.348773 5.472666-11.79564 2.027818-9.106267 2.027818-13.978202c0-4.021798-.618933-7.73297-1.856798-11.133515-1.237864-3.400544-2.939929-6.26158-5.106192-8.583106-2.166263-2.321525-4.723432-4.128065-7.671505-5.419618-2.948072-1.291553-6.11603-1.93733-9.50387-1.93733-4.462828 0-8.502177.980926-12.118046 2.942779-3.615868 1.961853-6.458071 4.667575-8.526608 8.117167-2.068537 3.449591-3.102806 7.283378-3.102806 11.501362 0 4.381471.920254 8.231607 2.760764 11.550409 1.84051 3.318801 4.332527 5.836512 7.476052 7.553133s6.686099 2.574932 10.627722 2.574932c2.215126 0 4.373246-.245232 6.474359-.735695 2.101112-.490463 4.047492-1.19346 5.839139-2.108992 1.791646-.915531 3.420416-2.010899 4.886308-3.286103l.14659.098092c-1.009838 3.694823-2.492018 7.062671-4.446541 10.103543-1.954524 3.040872-4.234801 5.623978-6.840832 7.749319-2.606032 2.12534-5.350508 3.907357-8.233431 5.346049-2.882922 1.438691-5.936865 2.566757-9.161828 3.384196zm10.701016-35.509537c-4.267376 0-7.712223-1.283379-10.334543-3.850136-2.622319-2.566757-3.933478-5.910082-3.933478-10.029973 0-1.99455.374617-3.891008 1.123851-5.689373s1.783502-3.367848 3.102806-4.708447c1.319303-1.340599 2.948072-2.40327 4.886308-3.188011s4.047493-1.177112 6.32777-1.177112c3.029512 0 5.733269.760218 8.111273 2.280654 2.378003 1.520436 4.251088 3.694823 5.619255 6.523161 1.368166 2.828338 2.052249 6.073569 2.052249 9.735695v.53951c-1.791647 2.877384-4.210369 5.190735-7.256168 6.940054s-6.278907 2.623978-9.699323 2.623978zm59.173198 33.694823c4.52798 0 8.624335-.792916 12.289066-2.378746 3.664732-1.585831 6.580229-3.87466 8.746493-6.866486 2.166263-2.991825 3.249395-6.433242 3.249395-10.32425 0-4.54496-1.20529-8.427793-3.615868-11.648502-2.410579-3.220708-5.570392-5.435967-9.479439-6.645776v-.147139c.944686-.326976 1.881229-.80109 2.809627-1.422343.928399-.621254 1.807934-1.389646 2.638607-2.305178.830672-.915531 1.555475-1.920981 2.174407-3.016348.618933-1.095368 1.115707-2.321526 1.490324-3.678474.374618-1.356949.561926-2.754769.561926-4.193461 0-5.231608-1.921948-9.46594-5.765844-12.702997-3.843897-3.237057-8.876795-4.855586-15.098694-4.855586-2.931785 0-5.659974.400545-8.184567 1.201635s-4.715288 1.93733-6.572085 3.408719c-1.856797 1.47139-3.314546 3.318802-4.373246 5.542235-1.058701 2.223433-1.588051 4.692098-1.588051 7.405994 0 3.498637.969118 6.588556 2.907354 9.269755s4.177794 4.463215 6.718674 5.346049v.147139c-3.843896 1.209809-6.971134 3.433242-9.381712 6.6703-2.410579 3.237057-3.615869 7.111716-3.615869 11.623978 0 3.694822 1.017981 7.029972 3.053943 10.005449s4.894453 5.313352 8.575472 7.013624c3.681019 1.700273 7.834381 2.550409 12.460087 2.550409zm.048863-41.591281c-3.74617 0-6.791969-.948228-9.137397-2.844686s-3.518142-4.414169-3.518142-7.553134c0-2.975477 1.180858-5.493188 3.542573-7.553133 2.361716-2.059946 5.399371-3.089918 9.112966-3.089918 3.681019 0 6.726819.997274 9.137397 2.991825 2.410579 1.994551 3.615869 4.54496 3.615869 7.651226 0 3.138965-1.180859 5.656676-3.542574 7.553134-2.361716 1.896458-5.431947 2.844686-9.210692 2.844686zm-.048863 33.940055c-4.397678 0-8.086841-1.217983-11.067489-3.653951s-4.470973-5.501363-4.470973-9.196185c0-3.923706 1.425174-7.111717 4.27552-9.564033 2.850347-2.452316 6.604661-3.678474 11.262942-3.678474 4.690856 0 8.461458 1.226158 11.311805 3.678474 2.850346 2.452316 4.27552 5.640327 4.27552 9.564033 0 3.531335-1.449606 6.555858-4.348815 9.073569-2.89921 2.517711-6.64538 3.776567-11.23851 3.776567z" fill="#fff" transform="matrix(0 -1 1 0 -104 364)"/></g></svg>