<svg height="180" viewBox="0 0 180 180" width="180" xmlns="http://www.w3.org/2000/svg"><path d="m41.0549634 81.1111111-8.0484275-1.940509.7640238-2.9632895c.4132061-1.6021592 1.6156735-2.7584909 3.4138099-2.3244875 1.8280765.4409765 2.3180926 2.1497037 1.9047297 3.7524693l-.1291661.5010063-1.1538734-.3331957c.1159987-.4644731.2127165-.9574451.1934356-1.2886702-.0405995-.6979223-.3976873-1.2219704-1.1165656-1.3953898-1.8410872-.4438568-2.0674414 2.0143335-2.3500707 3.1109386l2.9584367.7132329 1.1867919.2862027.2776131.0650323 2.4168482.5845327zm1.6009988-8.3660131-7.557923-3.2656334c.1671339-.3643149 1.3339443-3.4228305 2.2166739-4.3060779.776258-.7768815 1.7804685-1.0166223 2.8067238-.5731018 1.1760348.5083111 1.6308453 1.5173466 1.4321295 2.7165056l4.0019892-.8920481-.6582168 1.434803-3.7122799.8143599-.2806411.6114907-1.0964547-.4492863c.2640684-.5677911.5384557-1.2231331.586923-1.5965521.0814563-.6269677-.1343013-1.1879307-.754995-1.4558941-.9616843-.4156012-1.6073934.2635631-1.9727741 1.0601701l-.9013348 1.9649638 2.5220177 1.0897584 1.1144344.4814541.426512.1843576 2.3600432 1.0195052zm105.3832538 42.875817 5.128778 1.549767.09998.732742-4.515347 2.946249-.133944-.981973 1.092919-.701199.770018-.53822 1.50097-.919379-1.695348-.505855.097747.717956-.773048.514235-.202989-1.488815-1.239141-.37015zm-109.3146134 15.686275-.6423214-.966106c.3349571-.871438.2286021-1.961-.5698463-2.207913-.3000294-.092725-.5791022-.037267-.822374.114802l-.5462701-.821631c.4729218-.290892 1.0397993-.39704 1.6583698-.205761 1.7432442.538864 1.7998271 2.716929.922442 4.086609zm107.3312584-18.69489c-.804706-2.639521 3.090322-4.742321 4.769409-1.9289.258485.433525.353302.86656.351201 1.366216l-.000857.19676-.91727-.006042c.026292-.750463-.18306-1.504029-.941097-1.852808-1.456918-.67078-3.281927 1.178763-2.066569 2.617967.256842.304366.613431.527741 1.000255.628325l.64761-.539987-.897879-1.06332.659113-.549458 1.472036 1.74308-1.620258 1.35103c-1.105917-.155938-2.122111-.868356-2.455694-1.962863zm-5.202182-3.83027.876439-2.57288.912692.25061-.866302 2.543424c-.244324.717284-.057554 1.309187.79328 1.542679.835375.229327 1.347562-.148516 1.588965-.856856l.876095-2.572879.912864.25061c-.017869.052281-.724381 2.657393-1.304951 3.351236-.768709.918698-2.184311.908211-3.155077.251073-.792593-.536537-.9096-1.377199-.634005-2.187017zm-108.4827857-11.9846444-.410109-5.682641 1.1732042-.0797533.3219379 4.4623865 2.1913175-.1485515-.2880258-3.9920466 1.1730535-.0796072.2881765 3.9921927 2.2451246-.1522032-.3258565-4.514679 1.1733549-.0796072.4137263 5.7353717zm-.0235335-13.3455c.2562801-.5093951.5873664-.889288.9935666-1.2950229l.9386165.8021258c-.6412392.6250274-1.0406668 1.1715066-1.1230151 2.0645906-.0743443.8063597.3891149 1.6936037 1.3485108 1.4100711.5652016-.1670244.9004438-1.2297608 1.044207-1.6842598.4097404-1.2307827 1.0455922-2.4672594 2.6363762-2.3348371 2.3851756.1978304 2.5103142 2.9265765 1.6668216 4.52528-.3170794.6004993-.7346698 1.0385003-1.2492311 1.4915392l-.8853595-.8453418c.8321025-.7289796 1.310646-1.3207189 1.4123885-2.4244813.0760374-.8251939-.3965032-1.783686-1.3968423-1.4874513-.5528879.1639583-.868428 1.1605565-1.0149618 1.6074635-.4248248 1.3020309-1.0131147 2.5491656-2.6876323 2.4095893-2.1804593-.1810404-2.4444356-2.725972-1.6834451-4.2392653zm13.9850734-18.027049-7.0513874-4.4083515 3.3749863-5.0034132 1.0397774.6499787-2.6501294 3.9289368 1.9421148 1.2141399 2.3709593-3.5146882 1.0397773.6499787-2.3709593 3.5148412 1.9899407 1.2441225 2.6812718-3.9748284 1.0397774.6499787zm-1.8226293 46.5186624 3.4114464-3.642845.7715602.540161-3.4116252 3.642845zm36.1499565-83.0120425.7299532 1.0952082-.4054806.888368-3.0103768-4.5475733.3107998-.6811849 4.9179584.3658691-.4166541.913559-2.0415165-.1309246-1.6033976-.1722241.9988523 1.4975785.3044779-.6674755.847275.0539807zm-40.332963 82.0476545.8323372-3.359627.9204895.270287-.6084063 2.455174c.4819797.103435 1.1411299.303851 1.6658868.233012 1.750229-.236401 2.0292334-2.701741.003637-3.137427l-.9016121-.194123-.9326126-.221555.2021093-.815702 1.839074.395507c1.9012481.409061 2.8799284 2.326566 1.6864961 3.864378-1.2024382 1.549269-3.0797864.860239-4.7073989.510076zm44.4008674-85.2928365-4.6623053-2.4802526.7934874-.5534498 3.3376671 1.8248398-.9699978-3.476942.7777796-.5429536 1.2898218 4.8336512zm-49.2389624 86.7973855-1.4364148-4.906456.690478-.248954 3.2565986 2.422534-.9524521-3.253739.7978721-.287895 1.4362616 4.906797-.6262867.225826-3.3454554-2.484092.9771175 3.338254zm-2.3339261 14.663559c-.5277395.24579-1.1617642.160805-1.7167564.09015l-.9560869-.110647 1.285363 1.484071-.6465289.604893-2.2972377-2.652197.5123497-.479249 2.1593714.259454c.4974409.054324 1.6234561.184967 1.6324335-.639553.0076948-.712708-.7949757-.838685-1.3159822-.776363l-.2175402.025829-.0923384-.899175c.2412661-.03316.4817306-.066654.7257219-.067504 1.6529531-.007149 2.6447891 2.361099.9272312 3.160291zm-1.2801123-6.297546-5.1426379-.074729.0150881-.710069 2.4490043-1.308891-2.392721-1.379248.0149185-.710069 5.1424683.074729-.0164442.783106-3.3776798-.049067 2.2086133 1.296482-2.2652357 1.25658 3.3807313.049068zm-2.0256329-6.76463-2.0712533-1.60482.4970354-.678128 2.0477619 1.586476c.5776197.447448 1.1690665.491933 1.632203-.140028.4551077-.620954.264352-1.177245-.3059823-1.619037l-2.0712534-1.60482.4970354-.678281c.0420763.032714 2.1930218 1.506679 2.6499137 2.227151.6045306.954056.1763338 2.134053-.7065247 2.722905-.7206492.480774-1.517125.293509-2.1689357-.211418zm7.881116 15.913542.505147.784264c-.4699914.442748-1.0934176.659052-1.8051233.434862-.288276-.090771-.5359278-.237066-.7371741-.441621-.9388891-.954057-.6831125-2.696724.1864029-3.651907l.5195217.806474c-.5248341.808084-.5888955 2.178655.2904635 2.455312.1526535.048282.2960883.052467.4345233.017543.2329645-.059387.4378045-.205843.606239-.404927zm60.1134936-91.3060515 1.0452482 4.1680048-.8349904.603514-.9645347-3.9383371-1.8106002 1.3082376-.5728812-.6313616 2.7227801-1.9672971zm-12.5495231.3245304-2.5330237 3.4012368-.6042312-.5320931 1.9926743-2.6755079-.6070793-.2632444.2707172-.7121612 1.0774438.4263529zm8.2552656 1.3097335.1107475.6189332-1.117516 4.4138909-.9283593.1959341 1.074103-4.1598668-2.0125034.4250853-.1529792-.8548243zm8.5276378-11.3749757.994874.1922506c-.646676 1.5691756-2.697536 2.4374564-4.2327454 1.1435937-.5651947-.4762121-.952234-1.265935-.9915939-2.0226852-.0088042-.1681067-.0043158-.330808.0122568-.487203l.9240951.1787372c-.0359073.3120694.0164.6508052.186787.9998112.1132461.2315295.2567027.4183747.4295066.5644996.9007898.7608943 2.1458068.3147721 2.6768198-.5690041zm-42.2768556 104.1201883-1.2141005 1.941826 3.5147269 2.370995-.6501105 1.039952-3.514727-2.370995-1.2439291 1.989971 3.9746993 2.681313-.6501106 1.039634-5.0492936-3.406022 4.4083611-7.051494 5.0034036 3.375196-.6501106 1.039793zm33.8599653-108.8970892 2.8596575-3.7174045 1.5941082 1.2649469c.7123882.5652222 1.0738643 1.45776.4675765 2.2459611-.4242483.5512276-1.0213499.6905506-1.6561149.4531106l-.0422564 2.3104912-.8299713-.6582077.0457778-2.1057051-.220009-.1744647.5003406-.6163798c.2475675.1960784.5246839.3974437.6990682.4661722.3025315.1189532.605063.0889428.8140485-.1825504.3280997-.4265212.0500647-.8255198-.3057466-1.1078976l-.8977959-.7124753-.8417602 1.094525-.4934509.6414144-1.0233403 1.3302546zm-6.5920482.4656021-.7282132-4.6771468 3.4244127-.5516114.1258186.8071258-2.582656.416128.1732307 1.1121198 2.3103048-.3719553.1256651.8071258-2.3103048.3721114.1779872 1.1433372 2.6127297-.4211227.1258185.807282zm5.4257151 0-.9251701-.2121372 1.1663331-5.016621.9251701.2119675zm-46.938242 88.2090061 4.9179583-.365869.3107998.681356-3.0105238 4.547402-.4166541-.913216 2.2538131-3.352458-1.6235393.127326.297421.652395-.5198619.771667-.617042-1.352773-1.1870376.092881zm57.2092314-85.6517734c.272806.560525.351289 1.1149496.284801 1.6257738l-.933573-.1571767c.051066-.330681.006169-.6884554-.169133-1.0483828-.709433-1.4583699-2.4742762-1.0505359-3.1110524.0389354l-.9926923-.1672246c.7426771-2.0639307 3.7946107-2.6083075 4.9216497-.2919251zm7.340642 111.5056904 2.378231 6.760811-1.153994.483455-2.378231-6.76081-2.322007.972548-.420278-1.194629 5.798156-2.428873.42013 1.194628zm-26.9628583 4.843145c-.3595238 1.843645-2.0979012 2.423505-3.7743729 2.098652l-.4391393-.085159.1965313-1.18347c.4864698.090628 1.0013067.16063 1.3428072.123441.7179506-.078127 1.2407803-.461263 1.3823016-1.186752.3618747-1.856926-2.1878605-1.949272-3.3347634-2.17131l-.5817577 2.983208-.2333614 1.196908-.5297255 2.717107-1.2887377-.249695 1.5824376-8.116318 3.0993646.600798c1.6767851.325009 2.9322974 1.460352 2.5784156 3.27259zm3.3422231-1.781885 6.1295853.106306-.02122 1.217757-4.8133183-.083359-.0397678 2.274729 4.305768.074617-.0215343 1.217601-4.305768-.074461-.0408681 2.33077 4.8694333.084296-.0213771 1.217757-6.1858575-.107243zm36.1467932-4.108754c1.136456 2.109742-1.086757 3.825168-2.929455 4.071769-.683191.091493-1.282704.003388-1.947482-.15634l.23726-1.23316c1.072238.26031 1.835363.308059 2.828564-.258461.724206-.413107 1.315636-1.369168.505058-2.03627-.439942-.362277-1.459039-.035888-1.918442.106127-1.315186.408794-2.716744.663867-3.49933-.788785-1.039754-1.929989.953533-3.651884 2.677526-3.916661.572419-.088105 1.075531-.037429 1.641064.060226l-.171396 1.251797c-.880334-.163271-1.561728-.172205-2.36557.286341-.70744.403403-1.243035 1.309558-.46524 1.950629.449373.370286 1.535083.02141 1.999425-.127383 1.244981-.378758 2.66555-.587622 3.408018.790171zm-20.429474 7.644589 2.961286 2.721425-1.604377.241388-2.735474-2.531593-.698776.105048-.1784211-1.121262c.6327121-.09283 1.3420021-.223209 1.6892711-.382495.608232-.279384.955502-.74875.846598-1.403179-.163043-.977175-1.124508-1.119623-1.994486-.988648l-2.1970732.330493.4335771 2.598645.1916024 1.148232.0473907.299351.4313801 2.571527-1.2982204.195494-1.2990051-7.787443c.4075279-.06139 3.6978804-.764544 4.9466704-.531352 1.447297.269997 2.349915 1.517317 2.014415 2.887268-.191916.783617-.803444 1.330763-1.556358 1.647101zm-60.6635527-14.923202-.6163401.929851c-.9347459-1.327329-.8528605-3.559279.8496459-4.087361.647301-.200627 1.2245595-.071223 1.6921862.25383l-.5461285.823444c-.2603753-.197881-.5660922-.283348-.8900811-.182778-.8335734.258464-.8765463 1.40473-.4892824 2.263014zm7.7044211-1.89717c-.2724203.288034-.5737335.494424-.9054258.609572-.4216735.146051-.7495683.14231-1.1829641.10165l.0189868-.910293c.6219436.039033 1.2982062-.015939 1.5925851-.660804.2818311-.616892-.4304239-1.323885-1.2952343-.41034l-.3029643.320238-.5511143-.244448-.1654334-1.703648-1.2864838 1.359178-.6551294-.602091 2.2267464-2.352255.4941537.454089.1545366 1.71422.1581688-.095957c1.5866414-.888174 2.9667387 1.082691 1.699572 2.420889zm-1.3513572-10.767751 4.9841928.307364-.0637352.805012-4.1110039-.253473-.1806654 2.278352-.8733537-.05389zm24.457905 21.18118 1.4413205.598907-4.4073824 2.475869 1.2730699 5.02509-1.4604149-.606563-.95222-3.834474-3.4806739 1.993497-1.4298951-.593853 4.5751634-2.584748-1.236446-4.831375 1.4505547.602275.9243608 3.645507zm-28.5542228-11.769415c1.0125891 1.227453 1.0784773 3.554386-.6522932 4.093967-.2966576.092415-.5892977.114044-.8751882.05948-.3374761-.064396-.6379906-.216291-.895276-.428978l.5179456-.796508c.2751234.284947.6246522.431927 1.0092143.311983.1570068-.048829.2817123-.129283.3800625-.240214.4612174-.519263.3570819-1.484053-.038408-2.148329zm16.5007228-85.751634 1.1321279.515873c-.1876165 1.7065718 1.1106484 3.6066913 3.054758 3.446824.7212421-.0594359 1.450959-.4828023 1.8856622-1.0846287l1.1477626.4108696c-.3414795.5637265-.8258631 1.0480527-1.4395617 1.403144-.5101005.2948935-1.0302831.4692387-1.5592329.5186162-2.9662101.2772151-4.7773517-2.6906167-4.2215161-5.2106981zm29.7275053 46.0130719h-5.7751685l.0001553-12.5490196h3.0750695c-.2919026.9122747-.8347172 3.4551092.8493123 6.2326433.9041217 1.575663 3.4088943 2.6675861 1.8506314 6.3163763zm3.6365962 10.1752894v4.4652337h-1.9944768v-4.5021973c0-.5364627-.4215522-.9636701-.9734697-.9636701h-.7098384l-.0243327 5.4658674h-2.0073683v-4.5021973c0-.5364627-.4204242-.9636701-.9855555-.9636701h-.7214408v5.4658674h-1.9952825v-7.3202616h6.6589452c1.5155574 0 2.7528195 1.2812951 2.7528195 2.8550279zm-12.5490196-.7635247v3.1372549h-.8830748c-.059227 0-.103055 0-.1628742-.0103077-.6035233-.051676-1.0455543-.4098346-1.0455543-.8306641v-1.4762016c0-.4201423.442031-.758785 1.0455543-.8099112.0598192 0 .1036472-.0101703.1628742-.0101703zm-1.6130329-2.0915032c-1.430409 0-2.5699736 1.252699-2.5699736 2.8094038v1.7024318c0 1.531602 1.1395646 2.808426 2.5476586 2.808426h.0888109 2.5922886v-7.3202616h-2.5922886zm25.6653208 2.8550279v4.4652337h-1.981221v-4.5021973c0-.5364627-.455559-.9636701-.983852-.9636701h-.73282v5.4658674h-2.0161402v-4.5021973c0-.5364627-.4442942-.9636701-.9724267-.9636701h-.7321763v5.4658674h-1.9931288v-7.3202616h6.638345c1.536927 0 2.77342 1.2812951 2.77342 2.8550279zm46.757409 25.6742037-3.36031-1.353844-.853113 2.105658-.713921-.287726 1.154527-2.849529 4.074231 1.641426zm-55.1234224-35.8494931h-3.073715c.2917445-.898242.8064874-3.454955-.8480766-6.21969-.9324963-1.5892331-3.4079798-2.6806935-1.8499398-6.3293296h5.7717314zm-21.8547555 3.9827616h.9397228v1.8555411h-.9397228v-.0003189h-.9283819v-1.8552222h-.9045975c-.4936459 0-.9052275.3565343-.9052275.8324981v2.6408414h2.7382069.9397228v7.184422h-.9397228v-.000319h-.9283819v-5.3287213h-1.809825v5.3287213h-1.8328218v-5.3287213h-1.8095099v-1.8553817h1.8331369v-2.7481525c0-1.4508523 1.2572691-2.6164453 2.8550815-2.6164453h.7639383v1.8909394h.9283819zm35.4495269 5.4290031v3.1372549h-.866921c-.059477 0-.119754 0-.178831-.0103077-.582553-.0614339-1.045751-.4098346-1.045751-.8306641v-1.4762016c0-.4201423.463198-.7482024 1.045751-.8099112.059077 0 .119354-.0101703.178831-.0101703zm-1.573634-2.0915032c-1.438891 0-2.575747 1.252699-2.575747 2.8094038l-.033626 1.7024318c0 1.531602 1.170482 2.808426 2.575598 2.808426h.055744 2.597416v-7.3202616h-2.597416zm9.939647-46.3452547 8.545508-3.8508238.866257.7099535-2.626705 8.7018112-1.114589-.9135499.66927-2.1551164.654416-2.098252.792629-2.5691268-3.345544 1.5218602 1.254579 1.0280536-.41125 1.2528773-2.083699-1.707793-2.121966.9642167zm21.960784 35.3812708 7.956048-.5392841.409965 5.6827871-1.173074.0796072-.321944-4.4622404-2.191508.1484054.288333 3.9921926-1.173376.0794612-.288031-3.9920466-2.245165.1520571.325711 4.514679-1.173074.0796072zm8.007225 12.771202c-.246964.5210865-.570863.9120125-.969389 1.3300368l-.952771-.7978444c.629487-.6445836 1.018627-1.2053551 1.084484-2.1121848.05801-.7982886-.401296-1.7171127-1.373762-1.4074816-.561938.1790263-.877375 1.2623651-1.012627 1.7257012-.379601 1.2311207-1.00001 2.5189552-2.570113 2.4133755-2.403777-.1617011-2.596424-2.9042541-1.771212-4.5625798.305742-.6142276.715194-1.0654213 1.221123-1.5334959l.9003.8422677c-.818133.753421-1.285594 1.3617255-1.366992 2.4823799-.059394.8170945.410682 1.8083287 1.423309 1.4849263.549782-.1753243.846908-1.1914357.985084-1.6472198.393911-1.3050116.964927-2.6012865 2.619967-2.4899319 2.199282.14793 2.525643 2.7031642 1.782599 4.2720508zm-10.098728-21.8771251 7.760183-1.8908774.267832 1.0495189-4.442358 5.5916725 5.525174-1.3464689.300934 1.1801178-7.760334 1.8911728-.238812-.9362051 4.551032-5.7385224-5.662566 1.3800051zm-2.091503-4.1098244 7.85203-3.0098111.513983 1.173347-7.85203 3.0096595zm-24.943843-26.2090749-1.199948-.6463019 4.120024-7.5269834 1.333294.7179336.371346 4.9265763 4.36748-2.3745166 1.311124.7061297-4.120024 7.527145-1.199948-.6464636 3.058311-5.5874309-4.530657 2.3572151-.464264-5.019552zm35.641144 85.6709149c-.237804.155609-.48869.246812-.750914.267976-.183295.014921-.362229-.001066-.534623-.043242l.165562-.84854c.236496.079936.482439.066842.711522-.082981.125879-.082525.216291-.1853.276905-.309087.28548-.582391-.032415-1.429409-.53564-1.927601l.188527-.966085c1.237133.800732 1.909553 2.973014.478661 3.90956zm-14.880308-67.6784049 7.196602-4.2050109.628784 1.205966-3.027081 1.7687392 2.003035 3.8409023 3.027237-1.7689037.62894 1.205966-7.196447 4.2048465-.62894-1.205966 3.030034-1.7703838-2.003035-3.8407378-3.030189 1.7703838zm-43.0018067-19.5489557c-.3203467 1.0176919-1.2727287 2.0029812-2.643636 1.6902197-.3023772-.0688382-.5622811-.176615-.7713804-.3277808-.2548398-.1842637-.44793-.3964799-.6420003-.625245l.7329911-.4871515c.4185254.5374937 1.0324279 1.0692857 1.780448.5177462.1318306-.0973468.2533695-.22654.36282-.3920297l.344197-1.1449382c.12791-.3272245-.0697542-.7405315-.6485345-.8723669-.4556078-.1040221-.8829546.0805197-1.0072706.4753308-.1486566.4728276.3446871.8236935.8592674.8325938l-.2494489.7524913c-1.167689-.1405967-2.1653214-1.2802504-1.2296019-2.2984985 1.0559515-1.1488321 3.8631097-.5064818 3.1121491 1.8796288zm45.9518877 10.3408211c.977127 1.0316568 1.236967 1.959109 1.232926 3.3501344l-1.267905.0166544c-.011659-1.0174471-.115686-1.768882-.842209-2.5360545-2.112793-2.2307745-5.790381.3546321-4.825368 3.1421834.453206 1.3085174 1.645655 1.852918 2.933197 1.908993l.19912.0085564-.015748 1.2041598c-1.395657-.0064173-2.425024-.304516-3.416839-1.3517576-.397937-.4201802-.690788-.8846702-.874765-1.3930118-1.478183-4.0827757 3.807508-7.5916618 6.877591-4.3498575zm-5.605101 61.3334305-.482235-.722254c1.238373-.554252 2.922725.17012 3.122417 1.886911.073362.631896-.129304 1.344614-.519341 1.826066-.086675.107007-.177881.20251-.273195.286813l-.44782-.670794c.191478-.166639.345566-.403051.43564-.717864.059766-.208715.077186-.409106.054951-.602534-.116133-1.008612-1.094482-1.497178-1.890417-1.286344zm15.620288 14.877803-.188154.948753c-1.253313-.781184-1.870862-2.981558-.484616-3.903645.437791-.291202.887111-.337715 1.302273-.217871l-.170505.858453c-.244657-.096057-.499703-.091511-.731835.062725-.693977.461499-.350262 1.638274.272837 2.251585zm-11.995112-15.783273-3.061659-3.471053 1.589155-1.268433c.710112-.566934 1.668597-.73346 2.317793.00239.454044.51481.464563 1.112511.094514 1.670633l2.273048.501818-.827234.660427-2.06989-.464181-.219015.175039-.5024-.600389c.246647-.197143.504598-.421317.609631-.573954.181964-.264947.216975-.559616-.006594-.813362-.351366-.398168-.804782-.212526-1.159602.070643l-.894744.714343.901181 1.021706.528619.599044 1.09539 1.2417zm-85.6471752-63.3033214c.5414921-.2720345 1.0599353-.3915163 1.6565238-.4875285l.2469078 1.2280414c-.9322189.1386843-1.6148463.3564642-2.2633739 1.0517143-.5706979.6118871-.8024502 1.6373885.1869174 1.97907.5716452.1975107 1.5379639-.4885953 1.951266-.7819658 1.1153474-.7670306 2.4621314-1.4330198 3.6622547-.3901447 1.8369686 1.59685.1927586 3.9384802-1.5627493 4.780187-.6505799.3119633-1.2776372.4280923-1.9938907.4991109l-.1750772-1.2321563c1.155762-.1118618 1.9329531-.3201929 2.7344561-1.1795781.5844326-.6265175.8548629-1.7169415-.1760244-2.0723389-.5594892-.1927864-1.4667647.450038-1.8775409.7351789-1.1748642.8182371-2.4875484 1.5217168-3.7525561.4221488-1.6809935-1.4610615-.2677465-3.7322828 1.3628867-4.551739zm88.0000102 57.6188414-.185736-.829455 3.997271-.806327.185736.829296-1.542028.311205.874555 3.904023-.913215.184234-.874555-3.904022zm-3.322991 14.854633-4.660188 1.287363-.479774-1.846045c-.256505-.986219.02608-1.985552 1.065617-2.272598 1.074841-.296882 1.838473.473437 2.101816 1.485885l.07156.275735-.79973.198194c-.06997-.262948-.156956-.536715-.256028-.698517-.194326-.317701-.49011-.491962-.855229-.390979-.584094.16131-.639752.683271-.502356 1.211626l.242034.931301 1.525196-.421143.800048-.238358 1.518199-.402126zm-70.922325-81.9733742-1.2345376-.4837248c.3745932-.5785522.9374749-1.0923881 1.7117885-1.4811357 2.2103645-1.1102151 4.8097041-.4059753 6.0452336 1.5749145.6177647 1.0294695.7523273 2.1366885.4635301 3.1278075l-1.2555319-.4919642c.3990591-2.1372876-2.1566386-4.4052065-4.6371202-3.1592668-.4838633.242986-.8439092.557879-1.0933625.9133695zm-9.0639969 7.2878587c-1.4676935-1.7076677.3509702-3.7506112 2.1486343-4.3171753.5969423-.18819 1.1447227-.2280673 1.768525-.2328219l.0462317 1.258128-.2293678-.0009202c-1.041841-.0039877-2.6772057.5105825-2.924643 1.6159499-.1299045.5811346.3141802 1.1723919.9514939 1.1634962.5275947-.0072086 1.2456511-.3414108 1.6993403-.5622696 1.2635577-.5926376 2.7468788-1.0503061 3.794743.1690183 1.6041095 1.8659498-.461503 3.944016-2.3902112 4.5139543-.7146377.2110428-1.372951.2312882-2.1141232.1929446l.0276739-1.2513795c1.1958381.0644171 2.0221482-.0243865 2.982107-.756748.6998241-.5340488 1.1574202-1.5766862.1670202-2.0866552-.5378505-.2768403-1.5689475.2243864-2.0351713.4453985-1.3332309.6346622-2.7877386 1.1342018-3.8922528-.1509201zm75.9059439 67.7129045c.142888-.503083.395936-.884561.710261-1.151791l.460974.66282c-.208204.167995-.374768.410603-.466405.733981-.371425 1.309426.880167 2.137989 1.839716 1.870008l.490081.704556c-1.546838.79028-3.624423-.739236-3.034627-2.819574zm10.182576 13.918717c-.374553 1.007092-1.365152 1.952839-2.686484 1.577503-.29123-.082446-.53896-.202061-.734233-.363179-.238134-.196332-.414056-.417817-.589978-.65621l.745908-.455966c.376633.558114.94486 1.119302 1.709319.599197.13466-.091668.261484-.216035.378232-.377153l.415175-1.157171c.113709-.35158-.06749-.731947-.591097-.880629-.439164-.124646-.868093.041363-1.013309.431651-.174162.468542.288352.84304.791488.874201l-.289151.744105c-1.133735-.192419-2.042131-1.38131-1.065606-2.361573 1.10175-1.105607 3.807425-.335231 2.929736 2.025224zm-2.964943-3.734377-3.444186 3.304392-.73882-.574755 2.709354-2.599283-.758938-.302361.389528-.706607 1.349475.494745zm5.311901 6.390778c-.143047-.034994-.281393-.092225-.408187-.17135l.627659-.725223c.226726.03689.476956-.012757.6333-.098432.686221-.376316.363325-1.283577-.441228-1.175147-.29066.039131-.742231.276333-.704219.741944.005372.063955.017864.121876.036399.173247l-.579976.6542c-.118199-.190657-.197445-.423377-.22001-.698158-.042713-.522843.134047-.925534.441631-1.23462-1.165863-.913123-.186699-2.980189 1.313074-2.597667.195967.049992.371921.148423.519669.28047l-.585215.659717c-.390457-.17928-1.02228.06654-.97903.595245.04607.563698.622958.631617.946928.447683.158896-.090157.290929-.239443.322359-.449063l.653045-.754873c.208458.476472.179715 1.075854-.219741 1.554911 1.395544.885714.367086 3.220666-1.356458 2.797116zm-7.161361-10.406647c-.127356-.664395-.210204-1.364939-.242043-2.091503h.900346v.206965c0 .653272.050673 1.285093.145405 1.883942zm1.84946.493496-.453423.552255c-.225838-.321333-.424873-.671762-.592329-1.045751h.802318c.073415.170602.15487.335384.243434.493496zm1.045752-7.813455h4.183006l4.183007-.000303-.000296 5.138389c0 2.360044-1.872575 4.273376-4.182711 4.273376-2.310135 0-4.183006-1.913332-4.183006-4.273376zm3.137255-2.091806-.005788 1.045752h-3.131467c.917652-.58652 1.987022-.958619 3.137255-1.045752zm1.051403 0c1.148056.08972 2.215262.46164 3.131603 1.045752h-3.137255zm4.420995 9.411765h.802111c-.167786.373989-.366566.724418-.592379 1.045751l-.453372-.552255c.08867-.158112.17-.322894.24364-.493496zm.947629-1.884479v-.207024h.900234c-.031727.726771-.114687 1.427117-.242267 2.091503h-.803485c.094845-.59902.145518-1.231021.145518-1.884479zm-.145518-3.344279h.764584c.147942.664656.244313 1.365267.281168 2.091503h-1.045752zm-.225937-2.091504c.164958.333673.316.682866.451875 1.045752h-.451875zm-5.002821 11.503268.00526-.575301c1.39377-.122427 2.646704-.67847 3.590307-1.516202l.58744.528684c-1.143659.880987-2.591896 1.450785-4.183007 1.562819zm-1.050655 0c-1.589025-.110626-3.035838-.680105-4.178103-1.562668l.585421-.528835c.944927.841308 2.200826 1.398716 3.597586 1.517287zm-5.988473-9.411764h.764618v2.091503h-1.045751c.036981-.726374.133209-1.427118.281133-2.091503zm.990556-2.091504v1.045752h-.451875c.135562-.363045.286604-.71239.451875-1.045752zm.026669-.995921v.109647c-1.446559 1.422745-2.34411 3.402823-2.34411 5.592157 0 4.331608 3.511459 7.843137 7.843294 7.843137 4.331365 0 7.842981-3.511529 7.842981-7.843137 0-2.189334-.89708-4.169412-2.343797-5.592157v-.109647h-.113409c-1.405148-1.327686-3.300169-2.141334-5.385775-2.141334-2.085605 0-3.980626.813648-5.385774 2.141334zm-43.1284235-85.801394c0 .5775476-.4681338 1.0456814-1.0456815 1.0456814-.5772667 0-1.0458218-.4681338-1.0458218-1.0456814 0-.5776881.4685551-1.0458219 1.0458218-1.0458219.5775477 0 1.0456815.4681338 1.0456815 1.0458219zm-2.0975869-3.1373251v1.3683655c-.2221286.0506585-.4311542.132705-.621305.2410297l-1.0638464-.9956527-.7479682.7000227 1.0638464.9956526c-.115744.177962-.203254.3735888-.2575382.5814787h-1.5043599v.9899591h1.5043599c.0542842.207744.1417942.4033707.2575382.5816247l-.6585865.6160783.7482803.6998767.6582744-.6162243c.1901508.1081787.3991764.1903711.621305.2410297v.8712691h1.0579188v-.8712691c.2221286-.0506586.4309982-.132851.621305-.2410297l.6582744.6162243.7478123-.6998767-.6582744-.6163703c.115432-.178108.2032539-.3735887.2573821-.5813327h1.5046719v-.9899591h-1.5046719c-.0541282-.2078899-.1419501-.4035167-.2573821-.5814787l1.0638463-.9956526-.7482802-.7000227-1.0633784.9956527c-.1903068-.1083247-.3991764-.1903712-.621305-.2410297v-1.3683655zm48.2637064 91.1336941c.204215-.204403.535252-.204403.739769 0 .203913.204101.203913.535198 0 .739147-.204517.204403-.535554.204403-.739769 0-.204064-.203949-.204064-.535046 0-.739147zm1.479104 1.478626c.612469-.612462.612469-1.605451 0-2.218219-.612775-.612614-1.60593-.612614-2.218552 0-.612468.612768-.612468 1.605757 0 2.218219.612622.61292 1.605777.612614 2.218552 0zm3.749762-1.478626c.204208-.204403.535384-.204403.73944 0 .204208.204101.204208.535198 0 .739147-.204207.204403-.535232.204403-.73944 0-.204207-.203949-.204207-.535046 0-.739147zm1.478947 1.478724c.612458-.612484.612611-1.60551 0-2.2183-.612764-.612637-1.605747-.612637-2.218511 0-.612457.61279-.612457 1.605816 0 2.2183.612764.612636 1.605747.612636 2.218511 0zm-104.1157626 8.82549.00441-1.324757c2.7976836-.277432 4.9847372-2.697369 4.9847372-5.641938 0-1.368732-.4721869-2.623646-1.25906-3.603067l.9147636-.933506c1.0160366 1.220639 1.629659 2.804883 1.629659 4.536573 0 3.675497-2.7639784 6.687484-6.2745098 6.966695zm0-10.457516v-1.045752c.4527658.277816.7951774.638306 1.0457516 1.045752zm0 3.137255v-1.045752h1.8585739c.1232698.340777.1979316.693472.2329294 1.045752zm1.0457516 3.137255c-.2518964.410808-.5949424.773471-1.0457516 1.045751v-1.045751zm-1.0457516-1.045752v-1.045751h2.0915033c-.0352151.349646-.1116766.703311-.2365831 1.045751zm3.2687267-2.091503c-.0198618-.352834-.063045-.703866-.1314718-1.045752h.7904965c.1273713.328166.2145066.679198.2552551 1.045752zm-.1314718 2.091503c.0722911-.347152.1187548-.699431.1405308-1.045751h.9052208c-.0402602.366276-.1263511.717308-.2521958 1.045751zm-1.0457516-5.228758c.4013236.272269.7557724.627919 1.0457516 1.045752h-.5635723c-.128805-.36952-.2883674-.721273-.4821793-1.045752zm.4712517 6.27451h.5744999c-.2895724.419135-.6443051.774419-1.0457516 1.045751.1867224-.323589.3434524-.676399.4712517-1.045751zm-2.5586907-9.411765c1.5894781.095502 3.0363672.582548 4.1789422 1.336634l-.9844062.754869c-.8870324-.563604-1.9901499-.932286-3.1986003-1.021517zm-1.0548951 13.594771c-1.5887535-.095525-3.0354605-.582824-4.1779274-1.337098l.9848444-.754405c.886817.563353 1.9898359.932127 3.1981622 1.021119zm-2.557603-9.411764h-.5745728c.2896091-.419136.6441215-.774574 1.0457517-1.045752-.1868788.323589-.343496.676399-.4711789 1.045752zm-.01099 5.228758c.1288381.369675.2884415.721272.4821689 1.045751-.4011581-.272269-.7559667-.627762-1.0457517-1.045751zm-1.6093344-3.137255c.03989-.366415.1260018-.717586.2520036-1.045752h.793748c-.0721819.347014-.1185303.699293-.1404381 1.045752zm.9140236 1.045752c.020118.352695.0630449.703727.131728 1.045751h-.7907527c-.1274995-.328166-.214891-.679336-.2549989-1.045751zm3.2686835 2.091503.0002995 1.045751c-.451088-.272531-.7934838-.635068-1.0457517-1.045751zm-.0004793-2.091503.0007788 1.045751h-1.8545714c-.1247932-.34244-.2013045-.696105-.2369319-1.045751zm-1.0449729-4.183007c.2525057-.410543.5952348-.773106 1.0453013-1.045752l.0004504 1.045752zm1.0455569 2.091503.0001948 1.045752h-2.0915033c.0356473-.349646.1125909-.703173.2374539-1.045752zm-6.2743151 1.737384c0-3.674967 2.7640853-6.68727 6.2745099-6.966142l-.0039373 1.325006c-2.7977878.276447-4.9851493 2.696733-4.9851493 5.641136 0 1.368817.4726238 2.624307 1.2595952 3.604158l-.9153247.932968c-1.0161175-1.220893-1.6296938-2.80521-1.6296938-4.537126zm14.6405229-.168992c0-4.331634-3.5115294-7.842902-7.8431372-7.842902-4.3316079 0-7.8431373 3.511268-7.8431373 7.842902 0 4.331792 3.5112157 7.843373 7.8431373 7.843373 4.3316078 0 7.8431372-3.511581 7.8431372-7.843373zm90.0878182.676392c.204389-.204374.53531-.204374.739396 0 .204237.20392.204237.535271 0 .739191-.204086.204374-.535007.204374-.739396 0-.204086-.20392-.204388-.535271 0-.739191zm2.091645-2.091805c.204122-.203972.535255-.203972.739227 0 .204274.204577.204274.535407 0 .739681-.203972.204123-.535105.204123-.739227 0-.204426-.204274-.204426-.535104 0-.739681zm2.091163 2.091805c.204274-.204374.535255-.204374.73968 0 .204123.20392.204123.535271 0 .739191-.204425.204374-.535406.204374-.73968 0-.203972-.20392-.203972-.535271 0-.739191zm-2.798207 1.48269c.51579-.530051.581409-1.34799.196857-1.951418.52451.386182 1.235088.386182 1.759449 0-.384403.603428-.31908 1.421367.197006 1.951418.590719.607377 1.548995.607377 2.140158 0 .591015-.607378.591015-1.59243 0-2.19996-.531308-.54585-1.358936-.601149-1.950099-.165745.384551-.60358.319228-1.421367-.196858-1.951873-.590867-.60753-1.548995-.60753-2.14001 0-.51579.530658-.581557 1.348293-.19671 1.951873-.59131-.435252-1.418791-.380105-1.949951.165745-.591163.60753-.591163 1.592582 0 2.19996.591015.607377 1.549291.607377 2.140158 0zm-52.9658766-87.6353726c-.3550779-.1501626-.7402136-.2329152-1.1462988-.2329152-.7690571 0-1.1681591.3140356-1.6976639.4806834-.0417471-.1721973-.0775737-.3470061-.1070243-.5242632.6571749-.1486936 1.1314217-.5214885 1.8046882-.5214885.4901866 0 .8958163.2325888 1.3325667.3989101-.0396218.1374314-.103381.2706191-.1862679.3990734zm1.3482358-.7407588-.0006472-.0572247c1.2745257 1.2293473 1.2819696 1.7683526-.2428979 3.0164942-.4314227.3527448-.9770932.7542989-1.6043229 1.1665124-.1493636-.0987405-.2937106-.2025302-.4335265-.3112289l2.2203869-1.2366406-.5934086-.8000225-2.3956422 1.3345396c-.069908-.0751774-.1377122-.1514769-.2034128-.2290387 1.4444409-.5715448 3.2534712-1.4409941 3.2534712-2.8833908zm3.0210386 3.0800302c.5683617 0 .8900663.1868757 1.3466191.3447723.1810965.1926714.3884511.3911387.6239273.5966548l.1209569.1043246c-.6944008-.1395693-1.3103659-.5040786-2.0915033-.5040786-.7811373 0-1.3969331.3645093-2.0915033.5040786l.1212957-.1043246c.2353068-.2055161.4428309-.4039834.6237579-.5963415.4572305-.1586799.7782574-.3450856 1.3464497-.3450856zm0-1.0457516c-.1565212-.0354977-.3282203-.0552505-.5230655-.0552505-.1946555 0-.3663546.0197528-.5226861.0552505.0624188-.3355108.0942922-.6661549.0965688-.9947952.1384976-.0334938.2807897-.0509564.4261173-.0509564.1451379 0 .2876196.0174626.4259275.0509564.0028458.3286403.0341501.6592844.097138.9947952zm-.0003907-3.1372549c.4401417 0 .748612.1354132 1.0461424.3045426-.1150659.2497195-.2145032.4961496-.2979211.741209-.24283-.064143-.492693-.0967628-.7482213-.0967628-.255333 0-.5051959.0326198-.748026.0967628-.0832225-.2445112-.1824644-.4903931-.2973349-.7401125.2985071-.1699518.6073682-.3056391 1.0453609-.3056391zm1.9763748 1.0457516-.000971.0572247c0 1.4423967 1.8090926 2.311846 3.2537451 2.8833908-.065541.0775618-.1335094.1538613-.2030961.2290387l-2.3962103-1.3345396-.593429.8000225 2.2204634 1.2366406c-.1393353.1086987-.2840109.2124884-.4335414.3112289-.6270895-.4122135-1.1729406-.8137676-1.6042164-1.1665124-1.5247581-1.2481416-1.5173139-1.7871469-.2427443-3.0164942zm2.4939248 0c.6736894 0 1.1474578.3727949 1.8046009.5214885-.029601.1772571-.0652741.3520659-.1070191.5242632-.5294792-.1666478-.9287137-.4806834-1.6975818-.4806834-.4062173 0-.7910308.0827526-1.1463951.2329152-.0830347-.1284543-.146639-.261642-.1862589-.3990734.4365774-.1663213.842643-.3989101 1.332654-.3989101zm1.5667265 2.0915033c-.5603485-.2655944-1.2472979-.6128454-1.8536288-1.0293361.0919648-.0107332.1895032-.0164155.2956012-.0164155.6489294 0 1.2056948.2961104 1.795902.5135105-.0740496.1805706-.1534738.3579843-.2378744.5322411zm-4.2539606 3.1372549c-.6353934-.1784129-.9406069-.4862721-1.7866538-.4862721-.7987669 0-1.1546933.2916986-1.7883703.4856257-.4735803-.1344561-.9265633-.3214341-1.3449056-.5602876.2340595.0589862.476233.0908225.7365071.0908225.8900501 0 1.5468209-.5756401 2.3967688-.5756401.8497919 0 1.5065627.5756401 2.3972369.5756401.2546567 0 .5016675-.0303819.743997-.0845199-.4264563.2328741-.8803756.4201753-1.3545801.5546314zm-8.8648854-3.1372549c-.0849897-.1742568-.1644063-.3516705-.2380508-.5322411.590151-.2174001 1.1468635-.5135105 1.7957311-.5135105.1058888 0 .203418.0056823.2957721.0164155-.6066712.4164907-1.2933563.7637417-1.8534524 1.0293361zm2.1351779-4.3991794c.3491765.2657888.6472157.5285244.8340393.8636229-.3416471-.1335814-.6872157-.2641095-1.2175687-.2641095-.8178823 0-1.3311372.3668527-1.9700392.4979915l-.0017255-.1488479c0-.1239635.0036079-.2468584.0105098-.3691427.3516863-.0490053.6953726-.1480845.9910588-.2897571l-.4698039-.928658c-.1123137.0537379-.2362353.0984686-.365647.1331234.156549-.672945.4208627-1.3060446.7764706-1.8825056l-.9118432-.532799c-.7013333 1.1362816-1.0944314 2.4600353-1.0944314 3.869739 0 4.2158294 3.5115295 7.633529 7.8431373 7.633529 4.3317647 0 7.8431373-3.4176996 7.8431373-7.633529 0-1.4097037-.3932549-2.731778-1.078902-3.8659224l-.9167059.5247078c.3496471.5784457.611451 1.2130719.7667451 1.8870855-.1298823-.0346548-.2538039-.0796908-.3665882-.1334287l-.4694902.928658c.2956863.1416726.6392157.2407518.9909019.2897571.006902.1222843.0106667.2454845.0106667.3691427l-.0017255.1488479c-.6390588-.1311388-1.1523137-.4979915-1.9701961-.4979915-.530196 0-.8759215.1305281-1.2175686.2641095.1866667-.3350985.4847059-.5978341.8341961-.8636229l.4912941-.5108153-.6726274-.790802c-.9772549.6004294-1.9529412 1.4174896-2.7320785 2.270884-.4867451-.1729688-.7916863-.3697533-1.5110588-.3697533-.7091765 0-1.0216471.1967845-1.5116863.369906-.5863529-.6385955-1.2203921-1.1744478-1.7250196-1.5625209-.5836863-.4488335-1.0061176-.7085158-1.0061176-.7085158l-.6727843.790802zm74.7043619 76.5560422c-.178878-.456766-.368643-.915573-.569598-1.37485-4.070045-9.3152044-4.605319-23.0511512-.34702-32.5131168.251155-.5573802.485678-1.1135048.703718-1.6675888 11.236211 10.4269822 12.371928 24.8904585.2129 35.5555556zm-18.515499 32.418301c.06507-.473458.121413-.953529.169029-1.440061.154636-1.58219.34954-3.109005.702296-4.655048 7.076854-1.089966 12.497258-7.232913 12.497258-14.647333 0-1.973046-.383683-3.856108-1.080621-5.577966 1.119816-1.098735 2.278061-2.077798 3.441205-2.894734.516579-.363015 1.01647-.733721 1.499518-1.111656 4.792823 14.60088-1.293131 27.487746-17.228685 30.326798zm-1.568943-6.27451c-7.796705 0-14.117332-6.320417-14.117332-14.117726 0-7.797151 6.320627-14.117568 14.117647-14.117568 7.796864 0 14.117647 6.320417 14.117647 14.117568 0 7.797309-6.320783 14.117726-14.117962 14.117726zm1.042939 4.131992c-.101681 1.052745-.239956 2.079867-.413577 3.079153-.688103.099643-1.392867.181731-2.115071.245471-9.697899.859943-22.099781 8.036039-27.764675 16.073817-.620211.87908-1.259731 1.71514-1.916534 2.50802-.658517-.267299-1.322951-.559745-1.993302-.878131-8.8220054-4.186465-23.0957316-4.267762-31.9633615-.182364-.93927.432739-1.8751142.821192-2.8048855 1.165833-.4388035-.565914-.8702884-1.156976-1.294299-1.773186-5.5792509-8.106264-17.9003171-15.425499-27.5910539-16.391096-1.059793-.105654-2.0929587-.250058-3.097473-.431631-.0982559-.697507-.1787603-1.412254-.2413575-2.144083-.1239488-1.454009-.3836806-2.968754-.7620668-4.512917.363749.02673.731391.040174 1.1021472.040174 7.7000825 0 14.0448259-5.891956 14.9028129-13.480072 8.5551109 9.972293 21.152259 16.275161 35.198642 16.275161 14.0518331 0 26.6429081-6.2812 35.2006661-16.259028.864994 7.579733 7.206156 13.463939 14.900789 13.463939.396916 0 .789628-.015816 1.178603-.046342-.242603 1.105572-.424322 2.192006-.526004 3.247282zm-30.846545 22.324356c.308931-.402722.613058-.81664.912074-1.242069 5.877584-8.354043 17.350779-15.738493 27.622027-16.645328.607636-.053612 1.205356-.121416 1.792696-.202938-3.143377 15.428647-14.945799 23.747211-30.326797 18.090335zm-37.647059.404549c.4435658-.174162.8882299-.358747 1.33462-.553755 9.3098606-4.064498 23.0404732-4.598768 32.497038-.345455.57662.259355 1.151357.500887 1.723898.725652-10.430151 11.222684-24.8950713 12.349983-35.555556.173558zm-33.4640522-18.494884c.5119389.069211 1.0318224.129082 1.5588558.178693 10.3018585.974468 22.6249385 7.205307 28.6811354 15.553516.3698926.510049.7477296 1.00402 1.1325578 1.481148-15.1012468 4.820586-28.438036-1.259122-31.372549-17.213357zm-19.1421265-31.372549c.3863994.294495.7829256.584646 1.1898951.870452 1.339265.940119 2.6323266 1.882255 3.8393106 2.97738-.6251696 1.633533-.966948 3.402987-.966948 5.250642-.0001582 7.502955 5.6366536 13.714662 12.9842562 14.785116.4239001 1.590088.7134624 3.149609.8451103 4.64179.054115.610713.1224706 1.211341.2047506 1.801417-15.4273388-3.166832-23.7401488-14.96262-18.0963748-30.326797zm-.398641-37.647059c.1786853.4581321.3683413.9182989.5692683 1.3790918 4.0448408 9.2878566 4.5775906 22.9851757.3448973 32.4206302-.2634444.587104-.5085544 1.172643-.7356305 1.755834-11.22757039-10.4210569-12.35618843-24.9020682-.1785351-35.555556zm18.4950158-32.4183006c-.0677745.487573-.126328.9820718-.1755068 1.4831886-.9778894 9.9810882-7.233431 21.919856-15.6139573 27.7872005-.4933247.3453642-.971281.6978081-1.433869 1.0564083-4.8016937-14.5859448 1.2783411-27.4627675 17.2233331-30.3267974zm1.0298106 1.8887194c.102666-1.0627305.2433277-2.0984291.4198139-3.1056814.7053247-.1035698 1.4289493-.1884374 2.1702536-.2536597 9.6608387-.8493043 22.0141008-7.9821088 27.6591794-15.9722328.6001773-.8496186 1.2186546-1.6585323 1.8538811-2.4264266.6477883.2632467 1.301935.5503819 1.9616648.862506 1.3011596.6160756 2.7215793 1.1433546 4.2271403 1.5805798-1.5689906 2.3957799-2.4830591 5.2707472-2.4830591 8.3618125 0 4.9810974 2.3737245 9.4006544 6.0371324 12.1601076-21.4115972 4.2094312-37.5777687 23.3109197-37.5777687 46.2405641 0 5.3564006.9143787 10.5029897 2.5458685 15.2981647-1.8268964-.806557-3.8434611-1.254154-5.9634673-1.254154-6.0082867 0-11.1882667 3.593827-13.5605955 8.776563-.8314084-.764122-1.6874753-1.461136-2.5385795-2.078469-.8424194-.61089-1.6445168-1.24111-2.4055168-1.887989.2656598-.675955.5569087-1.357881.8742117-2.046252 4.1050888-8.9040217 4.1851124-23.309505.179588-32.2592611-.4322208-.96529-.8191568-1.9268081-1.1615835-2.8820397.5401596-.4295242 1.1037369-.8526047 1.6904219-1.2681414 7.9474643-5.6304915 15.1247785-18.06579 16.0714148-27.845991zm30.3427384-22.0562534c-.2912539.3826426-.578482.7755585-.8610649 1.1787478-5.8729244 8.3730929-17.3349516 15.7746433-27.5994466 16.6834393-.6328308.0557921-1.2551326.1273895-1.8662858.2138436 3.1574962-15.4441576 14.9561454-23.76051 30.3267973-18.0760307zm37.6470589-.173252c-.473502.1895826-.949196.3915664-1.425986.6057963-1.425047.6395894-2.82739 1.2415104-4.318201 1.7046934-2.7660099-3.3712533-6.9866604-5.5256436-11.7155741-5.5256436-4.8460365 0-9.1582871 2.2624353-11.9183467 5.7781621-1.6001049-.4348154-3.1076702-.968685-4.4783835-1.602539-.5682337-.2629044-1.1349017-.5081372-1.6990643-.7358534 10.417671-11.58252162 24.8959664-12.76187124 35.5555556-.2246158zm16.685296 69.8203107c2.876289-2.6673378 3.577198-7.5247859 1.590248-10.9740376-.560446-.9724603-1.335727-1.8242047-2.246159-2.5156207-.142494-1.1357636-.490917-2.2342634-1.05105-3.2067237-.560134-.972617-1.335727-1.8242048-2.246159-2.5157774l-.010468-.0826693c-.148744-1.1063283-.49373-2.1753927-1.040583-3.1242109-.559977-.9724604-1.335258-1.8240482-2.245846-2.5156208-.142494-1.1357636-.490761-2.2341068-1.051207-3.2067237-1.741804-3.0232229-5.284941-4.6647097-8.527621-4.4303234-.92215.0666991-1.967576-.0519815-2.878008-1.6327189l-6.3902077-11.0920918c21.4141267 3.8309709 37.6470587 22.5876663 37.6470587 45.1493418 0 5.443179-.963554 10.6599563-2.701921 15.5042533zm-8.711-20.6105777c-1.582634-.1915161-3.199833.0884043-4.617874.9630153-1.601936.9881139-2.597872 2.2662195-3.03928 3.63209-.748298-.3895864-1.362079-1.0314368-1.803038-1.8472183-1.179831-2.1835703-.730942-4.8860562 2.192225-6.6886726 2.366096-1.4597101 5.409565-.9876344 7.638899.6241055.074366 1.1124875-.051174 2.252791-.370932 3.3166801zm-5.882793 4.5127413c.359331-1.1675649 1.186402-2.2821653 2.57205-3.1827289 1.133239-.736139 2.42254-1.0034755 3.70246-.8945296-.556046 1.3024901-1.406497 2.4249682-2.539885 3.1616101-1.385351.9002283-2.656335 1.1487926-3.734625.9156484zm3.137255 6.2743509c.359331-1.1675978 1.18655-2.282062 2.57205-3.1823157 1.133239-.7364951 2.42254-1.0041744 3.70246-.8945549-.556047 1.3018564-1.406497 2.4248689-2.539587 3.1610288-1.385649.900589-2.656633 1.1493279-3.734923.9158418zm8.845669 5.2761738c-.146117-.2516097-.306764-.4795193-.479656-.6838913 1.83879-1.6549421 2.818346-4.127859 2.88463-6.6012629.516879.4926679.96274 1.0476701 1.314564 1.6528318 1.748997 3.0123355 1.233261 7.375409-1.270321 9.8504362zm-5.708414.0162787c.218145-.2723001.493044-.4927018.786906-.6588035.753208-.4253272 1.615558-.4943027 2.350349-.1428875l-.045566.0260159c-1.130836.6385244-2.178316.8654634-3.091689.7756751zm3.882374.286921c.149589-.0852649.29518-.1744651.43694-.2680925.145425.1657747.280189.3523736.402958.5614365l2.597989 4.4290189c-.157252.1085487-.319501.2118504-.487414.3074455-3.254316 1.8492641-5.942759.8895423-7.256412-1.3503007-.603688-1.0289176-.72196-1.9132128-.550549-2.6378003 1.452249.2459564 3.11872-.0544384 4.856488-1.0417074zm.300633-10.5079508c.217783-.7467178.337348-1.5281504.356667-2.3091613.420435.422339.789127.9046909 1.087295 1.4415744.291008.524375.506225 1.0970976.647541 1.6956805-.657268-.3707588-1.364388-.6518496-2.091503-.8280936zm3.116436 2.1510098c.164294 2.4695509-.645652 5.0745297-2.365797 6.6948407-1.199881-.8859116-2.727003-.8522958-3.982697-.0731826-.555276.3445211-1.058631.8424845-1.407567 1.4671904-.872193-.369934-1.581737-1.0691093-2.074917-1.9878323-.440959-.8209319-.654631-1.7150463-.596275-2.6072306 1.327965.2758421 2.862269-.0083638 4.463906-1.0021995 1.417893-.8801213 2.453331-2.2448561 3.089557-3.8145023 1.022271.2377229 2.009229.6941893 2.87379 1.3229162zm-6.253691-8.4321123c.215875-.7449942.334909-1.5237814.35495-2.3025686.425429.4274811.793426.9086085 1.082605 1.4336668.296846.5381531.513125 1.1124928.653948 1.7035881-.656907-.3738347-1.363983-.6572732-2.091503-.8346863zm2.070673 2.1762888c.074523 1.1344997-.051328 2.2975371-.370967 3.3829518-1.583531-.1960139-3.201032.0888748-4.619207.9810478-1.602087 1.0077918-2.597368 2.3125398-3.038967 3.7061626-.748369-.3974091-1.361759-1.0521477-1.802909-1.8843098-.439953-.8308575-.652448-1.7350979-.595583-2.6456982 1.328688.2861934 2.863286.0003262 4.46657-1.0084441 1.419222-.8929884 2.451166-2.279599 3.086853-3.8733126 1.022667.2410221 2.009418.7038236 2.87421 1.3416025zm-42.8549871-39.5116947c0-7.7971078 6.320504-14.1174895 14.1174106-14.1174895 7.7972219 0 14.1178835 6.3203817 14.1178835 14.1174895s-6.3206616 14.1178047-14.1178835 14.1178047c-7.7969066 0-14.1174106-6.3206969-14.1174106-14.1178047zm-21.9607843 87.8428221c0 7.797336-6.3206263 14.11812-14.117647 14.11812-7.7971784 0-14.1176471-6.320784-14.1176471-14.117805 0-7.796705 6.3206263-14.117489 14.1176471-14.117489 7.7971783 0 14.117647 6.320784 14.117647 14.117174zm19.3879158-59.4091138c-3.7432538-1.1631471-8.2917806.6581665-10.2790268 4.1087631-.560285.9726829-.9085492 2.0717677-1.050886 3.208444-.9105803.691529-1.6855422 1.5434489-2.2459835 2.5162885-.5601288.9726829-.9085492 2.0719243-1.0508859 3.2082874l-.066403.0509053c-.8818317.6822877-1.6332011 1.5165082-2.1795806 2.4655398-.5604412.9728396-.9088616 2.0719243-1.0510421 3.2082874-.9107366.6916856-1.686011 1.5436055-2.2461398 2.5166017-1.7416333 3.0242451-1.3888381 6.9213988.4351349 9.6192234.5188808.7674954.9388602 1.7342264.0284361 3.3155801l-6.3785932 11.0740191c-1.7372585-4.84039-2.7147106-10.0557563-2.7147106-15.4910334 0-22.5615452 16.2440466-41.320699 37.6470588-45.1625617zm-2.2189911 6.3385908c-.1436555-.0797453-.2893952-.1542562-.4368985-.2239948.0703847-.193821.1632156-.3897972.2813786-.5856194l2.5005025-4.1586057c.1673842.0746649.3330048.1559496.4946172.2455475 3.1323618 1.736537 3.613351 4.3385713 2.3489908 6.4413513-.5810349.9664875-1.2728577 1.4760564-1.9685284 1.6791142-.4909296-1.2777709-1.5470215-2.4704085-3.2200622-3.3977931zm-.3947054 1.3420944c1.0379265.8878778 1.703126 1.9634975 2.0493101 3.1014504-.3215193-.0671567-.6268875-.23746-.8965731-.468427-.6912416-.5914239-1.1432216-1.5585169-1.1949301-2.6688279zm-.2564838-1.6701553c-.1375607.2617324-.2486852.5241398-.3353715.7851971-2.2221816-.7858721-4.7110313-.3774953-6.7705993.8491537.1606156-.7187094.4057657-1.4067061.7366798-2.0358088 1.6467323-3.1313384 5.4672309-4.9378149 8.6750849-3.983192zm-2.0963259 6.3680243c-1.4179071-.8744343-3.0349736-1.1541894-4.6177746-.9626771-.3199119-1.0638684-.4454526-2.2039901-.3710858-3.3164561 1.907501-1.3794321 4.4111336-1.9240752 6.5768984-1.1382033-.1140191 1.5503225.6767828 2.9463801 1.9321903 3.7212216.5555813.3425801 1.2082735.560789 1.8858045.573418.1382594.9906525-.0703268 1.9944136-.5638112 2.9075341-.4411133.8162453-1.0544524 1.4577636-1.8024598 1.8475023-.4418615-1.3661637-1.4379577-2.6442447-3.0397618-3.6323395zm-5.0096449.5184669c1.2802782-.1089398 2.5690449.1583817 3.7024865.8946472 1.3855657.9003457 2.2123779 2.0150513 2.5720233 3.1825509-1.0780427.2332988-2.3490878-.0154192-3.7348024-.9157648-1.1332927-.7364331-1.9834855-1.859016-2.5397074-3.1614333zm-3.1372549-.0233823c.1408325-.5914381.3567218-1.1654189.6534519-1.7034995.2897355-.5249876.6574872-1.0063318 1.0830783-1.4337554.0199075.7791047.1389493 1.557787.3549731 2.3026809-.7277016.1772485-1.4346887.4605081-2.0915033.834574zm5.0129424 5.7011991c-1.4189143-.8933145-3.0366831-1.1736372-4.6207859-.9768079-.3202021-1.0857408-.4457393-2.248289-.3713746-3.3831148.8645458-.637779 1.8514865-1.1004174 2.8740385-1.3412764.6359154 1.5920828 1.6707368 2.9762474 3.0890526 3.8687466 1.6019084 1.0077918 3.1360356 1.2946374 4.4642759 1.0144778.0580553.9050558-.155313 1.8114161-.5962643 2.6437413-.4402031.8308575-1.0523278 1.4847807-1.8027079 1.884799-.4367617-1.3970473-1.4331289-2.7021214-3.0362343-3.7105656zm-5.0129424-.4486876c1.2801084-.1098246 2.5700373.1567009 3.7032821.8931619 1.3862013.9003608 2.2129224 2.0153483 2.5712277 3.1827369-1.0780407.234884-2.3490724-.0133933-3.7354224-.9139215-1.1332448-.7362935-1.9836248-1.8598192-2.5390874-3.1619773zm-3.1372549-.0237533c.1412977-.5983287.3566214-1.1716391.6473218-1.6954754.2981301-.5370481.6670441-1.0191405 1.087425-1.4417795.0190469.7810459.1385961 1.5620918.3567565 2.3094053-.7274265.1762518-1.4344554.4572147-2.0915033.8278496zm1.8491032 0c.6356311 1.521866 1.671225 2.8453498 3.0892749 3.6986116 1.6017964.9636821 3.1359597 1.2395769 4.463932.9717921.0583559.8654268-.1550174 1.7322572-.595979 2.5282814-1.1799875 2.1301133-3.594877 3.0432641-6.5180619 1.2840257-2.3661099-1.4237667-3.5049489-4.4015272-3.313272-7.2000887.8647156-.609651 1.85153-1.0524239 2.874106-1.2826221zm22.5266265 48.8970328c1.1225648 0 2.2482605-.254572 3.302886-.711836 1.0552517.457264 2.1809473.711836 3.3035122.711836 1.1227214 0 2.2482605-.254572 3.3035121-.711836l.0768623.032869c1.032553.436962 2.1310104.678967 3.2261803.678967 1.1227214 0 2.2485736-.254572 3.3031991-.711836 1.0550951.457264 2.1807908.711514 3.3035118.711514 3.490111 0 6.686548-2.319511 8.108109-5.336196.404505-.857974 1.030674-1.730449 2.855175-1.730449l12.815179.000644c-8.415245 10.250575-20.982774 16.731382-35.0401158 16.731382-14.0440359 0-26.6128172-6.496919-35.0252439-16.731704h17.7616025c.8683401 3.941203 4.7233508 7.066645 8.7056304 7.066645zm-1.8162852-8.699944c0 .175152.0057582.349458.01711.522749-.2155196.042307-.4446942.064476-.6863722.064476h-5.1318331c-.0167809-.193937-.026323-.390073-.026323-.587225 0-3.817641 2.1616117-5.687285 4.7560723-5.687285 1.1925964 0 2.019303.351997 2.5641891.876776-.9310116 1.150759-1.4928431 2.771805-1.4928431 4.810509zm.4470915-.458527v-.053106c0-1.310007.3216965-2.336551.8558623-3.084149.1319431.329042.1898893.681078.1898893 1.021617 0 .872562-.3690328 1.657115-1.0457516 2.115638zm3.1372549 8.051401c-.6443647.204724-1.3066327.314612-1.9652283.314612-3.2787468 0-6.5989619-2.705228-7.4465364-6.201251h4.5913473c.2739047 0 .5351089-.025423.7831533-.073258.4893561 2.483778 2.0490829 4.626685 4.0372641 5.959897zm6.2745098-7.509867c0 1.322312-.3946763 2.570443-1.0456847 3.641473-.6511423-1.07103-1.0458186-2.319161-1.0458186-3.641473 0-1.616476.3994976-2.840081 1.0458186-3.678789.6464549.838708 1.0456847 2.062313 1.0456847 3.678789zm1.0457516 6.466917c-.6758626.201999-1.3801501.311811-2.0969446.311811-.6992522 0-1.4024028-.111337-2.0860619-.318759.7661725-.490424 1.4725716-1.088964 2.0860619-1.772745.6167389.687 1.3267114 1.288083 2.0969446 1.779693zm1.5346944-7.141661c0 1.660306.6122334 3.210683 1.6025605 4.509209-.7338361.785272-1.6335082 1.436355-2.6141446 1.898511-.980949-.462156-1.8806211-1.113239-2.6146136-1.898511.9895456-1.297919 1.5978715-2.849964 1.5978715-4.509209 0-1.874554-.5631547-3.354273-1.4893981-4.389577.7207068-.47186 1.5847421-.705971 2.5061402-.705971.9193661 0 1.7818385.233353 2.5056713.705971-.9315577 1.032574-1.4940872 2.51381-1.4940872 4.389577zm3.6940638.674744c0 1.322312-.3947269 2.570443-1.0458186 3.641473-.6512257-1.07103-1.0456847-2.319161-1.0456847-3.641473 0-1.616476.3994149-2.840081 1.0458186-3.678789.6468056.838708 1.0456847 2.062313 1.0456847 3.678789zm1.0457516 6.459969c-.6841464.207422-1.3869721.318759-2.0863868.318759-.7169569 0-1.4209195-.109812-2.0966197-.311811.7700708-.49161 1.4803682-1.092693 2.0966197-1.779693.6139776.683781 1.3202143 1.282321 2.0863868 1.772745zm-1.0457516-2.625504c1.0147246-1.297768 1.6382205-2.849964 1.6382205-4.509058 0-1.87425-.5766575-3.354424-1.5268992-4.389728.7396294-.47186 1.6260297-.705971 2.57178-.705971 2.5297537 0 4.6371597 1.675469 4.6371597 5.095699 0 2.768694-2.041479 5.215636-4.6374805 6.407569-1.0065439-.462156-1.9296771-1.113239-2.6827805-1.898511zm-13.9719215-8.720625c.8002381-.591039 1.8013107-.884132 2.8771047-.884132.9615909 0 1.8631435.233808 2.6155794.705668-.9663221 1.035303-1.5530003 2.515478-1.5530003 4.390031 0 1.65879.6344804 3.210987 1.6662246 4.508755-.7661403.785272-1.7050536 1.436354-2.7288037 1.898814-2.2589391-1.019837-4.1057679-2.958681-4.5914577-5.232011 1.4324343-.635314 2.2352827-1.991154 2.2352827-3.460412 0-.650021-.1626579-1.326425-.5209297-1.926713zm49.0725265-6.44683c-.430292.350728-.841182.724701-1.230166 1.119564l-1.915816-1.760549-.716476.785485 1.913313 1.758508c-.490063.572976-.938349 1.183176-1.339694 1.825575l-1.254575-.722188-.527773.924331 1.250663.719832c-.352683.663917-.657486 1.357676-.909715 2.076409l-2.474727-.774177-.315756 1.016687 2.473788.773862c-.144891.530568-.261774 1.072602-.348928 1.624845l-10.763716-1.327834-.129557 1.056739 10.763872 1.32799c-.022844.264028-.038961.530411-.048192.798365l-13.064918-.000314c-2.340476 0-3.281016 1.195113-3.808633 2.287348-1.259895 2.607291-4.10389 4.60124-7.149576 4.60124-.673602 0-1.3508037-.103192-2.0095417-.295441 2.4689377-1.520867 4.2922807-4.163183 4.2922807-7.138479 0-4.067531-2.469564-6.343413-5.5844086-6.343413-1.2417445 0-2.3808449.361565-3.3019828 1.054068-.9017357-.67821-2.0131409-1.038832-3.2246868-1.053754l-.0768267-.000314c-1.241901 0-2.3808449.361565-3.3019828 1.054068-.9209815-.692503-2.0600819-1.054068-3.30167-1.054068-1.2883726 0-2.4664339.389523-3.4047835 1.134015-.6983249-.677896-1.7415092-1.134015-3.1988693-1.134015-3.1148449 0-5.5844083 2.275882-5.5844083 6.343727 0 .182824.0071977.364392.0214364.545018l-17.8605619.000157c-.0087623-.265441-.0247222-.529154-.0474104-.790512l10.7635598-1.335686-.1301829-1.056581-10.7621515 1.335058c-.0868408-.552714-.2037238-1.095219-.3486148-1.626101l2.4734751-.779988-.3181032-1.016059-2.4717539.779675c-.25176-.718419-.5556244-1.411393-.9073686-2.074838l1.2494116-.729099-.5334056-.92072-1.2470646.728c-.4005628-.64177-.8469712-1.250871-1.3357829-1.823062l1.9065849-1.769973-.7203871-.781873-1.9043944 1.767931c-.3877322-.394392-.7969008-.767423-1.2256282-1.117679l6.5263567-8.6964142-.8475971-.6411422-6.5247919 8.6950004c-.2184319-.154396-.440932-.302666-.6673439-.445124l6.5420037-11.3732851c1.1705508-2.0347862.6096065-3.4497911-.0690032-4.4546975-1.6194628-2.3987075-1.9178507-5.8681319-.3947734-8.5159456.3365666-.5855409.7645116-1.1227057 1.2597386-1.599243.0772961 2.906815 1.4453119 5.8130018 4.0123559 7.3007282 3.5094619 2.0338438 6.7075488 1.0250108 8.265206-1.682802.6207158-1.0795126.8782651-2.2505945.7411976-3.3973312 1.0362997-.4452813 1.9031425-1.2306099 2.5218242-2.2765104l.0384916-.0667529c.6211853-1.0795126.8787346-2.2505945.741667-3.3976454 1.058049-.4545481 1.9394436-1.2634365 2.5603159-2.3429491.6441863-1.1201927.8975109-2.3390225.7242988-3.5269105.933812-.2679541 1.849004-.9467921 2.5776841-2.2138411 1.5570312-2.7078128.8285077-5.992685-2.6809542-8.0263718-.1577215-.0914122-.3182596-.1759135-.4809882-.2539752l8.9190933-15.5067831c.2354871.1259667.4742601.2453366.7169448.3590522l-4.2390807 10.0162372.9769977.4165383 4.2392371-10.0174938c.5136905.1968034 1.0406809.3665914 1.5794065.506694l-.5751831 2.5347264 1.0344221.2365409.5762784-2.5399095c.731027.1360189 1.4800481.2191067 2.2439338.2451796l-.0086058 1.4478317 1.0611784.0061255.0084493-1.4547426c.7637293-.0267011 1.5133763-.1110454 2.2442468-.2478496l.5567197 2.5392812 1.0364562-.2290018-.557815-2.5427367c.5390386-.1413591 1.0663419-.3117754 1.5801889-.5096782l4.2201478 10.0240905.9771536-.4148106-4.2207732-10.0258182c.2367388-.1113595.4703483-.2282164.7003589-.3511989l6.5379353 11.3682588c1.170082 2.0349433 2.671566 2.2545212 3.877792 2.1671926 2.879358-.2084262 6.021742 1.2667349 7.544662 3.9147057.336567.5853839.58598 1.2257408.749804 1.8946836-2.546547-1.3862619-5.737749-1.6501323-8.304949-.1624059-3.509306 2.0336867-4.237986 5.3185589-2.680642 8.0265288.621029 1.0793555 1.502267 1.8887151 2.560316 2.3431062-.133938 1.123491.110311 2.2695995.703332 3.3302642l.038022.067067c.621186 1.0795126 1.50258 1.8888722 2.560629 2.3434204-.137067 1.1468938.120482 2.3179757.741354 3.3971741.644186 1.1200356 1.569236 1.9494996 2.680798 2.3928961-.2358.9458497-.107651 2.0806494.621185 3.3478555 1.557501 2.7079699 4.755588 3.7168029 8.265206 1.6826449.157565-.0912551.310593-.1884788.459552-.2913569l8.922066 15.512437c-.222187.139475-.439993.284446-.654044.435072l-6.539969-8.6847907-.846033.6420846zm-21.539438-83.6928255c5.569118 7.9818974 17.867122 15.1895897 27.539408 16.1404089 1.02688.1006109 2.028426.2375101 3.002929.4092962.102734.7094154.186663 1.4367415.251319 2.1824454.839906 9.7028723 7.893159 22.1065073 15.79471 27.7754455.859645.6165919 1.677792 1.2529632 2.453042 1.906778-.256292.639642-.536365 1.2852023-.839906 1.9360578-4.113737 8.8238514-4.194401 23.0998448-.179824 31.9683947.432386.955336.819856 1.906311 1.162253 2.851212-.565274.447297-1.156037.886964-1.772444 1.318687-1.135055.795698-2.255966 1.729074-3.33942 2.766798-2.450555-4.939743-7.538017-8.334191-13.416272-8.334191-2.115773 0-4.129434.439822-5.954101 1.233184 1.629611-4.751293 2.529044-9.8453787 2.529044-15.1503424 0-22.7290175-16.187309-41.6625453-37.6546501-45.8268375 3.6689161-2.7347148 6.0454901-7.1123767 6.0454901-12.0468247 0-3.1809223-.987714-6.1304087-2.672344-8.5576842 1.011027-.3284648 1.967189-.7000708 2.880611-1.1151295.969839-.4409122 1.935794-.8349454 2.894598-1.1825667.432387.5508677.85778 1.1257201 1.275557 1.7248685zm30.360402 15.0071576c-.467809-.0642335-.942092-.1198615-1.422385-.1668841-9.993535-.977025-21.948475-7.2305693-27.823752-15.6090432-.35313-.5034184-.71335-.9911625-1.080661-1.4629252 14.590699-4.7738692 27.461681 1.3140203 30.326798 17.2388525zm20.162802 31.372549c-.399306-.3054958-.80948-.6061989-1.230681-.9021093-8.345567-5.8650247-15.720987-17.3079761-16.62671-27.5558453-.055919-.6338729-.127116-1.2569235-.213908-1.8688427 15.446908 3.133651 23.76554 14.9456401 18.071299 30.3267973zm.359491 1.3136519c5.842956-15.8402147-2.220289-29.7397071-18.992069-32.5788655-2.887158-16.549926-16.751923-24.5198335-32.630897-18.6668643-10.7960766-12.95195968-26.8484521-12.91068102-37.6843997.1832522-15.805173-5.8112215-29.6713458 2.2232621-32.532704 18.9378337-16.5669509 2.8891931-24.5365369 16.7778968-18.6508952 32.675495-12.97821365 10.7931173-12.94866191 26.854892.1452569 37.6991389-5.7664966 15.77298 2.2582839 29.601955 18.9349984 32.470509 2.8658926 16.631701 16.7978923 24.631317 32.7395661 18.702514 10.7776259 12.910212 26.783563 12.883631 37.6130995-.138378 15.808457 5.798557 29.671815-2.254846 32.515192-18.990213 16.621833-2.859329 24.620345-16.770392 18.71985-32.695978 12.885805-10.7801399 12.84609-26.7764004-.176998-37.598444z" fill="#fff" fill-rule="evenodd"/></svg>