<?xml version="1.0" encoding="UTF-8"?>
<svg width="180px" height="180px" viewBox="0 0 180 180" version="1.1" xmlns="http://www.w3.org/2000/svg" xmlns:xlink="http://www.w3.org/1999/xlink">
    <title>Logo Fiamma 2</title>
    <g id="Logo-Fiamma-2" stroke="none" stroke-width="1" fill="none" fill-rule="evenodd">
        <path d="M41.0549634,81.1111111 L33.0065359,79.1706021 L33.7705597,76.2073126 C34.1837658,74.6051534 35.3862332,73.4488217 37.1843696,73.8828251 C39.0124461,74.3238016 39.5024622,76.0325288 39.0890993,77.6352944 L38.9599332,78.1363007 L37.8060598,77.803105 C37.9220585,77.3386319 38.0187763,76.8456599 37.9994954,76.5144348 C37.9588959,75.8165125 37.6018081,75.2924644 36.8829298,75.119045 C35.0418426,74.6751882 34.8154884,77.1333785 34.5328591,78.2299836 L37.4912958,78.9432165 L38.6780877,79.2294192 L38.9557008,79.2944515 L41.372549,79.8789842 L41.0549634,81.1111111 Z M42.6559622,72.745098 L35.0980392,69.4794646 C35.2651731,69.1151497 36.4319835,66.0566341 37.3147131,65.1733867 C38.0909711,64.3965052 39.0951816,64.1567644 40.1214369,64.6002849 C41.2974717,65.108596 41.7522822,66.1176315 41.5535664,67.3167905 L45.5555556,66.4247424 L44.8973388,67.8595454 L41.1850589,68.6739053 L40.9044178,69.285396 L39.8079631,68.8361097 C40.0720315,68.2683186 40.3464188,67.6129766 40.3948861,67.2395576 C40.4763424,66.6125899 40.2605848,66.0516269 39.6398911,65.7836635 C38.6782068,65.3680623 38.0324977,66.0472266 37.667117,66.8438336 L36.7657822,68.8087974 L39.2877999,69.8985558 L40.4022343,70.3800099 L40.8287463,70.5643675 L43.1887895,71.5838727 L42.6559622,72.745098 Z M148.039216,115.620915 L153.167994,117.170682 L153.267974,117.903424 L148.752627,120.849673 L148.618683,119.8677 L149.711602,119.166501 L150.48162,118.628281 L151.98259,117.708902 L150.287242,117.203047 L150.384989,117.921003 L149.611941,118.435238 L149.408952,116.946423 L148.169811,116.576273 L148.039216,115.620915 Z M38.7246026,131.30719 L38.0822812,130.341084 C38.4172383,129.469646 38.3108833,128.380084 37.5124349,128.133171 C37.2124055,128.040446 36.9333327,128.095904 36.6900609,128.247973 L36.1437908,127.426342 C36.6167126,127.13545 37.1835901,127.029302 37.8021606,127.220581 C39.5454048,127.759445 39.6019877,129.93751 38.7246026,131.30719 L38.7246026,131.30719 Z M146.055861,112.6123 C145.251155,109.972779 149.146183,107.869979 150.82527,110.6834 C151.083755,111.116925 151.178572,111.54996 151.176471,112.049616 L151.175614,112.246376 L150.258344,112.240334 C150.284636,111.489871 150.075284,110.736305 149.317247,110.387526 C147.860329,109.716746 146.03532,111.566289 147.250678,113.005493 C147.50752,113.309859 147.864109,113.533234 148.250933,113.633818 L148.898543,113.093831 L148.000664,112.030511 L148.659777,111.481053 L150.131813,113.224133 L148.511555,114.575163 C147.405638,114.419225 146.389444,113.706807 146.055861,112.6123 L146.055861,112.6123 Z M140.853679,108.78203 L141.730118,106.20915 L142.64281,106.45976 L141.776508,109.003184 C141.532184,109.720468 141.718954,110.312371 142.569788,110.545863 C143.405163,110.77519 143.91735,110.397347 144.158753,109.689007 L145.034848,107.116128 L145.947712,107.366738 C145.929843,107.419019 145.223331,110.024131 144.642761,110.717974 C143.874052,111.636672 142.45845,111.626185 141.487684,110.969047 C140.695091,110.43251 140.578084,109.591848 140.853679,108.78203 L140.853679,108.78203 Z M32.3708933,96.7973856 L31.9607843,91.1147446 L33.1339885,91.0349913 L33.4559264,95.4973778 L35.6472439,95.3488263 L35.3592181,91.3567797 L36.5322716,91.2771725 L36.8204481,95.2693652 L39.0655727,95.117162 L38.7397162,90.602483 L39.9130711,90.5228758 L40.3267974,96.2582475 L32.3708933,96.7973856 Z M32.3473598,83.4518856 C32.6036399,82.9424905 32.9347262,82.5625976 33.3409264,82.1568627 L34.2795429,82.9589885 C33.6383037,83.5840159 33.2388761,84.1304951 33.1565278,85.0235791 C33.0821835,85.8299388 33.5456427,86.7171828 34.5050386,86.4336502 C35.0702402,86.2666258 35.4054824,85.2038894 35.5492456,84.7493904 C35.958986,83.5186077 36.5948378,82.282131 38.1856218,82.4145533 C40.5707974,82.6123837 40.695936,85.3411298 39.8524434,86.9398333 C39.535364,87.5403326 39.1177736,87.9783336 38.6032123,88.4313725 L37.7178528,87.5860307 C38.5499553,86.8570511 39.0284988,86.2653118 39.1302413,85.1615494 C39.2062787,84.3363555 38.7337381,83.3778634 37.733399,83.6740981 C37.1805111,83.8380564 36.864971,84.8346546 36.7184372,85.2815616 C36.2936124,86.5835925 35.7053225,87.8307272 34.0308049,87.6911509 C31.8503456,87.5101105 31.5863693,84.9651789 32.3473598,83.4518856 L32.3473598,83.4518856 Z M46.3324332,65.4248366 L39.2810458,61.0164851 L42.6560321,56.0130719 L43.6958095,56.6630506 L41.0456801,60.5919874 L42.9877949,61.8061273 L45.3587542,58.2914391 L46.3985315,58.9414178 L44.0275722,62.456259 L46.0175129,63.7003815 L48.6987847,59.7255531 L49.7385621,60.3755318 L46.3324332,65.4248366 Z M44.5098039,111.943499 L47.9212503,108.300654 L48.6928105,108.840815 L45.2811853,112.48366 L44.5098039,111.943499 Z M80.6597604,28.9314565 L81.3897136,30.0266647 L80.984233,30.9150327 L77.9738562,26.3674594 L78.284656,25.6862745 L83.2026144,26.0521436 L82.7859603,26.9657026 L80.7444438,26.834778 L79.1410462,26.6625539 L80.1398985,28.1601324 L80.4443764,27.4926569 L81.2916514,27.5466376 L80.6597604,28.9314565 Z M40.3267974,110.979111 L41.1591346,107.619484 L42.0796241,107.889771 L41.4712178,110.344945 C41.9531975,110.44838 42.6123477,110.648796 43.1371046,110.577957 C44.8873336,110.341556 45.166338,107.876216 43.1407416,107.44053 L42.2391295,107.246407 L41.3065169,107.024852 L41.5086262,106.20915 L43.3477002,106.604657 C45.2489483,107.013718 46.2276286,108.931223 45.0341963,110.469035 C43.8317581,112.018304 41.9544099,111.329274 40.3267974,110.979111 L40.3267974,110.979111 Z M84.7276648,25.6862745 L80.0653595,23.2060219 L80.8588469,22.6525721 L84.196514,24.4774119 L83.2265162,21.0004699 L84.0042958,20.4575163 L85.2941176,25.2911675 L84.7276648,25.6862745 Z M35.4887024,112.48366 L34.0522876,107.577204 L34.7427656,107.32825 L37.9993642,109.750784 L37.0469121,106.497045 L37.8447842,106.20915 L39.2810458,111.115947 L38.6547591,111.341773 L35.3093037,108.857681 L36.2864212,112.195935 L35.4887024,112.48366 Z M33.1547763,127.147219 C32.6270368,127.393009 31.9930121,127.308024 31.4380199,127.237369 L30.481933,127.126722 L31.767296,128.610793 L31.1207671,129.215686 L28.8235294,126.563489 L29.3358791,126.08424 L31.4952505,126.343694 C31.9926914,126.398018 33.1187066,126.528661 33.127684,125.704141 C33.1353788,124.991433 32.3327083,124.865456 31.8117018,124.927778 L31.5941616,124.953607 L31.5018232,124.054432 C31.7430893,124.021272 31.9835538,123.987778 32.2275451,123.986928 C33.8804982,123.979779 34.8723342,126.348027 33.1547763,127.147219 L33.1547763,127.147219 Z M31.874664,120.849673 L26.7320261,120.774944 L26.7471142,120.064875 L29.1961185,118.755984 L26.8033975,117.376736 L26.818316,116.666667 L31.9607843,116.741396 L31.9443401,117.524502 L28.5666603,117.475435 L30.7752736,118.771917 L28.5100379,120.028497 L31.8907692,120.077565 L31.874664,120.849673 Z M29.8490311,114.085043 L27.7777778,112.480223 L28.2748132,111.802095 L30.3225751,113.388571 C30.9001948,113.836019 31.4916416,113.880504 31.9547781,113.248543 C32.4098858,112.627589 32.2191301,112.071298 31.6487958,111.629506 L29.5775424,110.024686 L30.0745778,109.346405 C30.1166541,109.379119 32.2675996,110.853084 32.7244915,111.573556 C33.3290221,112.527612 32.9008253,113.707609 32.0179668,114.296461 C31.2973176,114.777235 30.5008418,114.58997 29.8490311,114.085043 L29.8490311,114.085043 Z M37.7301471,129.998585 L38.2352941,130.782849 C37.7653027,131.225597 37.1418765,131.441901 36.4301708,131.217711 C36.1418948,131.12694 35.894243,130.980645 35.6929967,130.77609 C34.7541076,129.822033 35.0098842,128.079366 35.8793996,127.124183 L36.3989213,127.930657 C35.8740872,128.738741 35.8100258,130.109312 36.6893848,130.385969 C36.8420383,130.434251 36.9854731,130.438436 37.1239081,130.403512 C37.3568726,130.344125 37.5617126,130.197669 37.7301471,129.998585 L37.7301471,129.998585 Z M97.8436407,38.6925335 L98.8888889,42.8605383 L98.0538985,43.4640523 L97.0893638,39.5257152 L95.2787636,40.8339528 L94.7058824,40.2025912 L97.4286625,38.2352941 L97.8436407,38.6925335 Z M85.2941176,39.0170639 L82.7610939,42.4183007 L82.1568627,41.8862076 L84.149537,39.2106997 L83.5424577,38.9474553 L83.8131749,38.2352941 L84.8906187,38.661647 L85.2941176,39.0170639 Z M93.5493832,40.3267974 L93.6601307,40.9457306 L92.5426147,45.3596215 L91.6142554,45.5555556 L92.6883584,41.3956888 L90.675855,41.8207741 L90.5228758,40.9659498 L93.5493832,40.3267974 Z M102.077021,28.9518217 L103.071895,29.1440723 C102.425219,30.7132479 100.374359,31.5815287 98.8391496,30.287666 C98.2739549,29.8114539 97.8869156,29.021731 97.8475557,28.2649808 C97.8387515,28.0968741 97.8432399,27.9341728 97.8598125,27.7777778 L98.7839076,27.956515 C98.7480003,28.2685844 98.8003076,28.6073202 98.9706946,28.9563262 C99.0839407,29.1878557 99.2273973,29.3747009 99.4002012,29.5208258 C100.300991,30.2817201 101.546008,29.8355979 102.077021,28.9518217 L102.077021,28.9518217 Z M59.8001654,133.07201 L58.5860649,135.013836 L62.1007918,137.384831 L61.4506813,138.424783 L57.9359543,136.053788 L56.6920252,138.043759 L60.6667245,140.725072 L60.0166139,141.764706 L54.9673203,138.358684 L59.3756814,131.30719 L64.379085,134.682386 L63.7289744,135.722179 L59.8001654,133.07201 Z M93.6601307,24.1749208 L96.5197882,20.4575163 L98.1138964,21.7224632 C98.8262846,22.2876854 99.1877607,23.1802232 98.5814729,23.9684243 C98.1572246,24.5196519 97.560123,24.6589749 96.925358,24.4215349 L96.8831016,26.7320261 L96.0531303,26.0738184 L96.0989081,23.9681133 L95.8788991,23.7936486 L96.3792397,23.1772688 C96.6268072,23.3733472 96.9039236,23.5747125 97.0783079,23.643441 C97.3808394,23.7623942 97.6833709,23.7323838 97.8923564,23.4608906 C98.2204561,23.0343694 97.9424211,22.6353708 97.5866098,22.352993 L96.6888139,21.6405177 L95.8470537,22.7350427 L95.3536028,23.3764571 L94.3302625,24.7067117 L93.6601307,24.1749208 Z M87.0680825,24.6405229 L86.3398693,19.9633761 L89.764282,19.4117647 L89.8901006,20.2188905 L87.3074446,20.6350185 L87.4806753,21.7471383 L89.7909801,21.375183 L89.9166452,22.1823088 L87.6063404,22.5544202 L87.7843276,23.6977574 L90.3970573,23.2766347 L90.5228758,24.0839167 L87.0680825,24.6405229 Z M92.4937976,24.6405229 L91.5686275,24.4283857 L92.7349606,19.4117647 L93.6601307,19.6237322 L92.4937976,24.6405229 Z M45.5555556,112.849529 L50.4735139,112.48366 L50.7843137,113.165016 L47.7737899,117.712418 L47.3571358,116.799202 L49.6109489,113.446744 L47.9874096,113.57407 L48.2848306,114.226465 L47.7649687,114.998132 L47.1479267,113.645359 L45.9608891,113.73824 L45.5555556,112.849529 Z M102.764787,27.1977556 C103.037593,27.7582806 103.116076,28.3127052 103.049588,28.8235294 L102.116015,28.6663527 C102.167081,28.3356717 102.122184,27.9778973 101.946882,27.6179699 C101.237449,26.1596 99.4726058,26.567434 98.8358296,27.6569053 L97.8431373,27.4896807 C98.5858144,25.42575 101.637748,24.8813732 102.764787,27.1977556 L102.764787,27.1977556 Z M110.105429,138.703446 L112.48366,145.464257 L111.329666,145.947712 L108.951435,139.186902 L106.629428,140.15945 L106.20915,138.964821 L112.007306,136.535948 L112.427436,137.730576 L110.105429,138.703446 Z M83.1425707,143.546591 C82.7830469,145.390236 81.0446695,145.970096 79.3681978,145.645243 L78.9290585,145.560084 L79.1255898,144.376614 C79.6120596,144.467242 80.1268965,144.537244 80.468397,144.500055 C81.1863476,144.421928 81.7091773,144.038792 81.8506986,143.313303 C82.2125733,141.456377 79.6628381,141.364031 78.5159352,141.141993 L77.9341775,144.125201 L77.7008161,145.322109 L77.1710906,148.039216 L75.8823529,147.789521 L77.4647905,139.673203 L80.5641551,140.274001 C82.2409402,140.59901 83.4964525,141.734353 83.1425707,143.546591 L83.1425707,143.546591 Z M86.4847938,141.764706 L92.6143791,141.871012 L92.5931591,143.088769 L87.7798408,143.00541 L87.740073,145.280139 L92.045841,145.354756 L92.0243067,146.572357 L87.7185387,146.497896 L87.6776706,148.828666 L92.5471039,148.912962 L92.5257268,150.130719 L86.3398693,150.023476 L86.4847938,141.764706 Z M122.631587,137.655952 C123.768043,139.765694 121.54483,141.48112 119.702132,141.727721 C119.018941,141.819214 118.419428,141.731109 117.75465,141.571381 L117.99191,140.338221 C119.064148,140.598531 119.827273,140.64628 120.820474,140.07976 C121.54468,139.666653 122.13611,138.710592 121.325532,138.04349 C120.88559,137.681213 119.866493,138.007602 119.40709,138.149617 C118.091904,138.558411 116.690346,138.813484 115.90776,137.360832 C114.868006,135.430843 116.861293,133.708948 118.585286,133.444171 C119.157705,133.356066 119.660817,133.406742 120.22635,133.504397 L120.054954,134.756194 C119.17462,134.592923 118.493226,134.583989 117.689384,135.042535 C116.981944,135.445938 116.446349,136.352093 117.224144,136.993164 C117.673517,137.36345 118.759227,137.014574 119.223569,136.865781 C120.46855,136.487023 121.889119,136.278159 122.631587,137.655952 L122.631587,137.655952 Z M102.202113,145.300541 L105.163399,148.021966 L103.559022,148.263354 L100.823548,145.731761 L100.124772,145.836809 L99.9463509,144.715547 C100.579063,144.622717 101.288353,144.492338 101.635622,144.333052 C102.243854,144.053668 102.591124,143.584302 102.48222,142.929873 C102.319177,141.952698 101.357712,141.81025 100.487734,141.941225 L98.2906608,142.271718 L98.7242379,144.870363 L98.9158403,146.018595 L98.963231,146.317946 L99.3946111,148.889473 L98.0963907,149.084967 L96.7973856,141.297524 C97.2049135,141.236134 100.495266,140.53298 101.744056,140.766172 C103.191353,141.036169 104.093971,142.283489 103.758471,143.65344 C103.566555,144.437057 102.955027,144.984203 102.202113,145.300541 L102.202113,145.300541 Z M41.5385603,130.377339 L40.9222202,131.30719 C39.9874743,129.979861 40.0693597,127.747911 41.7718661,127.219829 C42.4191671,127.019202 42.9964256,127.148606 43.4640523,127.473659 L42.9179238,128.297103 C42.6575485,128.099222 42.3518316,128.013755 42.0278427,128.114325 C41.1942693,128.372789 41.1512964,129.519055 41.5385603,130.377339 L41.5385603,130.377339 Z M49.2429814,128.480169 C48.9705611,128.768203 48.6692479,128.974593 48.3375556,129.089741 C47.9158821,129.235792 47.5879873,129.232051 47.1545915,129.191391 L47.1735783,128.281098 C47.7955219,128.320131 48.4717845,128.265159 48.7661634,127.620294 C49.0479945,127.003402 48.3357395,126.296409 47.4709291,127.209954 L47.1679648,127.530192 L46.6168505,127.285744 L46.4514171,125.582096 L45.1649333,126.941274 L44.5098039,126.339183 L46.7365503,123.986928 L47.230704,124.441017 L47.3852406,126.155237 L47.5434094,126.05928 C49.1300508,125.171106 50.5101481,127.141971 49.2429814,128.480169 L49.2429814,128.480169 Z M47.8916242,117.712418 L52.875817,118.019782 L52.8120818,118.824794 L48.7010779,118.571321 L48.5204125,120.849673 L47.6470588,120.795783 L47.8916242,117.712418 Z M72.3495292,138.893598 L73.7908497,139.492505 L69.3834673,141.968374 L70.6565372,146.993464 L69.1961223,146.386901 L68.2439023,142.552427 L64.7632284,144.545924 L63.3333333,143.952071 L67.9084967,141.367323 L66.6720507,136.535948 L68.1226054,137.138223 L69.0469662,140.78373 L72.3495292,138.893598 Z M43.7953064,127.124183 C44.8078955,128.351636 44.8737837,130.678569 43.1430132,131.21815 C42.8463556,131.310565 42.5537155,131.332194 42.267825,131.27763 C41.9303489,131.213234 41.6298344,131.061339 41.372549,130.848652 L41.8904946,130.052144 C42.165618,130.337091 42.5151468,130.484071 42.8997089,130.364127 C43.0567157,130.315298 43.1814212,130.234844 43.2797714,130.123913 C43.7409888,129.60465 43.6368533,128.63986 43.2413634,127.975584 L43.7953064,127.124183 Z M60.2960292,41.372549 L61.4281571,41.888422 C61.2405406,43.5949938 62.5388055,45.4951133 64.4829151,45.335246 C65.2041572,45.2758101 65.9338741,44.8524437 66.3685773,44.2506173 L67.5163399,44.6614869 C67.1748604,45.2252134 66.6904768,45.7095396 66.0767782,46.0646309 C65.5666777,46.3595244 65.0464951,46.5338696 64.5175453,46.5832471 C61.5513352,46.8604622 59.7401936,43.8926304 60.2960292,41.372549 L60.2960292,41.372549 Z M90.0235345,87.3856209 L84.248366,87.3856209 L84.2485213,74.8366013 L87.3235908,74.8366013 C87.0316882,75.748876 86.4888736,78.2917105 88.1729031,81.0692446 C89.0770248,82.6449076 91.5817974,83.7368307 90.0235345,87.3856209 L90.0235345,87.3856209 Z M93.6601307,97.5609103 L93.6601307,102.026144 L91.6656539,102.026144 L91.6656539,97.5239467 C91.6656539,96.987484 91.2441017,96.5602766 90.6921842,96.5602766 L89.9823458,96.5602766 L89.9580131,102.026144 L87.9506448,102.026144 L87.9506448,97.5239467 C87.9506448,96.987484 87.5302206,96.5602766 86.9650893,96.5602766 L86.2436485,96.5602766 L86.2436485,102.026144 L84.248366,102.026144 L84.248366,94.7058824 L90.9073112,94.7058824 C92.4228686,94.7058824 93.6601307,95.9871775 93.6601307,97.5609103 L93.6601307,97.5609103 Z M81.1111111,96.7973856 L81.1111111,99.9346405 L80.2280363,99.9346405 C80.1688093,99.9346405 80.1249813,99.9346405 80.0651621,99.9243328 C79.4616388,99.8726568 79.0196078,99.5144982 79.0196078,99.0936687 L79.0196078,97.6174671 C79.0196078,97.1973248 79.4616388,96.8586821 80.0651621,96.8075559 C80.1249813,96.8075559 80.1688093,96.7973856 80.2280363,96.7973856 L81.1111111,96.7973856 Z M79.4980782,94.7058824 C78.0676692,94.7058824 76.9281046,95.9585814 76.9281046,97.5152862 L76.9281046,99.217718 C76.9281046,100.74932 78.0676692,102.026144 79.4757632,102.026144 L79.5645741,102.026144 L82.1568627,102.026144 L82.1568627,94.7058824 L79.5645741,94.7058824 L79.4980782,94.7058824 Z M105.163399,97.5609103 L105.163399,102.026144 L103.182178,102.026144 L103.182178,97.5239467 C103.182178,96.987484 102.726619,96.5602766 102.198326,96.5602766 L101.465506,96.5602766 L101.465506,102.026144 L99.4493658,102.026144 L99.4493658,97.5239467 C99.4493658,96.987484 99.0050716,96.5602766 98.4769391,96.5602766 L97.7447628,96.5602766 L97.7447628,102.026144 L95.751634,102.026144 L95.751634,94.7058824 L102.389979,94.7058824 C103.926906,94.7058824 105.163399,95.9871775 105.163399,97.5609103 L105.163399,97.5609103 Z M151.920808,123.235114 L148.560498,121.88127 L147.707385,123.986928 L146.993464,123.699202 L148.147991,120.849673 L152.222222,122.491099 L151.920808,123.235114 Z M96.7973856,87.3856209 L93.7236706,87.3856209 C94.0154151,86.4873789 94.530158,83.9306659 92.875594,81.1659309 C91.9430977,79.5766978 89.4676142,78.4852374 91.0256542,74.8366013 L96.7973856,74.8366013 L96.7973856,87.3856209 Z M74.9426301,91.3683825 L75.8823529,91.3683825 L75.8823529,93.2239236 L74.9426301,93.2239236 L74.9426301,93.2236047 L74.0142482,93.2236047 L74.0142482,91.3683825 L73.1096507,91.3683825 C72.6160048,91.3683825 72.2044232,91.7249168 72.2044232,92.2008806 L72.2044232,94.841722 L74.9426301,94.841722 L75.8823529,94.841722 L75.8823529,102.026144 L74.9426301,102.026144 L74.9426301,102.025825 L74.0142482,102.025825 L74.0142482,96.6971037 L72.2044232,96.6971037 L72.2044232,102.025825 L70.3716014,102.025825 L70.3716014,96.6971037 L68.5620915,96.6971037 L68.5620915,94.841722 L70.3952284,94.841722 L70.3952284,92.0935695 C70.3952284,90.6427172 71.6524975,89.4771242 73.2503099,89.4771242 L74.0142482,89.4771242 L74.0142482,91.3680636 L74.9426301,91.3680636 L74.9426301,91.3683825 Z M110.392157,96.7973856 L110.392157,99.9346405 L109.525236,99.9346405 C109.465759,99.9346405 109.405482,99.9346405 109.346405,99.9243328 C108.763852,99.8628989 108.300654,99.5144982 108.300654,99.0936687 L108.300654,97.6174671 C108.300654,97.1973248 108.763852,96.8692647 109.346405,96.8075559 C109.405482,96.8075559 109.465759,96.7973856 109.525236,96.7973856 L110.392157,96.7973856 Z M108.818523,94.7058824 C107.379632,94.7058824 106.242776,95.9585814 106.242776,97.5152862 L106.20915,99.217718 C106.20915,100.74932 107.379632,102.026144 108.784748,102.026144 L108.840492,102.026144 L111.437908,102.026144 L111.437908,94.7058824 L108.840492,94.7058824 L108.818523,94.7058824 Z M118.75817,48.3606277 L127.303678,44.5098039 L128.169935,45.2197574 L125.54323,53.9215686 L124.428641,53.0080187 L125.097911,50.8529023 L125.752327,48.7546503 L126.544956,46.1855235 L123.199412,47.7073837 L124.453991,48.7354373 L124.042741,49.9883146 L121.959042,48.2805216 L119.837076,49.2447383 L118.75817,48.3606277 Z M140.718954,83.7418985 L148.675002,83.2026144 L149.084967,88.8854015 L147.911893,88.9650087 L147.589949,84.5027683 L145.398441,84.6511737 L145.686774,88.6433663 L144.513398,88.7228275 L144.225367,84.7307809 L141.980202,84.882838 L142.305913,89.397517 L141.132839,89.4771242 L140.718954,83.7418985 Z M148.726179,96.5131005 C148.479215,97.034187 148.155316,97.425113 147.75679,97.8431373 L146.804019,97.0452929 C147.433506,96.4007093 147.822646,95.8399378 147.888503,94.9331081 C147.946513,94.1348195 147.487207,93.2159954 146.514741,93.5256265 C145.952803,93.7046528 145.637366,94.7879916 145.502114,95.2513277 C145.122513,96.4824484 144.502104,97.7702829 142.932001,97.6647032 C140.528224,97.5030021 140.335577,94.7604491 141.160789,93.1021234 C141.466531,92.4878958 141.875983,92.0367021 142.381912,91.5686275 L143.282212,92.4108952 C142.464079,93.1643162 141.996618,93.7726207 141.91522,94.8932751 C141.855826,95.7103696 142.325902,96.7016038 143.338529,96.3782014 C143.888311,96.2028771 144.185437,95.1867657 144.323613,94.7309816 C144.717524,93.42597 145.28854,92.1296951 146.94358,92.2410497 C149.142862,92.3889797 149.469223,94.9442139 148.726179,96.5131005 L148.726179,96.5131005 Z M138.627451,74.6359754 L146.387634,72.745098 L146.655466,73.7946169 L142.213108,79.3862894 L147.738282,78.0398205 L148.039216,79.2199383 L140.278882,81.1111111 L140.04007,80.174906 L144.591102,74.4363836 L138.928536,75.8163887 L138.627451,74.6359754 Z M136.535948,70.526151 L144.387978,67.5163399 L144.901961,68.6896869 L137.049931,71.6993464 L136.535948,70.526151 Z M111.592105,44.3170761 L110.392157,43.6707742 L114.512181,36.1437908 L115.845475,36.8617244 L116.216821,41.7883007 L120.584301,39.4137841 L121.895425,40.1199138 L117.775401,47.6470588 L116.575453,47.0005952 L119.633764,41.4131643 L115.103107,43.7703794 L114.638843,38.7508274 L111.592105,44.3170761 Z M147.233249,129.987991 C146.995445,130.1436 146.744559,130.234803 146.482335,130.255967 C146.29904,130.270888 146.120106,130.254901 145.947712,130.212725 L146.113274,129.364185 C146.34977,129.444121 146.595713,129.431027 146.824796,129.281204 C146.950675,129.198679 147.041087,129.095904 147.101701,128.972117 C147.387181,128.389726 147.069286,127.542708 146.566061,127.044516 L146.754588,126.078431 C147.991721,126.879163 148.664141,129.051445 147.233249,129.987991 L147.233249,129.987991 Z M132.352941,62.3095861 L139.549543,58.1045752 L140.178327,59.3105412 L137.151246,61.0792804 L139.154281,64.9201827 L142.181518,63.151279 L142.810458,64.357245 L135.614011,68.5620915 L134.985071,67.3561255 L138.015105,65.5857417 L136.01207,61.7450039 L132.981881,63.5153877 L132.352941,62.3095861 Z M89.3511343,42.7606304 C89.0307876,43.7783223 88.0784056,44.7636116 86.7074983,44.4508501 C86.4051211,44.3820119 86.1452172,44.2742351 85.9361179,44.1230693 C85.6812781,43.9388056 85.4881879,43.7265894 85.2941176,43.4978243 L86.0271087,43.0106728 C86.4456341,43.5481665 87.0595366,44.0799585 87.8075567,43.528419 C87.9393873,43.4310722 88.0609262,43.301879 88.1703767,43.1363893 L88.5145737,41.9914511 C88.6424837,41.6642266 88.4448195,41.2509196 87.8660392,41.1190842 C87.4104314,41.0150621 86.9830846,41.1996039 86.8587686,41.594415 C86.710112,42.0672426 87.2034557,42.4181085 87.718036,42.4270088 L87.4685871,43.1795001 C86.3008981,43.0389034 85.3032657,41.8992497 86.2389852,40.8810016 C87.2949367,39.7321695 90.1020949,40.3745198 89.3511343,42.7606304 L89.3511343,42.7606304 Z M135.303022,53.1014515 C136.280149,54.1331083 136.539989,55.0605605 136.535948,56.4515859 L135.268043,56.4682403 C135.256384,55.4507932 135.152357,54.6993583 134.425834,53.9321858 C132.313041,51.7014113 128.635453,54.2868179 129.600466,57.0743692 C130.053672,58.3828866 131.246121,58.9272872 132.533663,58.9833622 L132.732783,58.9919186 L132.717035,60.1960784 C131.321378,60.1896611 130.292011,59.8915624 129.300196,58.8443208 C128.902259,58.4241406 128.609408,57.9596506 128.425431,57.451309 C126.947248,53.3685333 132.232939,49.8596472 135.303022,53.1014515 L135.303022,53.1014515 Z M129.697921,114.434882 L129.215686,113.712628 C130.454059,113.158376 132.138411,113.882748 132.338103,115.599539 C132.411465,116.231435 132.208799,116.944153 131.818762,117.425605 C131.732087,117.532612 131.640881,117.628115 131.545567,117.712418 L131.097747,117.041624 C131.289225,116.874985 131.443313,116.638573 131.533387,116.32376 C131.593153,116.115045 131.610573,115.914654 131.588338,115.721226 C131.472205,114.712614 130.493856,114.224048 129.697921,114.434882 L129.697921,114.434882 Z M145.318209,129.312685 L145.130055,130.261438 C143.876742,129.480254 143.259193,127.27988 144.645439,126.357793 C145.08323,126.066591 145.53255,126.020078 145.947712,126.139922 L145.777207,126.998375 C145.53255,126.902318 145.277504,126.906864 145.045372,127.0611 C144.351395,127.522599 144.69511,128.699374 145.318209,129.312685 L145.318209,129.312685 Z M133.323097,113.529412 L130.261438,110.058359 L131.850593,108.789926 C132.560705,108.222992 133.51919,108.056466 134.168386,108.792316 C134.62243,109.307126 134.632949,109.904827 134.2629,110.462949 L136.535948,110.964767 L135.708714,111.625194 L133.638824,111.161013 L133.419809,111.336052 L132.917409,110.735663 C133.164056,110.53852 133.422007,110.314346 133.52704,110.161709 C133.709004,109.896762 133.744015,109.602093 133.520446,109.348347 C133.16908,108.950179 132.715664,109.135821 132.360844,109.41899 L131.4661,110.133333 L132.367281,111.155039 L132.8959,111.754083 L133.99129,112.995783 L133.323097,113.529412 Z M47.6759218,50.2260906 C48.2174139,49.9540561 48.7358571,49.8345743 49.3324456,49.7385621 L49.5793534,50.9666035 C48.6471345,51.1052878 47.9645071,51.3230677 47.3159795,52.0183178 C46.7452816,52.6302049 46.5135293,53.6557063 47.5028969,53.9973878 C48.0745421,54.1948985 49.0408608,53.5087925 49.4541629,53.215422 C50.5695103,52.4483914 51.9162943,51.7824022 53.1164176,52.8252773 C54.9533862,54.4221273 53.3091762,56.7637575 51.5536683,57.6054643 C50.9030884,57.9174276 50.2760311,58.0335566 49.5597776,58.1045752 L49.3847004,56.8724189 C50.5404624,56.7605571 51.3176535,56.552226 52.1191565,55.6928408 C52.7035891,55.0663233 52.9740194,53.9758993 51.9431321,53.6205019 C51.3836429,53.4277155 50.4763674,54.0705399 50.0655912,54.3556808 C48.890727,55.1739179 47.5780428,55.8773976 46.3130351,54.7778296 C44.6320416,53.3167681 46.0452886,51.0455468 47.6759218,50.2260906 L47.6759218,50.2260906 Z M135.675932,107.844932 L135.490196,107.015477 L139.487467,106.20915 L139.673203,107.038446 L138.131175,107.349651 L139.00573,111.253674 L138.092515,111.437908 L137.21796,107.533886 L135.675932,107.844932 Z M132.352941,122.699565 L127.692753,123.986928 L127.212979,122.140883 C126.956474,121.154664 127.239059,120.155331 128.278596,119.868285 C129.353437,119.571403 130.117069,120.341722 130.380412,121.35417 L130.451972,121.629905 L129.652242,121.828099 C129.582272,121.565151 129.495286,121.291384 129.396214,121.129582 C129.201888,120.811881 128.906104,120.63762 128.540985,120.738603 C127.956891,120.899913 127.901233,121.421874 128.038629,121.950229 L128.280663,122.88153 L129.805859,122.460387 L130.605907,122.222029 L132.124106,121.819903 L132.352941,122.699565 Z M61.430616,40.7261908 L60.1960784,40.242466 C60.5706716,39.6639138 61.1335533,39.1500779 61.9078669,38.7613303 C64.1182314,37.6511152 66.717571,38.355355 67.9531005,40.3362448 C68.5708652,41.3657143 68.7054278,42.4729333 68.4166306,43.4640523 L67.1610987,42.9720881 C67.5601578,40.8348005 65.0044601,38.5668816 62.5239785,39.8128213 C62.0401152,40.0558073 61.6800693,40.3707003 61.430616,40.7261908 L61.430616,40.7261908 Z M52.3666191,48.0140495 C50.8989256,46.3063818 52.7175893,44.2634383 54.5152534,43.6968742 C55.1121957,43.5086842 55.6599761,43.4688069 56.2837784,43.4640523 L56.3300101,44.7221803 L56.1006423,44.7212601 C55.0588013,44.7172724 53.4234366,45.2318426 53.1759993,46.33721 C53.0460948,46.9183446 53.4901795,47.5096019 54.1274932,47.5007062 C54.6550879,47.4934976 55.3731443,47.1592954 55.8268335,46.9384366 C57.0903912,46.345799 58.5737123,45.8881305 59.6215765,47.1074549 C61.225686,48.9734047 59.1600735,51.0514709 57.2313653,51.6214092 C56.5167276,51.832452 55.8584143,51.8526974 55.1172421,51.8143538 L55.144916,50.5629743 C56.3407541,50.6273914 57.1670642,50.5385878 58.127023,49.8062263 C58.8268471,49.2721775 59.2844432,48.2295401 58.2940432,47.7195711 C57.7561927,47.4427308 56.7250957,47.9439575 56.2588719,48.1649696 C54.925641,48.7996318 53.4711333,49.2991714 52.3666191,48.0140495 L52.3666191,48.0140495 Z M128.272563,115.726954 C128.415451,115.223871 128.668499,114.842393 128.982824,114.575163 L129.443798,115.237983 C129.235594,115.405978 129.06903,115.648586 128.977393,115.971964 C128.605968,117.28139 129.85756,118.109953 130.817109,117.841972 L131.30719,118.546528 C129.760352,119.336808 127.682767,117.807292 128.272563,115.726954 L128.272563,115.726954 Z M138.455139,129.645671 C138.080586,130.652763 137.089987,131.59851 135.768655,131.223174 C135.477425,131.140728 135.229695,131.021113 135.034422,130.859995 C134.796288,130.663663 134.620366,130.442178 134.444444,130.203785 L135.190352,129.747819 C135.566985,130.305933 136.135212,130.867121 136.899671,130.347016 C137.034331,130.255348 137.161155,130.130981 137.277903,129.969863 L137.693078,128.812692 C137.806787,128.461112 137.625588,128.080745 137.101981,127.932063 C136.662817,127.807417 136.233888,127.973426 136.088672,128.363714 C135.91451,128.832256 136.377024,129.206754 136.88016,129.237915 L136.591009,129.98202 C135.457274,129.789601 134.548878,128.60071 135.525403,127.620447 C136.627153,126.51484 139.332828,127.285216 138.455139,129.645671 L138.455139,129.645671 Z M135.490196,125.911294 L132.04601,129.215686 L131.30719,128.640931 L134.016544,126.041648 L133.257606,125.739287 L133.647134,125.03268 L134.996609,125.527425 L135.490196,125.911294 Z M140.802097,132.302072 C140.65905,132.267078 140.520704,132.209847 140.39391,132.130722 L141.021569,131.405499 C141.248295,131.442389 141.498525,131.392742 141.654869,131.307067 C142.34109,130.930751 142.018194,130.02349 141.213641,130.13192 C140.922981,130.171051 140.47141,130.408253 140.509422,130.873864 C140.514794,130.937819 140.527286,130.99574 140.545821,131.047111 L139.965845,131.701311 C139.847646,131.510654 139.7684,131.277934 139.745835,131.003153 C139.703122,130.48031 139.879882,130.077619 140.187466,129.768533 C139.021603,128.85541 140.000767,126.788344 141.50054,127.170866 C141.696507,127.220858 141.872461,127.319289 142.020209,127.451336 L141.434994,128.111053 C141.044537,127.931773 140.412714,128.177593 140.455964,128.706298 C140.502034,129.269996 141.078922,129.337915 141.402892,129.153981 C141.561788,129.063824 141.693821,128.914538 141.725251,128.704918 L142.378296,127.950045 C142.586754,128.426517 142.558011,129.025899 142.158555,129.504956 C143.554099,130.39067 142.525641,132.725622 140.802097,132.302072 L140.802097,132.302072 Z M133.640736,121.895425 C133.51338,121.23103 133.430532,120.530486 133.398693,119.803922 L134.299039,119.803922 L134.299039,120.010887 C134.299039,120.664159 134.349712,121.29598 134.444444,121.894829 L133.640736,121.895425 Z M135.490196,122.388921 L135.036773,122.941176 C134.810935,122.619843 134.6119,122.269414 134.444444,121.895425 L135.246762,121.895425 C135.320177,122.066027 135.401632,122.230809 135.490196,122.388921 L135.490196,122.388921 Z M136.535948,114.575466 L140.718954,114.575466 L144.901961,114.575163 L144.901665,119.713552 C144.901665,122.073596 143.02909,123.986928 140.718954,123.986928 C138.408819,123.986928 136.535948,122.073596 136.535948,119.713552 L136.535948,114.575466 Z M139.673203,112.48366 L139.667415,113.529412 L136.535948,113.529412 C137.4536,112.942892 138.52297,112.570793 139.673203,112.48366 L139.673203,112.48366 Z M140.724606,112.48366 C141.872662,112.57338 142.939868,112.9453 143.856209,113.529412 L140.718954,113.529412 L140.724606,112.48366 Z M145.145601,121.895425 L145.947712,121.895425 C145.779926,122.269414 145.581146,122.619843 145.355333,122.941176 L144.901961,122.388921 C144.990631,122.230809 145.071961,122.066027 145.145601,121.895425 L145.145601,121.895425 Z M146.09323,120.010946 L146.09323,119.803922 L146.993464,119.803922 C146.961737,120.530693 146.878777,121.231039 146.751197,121.895425 L145.947712,121.895425 C146.042557,121.296405 146.09323,120.664404 146.09323,120.010946 L146.09323,120.010946 Z M145.947712,116.666667 L146.712296,116.666667 C146.860238,117.331323 146.956609,118.031934 146.993464,118.75817 L145.947712,118.75817 L145.947712,116.666667 Z M145.721775,114.575163 C145.886733,114.908836 146.037775,115.258029 146.17365,115.620915 L145.721775,115.620915 L145.721775,114.575163 Z M140.718954,126.078431 L140.724214,125.50313 C142.117984,125.380703 143.370918,124.82466 144.314521,123.986928 L144.901961,124.515612 C143.758302,125.396599 142.310065,125.966397 140.718954,126.078431 L140.718954,126.078431 Z M139.668299,126.078431 C138.079274,125.967805 136.632461,125.398326 135.490196,124.515763 L136.075617,123.986928 C137.020544,124.828236 138.276443,125.385644 139.673203,125.504215 L139.668299,126.078431 Z M133.679826,116.666667 L134.444444,116.666667 L134.444444,118.75817 L133.398693,118.75817 C133.435674,118.031796 133.531902,117.331052 133.679826,116.666667 L133.679826,116.666667 Z M134.670382,114.575163 L134.670382,115.620915 L134.218507,115.620915 C134.354069,115.25787 134.505111,114.908525 134.670382,114.575163 L134.670382,114.575163 Z M134.697051,113.579242 L134.697051,113.688889 C133.250492,115.111634 132.352941,117.091712 132.352941,119.281046 C132.352941,123.612654 135.8644,127.124183 140.196235,127.124183 C144.5276,127.124183 148.039216,123.612654 148.039216,119.281046 C148.039216,117.091712 147.142136,115.111634 145.695419,113.688889 L145.695419,113.579242 L145.58201,113.579242 C144.176862,112.251556 142.281841,111.437908 140.196235,111.437908 C138.11063,111.437908 136.215609,112.251556 134.810461,113.579242 L134.697051,113.579242 Z M91.5686275,27.777848 C91.5686275,28.3553956 91.1004937,28.8235294 90.522946,28.8235294 C89.9456793,28.8235294 89.4771242,28.3553956 89.4771242,27.777848 C89.4771242,27.2001599 89.9456793,26.7320261 90.522946,26.7320261 C91.1004937,26.7320261 91.5686275,27.2001599 91.5686275,27.777848 L91.5686275,27.777848 Z M89.4710406,24.6405229 L89.4710406,26.0088884 C89.248912,26.0595469 89.0398864,26.1415934 88.8497356,26.2499181 L87.7858892,25.2542654 L87.037921,25.9542881 L88.1017674,26.9499407 C87.9860234,27.1279027 87.8985134,27.3235295 87.8442292,27.5314194 L86.3398693,27.5314194 L86.3398693,28.5213785 L87.8442292,28.5213785 C87.8985134,28.7291225 87.9860234,28.9247492 88.1017674,29.1030032 L87.4431809,29.7190815 L88.1914612,30.4189582 L88.8497356,29.8027339 C89.0398864,29.9109126 89.248912,29.993105 89.4710406,30.0437636 L89.4710406,30.9150327 L90.5289594,30.9150327 L90.5289594,30.0437636 C90.751088,29.993105 90.9599576,29.9109126 91.1502644,29.8027339 L91.8085388,30.4189582 L92.5563511,29.7190815 L91.8980767,29.1027112 C92.0135087,28.9246032 92.1013306,28.7291225 92.1554588,28.5213785 L93.6601307,28.5213785 L93.6601307,27.5314194 L92.1554588,27.5314194 C92.1013306,27.3235295 92.0135087,27.1279027 91.8980767,26.9499407 L92.961923,25.9542881 L92.2136428,25.2542654 L91.1502644,26.2499181 C90.9599576,26.1415934 90.751088,26.0595469 90.5289594,26.0088884 L90.5289594,24.6405229 L89.4710406,24.6405229 Z M137.734747,115.774217 C137.938962,115.569814 138.269999,115.569814 138.474516,115.774217 C138.678429,115.978318 138.678429,116.309415 138.474516,116.513364 C138.269999,116.717767 137.938962,116.717767 137.734747,116.513364 C137.530683,116.309415 137.530683,115.978318 137.734747,115.774217 L137.734747,115.774217 Z M139.213851,117.252843 C139.82632,116.640381 139.82632,115.647392 139.213851,115.034624 C138.601076,114.42201 137.607921,114.42201 136.995299,115.034624 C136.382831,115.647392 136.382831,116.640381 136.995299,117.252843 C137.607921,117.865763 138.601076,117.865457 139.213851,117.252843 L139.213851,117.252843 Z M142.963613,115.774217 C143.167821,115.569814 143.498997,115.569814 143.703053,115.774217 C143.907261,115.978318 143.907261,116.309415 143.703053,116.513364 C143.498846,116.717767 143.167821,116.717767 142.963613,116.513364 C142.759406,116.309415 142.759406,115.978318 142.963613,115.774217 L142.963613,115.774217 Z M144.44256,117.252941 C145.055018,116.640457 145.055171,115.647431 144.44256,115.034641 C143.829796,114.422004 142.836813,114.422004 142.224049,115.034641 C141.611592,115.647431 141.611592,116.640457 142.224049,117.252941 C142.836813,117.865577 143.829796,117.865577 144.44256,117.252941 L144.44256,117.252941 Z M40.3267974,126.078431 L40.3312074,124.753674 C43.128891,124.476242 45.3159446,122.056305 45.3159446,119.111736 C45.3159446,117.743004 44.8437577,116.48809 44.0568846,115.508669 L44.9716482,114.575163 C45.9876848,115.795802 46.6013072,117.380046 46.6013072,119.111736 C46.6013072,122.787233 43.8373288,125.79922 40.3267974,126.078431 L40.3267974,126.078431 Z M40.3267974,115.620915 L40.3267974,114.575163 C40.7795632,114.852979 41.1219748,115.213469 41.372549,115.620915 L40.3267974,115.620915 Z M40.3267974,118.75817 L40.3267974,117.712418 L42.1853713,117.712418 C42.3086411,118.053195 42.3833029,118.40589 42.4183007,118.75817 L40.3267974,118.75817 Z M41.372549,121.895425 C41.1206526,122.306233 40.7776066,122.668896 40.3267974,122.941176 L40.3267974,121.895425 L41.372549,121.895425 Z M40.3267974,120.849673 L40.3267974,119.803922 L42.4183007,119.803922 C42.3830856,120.153568 42.3066241,120.507233 42.1817176,120.849673 L40.3267974,120.849673 Z M43.5955241,118.75817 C43.5756623,118.405336 43.5324791,118.054304 43.4640523,117.712418 L44.2545488,117.712418 C44.3819201,118.040584 44.4690554,118.391616 44.5098039,118.75817 L43.5955241,118.75817 Z M43.4640523,120.849673 C43.5363434,120.502521 43.5828071,120.150242 43.6045831,119.803922 L44.5098039,119.803922 C44.4695437,120.170198 44.3834528,120.52123 44.2576081,120.849673 L43.4640523,120.849673 Z M42.4183007,115.620915 C42.8196243,115.893184 43.1740731,116.248834 43.4640523,116.666667 L42.90048,116.666667 C42.771675,116.297147 42.6121126,115.945394 42.4183007,115.620915 L42.4183007,115.620915 Z M42.8895524,121.895425 L43.4640523,121.895425 C43.1744799,122.31456 42.8197472,122.669844 42.4183007,122.941176 C42.6050231,122.617587 42.7617531,122.264777 42.8895524,121.895425 L42.8895524,121.895425 Z M40.3308617,112.48366 C41.9203398,112.579162 43.3672289,113.066208 44.5098039,113.820294 L43.5253977,114.575163 C42.6383653,114.011559 41.5352478,113.642877 40.3267974,113.553646 L40.3308617,112.48366 Z M39.2759666,126.078431 C37.6872131,125.982906 36.2405061,125.495607 35.0980392,124.741333 L36.0828836,123.986928 C36.9697006,124.550281 38.0727195,124.919055 39.2810458,125.008047 L39.2759666,126.078431 Z M36.7183636,116.666667 L36.1437908,116.666667 C36.4333999,116.247531 36.7879123,115.892093 37.1895425,115.620915 C37.0026637,115.944504 36.8460465,116.297314 36.7183636,116.666667 L36.7183636,116.666667 Z M36.7073736,121.895425 C36.8362117,122.2651 36.9958151,122.616697 37.1895425,122.941176 C36.7883844,122.668907 36.4335758,122.313414 36.1437908,121.895425 L36.7073736,121.895425 Z M35.0980392,118.75817 C35.1379292,118.391755 35.224041,118.040584 35.3500428,117.712418 L36.1437908,117.712418 C36.0716089,118.059432 36.0252605,118.411711 36.0033527,118.75817 L35.0980392,118.75817 Z M36.0120628,119.803922 C36.0321808,120.156617 36.0751077,120.507649 36.1437908,120.849673 L35.3530381,120.849673 C35.2255386,120.521507 35.1381471,120.170337 35.0980392,119.803922 L36.0120628,119.803922 Z M39.2807463,121.895425 L39.2810458,122.941176 C38.8299578,122.668645 38.487562,122.306108 38.2352941,121.895425 L39.2807463,121.895425 Z M39.280267,119.803922 L39.2810458,120.849673 L37.4264744,120.849673 C37.3016812,120.507233 37.2251699,120.153568 37.1895425,119.803922 L39.280267,119.803922 Z M38.2352941,115.620915 C38.4877998,115.210372 38.8305289,114.847809 39.2805954,114.575163 L39.2810458,115.620915 L38.2352941,115.620915 Z M39.280851,117.712418 L39.2810458,118.75817 L37.1895425,118.75817 C37.2251898,118.408524 37.3021334,118.054997 37.4269964,117.712418 L39.280851,117.712418 Z M33.0065359,119.449802 C33.0065359,115.774835 35.7706212,112.762532 39.2810458,112.48366 L39.2771085,113.808666 C36.4793207,114.085113 34.2919592,116.505399 34.2919592,119.449802 C34.2919592,120.818619 34.764583,122.074109 35.5515544,123.05396 L34.6362297,123.986928 C33.6201122,122.766035 33.0065359,121.181718 33.0065359,119.449802 L33.0065359,119.449802 Z M47.6470588,119.28081 C47.6470588,114.949176 44.1355294,111.437908 39.8039216,111.437908 C35.4723137,111.437908 31.9607843,114.949176 31.9607843,119.28081 C31.9607843,123.612602 35.472,127.124183 39.8039216,127.124183 C44.1355294,127.124183 47.6470588,123.612602 47.6470588,119.28081 L47.6470588,119.28081 Z M137.734877,119.957202 C137.939266,119.752828 138.270187,119.752828 138.474273,119.957202 C138.67851,120.161122 138.67851,120.492473 138.474273,120.696393 C138.270187,120.900767 137.939266,120.900767 137.734877,120.696393 C137.530791,120.492473 137.530489,120.161122 137.734877,119.957202 L137.734877,119.957202 Z M139.826522,117.865397 C140.030644,117.661425 140.361777,117.661425 140.565749,117.865397 C140.770023,118.069974 140.770023,118.400804 140.565749,118.605078 C140.361777,118.809201 140.030644,118.809201 139.826522,118.605078 C139.622096,118.400804 139.622096,118.069974 139.826522,117.865397 L139.826522,117.865397 Z M141.917685,119.957202 C142.121959,119.752828 142.45294,119.752828 142.657365,119.957202 C142.861488,120.161122 142.861488,120.492473 142.657365,120.696393 C142.45294,120.900767 142.121959,120.900767 141.917685,120.696393 C141.713713,120.492473 141.713713,120.161122 141.917685,119.957202 L141.917685,119.957202 Z M139.119478,121.439892 C139.635268,120.909841 139.700887,120.091902 139.316335,119.488474 C139.840845,119.874656 140.551423,119.874656 141.075784,119.488474 C140.691381,120.091902 140.756704,120.909841 141.27279,121.439892 C141.863509,122.047269 142.821785,122.047269 143.412948,121.439892 C144.003963,120.832514 144.003963,119.847462 143.412948,119.239932 C142.88164,118.694082 142.054012,118.638783 141.462849,119.074187 C141.8474,118.470607 141.782077,117.65282 141.265991,117.122314 C140.675124,116.514784 139.716996,116.514784 139.125981,117.122314 C138.610191,117.652972 138.544424,118.470607 138.929271,119.074187 C138.337961,118.638935 137.51048,118.694082 136.97932,119.239932 C136.388157,119.847462 136.388157,120.832514 136.97932,121.439892 C137.570335,122.047269 138.528611,122.047269 139.119478,121.439892 L139.119478,121.439892 Z M86.1536014,33.8045194 C85.7985235,33.6543568 85.4133878,33.5716042 85.0073026,33.5716042 C84.2382455,33.5716042 83.8391435,33.8856398 83.3096387,34.0522876 C83.2678916,33.8800903 83.232065,33.7052815 83.2026144,33.5280244 C83.8597893,33.3793308 84.3340361,33.0065359 85.0073026,33.0065359 C85.4974892,33.0065359 85.9031189,33.2391247 86.3398693,33.405446 C86.3002475,33.5428774 86.2364883,33.6760651 86.1536014,33.8045194 L86.1536014,33.8045194 Z M87.5018372,33.0637606 L87.50119,33.0065359 C88.7757157,34.2358832 88.7831596,34.7748885 87.2582921,36.0230301 C86.8268694,36.3757749 86.2811989,36.777329 85.6539692,37.1895425 C85.5046056,37.090802 85.3602586,36.9870123 85.2204427,36.8783136 L87.4408296,35.641673 L86.847421,34.8416505 L84.4517788,36.1761901 C84.3818708,36.1010127 84.3140666,36.0247132 84.248366,35.9471514 C85.6928069,35.3756066 87.5018372,34.5061573 87.5018372,33.0637606 L87.5018372,33.0637606 Z M90.5228758,36.1437908 C91.0912375,36.1437908 91.4129421,36.3306665 91.8694949,36.4885631 C92.0505914,36.6812345 92.257946,36.8797018 92.4934222,37.0852179 L92.6143791,37.1895425 C91.9199783,37.0499732 91.3040132,36.6854639 90.5228758,36.6854639 C89.7417385,36.6854639 89.1259427,37.0499732 88.4313725,37.1895425 L88.5526682,37.0852179 C88.787975,36.8797018 88.9954991,36.6812345 89.1764261,36.4888764 C89.6336566,36.3301965 89.9546835,36.1437908 90.5228758,36.1437908 L90.5228758,36.1437908 Z M90.5228758,35.0980392 C90.3663546,35.0625415 90.1946555,35.0427887 89.9998103,35.0427887 C89.8051548,35.0427887 89.6334557,35.0625415 89.4771242,35.0980392 C89.539543,34.7625284 89.5714164,34.4318843 89.573693,34.103244 C89.7121906,34.0697502 89.8544827,34.0522876 89.9998103,34.0522876 C90.1449482,34.0522876 90.2874299,34.0697502 90.4257378,34.103244 C90.4285836,34.4318843 90.4598879,34.7625284 90.5228758,35.0980392 L90.5228758,35.0980392 Z M90.5224851,31.9607843 C90.9626268,31.9607843 91.2710971,32.0961975 91.5686275,32.2653269 C91.4535616,32.5150464 91.3541243,32.7614765 91.2707064,33.0065359 C91.0278764,32.9423929 90.7780134,32.9097731 90.5224851,32.9097731 C90.2671521,32.9097731 90.0172892,32.9423929 89.7744591,33.0065359 C89.6912366,32.7620247 89.5919947,32.5161428 89.4771242,32.2664234 C89.7756313,32.0964716 90.0844924,31.9607843 90.5224851,31.9607843 L90.5224851,31.9607843 Z M92.4988599,33.0065359 L92.4978889,33.0637606 C92.4978889,34.5061573 94.3069815,35.3756066 95.751634,35.9471514 C95.686093,36.0247132 95.6181246,36.1010127 95.5485379,36.1761901 L93.1523276,34.8416505 L92.5588986,35.641673 L94.779362,36.8783136 C94.6400267,36.9870123 94.4953511,37.090802 94.3458206,37.1895425 C93.7187311,36.777329 93.17288,36.3757749 92.7416042,36.0230301 C91.2168461,34.7748885 91.2242903,34.2358832 92.4988599,33.0065359 L92.4988599,33.0065359 Z M94.9927847,33.0065359 C95.6664741,33.0065359 96.1402425,33.3793308 96.7973856,33.5280244 C96.7677846,33.7052815 96.7321115,33.8800903 96.6903665,34.0522876 C96.1608873,33.8856398 95.7616528,33.5716042 94.9927847,33.5716042 C94.5865674,33.5716042 94.2017539,33.6543568 93.8463896,33.8045194 C93.7633549,33.6760651 93.6997506,33.5428774 93.6601307,33.405446 C94.0967081,33.2391247 94.5027737,33.0065359 94.9927847,33.0065359 L94.9927847,33.0065359 Z M96.5595112,35.0980392 C95.9991627,34.8324448 95.3122133,34.4851938 94.7058824,34.0687031 C94.7978472,34.0579699 94.8953856,34.0522876 95.0014836,34.0522876 C95.650413,34.0522876 96.2071784,34.348398 96.7973856,34.5657981 C96.723336,34.7463687 96.6439118,34.9237824 96.5595112,35.0980392 L96.5595112,35.0980392 Z M92.3055506,38.2352941 C91.6701572,38.0568812 91.3649437,37.749022 90.5188968,37.749022 C89.7201299,37.749022 89.3642035,38.0407206 88.7305265,38.2346477 C88.2569462,38.1001916 87.8039632,37.9132136 87.3856209,37.6743601 C87.6196804,37.7333463 87.8618539,37.7651826 88.122128,37.7651826 C89.0121781,37.7651826 89.6689489,37.1895425 90.5188968,37.1895425 C91.3686887,37.1895425 92.0254595,37.7651826 92.9161337,37.7651826 C93.1707904,37.7651826 93.4178012,37.7348007 93.6601307,37.6806627 C93.2336744,37.9135368 92.7797551,38.100838 92.3055506,38.2352941 L92.3055506,38.2352941 Z M83.4406652,35.0980392 C83.3556755,34.9237824 83.2762589,34.7463687 83.2026144,34.5657981 C83.7927654,34.348398 84.3494779,34.0522876 84.9983455,34.0522876 C85.1042343,34.0522876 85.2017635,34.0579699 85.2941176,34.0687031 C84.6874464,34.4851938 84.0007613,34.8324448 83.4406652,35.0980392 L83.4406652,35.0980392 Z M85.5758431,30.6988598 C85.9250196,30.9646486 86.2230588,31.2273842 86.4098824,31.5624827 C86.0682353,31.4289013 85.7226667,31.2983732 85.1923137,31.2983732 C84.3744314,31.2983732 83.8611765,31.6652259 83.2222745,31.7963647 L83.220549,31.6475168 C83.220549,31.5235533 83.2241569,31.4006584 83.2310588,31.2783741 C83.5827451,31.2293688 83.9264314,31.1302896 84.2221176,30.988617 L83.7523137,30.059959 C83.64,30.1136969 83.5160784,30.1584276 83.3866667,30.1930824 C83.5432157,29.5201374 83.8075294,28.8870378 84.1631373,28.3105768 L83.2512941,27.7777778 C82.5499608,28.9140594 82.1568627,30.2378131 82.1568627,31.6475168 C82.1568627,35.8633462 85.6683922,39.2810458 90,39.2810458 C94.3317647,39.2810458 97.8431373,35.8633462 97.8431373,31.6475168 C97.8431373,30.2378131 97.4498824,28.9157388 96.7642353,27.7815944 L95.8475294,28.3063022 C96.1971765,28.8847479 96.4589804,29.5193741 96.6142745,30.1933877 C96.4843922,30.1587329 96.3604706,30.1136969 96.2476863,30.059959 L95.7781961,30.988617 C96.0738824,31.1302896 96.4174118,31.2293688 96.769098,31.2783741 C96.776,31.4006584 96.7797647,31.5238586 96.7797647,31.6475168 L96.7780392,31.7963647 C96.1389804,31.6652259 95.6257255,31.2983732 94.8078431,31.2983732 C94.2776471,31.2983732 93.9319216,31.4289013 93.5902745,31.5624827 C93.7769412,31.2273842 94.0749804,30.9646486 94.4244706,30.6988598 L94.9157647,30.1880445 L94.2431373,29.3972425 C93.2658824,29.9976719 92.2901961,30.8147321 91.5110588,31.6681265 C91.0243137,31.4951577 90.7193725,31.2983732 90,31.2983732 C89.2908235,31.2983732 88.9783529,31.4951577 88.4883137,31.6682792 C87.9019608,31.0296837 87.2679216,30.4938314 86.7632941,30.1057583 C86.1796078,29.6569248 85.7571765,29.3972425 85.7571765,29.3972425 L85.0843922,30.1880445 L85.5758431,30.6988598 Z M160.280205,107.254902 C160.101327,106.798136 159.911562,106.339329 159.710607,105.880052 C155.640562,96.5648476 155.105288,82.8289008 159.363587,73.3669352 C159.614742,72.809555 159.849265,72.2534304 160.067305,71.6993464 C171.303516,82.1263286 172.439233,96.5898049 160.280205,107.254902 L160.280205,107.254902 Z M141.764706,139.673203 C141.829776,139.199745 141.886119,138.719674 141.933735,138.233142 C142.088371,136.650952 142.283275,135.124137 142.636031,133.578094 C149.712885,132.488128 155.133289,126.345181 155.133289,118.930761 C155.133289,116.957715 154.749606,115.074653 154.052668,113.352795 C155.172484,112.25406 156.330729,111.274997 157.493873,110.458061 C158.010452,110.095046 158.510343,109.72434 158.993391,109.346405 C163.786214,123.947285 157.70026,136.834151 141.764706,139.673203 L141.764706,139.673203 Z M140.195763,133.398693 C132.399058,133.398693 126.078431,127.078276 126.078431,119.280967 C126.078431,111.483816 132.399058,105.163399 140.196078,105.163399 C147.992942,105.163399 154.313725,111.483816 154.313725,119.280967 C154.313725,127.078276 147.992942,133.398693 140.195763,133.398693 L140.195763,133.398693 Z M141.238702,137.530685 C141.137021,138.58343 140.998746,139.610552 140.825125,140.609838 C140.137022,140.709481 139.432258,140.791569 138.710054,140.855309 C129.012155,141.715252 116.610273,148.891348 110.945379,156.929126 C110.325168,157.808206 109.685648,158.644266 109.028845,159.437146 C108.370328,159.169847 107.705894,158.877401 107.035543,158.559015 C98.2135376,154.37255 83.9398114,154.291253 75.0721815,158.376651 C74.1329115,158.80939 73.1970673,159.197843 72.267296,159.542484 C71.8284925,158.97657 71.3970076,158.385508 70.972997,157.769298 C65.3937461,149.663034 53.0726799,142.343799 43.3819431,141.378202 C42.3221501,141.272548 41.2889844,141.128144 40.2844701,140.946571 C40.1862142,140.249064 40.1057098,139.534317 40.0431126,138.802488 C39.9191638,137.348479 39.659432,135.833734 39.2810458,134.289571 C39.6447948,134.316301 40.0124368,134.329745 40.383193,134.329745 C48.0832755,134.329745 54.4280189,128.437789 55.2860059,120.849673 C63.8411168,130.821966 76.4382649,137.124834 90.4846479,137.124834 C104.536481,137.124834 117.127556,130.843634 125.685314,120.865806 C126.550308,128.445539 132.89147,134.329745 140.586103,134.329745 C140.983019,134.329745 141.375731,134.313929 141.764706,134.283403 C141.522103,135.388975 141.340384,136.475409 141.238702,137.530685 L141.238702,137.530685 Z M110.392157,159.855041 C110.701088,159.452319 111.005215,159.038401 111.304231,158.612972 C117.181815,150.258929 128.65501,142.874479 138.926258,141.967644 C139.533894,141.914032 140.131614,141.846228 140.718954,141.764706 C137.575577,157.193353 125.773155,165.511917 110.392157,159.855041 L110.392157,159.855041 Z M72.745098,160.25959 C73.1886638,160.085428 73.6333279,159.900843 74.079718,159.705835 C83.3895786,155.641337 97.1201912,155.107067 106.576756,159.36038 C107.153376,159.619735 107.728113,159.861267 108.300654,160.086032 C97.870503,171.308716 83.4055827,172.436015 72.745098,160.25959 L72.745098,160.25959 Z M39.2810458,141.764706 C39.7929847,141.833917 40.3128682,141.893788 40.8399016,141.943399 C51.1417601,142.917867 63.4648401,149.148706 69.521037,157.496915 C69.8909296,158.006964 70.2687666,158.500935 70.6535948,158.978063 C55.552348,163.798649 42.2155588,157.718941 39.2810458,141.764706 L39.2810458,141.764706 Z M20.1389193,110.392157 C20.5253187,110.686652 20.9218449,110.976803 21.3288144,111.262609 C22.6680794,112.202728 23.961141,113.144864 25.168125,114.239989 C24.5429554,115.873522 24.201177,117.642976 24.201177,119.490631 C24.2010188,126.993586 29.8378306,133.205293 37.1854332,134.275747 C37.6093333,135.865835 37.8988956,137.425356 38.0305435,138.917537 C38.0846585,139.52825 38.1530141,140.128878 38.2352941,140.718954 C22.8079553,137.552122 14.4951453,125.756334 20.1389193,110.392157 L20.1389193,110.392157 Z M19.7402783,72.745098 C19.9189636,73.2032301 20.1086196,73.6633969 20.3095466,74.1241898 C24.3543874,83.4120464 24.8871372,97.1093655 20.6544439,106.54482 C20.3909995,107.131924 20.1458895,107.717463 19.9188134,108.300654 C8.69124301,97.8795971 7.56262497,83.3985858 19.7402783,72.745098 L19.7402783,72.745098 Z M38.2352941,40.3267974 C38.1675196,40.8143704 38.1089661,41.3088692 38.0597873,41.809986 C37.0818979,51.7910742 30.8263563,63.729842 22.44583,69.5971865 C21.9525053,69.9425507 21.474549,70.2949946 21.011961,70.6535948 C16.2102673,56.06765 22.2903021,43.1908273 38.2352941,40.3267974 L38.2352941,40.3267974 Z M39.2651047,42.2155168 C39.3677707,41.1527863 39.5084324,40.1170877 39.6849186,39.1098354 C40.3902433,39.0062656 41.1138679,38.921398 41.8551722,38.8561757 C51.5160109,38.0068714 63.869273,30.8740669 69.5143516,22.8839429 C70.1145289,22.0343243 70.7330062,21.2254106 71.3682327,20.4575163 C72.016021,20.720763 72.6701677,21.0078982 73.3298975,21.3200223 C74.6310571,21.9360979 76.0514768,22.4633769 77.5570378,22.9006021 C75.9880472,25.296382 75.0739787,28.1713493 75.0739787,31.2624146 C75.0739787,36.243512 77.4477032,40.663069 81.1111111,43.4225222 C59.6995139,47.6319534 43.5333424,66.7334419 43.5333424,89.6630863 C43.5333424,95.0194869 44.4477211,100.166076 46.0792109,104.961251 C44.2523145,104.154694 42.2357498,103.707097 40.1157436,103.707097 C34.1074569,103.707097 28.9274769,107.300924 26.5551481,112.48366 C25.7237397,111.719538 24.8676728,111.022524 24.0165686,110.405191 C23.1741492,109.794301 22.3720518,109.164081 21.6110518,108.517202 C21.8767116,107.841247 22.1679605,107.159321 22.4852635,106.47095 C26.5903523,97.5669283 26.6703759,83.161445 22.6648515,74.2116889 C22.2326307,73.2463989 21.8456947,72.2848808 21.503268,71.3296492 C22.0434276,70.900125 22.6070049,70.4770445 23.1936899,70.0615078 C31.1411542,64.4310163 38.3184684,51.9957178 39.2651047,42.2155168 L39.2651047,42.2155168 Z M69.6078431,20.1592634 C69.3165892,20.541906 69.0293611,20.9348219 68.7467782,21.3380112 C62.8738538,29.7111041 51.4118266,37.1126545 41.1473316,38.0214505 C40.5145008,38.0772426 39.892199,38.14884 39.2810458,38.2352941 C42.438542,22.7911365 54.2371912,14.4747841 69.6078431,20.1592634 L69.6078431,20.1592634 Z M107.254902,19.9860114 C106.7814,20.175594 106.305706,20.3775778 105.828916,20.5918077 C104.403869,21.2313971 103.001526,21.8333181 101.510715,22.2965011 C98.7447051,18.9252478 94.5240546,16.7708575 89.7951409,16.7708575 C84.9491044,16.7708575 80.6368538,19.0332928 77.8767942,22.5490196 C76.2766893,22.1142042 74.769124,21.5803346 73.3984107,20.9464806 C72.830177,20.6835762 72.263509,20.4383434 71.6993464,20.2106272 C82.1170174,8.62810558 96.5953128,7.44875596 107.254902,19.9860114 L107.254902,19.9860114 Z M123.940198,89.8063221 C126.816487,87.1389843 127.517396,82.2815362 125.530446,78.8322845 C124.97,77.8598242 124.194719,77.0080798 123.284287,76.3166638 C123.141793,75.1809002 122.79337,74.0824004 122.233237,73.1099401 C121.673103,72.1373231 120.89751,71.2857353 119.987078,70.5941627 L119.97661,70.5114934 C119.827866,69.4051651 119.48288,68.3361007 118.936027,67.3872825 C118.37605,66.4148221 117.600769,65.5632343 116.690181,64.8716617 C116.547687,63.7358981 116.19942,62.6375549 115.638974,61.664938 C113.89717,58.6417151 110.354033,57.0002283 107.111353,57.2346146 C106.189203,57.3013137 105.143777,57.1826331 104.233345,55.6018957 L97.8431373,44.5098039 C119.257264,48.3407748 135.490196,67.0974702 135.490196,89.6591457 C135.490196,95.1023247 134.526642,100.319102 132.788275,105.163399 L123.940198,89.8063221 Z M115.229198,69.1957444 C113.646564,69.0042283 112.029365,69.2841487 110.611324,70.1587597 C109.009388,71.1468736 108.013452,72.4249792 107.572044,73.7908497 C106.823746,73.4012633 106.209965,72.7594129 105.769006,71.9436314 C104.589175,69.7600611 105.038064,67.0575752 107.961231,65.2549588 C110.327327,63.7952487 113.370796,64.2673244 115.60013,65.8790643 C115.674496,66.9915518 115.548956,68.1318553 115.229198,69.1957444 L115.229198,69.1957444 Z M109.346405,73.7084857 C109.705736,72.5409208 110.532807,71.4263204 111.918455,70.5257568 C113.051694,69.7896178 114.340995,69.5222813 115.620915,69.6312272 C115.064869,70.9337173 114.214418,72.0561954 113.08103,72.7928373 C111.695679,73.6930656 110.424695,73.9416299 109.346405,73.7084857 L109.346405,73.7084857 Z M112.48366,79.9828366 C112.842991,78.8152388 113.67021,77.7007746 115.05571,76.8005209 C116.188949,76.0640258 117.47825,75.7963465 118.75817,75.905966 C118.202123,77.2078224 117.351673,78.3308349 116.218583,79.0669948 C114.832934,79.9675838 113.56195,80.2163227 112.48366,79.9828366 L112.48366,79.9828366 Z M121.329329,85.2590104 C121.183212,85.0074007 121.022565,84.7794911 120.849673,84.5751191 C122.688463,82.920177 123.668019,80.4472601 123.734303,77.9738562 C124.251182,78.4665241 124.697043,79.0215263 125.048867,79.626688 C126.797864,82.6390235 126.282128,87.002097 123.778546,89.4771242 L121.329329,85.2590104 Z M115.620915,85.2752891 C115.83906,85.002989 116.113959,84.7825873 116.407821,84.6164856 C117.161029,84.1911584 118.023379,84.1221829 118.75817,84.4735981 L118.712604,84.499614 C117.581768,85.1381384 116.534288,85.3650774 115.620915,85.2752891 L115.620915,85.2752891 Z M119.503289,85.5622101 C119.652878,85.4769452 119.798469,85.387745 119.940229,85.2941176 C120.085654,85.4598923 120.220418,85.6464912 120.343187,85.8555541 L122.941176,90.284573 C122.783924,90.3931217 122.621675,90.4964234 122.453762,90.5920185 C119.199446,92.4412826 116.511003,91.4815608 115.19735,89.2417178 C114.593662,88.2128002 114.47539,87.328505 114.646801,86.6039175 C116.09905,86.8498739 117.765521,86.5494791 119.503289,85.5622101 L119.503289,85.5622101 Z M119.803922,75.0542593 C120.021705,74.3075415 120.14127,73.5261089 120.160589,72.745098 C120.581024,73.167437 120.949716,73.6497889 121.247884,74.1866724 C121.538892,74.7110474 121.754109,75.28377 121.895425,75.8823529 C121.238157,75.5115941 120.531037,75.2305033 119.803922,75.0542593 L119.803922,75.0542593 Z M122.920358,77.2052691 C123.084652,79.67482 122.274706,82.2797988 120.554561,83.9001098 C119.35468,83.0141982 117.827558,83.047814 116.571864,83.8269272 C116.016588,84.1714483 115.513233,84.6694117 115.164297,85.2941176 C114.292104,84.9241836 113.58256,84.2250083 113.08938,83.3062853 C112.648421,82.4853534 112.434749,81.591239 112.493105,80.6990547 C113.82107,80.9748968 115.355374,80.6906909 116.957011,79.6968552 C118.374904,78.8167339 119.410342,77.4519991 120.046568,75.8823529 C121.068839,76.1200758 122.055797,76.5765422 122.920358,77.2052691 L122.920358,77.2052691 Z M116.666667,68.7731568 C116.882542,68.0281626 117.001576,67.2493754 117.021617,66.4705882 C117.447046,66.8980693 117.815043,67.3791967 118.104222,67.904255 C118.401068,68.4424081 118.617347,69.0167478 118.75817,69.6078431 C118.101263,69.2340084 117.394187,68.9505699 116.666667,68.7731568 L116.666667,68.7731568 Z M118.73734,70.9494456 C118.811863,72.0839453 118.686012,73.2469827 118.366373,74.3323974 C116.782842,74.1363835 115.165341,74.4212722 113.747166,75.3134452 C112.145079,76.321237 111.149798,77.625985 110.708199,79.0196078 C109.95983,78.6221987 109.34644,77.9674601 108.90529,77.135298 C108.465337,76.3044405 108.252842,75.4002001 108.309707,74.4895998 C109.638395,74.7757932 111.172993,74.489926 112.776277,73.4811557 C114.195499,72.5881673 115.227443,71.2015567 115.86313,69.6078431 C116.885797,69.8488652 117.872548,70.3116667 118.73734,70.9494456 L118.73734,70.9494456 Z M75.8823529,31.4377509 C75.8823529,23.6406431 82.2028569,17.3202614 89.9997635,17.3202614 C97.7969854,17.3202614 104.117647,23.6406431 104.117647,31.4377509 C104.117647,39.2348587 97.7969854,45.5555556 89.9997635,45.5555556 C82.2028569,45.5555556 75.8823529,39.2348587 75.8823529,31.4377509 L75.8823529,31.4377509 Z M53.9215686,119.280573 C53.9215686,127.077909 47.6009423,133.398693 39.8039216,133.398693 C32.0067432,133.398693 25.6862745,127.077909 25.6862745,119.280888 C25.6862745,111.484183 32.0069008,105.163399 39.8039216,105.163399 C47.6010999,105.163399 53.9215686,111.484183 53.9215686,119.280573 L53.9215686,119.280573 Z M73.3094844,59.8714592 C69.5662306,58.7083121 65.0177038,60.5296257 63.0304576,63.9802223 C62.4701726,64.9529052 62.1219084,66.05199 61.9795716,67.1886663 C61.0689913,67.8801953 60.2940294,68.7321152 59.7335881,69.7049548 C59.1734593,70.6776377 58.8250389,71.7768791 58.6827022,72.9132422 L58.6162992,72.9641475 C57.7344675,73.6464352 56.9830981,74.4806557 56.4367186,75.4296873 C55.8762774,76.4025269 55.527857,77.5016116 55.3856765,78.6379747 C54.4749399,79.3296603 53.6996655,80.1815802 53.1395367,81.1545764 C51.3979034,84.1788215 51.7506986,88.0759752 53.5746716,90.7737998 C54.0935524,91.5412952 54.5135318,92.5080262 53.6031077,94.0893799 L47.2245145,105.163399 C45.487256,100.323009 44.5098039,95.1076427 44.5098039,89.6723656 C44.5098039,67.1108204 60.7538505,48.3516666 82.1568627,44.5098039 L73.3094844,59.8714592 Z M71.0904933,66.21005 C70.9468378,66.1303047 70.8010981,66.0557938 70.6535948,65.9860552 C70.7239795,65.7922342 70.8168104,65.596258 70.9349734,65.4004358 L73.4354759,61.2418301 C73.6028601,61.316495 73.7684807,61.3977797 73.9300931,61.4873776 C77.0624549,63.2239146 77.5434441,65.8259489 76.2790839,67.9287289 C75.698049,68.8952164 75.0062262,69.4047853 74.3105555,69.6078431 C73.8196259,68.3300722 72.763534,67.1374346 71.0904933,66.21005 L71.0904933,66.21005 Z M70.6957879,67.5521444 C71.7337144,68.4400222 72.3989139,69.5156419 72.745098,70.6535948 C72.4235787,70.5864381 72.1182105,70.4161348 71.8485249,70.1851678 C71.1572833,69.5937439 70.7053033,68.6266509 70.6535948,67.5163399 L70.6957879,67.5521444 Z M70.4393041,65.8819891 C70.3017434,66.1437215 70.1906189,66.4061289 70.1039326,66.6671862 C67.881751,65.8813141 65.3929013,66.2896909 63.3333333,67.5163399 C63.4939489,66.7976305 63.739099,66.1096338 64.0700131,65.4805311 C65.7167454,62.3491927 69.537244,60.5427162 72.745098,61.4973391 L70.4393041,65.8819891 Z M68.3429782,72.2500134 C66.9250711,71.3755791 65.3080046,71.095824 63.7252036,71.2873363 C63.4052917,70.2234679 63.279751,69.0833462 63.3541178,67.9708802 C65.2616188,66.5914481 67.7652514,66.046805 69.9310162,66.8326769 C69.8169971,68.3829994 70.607799,69.779057 71.8632065,70.5538985 C72.4187878,70.8964786 73.07148,71.1146875 73.749011,71.1273165 C73.8872704,72.117969 73.6786842,73.1217301 73.1851998,74.0348506 C72.7440865,74.8510959 72.1307474,75.4926142 71.38274,75.8823529 C70.9408785,74.5161892 69.9447823,73.2381082 68.3429782,72.2500134 L68.3429782,72.2500134 Z M63.3333333,72.7684803 C64.6136115,72.6595405 65.9023782,72.926862 67.0358198,73.6631275 C68.4213855,74.5634732 69.2481977,75.6781788 69.6078431,76.8456784 C68.5298004,77.0789772 67.2587553,76.8302592 65.8730407,75.9299136 C64.739748,75.1934805 63.8895552,74.0708976 63.3333333,72.7684803 L63.3333333,72.7684803 Z M60.1960784,72.745098 C60.3369109,72.1536599 60.5528002,71.5796791 60.8495303,71.0415985 C61.1392658,70.5166109 61.5070175,70.0352667 61.9326086,69.6078431 C61.9525161,70.3869478 62.0715579,71.1656301 62.2875817,71.910524 C61.5598801,72.0877725 60.852893,72.3710321 60.1960784,72.745098 L60.1960784,72.745098 Z M65.2090208,78.4462971 C63.7901065,77.5529826 62.1723377,77.2726599 60.5882349,77.4694892 C60.2680328,76.3837484 60.1424956,75.2212002 60.2168603,74.0863744 C61.0814061,73.4485954 62.0683468,72.985957 63.0908988,72.745098 C63.7268142,74.3371808 64.7616356,75.7213454 66.1799514,76.6138446 C67.7818598,77.6216364 69.315987,77.908482 70.6442273,77.6283224 C70.7022826,78.5333782 70.4889143,79.4397385 70.047963,80.2720637 C69.6077599,81.1029212 68.9956352,81.7568444 68.2452551,82.1568627 C67.8084934,80.7598154 66.8121262,79.4547413 65.2090208,78.4462971 L65.2090208,78.4462971 Z M60.1960784,77.9976095 C61.4761868,77.8877849 62.7661157,78.1543104 63.8993605,78.8907714 C65.2855618,79.7911322 66.1122829,80.9061197 66.4705882,82.0735083 C65.3925475,82.3083923 64.1215158,82.060115 62.7351658,81.1595868 C61.601921,80.4232933 60.751541,79.2997676 60.1960784,77.9976095 L60.1960784,77.9976095 Z M57.0588235,77.9738562 C57.2001212,77.3755275 57.4154449,76.8022171 57.7061453,76.2783808 C58.0042754,75.7413327 58.3731894,75.2592403 58.7935703,74.8366013 C58.8126172,75.6176472 58.9321664,76.3986931 59.1503268,77.1460066 C58.4229003,77.3222584 57.7158714,77.6032213 57.0588235,77.9738562 L57.0588235,77.9738562 Z M58.9079267,77.9738562 C59.5435578,79.4957222 60.5791517,80.819206 61.9972016,81.6724678 C63.598998,82.6361499 65.1331613,82.9120447 66.4611336,82.6442599 C66.5194895,83.5096867 66.3061162,84.3765171 65.8651546,85.1725413 C64.6851671,87.3026546 62.2702776,88.2158054 59.3470927,86.456567 C56.9809828,85.0328003 55.8421438,82.0550398 56.0338207,79.2564783 C56.8985363,78.6468273 57.8853507,78.2040544 58.9079267,77.9738562 L58.9079267,77.9738562 Z M81.4345532,126.870889 C82.557118,126.870889 83.6828137,126.616317 84.7374392,126.159053 C85.7926909,126.616317 86.9183865,126.870889 88.0409514,126.870889 C89.1636728,126.870889 90.2892119,126.616317 91.3444635,126.159053 L91.4213258,126.191922 C92.4538788,126.628884 93.5523362,126.870889 94.6475061,126.870889 C95.7702275,126.870889 96.8960797,126.616317 97.9507052,126.159053 C99.0058003,126.616317 100.131496,126.870567 101.254217,126.870567 C104.744328,126.870567 107.940765,124.551056 109.362326,121.534371 C109.766831,120.676397 110.393,119.803922 112.217501,119.803922 L125.03268,119.804566 C116.617435,130.055141 104.049906,136.535948 89.9925642,136.535948 C75.9485283,136.535948 63.379747,130.039029 54.9673203,119.804244 L72.7289228,119.804244 C73.5972629,123.745447 77.4522736,126.870889 81.4345532,126.870889 L81.4345532,126.870889 Z M79.618268,118.170945 C79.618268,118.346097 79.6240262,118.520403 79.635378,118.693694 C79.4198584,118.736001 79.1906838,118.75817 78.9490058,118.75817 L73.8171727,118.75817 C73.8003918,118.564233 73.7908497,118.368097 73.7908497,118.170945 C73.7908497,114.353304 75.9524614,112.48366 78.546922,112.48366 C79.7395184,112.48366 80.566225,112.835657 81.1111111,113.360436 C80.1800995,114.511195 79.618268,116.132241 79.618268,118.170945 L79.618268,118.170945 Z M80.0653595,117.712418 L80.0653595,117.659312 C80.0653595,116.349305 80.387056,115.322761 80.9212218,114.575163 C81.0531649,114.904205 81.1111111,115.256241 81.1111111,115.59678 C81.1111111,116.469342 80.7420783,117.253895 80.0653595,117.712418 L80.0653595,117.712418 Z M83.2026144,125.763819 C82.5582497,125.968543 81.8959817,126.078431 81.2373861,126.078431 C77.9586393,126.078431 74.6384242,123.373203 73.7908497,119.87718 L78.382197,119.87718 C78.6561017,119.87718 78.9173059,119.851757 79.1653503,119.803922 C79.6547064,122.2877 81.2144332,124.430607 83.2026144,125.763819 L83.2026144,125.763819 Z M89.4771242,118.253952 C89.4771242,119.576264 89.0824479,120.824395 88.4314395,121.895425 C87.7802972,120.824395 87.3856209,119.576264 87.3856209,118.253952 C87.3856209,116.637476 87.7851185,115.413871 88.4314395,114.575163 C89.0778944,115.413871 89.4771242,116.637476 89.4771242,118.253952 L89.4771242,118.253952 Z M90.5228758,124.720869 C89.8470132,124.922868 89.1427257,125.03268 88.4259312,125.03268 C87.726679,125.03268 87.0235284,124.921343 86.3398693,124.713921 C87.1060418,124.223497 87.8124409,123.624957 88.4259312,122.941176 C89.0426701,123.628176 89.7526426,124.229259 90.5228758,124.720869 L90.5228758,124.720869 Z M92.0575702,117.579208 C92.0575702,119.239514 92.6698036,120.789891 93.6601307,122.088417 C92.9262946,122.873689 92.0266225,123.524772 91.0459861,123.986928 C90.0650371,123.524772 89.165365,122.873689 88.4313725,122.088417 C89.4209181,120.790498 90.029244,119.238453 90.029244,117.579208 C90.029244,115.704654 89.4660893,114.224935 88.5398459,113.189631 C89.2605527,112.717771 90.124588,112.48366 91.0459861,112.48366 C91.9653522,112.48366 92.8278246,112.717013 93.5516574,113.189631 C92.6200997,114.222205 92.0575702,115.703441 92.0575702,117.579208 L92.0575702,117.579208 Z M95.751634,118.253952 C95.751634,119.576264 95.3569071,120.824395 94.7058154,121.895425 C94.0545897,120.824395 93.6601307,119.576264 93.6601307,118.253952 C93.6601307,116.637476 94.0595456,115.413871 94.7059493,114.575163 C95.3527549,115.413871 95.751634,116.637476 95.751634,118.253952 L95.751634,118.253952 Z M96.7973856,124.713921 C96.1132392,124.921343 95.4104135,125.03268 94.7109988,125.03268 C93.9940419,125.03268 93.2900793,124.922868 92.6143791,124.720869 C93.3844499,124.229259 94.0947473,123.628176 94.7109988,122.941176 C95.3249764,123.624957 96.0312131,124.223497 96.7973856,124.713921 L96.7973856,124.713921 Z M95.751634,122.088417 C96.7663586,120.790649 97.3898545,119.238453 97.3898545,117.579359 C97.3898545,115.705109 96.813197,114.224935 95.8629553,113.189631 C96.6025847,112.717771 97.488985,112.48366 98.4347353,112.48366 C100.964489,112.48366 103.071895,114.159129 103.071895,117.579359 C103.071895,120.348053 101.030416,122.794995 98.4344145,123.986928 C97.4278706,123.524772 96.5047374,122.873689 95.751634,122.088417 L95.751634,122.088417 Z M81.7797125,113.367792 C82.5799506,112.776753 83.5810232,112.48366 84.6568172,112.48366 C85.6184081,112.48366 86.5199607,112.717468 87.2723966,113.189328 C86.3060745,114.224631 85.7193963,115.704806 85.7193963,117.579359 C85.7193963,119.238149 86.3538767,120.790346 87.3856209,122.088114 C86.6194806,122.873386 85.6805673,123.524468 84.6568172,123.986928 C82.3978781,122.967091 80.5510493,121.028247 80.0653595,118.754917 C81.4977938,118.119603 82.3006422,116.763763 82.3006422,115.294505 C82.3006422,114.644484 82.1379843,113.96808 81.7797125,113.367792 L81.7797125,113.367792 Z M130.852239,106.920962 C130.421947,107.27169 130.011057,107.645663 129.622073,108.040526 L127.706257,106.279977 L126.989781,107.065462 L128.903094,108.82397 C128.413031,109.396946 127.964745,110.007146 127.5634,110.649545 L126.308825,109.927357 L125.781052,110.851688 L127.031715,111.57152 C126.679032,112.235437 126.374229,112.929196 126.122,113.647929 L123.647273,112.873752 L123.331517,113.890439 L125.805305,114.664301 C125.660414,115.194869 125.543531,115.736903 125.456377,116.289146 L114.692661,114.961312 L114.563104,116.018051 L125.326976,117.346041 C125.304132,117.610069 125.288015,117.876452 125.278784,118.144406 L112.213866,118.144092 C109.87339,118.144092 108.93285,119.339205 108.405233,120.43144 C107.145338,123.038731 104.301343,125.03268 101.255657,125.03268 C100.582055,125.03268 99.9048533,124.929488 99.2461153,124.737239 C101.715053,123.216372 103.538396,120.574056 103.538396,117.59876 C103.538396,113.531229 101.068832,111.255347 97.9539874,111.255347 C96.7122429,111.255347 95.5731425,111.616912 94.6520046,112.309415 C93.7502689,111.631205 92.6388637,111.270583 91.4273178,111.255661 L91.3504911,111.255347 C90.1085901,111.255347 88.9696462,111.616912 88.0485083,112.309415 C87.1275268,111.616912 85.9884264,111.255347 84.7468383,111.255347 C83.4584657,111.255347 82.2804044,111.64487 81.3420548,112.389362 C80.6437299,111.711466 79.6005456,111.255347 78.1431855,111.255347 C75.0283406,111.255347 72.5587772,113.531229 72.5587772,117.599074 C72.5587772,117.781898 72.5659749,117.963466 72.5802136,118.144092 L54.7196517,118.144249 C54.7108894,117.878808 54.6949295,117.615095 54.6722413,117.353737 L65.4358011,116.018051 L65.3056182,114.96147 L54.5434667,116.296528 C54.4566259,115.743814 54.3397429,115.201309 54.1948519,114.670427 L56.668327,113.890439 L56.3502238,112.87438 L53.8784699,113.654055 C53.6267099,112.935636 53.3228455,112.242662 52.9711013,111.579217 L54.2205129,110.850118 L53.6871073,109.929398 L52.4400427,110.657398 C52.0394799,110.015628 51.5930715,109.406527 51.1042598,108.834336 L53.0108447,107.064363 L52.2904576,106.28249 L50.3860632,108.050421 C49.998331,107.656029 49.5891624,107.282998 49.160435,106.932742 L55.6867917,98.2363278 L54.8391946,97.5951856 L48.3144027,106.290186 C48.0959708,106.13579 47.8734707,105.98752 47.6470588,105.845062 L54.1890625,94.4717769 C55.3596133,92.4369907 54.798669,91.0219858 54.1200593,90.0170794 C52.5005965,87.6183719 52.2022086,84.1489475 53.7252859,81.5011338 C54.0618525,80.9155929 54.4897975,80.3784281 54.9850245,79.9018908 C55.0623206,82.8087058 56.4303364,85.7148926 58.9973804,87.202619 C62.5068423,89.2364628 65.7049292,88.2276298 67.2625864,85.519817 C67.8833022,84.4403044 68.1408515,83.2692225 68.003784,82.1224858 C69.0400837,81.6772045 69.9069265,80.8918759 70.5256082,79.8459754 L70.5640998,79.7792225 C71.1852851,78.6997099 71.4428344,77.528628 71.3057668,76.3815771 C72.3638158,75.927029 73.2452104,75.1181406 73.8660827,74.038628 C74.510269,72.9184353 74.7635936,71.6996055 74.5903815,70.5117175 C75.5241935,70.2437634 76.4393855,69.5649254 77.1680656,68.2978764 C78.7250968,65.5900636 77.9965733,62.3051914 74.4871114,60.2715046 C74.3293899,60.1800924 74.1688518,60.0955911 74.0061232,60.0175294 L82.9252165,44.5107463 C83.1607036,44.636713 83.3994766,44.7560829 83.6421613,44.8697985 L79.4030806,54.8860357 L80.3800783,55.302574 L84.6193154,45.2850802 C85.1330059,45.4818836 85.6599963,45.6516716 86.1987219,45.7917742 L85.6235388,48.3265006 L86.6579609,48.5630415 L87.2342393,46.023132 C87.9652663,46.1591509 88.7142874,46.2422387 89.4781731,46.2683116 L89.4695673,47.7161433 L90.5307457,47.7222688 L90.539195,46.2675262 C91.3029243,46.2408251 92.0525713,46.1564808 92.7834418,46.0196766 L93.3401615,48.5589578 L94.3766177,48.329956 L93.8188027,45.7872193 C94.3578413,45.6458602 94.8851446,45.4754439 95.3989916,45.2775411 L99.6191394,55.3016316 L100.596293,54.886821 L96.3755198,44.8610028 C96.6122586,44.7496433 96.8458681,44.6327864 97.0758787,44.5098039 L103.613814,55.8780627 C104.783896,57.913006 106.28538,58.1325839 107.491606,58.0452553 C110.370964,57.8368291 113.513348,59.3119902 115.036268,61.959961 C115.372835,62.5453449 115.622248,63.1857018 115.786072,63.8546446 C113.239525,62.4683827 110.048323,62.2045123 107.481123,63.6922387 C103.971817,65.7259254 103.243137,69.0107976 104.800481,71.7187675 C105.42151,72.798123 106.302748,73.6074826 107.360797,74.0618737 C107.226859,75.1853647 107.471108,76.3314732 108.064129,77.3921379 L108.102151,77.4592049 C108.723337,78.5387175 109.604731,79.3480771 110.66278,79.8026253 C110.525713,80.9495191 110.783262,82.120601 111.404134,83.1997994 C112.04832,84.319835 112.97337,85.149299 114.084932,85.5926955 C113.849132,86.5385452 113.977281,87.6733449 114.706117,88.940551 C116.263618,91.6485209 119.461705,92.6573539 122.971323,90.6231959 C123.128888,90.5319408 123.281916,90.4347171 123.430875,90.331839 L132.352941,105.844276 C132.130754,105.983751 131.912948,106.128722 131.698897,106.279348 L125.158928,97.5945573 L124.312895,98.2366419 L130.852239,106.920962 Z M109.312801,23.2281365 C114.881919,31.2100339 127.179923,38.4177262 136.852209,39.3685454 C137.879089,39.4691563 138.880635,39.6060555 139.855138,39.7778416 C139.957872,40.487257 140.041801,41.2145831 140.106457,41.960287 C140.946363,51.6631593 147.999616,64.0667943 155.901167,69.7357325 C156.760812,70.3523244 157.578959,70.9886957 158.354209,71.6425105 C158.097917,72.2821525 157.817844,72.9277128 157.514303,73.5785683 C153.400566,82.4024197 153.319902,96.6784131 157.334479,105.546963 C157.766865,106.502299 158.154335,107.453274 158.496732,108.398175 C157.931458,108.845472 157.340695,109.285139 156.724288,109.716862 C155.589233,110.51256 154.468322,111.445936 153.384868,112.48366 C150.934313,107.543917 145.846851,104.149469 139.968596,104.149469 C137.852823,104.149469 135.839162,104.589291 134.014495,105.382653 C135.644106,100.63136 136.543539,95.5372743 136.543539,90.2323106 C136.543539,67.5032931 120.35623,48.5697653 98.8888889,44.4054731 C102.557805,41.6707583 104.934379,37.2930964 104.934379,32.3586484 C104.934379,29.1777261 103.946665,26.2282397 102.262035,23.8009642 C103.273062,23.4724994 104.229224,23.1008934 105.142646,22.6858347 C106.112485,22.2449225 107.07844,21.8508893 108.037244,21.503268 C108.469631,22.0541357 108.895024,22.6289881 109.312801,23.2281365 L109.312801,23.2281365 Z M139.673203,38.2352941 C139.205394,38.1710606 138.731111,38.1154326 138.250818,38.06841 C128.257283,37.091385 116.302343,30.8378407 110.427066,22.4593668 C110.073936,21.9559484 109.713716,21.4682043 109.346405,20.9964416 C123.937104,16.2225724 136.808086,22.3104619 139.673203,38.2352941 L139.673203,38.2352941 Z M159.836005,69.6078431 C159.436699,69.3023473 159.026525,69.0016442 158.605324,68.7057338 C150.259757,62.8407091 142.884337,51.3977577 141.978614,41.1498885 C141.922695,40.5160156 141.851498,39.892965 141.764706,39.2810458 C157.211614,42.4146968 165.530246,54.2266859 159.836005,69.6078431 L159.836005,69.6078431 Z M160.195496,70.921495 C166.038452,55.0812803 157.975207,41.1817879 141.203427,38.3426295 C138.316269,21.7927035 124.451504,13.822796 108.57253,19.6757652 C97.7764534,6.72380552 81.7240779,6.76508418 70.8881303,19.8590174 C55.0829573,14.0477959 41.2167845,22.0822795 38.3554263,38.7968511 C21.7884754,41.6860442 13.8188894,55.5747479 19.7045311,71.4723461 C6.72631745,82.2654634 6.75586919,98.3272381 19.849788,109.171485 C14.0832914,124.944465 22.1080719,138.77344 38.7847864,141.641994 C41.650679,158.273695 55.5826787,166.273311 71.5243525,160.344508 C82.3019784,173.25472 98.3079155,173.228139 109.137452,160.20613 C124.945909,166.004687 138.809267,157.951284 141.652644,141.215917 C158.274477,138.356588 166.272989,124.445525 160.372494,108.519939 C173.258299,97.7397991 173.218584,81.7435386 160.195496,70.921495 L160.195496,70.921495 Z" id="Fill-1-Copy-2" fill="#FFFFFF"></path>
    </g>
</svg>