<?xml version="1.0" encoding="UTF-8"?>
<svg viewBox="0 0 120 120" version="1.1" xmlns="http://www.w3.org/2000/svg" xmlns:xlink="http://www.w3.org/1999/xlink">
    <title>marco historico portugal / logo grande copy</title>
    <g id="marco-historico-portugal-/-logo-grande-copy" stroke="none" stroke-width="1" fill="none" fill-rule="evenodd">
        <path d="M97.4666,47.4666 L72.5334,47.4666 L72.5334,22.5332 L85,10 L35,10 L47.4666,22.5334 L47.4666,47.4666 L22.5332,47.4666 L10,35 L10,85 L22.5334,72.5334 L47.4668,72.5332 L47.4668,97.4666 L35,110 L85,110 L72.5334,97.4666 L72.5334,72.5332 L97.4666,72.5332 L110,85 L110,35 L97.4666,47.4666 Z M97.5,66.327681 L66.327681,66.327681 L66.327681,97.5 L53.672319,97.5 L53.672319,66.327681 L22.5,66.327681 L22.5,53.672319 L53.672319,53.672319 L53.672319,22.5 L66.327681,22.5 L66.327681,53.672319 L97.5,53.672319 L97.5,66.327681 Z" id="Shape-Copy-6" fill="#F0F0F0" fill-rule="nonzero"></path>
    </g>
</svg>