<svg viewBox="0 0 120 120" xmlns="http://www.w3.org/2000/svg"><path d="m10 10h25.128787l-.9567454 4.3583078c-.3140348 1.4408035-.6012274 2.8755611-.7956924 4.3220326-2.3606103 17.5556597 1.8680657 33.2915161 13.0719547 47.0382854 1.5977668 1.9618808 3.2766233 3.8587687 4.9449681 5.7617025 8.4391176 9.6252216 10.5836497 20.4366266 6.8227192 32.4098207l-.8937625 2.623574c-1.2407125 3.467913-1.6388628 3.486277-6.1677207 3.486277h-41.154508zm57.3119665.007019 42.6880335-.0055077v99.9984887h-25.0050918l1.0179067-4.949786c.3355469-1.648669.6374827-3.299795.8162407-4.964522 1.8461647-17.2094848-2.4350147-32.6386262-13.5074964-46.0456116l-3.5750161-4.2694636c-1.7811148-2.1418895-3.5170204-4.3172941-5.0474294-6.6287183-5.9891446-9.0468058-5.6691827-18.7721976-2.2998195-28.6623241l.4630991-1.3382221c.9894425-2.7611243 1.482481-3.0941671 4.4495732-3.1343333z" fill="#f0f0f0"/></svg>