<?xml version="1.0" encoding="UTF-8"?>
<svg viewBox="0 0 120 120" version="1.1" xmlns="http://www.w3.org/2000/svg" xmlns:xlink="http://www.w3.org/1999/xlink">
    <title>marco historico fiamma / logo grande</title>
    <g id="marco-historico-fiamma-/-logo-grande" stroke="none" stroke-width="1" fill="none" fill-rule="evenodd">
        <path d="M10,10 L35.128787,10 L34.1720416,14.3583078 C33.8580068,15.7991113 33.5708142,17.2338689 33.3763492,18.6803404 C31.0157389,36.2360001 35.2444149,51.9718565 46.4483039,65.7186258 C48.0460707,67.6805066 49.7249272,69.5773945 51.393272,71.4803283 C59.8323896,81.1055499 61.9769217,91.9169549 58.2159912,103.890149 L57.3222287,106.513723 C56.0815162,109.981636 55.6833659,110 51.154508,110 L10,110 L10,10 Z M67.3119665,10.007019 L110,10.0015113 L110,110 L84.9949082,110 L86.0128149,105.050214 C86.3483618,103.401545 86.6502976,101.750419 86.8290556,100.085692 C88.6752203,82.8762072 84.3940409,67.4470658 73.3215592,54.0400804 L69.7465431,49.7706168 C67.9654283,47.6287273 66.2295227,45.4533227 64.6991137,43.1418985 C58.7099691,34.0950927 59.029931,24.3697009 62.3992942,14.4795744 L62.8623933,13.1413523 C63.8518358,10.380228 64.3448743,10.0471852 67.3119665,10.007019 L67.3119665,10.007019 Z" id="Shape" fill="#F0F0F0" fill-rule="nonzero"></path>
    </g>
</svg>