<svg height="180" viewBox="0 0 540 180" width="540" xmlns="http://www.w3.org/2000/svg"><g fill="none" transform="translate(31 37)"><g fill="#fff"><path d="m121.260509 61.4875899v2.4827832 39.8998019c0 2.12534.001381 2.1281 2.191317 2.1281 4.197606.001725 8.393832.00414 12.590058-.00276.589598-.00138 1.179196-.049684 1.969009-.085566 0-14.838735 0-29.538081 0-44.3022912h14.081313v44.2829702h16.907794c0-20.3866999 0-40.6643724 0-61.1131762-.747008 0-1.3946 0-2.043572 0-9.055231.0013801-18.110463-.0345023-27.165695.0386425-1.506443.0124209-1.851641-.4609503-1.836453-1.8769233.067659-6.4022407.01657-12.8031013.03452-19.2053421.008285-3.3881226 2.053237-6.0089148 5.396134-6.5098878 2.272783-.3422625 4.618748-.1794117 6.926051-.3436425 1.351795-.0952263 1.83093.3215611 1.799171 1.734774-.086989 3.9705209-.034519 7.9465622-.028996 11.9198433.001381.5906788.056612 1.1799775.088371 1.8148192h16.808376c0-5.6059284 0-11.0876486 0-16.7280793-5.2332 0-10.342129 0-15.586376 0-.037281-.7990725-.091132-1.446335-.093894-2.0963577-.009665-4.02986483-.008284-8.05696947-.006904-12.08683429 0-.74800916.023474-1.47945722-1.065971-1.43667441-3.797177.15595025-7.671678-.12696835-11.380485.52581455-11.029763 1.93488715-19.806075 11.10282965-19.411169 23.05165485.215404 6.5071276.011047 13.0252959.060755 19.5365638.009666 1.2738237-.33139 1.7251134-1.676281 1.6961315-4.02915-.0869457-8.061062-.0345023-12.091592-.0289819-.578552.0013801-1.158485.0552036-1.72599.0828054v16.6204322c5.053697.0013801 10.04664.0013801 15.260509.0013801z"/><path d="m323 105.908089c0-.74005 0-1.388805 0-2.03756 0-11.5074427 0-23.0148854 0-34.5223281-.001381-13.9184865-10.376235-24.3276109-24.287185-24.3400604-17.51335-.0138327-35.025318-.0055331-52.538668-.0069163-.703075 0-1.40477 0-2.174147 0v60.8695168h17.737118c0-14.8729445 0-29.614478 0-44.3546282 2.323326 0 4.486423-.1756756 6.609463.0414982 3.35653.3444348 5.90915 3.2465402 6.112199 6.6175749.033151.5505424.015194 1.1052346.015194 1.6585436 0 11.34145 0 22.6829001.001381 34.0257335 0 2.138539.004144 2.139922 2.193486 2.139922 4.584494.001383 9.171751 0 13.756246 0 .592573.001383 1.183764 0 1.998724 0 0-.845179-.001382-1.492551 0-2.141305.038676-13.5533029.103596-27.1079887.081496-40.6626746-.002763-1.5077668.46135-1.9587136 1.881314-1.8203864 1.09398.1078953 2.208679.0027666 3.310947.0497978 4.759918.2061076 7.526638 3.0943803 7.528019 7.8403877.002763 11.5074428.001381 23.0148855.001381 34.5223285v2.119173c6.045898.001383 11.822444.001383 17.773032.001383z"/><path d="m354.664784 61.4550216c1.879144 0 3.531852-.0512712 5.180418.0110857 4.839383.1815278 7.615988 3.0859723 7.617368 7.9234799.004143 11.5263215.001381 23.0554144.001381 34.5817358v2.028677h18.014103c0-14.872807 0-29.6416858 0-44.5768497 1.535348 0 2.902249-.0055428 4.269151.0013857 5.859726.0304856 8.741265 2.9252302 8.745407 8.8131047.008284 11.1937515.004142 22.3888887.004142 33.5826403v2.167248h17.503246c0-.828654 0-1.536751 0-2.244848 0-11.5817496-.006908-23.1662708 0-34.7480206.008279-13.428899-10.429877-23.974139-23.792373-23.9866104-17.780763-.0152428-35.561527-.0041571-53.34229-.0041571-.592324 0-1.181886 0-1.865337 0v60.9656211h17.666165c-.001381-14.865878-.001381-29.5931856-.001381-44.5144924z"/><path d="m.0013815 106h2.05567163 35.80432917c4.6307871 0 4.5672381-.022249 6.0896509-4.392739 4.0063493-11.5053883 2.1827696-21.8621846-5.8699925-31.045359-1.5348462-1.750699-3.0793629-3.4958359-4.5492787-5.3007663-10.3073696-12.6470277-14.1976729-27.1240156-12.0259553-43.2752225.3578084-2.6615076 1.0568473-5.2799082 1.6122102-7.9859132-7.7225836 0-15.37194778 0-23.1180169 0 .0013815 30.6754735.0013815 61.2313599.0013815 92z"/><path d="m92 14c-.8485448 0-1.6031139 0-2.357683 0-11.8796268 0-23.7592536.0013904-35.6388804.0013904-4.3767773 0-4.3905973-.0055617-5.7960859 4.1198181-3.0998142 9.0989163-3.3941791 18.0462768 2.1158339 26.3693381 2.3452451 3.5441837 5.2170302 6.7407621 7.9326498 10.0263274 10.1880653 12.3344265 14.1253683 26.5292366 12.4268967 42.3619629-.3289147 3.0617075-1.1125057 6.0747501-1.6874155 9.1211631h23.0046844c0-30.6615685 0-61.207732 0-92z"/></g><path d="m121.26189 61.4862098c-5.213869 0-10.208193 0-15.26189 0 0-5.615589 0-11.0117436 0-16.6204322.568886-.0276018 1.147438-.0814253 1.72599-.0828054 4.03053-.0069005 8.062442-.0593439 12.091592.0289819 1.344891.0289819 1.685947-.4223078 1.676281-1.6961315-.049708-6.512648.154649-13.0294362-.060755-19.5365638-.396287-11.9488252 8.381406-21.1167677 19.411169-23.05165485 3.710188-.6527829 7.583308-.3698643 11.380485-.52581455 1.089445-.04278281 1.065971.68866525 1.065971 1.43667441-.00138 4.02986482-.002761 8.05696946.006904 12.08683429.001381.6500227.056613 1.2959051.093894 2.0963577h15.586376v16.7280793c-5.56459 0-11.107088 0-16.808376 0-.031759-.6348417-.08699-1.2255205-.088371-1.8148192-.006904-3.9732811-.059374-7.9493224.028996-11.9198433.031759-1.4118328-.447376-1.8300003-1.799171-1.734774-2.305922.1642308-4.651887.00138-6.926051.3436425-3.342897.500973-5.386468 3.1217652-5.396134 6.5098878-.01795 6.4022408.031758 12.8031014-.03452 19.2053421-.015188 1.415973.33001 1.8893442 1.836453 1.8769233 9.055232-.0745249 18.110464-.0372624 27.165695-.0386425h2.043572v61.1131762c-5.600491 0-11.142989 0-16.907794 0 0-14.7655905 0-29.4690767 0-44.2829702-4.772016 0-9.321724 0-14.081313 0v44.3022912c-.789813.034502-1.379411.084186-1.969009.085566-4.196226.0069-8.392452.004485-12.590058.00276-2.189936 0-2.191317-.00276-2.191317-2.1281 0-13.299934 0-26.599868 0-39.8998019.001381-.7590499.001381-1.5153396.001381-2.4841633z" fill="#000"/><path d="m323 105.906706c-5.950588 0-11.725753 0-17.773032 0 0-.731751 0-1.424771 0-2.119173 0-11.507443.001382-23.0148857-.001381-34.5223285-.001381-4.7460074-2.768101-7.6342801-7.528019-7.8403877-1.103649-.0470312-2.216967.0580975-3.310947-.0497978-1.419964-.1383272-1.884077.3140029-1.881314 1.8203864.023481 13.5546859-.041439 27.1093717-.081496 40.6626746-.001382.648754 0 1.296126 0 2.141305-.81496 0-1.407533.001383-1.998724 0-4.584495 0-9.171752.001383-13.756246 0-2.189342 0-2.193486-.001383-2.193486-2.139922-.001381-11.3414502-.001381-22.6829002-.001381-34.0257335 0-.553309.019338-1.1080012-.015194-1.6585436-.201668-3.372418-2.755669-6.2731401-6.112199-6.6175749-2.12304-.2171738-4.287518-.0414982-6.609463-.0414982v44.3546282c-5.994789 0-11.811393 0-17.737118 0 0-20.2455743 0-40.4593332 0-60.8695168h2.174147c17.51335.0013832 35.025318-.0069164 52.538668.0069163 13.91095.0124495 24.285804 10.4215739 24.287185 24.3400604v34.5223281z" fill="#000"/><path d="m354.666165 61.4536359v44.5158781c-5.927382 0-11.738784 0-17.666165 0 0-20.2853831 0-40.5278097 0-60.9656211h1.865337c17.780763 0 35.561527-.0110857 53.34229.0041571 13.363877.0124714 23.800652 10.5563257 23.792373 23.9866104-.006908 11.5817498 0 23.166271 0 34.7480206v2.244848c-5.8763 0-11.580007 0-17.503246 0 0-.760754 0-1.464694 0-2.167248 0-11.1937516.004142-22.3888888-.004142-33.5826403-.004142-5.8878745-2.885681-8.7826191-8.745407-8.8131047-1.366902-.0069285-2.732422-.0013857-4.269151-.0013857v44.5768497c-6.044741 0-11.916894 0-18.014103 0 0-.730268 0-1.380165 0-2.028677 0-11.5263214.002762-23.0554143-.001381-34.5817358-.00138-4.8375076-2.777985-7.7419521-7.617368-7.9234799-1.648566-.0637426-3.299893-.0124714-5.179037-.0124714z" fill="#000"/><path d="m0 106c0-30.7686401 0-61.3259171 0-92h23.118484c-.5553741 2.706005-1.2544271 5.3244056-1.6122427 7.9859132-2.1717615 16.1512069 1.7186204 30.6281948 12.0261983 43.2752225 1.4699455 1.8049304 3.0144934 3.5500673 4.5493707 5.3007663 8.0515432 9.1831744 9.8751597 19.5399707 5.870111 31.045359-1.5224435 4.371881-1.4602747 4.392739-6.0897739 4.392739-11.9350176 0-23.8700351 0-35.8050527 0-.64793648 0-1.29449143 0-2.0570947 0z" fill="#ff5e50"/><path d="m92 14.0013904v91.9986096c-7.7239686 0-15.3733095 0-23.0046844 0 .5762918-3.045022 1.3585008-6.0580652 1.6874155-9.1211631 1.6984716-15.8327263-2.2402134-30.0275364-12.4268967-42.3619629-2.7142376-3.2855653-5.5860227-6.4821437-7.9326498-10.0263274-5.510013-8.3230613-5.2156481-17.2704218-2.1158339-26.3693381 1.4054886-4.1253798 1.4193086-4.1198181 5.7960859-4.1198181 11.8796268 0 23.7592536-.0013904 35.6388804-.0013904.7545691.0013904 1.5091382.0013904 2.357683.0013904z" fill="#ff5e50"/><path d="m477 45.201872v60.792996c-.961274 0-1.786414 0-2.611553 0-7.385973 0-14.773335.012418-22.159308-.00138-12.454887-.024836-23.220599-10.6438449-23.229039-23.0138308-.004062-5.5123362.115403-11.0301916.361278-16.5356287.494528-11.092283 10.547619-20.9910313 21.87037-21.3194258 8.268066-.2400867 16.548635-.0593318 24.823648-.0593318.270879-.0013798.541758.0758895.944604.1366011zm-17.734948 45.1059497c.180587-.5229475.279214-.6761063.279214-.8320247.01667-9.1067381.018059-18.2120964.041677-27.3188345.001386-.9506882-.43341-1.2445875-1.330784-1.2100923-1.275216.0496731-2.558766-.042774-3.832593.0372549-4.450754.2801012-7.545722 3.197017-7.594342 7.245376-.059732 4.856927-.050008 9.7138539.001389 14.5707809.036118 3.4467624 2.272608 6.3733369 5.669016 7.0439239 2.198983.4346398 4.50354.3283945 6.766423.4636158z" fill="#000"/><path d="m229.858381 106c-.750958 0-1.299255 0-1.848939 0-7.60258-.002761-15.203772-.002761-22.806353-.006902-11.446207-.005521-21.847181-8.9266182-22.781367-20.2453551-.569117-6.8920066-.564953-13.9096235.02915-20.7988693.942515-10.9142992 11.24077-19.8271144 22.233071-19.9057934 7.878811-.0565937 15.760397.0151837 23.639208-.0429375 1.345061-.0095152 1.679591.4556573 1.676832 1.7172824-.030555 19.2032034-.020838 38.4050266-.025003 57.6068499.002777.484497-.063852.970374-.116599 1.675725zm-17.260925-44.949189c-1.994688 0-3.88527-.1822041-5.72588.0358887-4.780589.5686975-7.051508 3.217558-7.055672 7.9659062-.002776 4.6351608-.027762 9.2717019.023598 13.9054824.037478 3.4246081 2.362532 6.339873 5.76891 6.9140919 2.25565.3795918 4.590421.2926307 6.989044.4196215 0-9.8762882 0-19.4571849 0-29.2409907z" fill="#000"/></g></svg>