<svg height="233" viewBox="0 0 352 233" width="352" xmlns="http://www.w3.org/2000/svg" xmlns:xlink="http://www.w3.org/1999/xlink"><mask id="a" fill="#fff"><path d="m0 0h352v237h-352z" fill="#fff" fill-rule="evenodd"/></mask><g fill="none" fill-rule="evenodd" mask="url(#a)" opacity=".4" stroke="#fe6153" transform="translate(0 -4)"><g transform="translate(0 5)"><path d="m0 0c28.799 0 28.799 16 57.597 16 28.8 0 28.8-16 57.6-16 28.799 0 28.799 16 57.598 16s28.799-16 57.599-16c28.799 0 28.799 16 57.598 16s28.799-16 57.598-16c28.8 0 28.8 16 57.599 16s28.799-16 57.599-16c28.799 0 28.799 16 57.599 16s28.8-16 57.601-16c28.797 0 28.797 16 57.595 16 28.799 0 28.799-16 57.598-16 28.798 0 28.798 16 57.596 16s28.798-16 57.597-16 28.799 16 57.598 16c28.801 0 28.801-16 57.602-16s28.801 16 57.603 16c28.8 0 28.8-16 57.601-16s28.801 16 57.603 16c28.801 0 28.801-16 57.602-16 28.8 0 28.8 16 57.601 16s28.801-16 57.602-16c28.803 0 28.803 16 57.604 16 28.804 0 28.804-16 57.606-16 28.804 0 28.804 16 57.607 16"/><path d="m0 27c28.799 0 28.799 16 57.597 16 28.8 0 28.8-16 57.6-16 28.799 0 28.799 16 57.598 16s28.799-16 57.599-16c28.799 0 28.799 16 57.598 16s28.799-16 57.598-16c28.8 0 28.8 16 57.599 16s28.799-16 57.599-16c28.799 0 28.799 16 57.599 16s28.8-16 57.601-16c28.797 0 28.797 16 57.595 16 28.799 0 28.799-16 57.598-16 28.798 0 28.798 16 57.596 16s28.798-16 57.597-16 28.799 16 57.598 16c28.801 0 28.801-16 57.602-16s28.801 16 57.603 16c28.8 0 28.8-16 57.601-16s28.801 16 57.603 16c28.801 0 28.801-16 57.602-16 28.8 0 28.8 16 57.601 16s28.801-16 57.602-16c28.803 0 28.803 16 57.604 16 28.804 0 28.804-16 57.606-16 28.804 0 28.804 16 57.607 16"/><path d="m0 54c28.799 0 28.799 16 57.597 16 28.8 0 28.8-16 57.6-16 28.799 0 28.799 16 57.598 16s28.799-16 57.599-16c28.799 0 28.799 16 57.598 16s28.799-16 57.598-16c28.8 0 28.8 16 57.599 16s28.799-16 57.599-16c28.799 0 28.799 16 57.599 16s28.8-16 57.601-16c28.797 0 28.797 16 57.595 16 28.799 0 28.799-16 57.598-16 28.798 0 28.798 16 57.596 16s28.798-16 57.597-16 28.799 16 57.598 16c28.801 0 28.801-16 57.602-16s28.801 16 57.603 16c28.8 0 28.8-16 57.601-16s28.801 16 57.603 16c28.801 0 28.801-16 57.602-16 28.8 0 28.8 16 57.601 16s28.801-16 57.602-16c28.803 0 28.803 16 57.604 16 28.804 0 28.804-16 57.606-16 28.804 0 28.804 16 57.607 16"/><path d="m0 81c28.799 0 28.799 16 57.597 16 28.8 0 28.8-16 57.6-16 28.799 0 28.799 16 57.598 16s28.799-16 57.599-16c28.799 0 28.799 16 57.598 16s28.799-16 57.598-16c28.8 0 28.8 16 57.599 16s28.799-16 57.599-16c28.799 0 28.799 16 57.599 16s28.8-16 57.601-16c28.797 0 28.797 16 57.595 16 28.799 0 28.799-16 57.598-16 28.798 0 28.798 16 57.596 16s28.798-16 57.597-16 28.799 16 57.598 16c28.801 0 28.801-16 57.602-16s28.801 16 57.603 16c28.8 0 28.8-16 57.601-16s28.801 16 57.603 16c28.801 0 28.801-16 57.602-16 28.8 0 28.8 16 57.601 16s28.801-16 57.602-16c28.803 0 28.803 16 57.604 16 28.804 0 28.804-16 57.606-16 28.804 0 28.804 16 57.607 16"/><path d="m0 108c28.799 0 28.799 16 57.597 16 28.8 0 28.8-16 57.6-16 28.799 0 28.799 16 57.598 16s28.799-16 57.599-16c28.799 0 28.799 16 57.598 16s28.799-16 57.598-16c28.8 0 28.8 16 57.599 16s28.799-16 57.599-16c28.799 0 28.799 16 57.599 16s28.8-16 57.601-16c28.797 0 28.797 16 57.595 16 28.799 0 28.799-16 57.598-16 28.798 0 28.798 16 57.596 16s28.798-16 57.597-16 28.799 16 57.598 16c28.801 0 28.801-16 57.602-16s28.801 16 57.603 16c28.8 0 28.8-16 57.601-16s28.801 16 57.603 16c28.801 0 28.801-16 57.602-16 28.8 0 28.8 16 57.601 16s28.801-16 57.602-16c28.803 0 28.803 16 57.604 16 28.804 0 28.804-16 57.606-16 28.804 0 28.804 16 57.607 16"/><path d="m0 135c28.799 0 28.799 16 57.597 16 28.8 0 28.8-16 57.6-16 28.799 0 28.799 16 57.598 16s28.799-16 57.599-16c28.799 0 28.799 16 57.598 16s28.799-16 57.598-16c28.8 0 28.8 16 57.599 16s28.799-16 57.599-16c28.799 0 28.799 16 57.599 16s28.8-16 57.601-16c28.797 0 28.797 16 57.595 16 28.799 0 28.799-16 57.598-16 28.798 0 28.798 16 57.596 16s28.798-16 57.597-16 28.799 16 57.598 16c28.801 0 28.801-16 57.602-16s28.801 16 57.603 16c28.8 0 28.8-16 57.601-16s28.801 16 57.603 16c28.801 0 28.801-16 57.602-16 28.8 0 28.8 16 57.601 16s28.801-16 57.602-16c28.803 0 28.803 16 57.604 16 28.804 0 28.804-16 57.606-16 28.804 0 28.804 16 57.607 16"/><path d="m0 162c28.799 0 28.799 16 57.597 16 28.8 0 28.8-16 57.6-16 28.799 0 28.799 16 57.598 16s28.799-16 57.599-16c28.799 0 28.799 16 57.598 16s28.799-16 57.598-16c28.8 0 28.8 16 57.599 16s28.799-16 57.599-16c28.799 0 28.799 16 57.599 16s28.8-16 57.601-16c28.797 0 28.797 16 57.595 16 28.799 0 28.799-16 57.598-16 28.798 0 28.798 16 57.596 16s28.798-16 57.597-16 28.799 16 57.598 16c28.801 0 28.801-16 57.602-16s28.801 16 57.603 16c28.8 0 28.8-16 57.601-16s28.801 16 57.603 16c28.801 0 28.801-16 57.602-16 28.8 0 28.8 16 57.601 16s28.801-16 57.602-16c28.803 0 28.803 16 57.604 16 28.804 0 28.804-16 57.606-16 28.804 0 28.804 16 57.607 16"/><path d="m0 189c28.799 0 28.799 16 57.597 16 28.8 0 28.8-16 57.6-16 28.799 0 28.799 16 57.598 16s28.799-16 57.599-16c28.799 0 28.799 16 57.598 16s28.799-16 57.598-16c28.8 0 28.8 16 57.599 16s28.799-16 57.599-16c28.799 0 28.799 16 57.599 16s28.8-16 57.601-16c28.797 0 28.797 16 57.595 16 28.799 0 28.799-16 57.598-16 28.798 0 28.798 16 57.596 16s28.798-16 57.597-16 28.799 16 57.598 16c28.801 0 28.801-16 57.602-16s28.801 16 57.603 16c28.8 0 28.8-16 57.601-16s28.801 16 57.603 16c28.801 0 28.801-16 57.602-16 28.8 0 28.8 16 57.601 16s28.801-16 57.602-16c28.803 0 28.803 16 57.604 16 28.804 0 28.804-16 57.606-16 28.804 0 28.804 16 57.607 16"/><path d="m0 216c28.799 0 28.799 16 57.597 16 28.8 0 28.8-16 57.6-16 28.799 0 28.799 16 57.598 16s28.799-16 57.599-16c28.799 0 28.799 16 57.598 16s28.799-16 57.598-16c28.8 0 28.8 16 57.599 16s28.799-16 57.599-16c28.799 0 28.799 16 57.599 16s28.8-16 57.601-16c28.797 0 28.797 16 57.595 16 28.799 0 28.799-16 57.598-16 28.798 0 28.798 16 57.596 16s28.798-16 57.597-16 28.799 16 57.598 16c28.801 0 28.801-16 57.602-16s28.801 16 57.603 16c28.8 0 28.8-16 57.601-16s28.801 16 57.603 16c28.801 0 28.801-16 57.602-16 28.8 0 28.8 16 57.601 16s28.801-16 57.602-16c28.803 0 28.803 16 57.604 16 28.804 0 28.804-16 57.606-16 28.804 0 28.804 16 57.607 16"/></g></g></svg>